<svg xmlns="http://www.w3.org/2000/svg" viewBox="0 0 900 636" font-family="'Helvetica Neue', 'Arial Narrow', Helvetica, Arial, sans-serif">
<rect width="900" height="636" fill="#FBFAF7"/>
<rect x="85.0" y="68.0" width="300" height="220" rx="8" fill="#FBFAF7" stroke="#DAD6CC" stroke-width="1.4"/><text x="101.0" y="92.0" font-size="11.5" fill="#6B6B6B" text-anchor="start" font-weight="bold" font-family="'Helvetica Neue Condensed', 'Arial Narrow', 'Helvetica Neue', Arial, sans-serif" letter-spacing="0.6" style="font-variant-numeric:tabular-nums" >KEEP EVERYTHING: 12 HISTORIES</text><circle cx="359.0" cy="88.0" r="13" fill="#9E2B25"/><text x="359.0" y="93.0" font-size="15" fill="#ffffff" text-anchor="middle" font-weight="bold" font-family="'Helvetica Neue Condensed', 'Arial Narrow', 'Helvetica Neue', Arial, sans-serif" style="font-variant-numeric:tabular-nums" >12</text>
<line x1="143" y1="136" x2="132.0" y2="154" stroke="#1A1A1A" stroke-width="1.6"/>
<line x1="143" y1="136" x2="159" y2="165" stroke="#1A1A1A" stroke-width="1.6"/>
<line x1="132.0" y1="154" x2="123" y2="165" stroke="#1A1A1A" stroke-width="1.6"/>
<line x1="132.0" y1="154" x2="141" y2="165" stroke="#1A1A1A" stroke-width="1.6"/>
<circle cx="143" cy="136" r="3.2" fill="#1A1A1A"/>
<circle cx="132.0" cy="154" r="3.2" fill="#1A1A1A"/>
<path d="M 121.4 187.6 L 121.4 198 L 124.6 198 L 124.6 187.6 Z" fill="#9E2B25" opacity="0.80"/>
<path d="M 120.0 199 L 120.0 186.8 Q 120.0 184.0 121.8 183.2 L 121.8 178.8 L 124.2 178.8 L 124.2 183.2 Q 126.0 184.0 126.0 186.8 L 126.0 199 Z" fill="none" stroke="#9E2B25" stroke-width="1.8" stroke-linejoin="round"/>
<rect x="121.2" y="177.60000000000002" width="3.6000000000000005" height="1.36" fill="#9E2B25"/>
<text x="123" y="194.8" font-size="4.800000000000001" fill="white" text-anchor="middle" font-weight="bold" style="font-variant-numeric:tabular-nums" >2</text>
<path d="M 139.4 187.6 L 139.4 198 L 142.6 198 L 142.6 187.6 Z" fill="#9E2B25" opacity="0.80"/>
<path d="M 138.0 199 L 138.0 186.8 Q 138.0 184.0 139.8 183.2 L 139.8 178.8 L 142.20000000000002 178.8 L 142.20000000000002 183.2 Q 144.0 184.0 144.0 186.8 L 144.0 199 Z" fill="none" stroke="#9E2B25" stroke-width="1.8" stroke-linejoin="round"/>
<rect x="139.20000000000002" y="177.60000000000002" width="3.6000000000000005" height="1.36" fill="#9E2B25"/>
<text x="141" y="194.8" font-size="4.800000000000001" fill="white" text-anchor="middle" font-weight="bold" style="font-variant-numeric:tabular-nums" >3</text>
<path d="M 157.4 187.6 L 157.4 198 L 160.6 198 L 160.6 187.6 Z" fill="#9E2B25" opacity="0.80"/>
<path d="M 156.0 199 L 156.0 186.8 Q 156.0 184.0 157.8 183.2 L 157.8 178.8 L 160.20000000000002 178.8 L 160.20000000000002 183.2 Q 162.0 184.0 162.0 186.8 L 162.0 199 Z" fill="none" stroke="#9E2B25" stroke-width="1.8" stroke-linejoin="round"/>
<rect x="157.20000000000002" y="177.60000000000002" width="3.6000000000000005" height="1.36" fill="#9E2B25"/>
<text x="159" y="194.8" font-size="4.800000000000001" fill="white" text-anchor="middle" font-weight="bold" style="font-variant-numeric:tabular-nums" >5</text>
<line x1="235" y1="136" x2="224.0" y2="154" stroke="#1A1A1A" stroke-width="1.6"/>
<line x1="235" y1="136" x2="251" y2="165" stroke="#1A1A1A" stroke-width="1.6"/>
<line x1="224.0" y1="154" x2="215" y2="165" stroke="#1A1A1A" stroke-width="1.6"/>
<line x1="224.0" y1="154" x2="233" y2="165" stroke="#1A1A1A" stroke-width="1.6"/>
<circle cx="235" cy="136" r="3.2" fill="#1A1A1A"/>
<circle cx="224.0" cy="154" r="3.2" fill="#1A1A1A"/>
<path d="M 213.4 187.6 L 213.4 198 L 216.6 198 L 216.6 187.6 Z" fill="#9E2B25" opacity="0.80"/>
<path d="M 212.0 199 L 212.0 186.8 Q 212.0 184.0 213.8 183.2 L 213.8 178.8 L 216.20000000000002 178.8 L 216.20000000000002 183.2 Q 218.0 184.0 218.0 186.8 L 218.0 199 Z" fill="none" stroke="#9E2B25" stroke-width="1.8" stroke-linejoin="round"/>
<rect x="213.20000000000002" y="177.60000000000002" width="3.6000000000000005" height="1.36" fill="#9E2B25"/>
<text x="215" y="194.8" font-size="4.800000000000001" fill="white" text-anchor="middle" font-weight="bold" style="font-variant-numeric:tabular-nums" >3</text>
<path d="M 231.4 187.6 L 231.4 198 L 234.6 198 L 234.6 187.6 Z" fill="#9E2B25" opacity="0.80"/>
<path d="M 230.0 199 L 230.0 186.8 Q 230.0 184.0 231.8 183.2 L 231.8 178.8 L 234.20000000000002 178.8 L 234.20000000000002 183.2 Q 236.0 184.0 236.0 186.8 L 236.0 199 Z" fill="none" stroke="#9E2B25" stroke-width="1.8" stroke-linejoin="round"/>
<rect x="231.20000000000002" y="177.60000000000002" width="3.6000000000000005" height="1.36" fill="#9E2B25"/>
<text x="233" y="194.8" font-size="4.800000000000001" fill="white" text-anchor="middle" font-weight="bold" style="font-variant-numeric:tabular-nums" >5</text>
<path d="M 249.4 187.6 L 249.4 198 L 252.6 198 L 252.6 187.6 Z" fill="#9E2B25" opacity="0.80"/>
<path d="M 248.0 199 L 248.0 186.8 Q 248.0 184.0 249.8 183.2 L 249.8 178.8 L 252.20000000000002 178.8 L 252.20000000000002 183.2 Q 254.0 184.0 254.0 186.8 L 254.0 199 Z" fill="none" stroke="#9E2B25" stroke-width="1.8" stroke-linejoin="round"/>
<rect x="249.20000000000002" y="177.60000000000002" width="3.6000000000000005" height="1.36" fill="#9E2B25"/>
<text x="251" y="194.8" font-size="4.800000000000001" fill="white" text-anchor="middle" font-weight="bold" style="font-variant-numeric:tabular-nums" >2</text>
<line x1="327" y1="136" x2="316.0" y2="154" stroke="#1A1A1A" stroke-width="1.6"/>
<line x1="327" y1="136" x2="343" y2="165" stroke="#1A1A1A" stroke-width="1.6"/>
<line x1="316.0" y1="154" x2="307" y2="165" stroke="#1A1A1A" stroke-width="1.6"/>
<line x1="316.0" y1="154" x2="325" y2="165" stroke="#1A1A1A" stroke-width="1.6"/>
<circle cx="327" cy="136" r="3.2" fill="#1A1A1A"/>
<circle cx="316.0" cy="154" r="3.2" fill="#1A1A1A"/>
<path d="M 305.4 187.6 L 305.4 198 L 308.6 198 L 308.6 187.6 Z" fill="#9E2B25" opacity="0.80"/>
<path d="M 304.0 199 L 304.0 186.8 Q 304.0 184.0 305.8 183.2 L 305.8 178.8 L 308.2 178.8 L 308.2 183.2 Q 310.0 184.0 310.0 186.8 L 310.0 199 Z" fill="none" stroke="#9E2B25" stroke-width="1.8" stroke-linejoin="round"/>
<rect x="305.2" y="177.60000000000002" width="3.6000000000000005" height="1.36" fill="#9E2B25"/>
<text x="307" y="194.8" font-size="4.800000000000001" fill="white" text-anchor="middle" font-weight="bold" style="font-variant-numeric:tabular-nums" >5</text>
<path d="M 323.4 187.6 L 323.4 198 L 326.6 198 L 326.6 187.6 Z" fill="#9E2B25" opacity="0.80"/>
<path d="M 322.0 199 L 322.0 186.8 Q 322.0 184.0 323.8 183.2 L 323.8 178.8 L 326.2 178.8 L 326.2 183.2 Q 328.0 184.0 328.0 186.8 L 328.0 199 Z" fill="none" stroke="#9E2B25" stroke-width="1.8" stroke-linejoin="round"/>
<rect x="323.2" y="177.60000000000002" width="3.6000000000000005" height="1.36" fill="#9E2B25"/>
<text x="325" y="194.8" font-size="4.800000000000001" fill="white" text-anchor="middle" font-weight="bold" style="font-variant-numeric:tabular-nums" >2</text>
<path d="M 341.4 187.6 L 341.4 198 L 344.6 198 L 344.6 187.6 Z" fill="#9E2B25" opacity="0.80"/>
<path d="M 340.0 199 L 340.0 186.8 Q 340.0 184.0 341.8 183.2 L 341.8 178.8 L 344.2 178.8 L 344.2 183.2 Q 346.0 184.0 346.0 186.8 L 346.0 199 Z" fill="none" stroke="#9E2B25" stroke-width="1.8" stroke-linejoin="round"/>
<rect x="341.2" y="177.60000000000002" width="3.6000000000000005" height="1.36" fill="#9E2B25"/>
<text x="343" y="194.8" font-size="4.800000000000001" fill="white" text-anchor="middle" font-weight="bold" style="font-variant-numeric:tabular-nums" >3</text>
<line x1="143" y1="230" x2="150.0" y2="248" stroke="#1A1A1A" stroke-width="1.6"/>
<line x1="143" y1="230" x2="123" y2="259" stroke="#1A1A1A" stroke-width="1.6"/>
<line x1="150.0" y1="248" x2="141" y2="259" stroke="#1A1A1A" stroke-width="1.6"/>
<line x1="150.0" y1="248" x2="159" y2="259" stroke="#1A1A1A" stroke-width="1.6"/>
<circle cx="143" cy="230" r="3.2" fill="#1A1A1A"/>
<circle cx="150.0" cy="248" r="3.2" fill="#1A1A1A"/>
<path d="M 121.4 281.6 L 121.4 292 L 124.6 292 L 124.6 281.6 Z" fill="#9E2B25" opacity="0.80"/>
<path d="M 120.0 293 L 120.0 280.8 Q 120.0 278.0 121.8 277.2 L 121.8 272.8 L 124.2 272.8 L 124.2 277.2 Q 126.0 278.0 126.0 280.8 L 126.0 293 Z" fill="none" stroke="#9E2B25" stroke-width="1.8" stroke-linejoin="round"/>
<rect x="121.2" y="271.6" width="3.6000000000000005" height="1.36" fill="#9E2B25"/>
<text x="123" y="288.8" font-size="4.800000000000001" fill="white" text-anchor="middle" font-weight="bold" style="font-variant-numeric:tabular-nums" >2</text>
<path d="M 139.4 281.6 L 139.4 292 L 142.6 292 L 142.6 281.6 Z" fill="#9E2B25" opacity="0.80"/>
<path d="M 138.0 293 L 138.0 280.8 Q 138.0 278.0 139.8 277.2 L 139.8 272.8 L 142.20000000000002 272.8 L 142.20000000000002 277.2 Q 144.0 278.0 144.0 280.8 L 144.0 293 Z" fill="none" stroke="#9E2B25" stroke-width="1.8" stroke-linejoin="round"/>
<rect x="139.20000000000002" y="271.6" width="3.6000000000000005" height="1.36" fill="#9E2B25"/>
<text x="141" y="288.8" font-size="4.800000000000001" fill="white" text-anchor="middle" font-weight="bold" style="font-variant-numeric:tabular-nums" >3</text>
<path d="M 157.4 281.6 L 157.4 292 L 160.6 292 L 160.6 281.6 Z" fill="#9E2B25" opacity="0.80"/>
<path d="M 156.0 293 L 156.0 280.8 Q 156.0 278.0 157.8 277.2 L 157.8 272.8 L 160.20000000000002 272.8 L 160.20000000000002 277.2 Q 162.0 278.0 162.0 280.8 L 162.0 293 Z" fill="none" stroke="#9E2B25" stroke-width="1.8" stroke-linejoin="round"/>
<rect x="157.20000000000002" y="271.6" width="3.6000000000000005" height="1.36" fill="#9E2B25"/>
<text x="159" y="288.8" font-size="4.800000000000001" fill="white" text-anchor="middle" font-weight="bold" style="font-variant-numeric:tabular-nums" >5</text>
<line x1="235" y1="230" x2="242.0" y2="248" stroke="#1A1A1A" stroke-width="1.6"/>
<line x1="235" y1="230" x2="215" y2="259" stroke="#1A1A1A" stroke-width="1.6"/>
<line x1="242.0" y1="248" x2="233" y2="259" stroke="#1A1A1A" stroke-width="1.6"/>
<line x1="242.0" y1="248" x2="251" y2="259" stroke="#1A1A1A" stroke-width="1.6"/>
<circle cx="235" cy="230" r="3.2" fill="#1A1A1A"/>
<circle cx="242.0" cy="248" r="3.2" fill="#1A1A1A"/>
<path d="M 213.4 281.6 L 213.4 292 L 216.6 292 L 216.6 281.6 Z" fill="#9E2B25" opacity="0.80"/>
<path d="M 212.0 293 L 212.0 280.8 Q 212.0 278.0 213.8 277.2 L 213.8 272.8 L 216.20000000000002 272.8 L 216.20000000000002 277.2 Q 218.0 278.0 218.0 280.8 L 218.0 293 Z" fill="none" stroke="#9E2B25" stroke-width="1.8" stroke-linejoin="round"/>
<rect x="213.20000000000002" y="271.6" width="3.6000000000000005" height="1.36" fill="#9E2B25"/>
<text x="215" y="288.8" font-size="4.800000000000001" fill="white" text-anchor="middle" font-weight="bold" style="font-variant-numeric:tabular-nums" >3</text>
<path d="M 231.4 281.6 L 231.4 292 L 234.6 292 L 234.6 281.6 Z" fill="#9E2B25" opacity="0.80"/>
<path d="M 230.0 293 L 230.0 280.8 Q 230.0 278.0 231.8 277.2 L 231.8 272.8 L 234.20000000000002 272.8 L 234.20000000000002 277.2 Q 236.0 278.0 236.0 280.8 L 236.0 293 Z" fill="none" stroke="#9E2B25" stroke-width="1.8" stroke-linejoin="round"/>
<rect x="231.20000000000002" y="271.6" width="3.6000000000000005" height="1.36" fill="#9E2B25"/>
<text x="233" y="288.8" font-size="4.800000000000001" fill="white" text-anchor="middle" font-weight="bold" style="font-variant-numeric:tabular-nums" >5</text>
<path d="M 249.4 281.6 L 249.4 292 L 252.6 292 L 252.6 281.6 Z" fill="#9E2B25" opacity="0.80"/>
<path d="M 248.0 293 L 248.0 280.8 Q 248.0 278.0 249.8 277.2 L 249.8 272.8 L 252.20000000000002 272.8 L 252.20000000000002 277.2 Q 254.0 278.0 254.0 280.8 L 254.0 293 Z" fill="none" stroke="#9E2B25" stroke-width="1.8" stroke-linejoin="round"/>
<rect x="249.20000000000002" y="271.6" width="3.6000000000000005" height="1.36" fill="#9E2B25"/>
<text x="251" y="288.8" font-size="4.800000000000001" fill="white" text-anchor="middle" font-weight="bold" style="font-variant-numeric:tabular-nums" >2</text>
<line x1="327" y1="230" x2="334.0" y2="248" stroke="#1A1A1A" stroke-width="1.6"/>
<line x1="327" y1="230" x2="307" y2="259" stroke="#1A1A1A" stroke-width="1.6"/>
<line x1="334.0" y1="248" x2="325" y2="259" stroke="#1A1A1A" stroke-width="1.6"/>
<line x1="334.0" y1="248" x2="343" y2="259" stroke="#1A1A1A" stroke-width="1.6"/>
<circle cx="327" cy="230" r="3.2" fill="#1A1A1A"/>
<circle cx="334.0" cy="248" r="3.2" fill="#1A1A1A"/>
<path d="M 305.4 281.6 L 305.4 292 L 308.6 292 L 308.6 281.6 Z" fill="#9E2B25" opacity="0.80"/>
<path d="M 304.0 293 L 304.0 280.8 Q 304.0 278.0 305.8 277.2 L 305.8 272.8 L 308.2 272.8 L 308.2 277.2 Q 310.0 278.0 310.0 280.8 L 310.0 293 Z" fill="none" stroke="#9E2B25" stroke-width="1.8" stroke-linejoin="round"/>
<rect x="305.2" y="271.6" width="3.6000000000000005" height="1.36" fill="#9E2B25"/>
<text x="307" y="288.8" font-size="4.800000000000001" fill="white" text-anchor="middle" font-weight="bold" style="font-variant-numeric:tabular-nums" >5</text>
<path d="M 323.4 281.6 L 323.4 292 L 326.6 292 L 326.6 281.6 Z" fill="#9E2B25" opacity="0.80"/>
<path d="M 322.0 293 L 322.0 280.8 Q 322.0 278.0 323.8 277.2 L 323.8 272.8 L 326.2 272.8 L 326.2 277.2 Q 328.0 278.0 328.0 280.8 L 328.0 293 Z" fill="none" stroke="#9E2B25" stroke-width="1.8" stroke-linejoin="round"/>
<rect x="323.2" y="271.6" width="3.6000000000000005" height="1.36" fill="#9E2B25"/>
<text x="325" y="288.8" font-size="4.800000000000001" fill="white" text-anchor="middle" font-weight="bold" style="font-variant-numeric:tabular-nums" >2</text>
<path d="M 341.4 281.6 L 341.4 292 L 344.6 292 L 344.6 281.6 Z" fill="#9E2B25" opacity="0.80"/>
<path d="M 340.0 293 L 340.0 280.8 Q 340.0 278.0 341.8 277.2 L 341.8 272.8 L 344.2 272.8 L 344.2 277.2 Q 346.0 278.0 346.0 280.8 L 346.0 293 Z" fill="none" stroke="#9E2B25" stroke-width="1.8" stroke-linejoin="round"/>
<rect x="341.2" y="271.6" width="3.6000000000000005" height="1.36" fill="#9E2B25"/>
<text x="343" y="288.8" font-size="4.800000000000001" fill="white" text-anchor="middle" font-weight="bold" style="font-variant-numeric:tabular-nums" >3</text>
<text x="369.0" y="274.0" font-size="11" fill="#6B6B6B" text-anchor="end" font-weight="normal" font-family="'Helvetica Neue Condensed', 'Arial Narrow', 'Helvetica Neue', Arial, sans-serif" style="font-variant-numeric:tabular-nums" >+ 6 more</text>
<rect x="515.0" y="68.0" width="300" height="220" rx="8" fill="#FBFAF7" stroke="#DAD6CC" stroke-width="1.4"/><text x="531.0" y="92.0" font-size="11.5" fill="#6B6B6B" text-anchor="start" font-weight="bold" font-family="'Helvetica Neue Condensed', 'Arial Narrow', 'Helvetica Neue', Arial, sans-serif" letter-spacing="0.6" style="font-variant-numeric:tabular-nums" >FORGET THE NESTING: 6 ORDERS</text><circle cx="789.0" cy="88.0" r="13" fill="#9E2B25"/><text x="789.0" y="93.0" font-size="15" fill="#ffffff" text-anchor="middle" font-weight="bold" font-family="'Helvetica Neue Condensed', 'Arial Narrow', 'Helvetica Neue', Arial, sans-serif" style="font-variant-numeric:tabular-nums" >6</text>
<path d="M 574.65 110.5 L 574.65 124 L 579.35 124 L 579.35 110.5 Z" fill="#9E2B25" opacity="0.80"/>
<path d="M 573.25 125 L 573.25 109.5 Q 573.25 106.0 575.5 105.0 L 575.5 99.5 L 578.5 99.5 L 578.5 105.0 Q 580.75 106.0 580.75 109.5 L 580.75 125 Z" fill="none" stroke="#9E2B25" stroke-width="1.8" stroke-linejoin="round"/>
<rect x="574.9" y="98.0" width="4.2" height="1.7" fill="#9E2B25"/>
<text x="577.0" y="119.5" font-size="6.0" fill="white" text-anchor="middle" font-weight="bold" style="font-variant-numeric:tabular-nums" >2</text>
<path d="M 596.65 110.5 L 596.65 124 L 601.35 124 L 601.35 110.5 Z" fill="#9E2B25" opacity="0.80"/>
<path d="M 595.25 125 L 595.25 109.5 Q 595.25 106.0 597.5 105.0 L 597.5 99.5 L 600.5 99.5 L 600.5 105.0 Q 602.75 106.0 602.75 109.5 L 602.75 125 Z" fill="none" stroke="#9E2B25" stroke-width="1.8" stroke-linejoin="round"/>
<rect x="596.9" y="98.0" width="4.2" height="1.7" fill="#9E2B25"/>
<text x="599.0" y="119.5" font-size="6.0" fill="white" text-anchor="middle" font-weight="bold" style="font-variant-numeric:tabular-nums" >3</text>
<path d="M 618.65 110.5 L 618.65 124 L 623.35 124 L 623.35 110.5 Z" fill="#9E2B25" opacity="0.80"/>
<path d="M 617.25 125 L 617.25 109.5 Q 617.25 106.0 619.5 105.0 L 619.5 99.5 L 622.5 99.5 L 622.5 105.0 Q 624.75 106.0 624.75 109.5 L 624.75 125 Z" fill="none" stroke="#9E2B25" stroke-width="1.8" stroke-linejoin="round"/>
<rect x="618.9" y="98.0" width="4.2" height="1.7" fill="#9E2B25"/>
<text x="621.0" y="119.5" font-size="6.0" fill="white" text-anchor="middle" font-weight="bold" style="font-variant-numeric:tabular-nums" >5</text>
<path d="M 706.65 110.5 L 706.65 124 L 711.35 124 L 711.35 110.5 Z" fill="#9E2B25" opacity="0.80"/>
<path d="M 705.25 125 L 705.25 109.5 Q 705.25 106.0 707.5 105.0 L 707.5 99.5 L 710.5 99.5 L 710.5 105.0 Q 712.75 106.0 712.75 109.5 L 712.75 125 Z" fill="none" stroke="#9E2B25" stroke-width="1.8" stroke-linejoin="round"/>
<rect x="706.9" y="98.0" width="4.2" height="1.7" fill="#9E2B25"/>
<text x="709.0" y="119.5" font-size="6.0" fill="white" text-anchor="middle" font-weight="bold" style="font-variant-numeric:tabular-nums" >2</text>
<path d="M 728.65 110.5 L 728.65 124 L 733.35 124 L 733.35 110.5 Z" fill="#9E2B25" opacity="0.80"/>
<path d="M 727.25 125 L 727.25 109.5 Q 727.25 106.0 729.5 105.0 L 729.5 99.5 L 732.5 99.5 L 732.5 105.0 Q 734.75 106.0 734.75 109.5 L 734.75 125 Z" fill="none" stroke="#9E2B25" stroke-width="1.8" stroke-linejoin="round"/>
<rect x="728.9" y="98.0" width="4.2" height="1.7" fill="#9E2B25"/>
<text x="731.0" y="119.5" font-size="6.0" fill="white" text-anchor="middle" font-weight="bold" style="font-variant-numeric:tabular-nums" >5</text>
<path d="M 750.65 110.5 L 750.65 124 L 755.35 124 L 755.35 110.5 Z" fill="#9E2B25" opacity="0.80"/>
<path d="M 749.25 125 L 749.25 109.5 Q 749.25 106.0 751.5 105.0 L 751.5 99.5 L 754.5 99.5 L 754.5 105.0 Q 756.75 106.0 756.75 109.5 L 756.75 125 Z" fill="none" stroke="#9E2B25" stroke-width="1.8" stroke-linejoin="round"/>
<rect x="750.9" y="98.0" width="4.2" height="1.7" fill="#9E2B25"/>
<text x="753.0" y="119.5" font-size="6.0" fill="white" text-anchor="middle" font-weight="bold" style="font-variant-numeric:tabular-nums" >3</text>
<path d="M 574.65 154.5 L 574.65 168 L 579.35 168 L 579.35 154.5 Z" fill="#9E2B25" opacity="0.80"/>
<path d="M 573.25 169 L 573.25 153.5 Q 573.25 150.0 575.5 149.0 L 575.5 143.5 L 578.5 143.5 L 578.5 149.0 Q 580.75 150.0 580.75 153.5 L 580.75 169 Z" fill="none" stroke="#9E2B25" stroke-width="1.8" stroke-linejoin="round"/>
<rect x="574.9" y="142.0" width="4.2" height="1.7" fill="#9E2B25"/>
<text x="577.0" y="163.5" font-size="6.0" fill="white" text-anchor="middle" font-weight="bold" style="font-variant-numeric:tabular-nums" >3</text>
<path d="M 596.65 154.5 L 596.65 168 L 601.35 168 L 601.35 154.5 Z" fill="#9E2B25" opacity="0.80"/>
<path d="M 595.25 169 L 595.25 153.5 Q 595.25 150.0 597.5 149.0 L 597.5 143.5 L 600.5 143.5 L 600.5 149.0 Q 602.75 150.0 602.75 153.5 L 602.75 169 Z" fill="none" stroke="#9E2B25" stroke-width="1.8" stroke-linejoin="round"/>
<rect x="596.9" y="142.0" width="4.2" height="1.7" fill="#9E2B25"/>
<text x="599.0" y="163.5" font-size="6.0" fill="white" text-anchor="middle" font-weight="bold" style="font-variant-numeric:tabular-nums" >2</text>
<path d="M 618.65 154.5 L 618.65 168 L 623.35 168 L 623.35 154.5 Z" fill="#9E2B25" opacity="0.80"/>
<path d="M 617.25 169 L 617.25 153.5 Q 617.25 150.0 619.5 149.0 L 619.5 143.5 L 622.5 143.5 L 622.5 149.0 Q 624.75 150.0 624.75 153.5 L 624.75 169 Z" fill="none" stroke="#9E2B25" stroke-width="1.8" stroke-linejoin="round"/>
<rect x="618.9" y="142.0" width="4.2" height="1.7" fill="#9E2B25"/>
<text x="621.0" y="163.5" font-size="6.0" fill="white" text-anchor="middle" font-weight="bold" style="font-variant-numeric:tabular-nums" >5</text>
<path d="M 706.65 154.5 L 706.65 168 L 711.35 168 L 711.35 154.5 Z" fill="#9E2B25" opacity="0.80"/>
<path d="M 705.25 169 L 705.25 153.5 Q 705.25 150.0 707.5 149.0 L 707.5 143.5 L 710.5 143.5 L 710.5 149.0 Q 712.75 150.0 712.75 153.5 L 712.75 169 Z" fill="none" stroke="#9E2B25" stroke-width="1.8" stroke-linejoin="round"/>
<rect x="706.9" y="142.0" width="4.2" height="1.7" fill="#9E2B25"/>
<text x="709.0" y="163.5" font-size="6.0" fill="white" text-anchor="middle" font-weight="bold" style="font-variant-numeric:tabular-nums" >3</text>
<path d="M 728.65 154.5 L 728.65 168 L 733.35 168 L 733.35 154.5 Z" fill="#9E2B25" opacity="0.80"/>
<path d="M 727.25 169 L 727.25 153.5 Q 727.25 150.0 729.5 149.0 L 729.5 143.5 L 732.5 143.5 L 732.5 149.0 Q 734.75 150.0 734.75 153.5 L 734.75 169 Z" fill="none" stroke="#9E2B25" stroke-width="1.8" stroke-linejoin="round"/>
<rect x="728.9" y="142.0" width="4.2" height="1.7" fill="#9E2B25"/>
<text x="731.0" y="163.5" font-size="6.0" fill="white" text-anchor="middle" font-weight="bold" style="font-variant-numeric:tabular-nums" >5</text>
<path d="M 750.65 154.5 L 750.65 168 L 755.35 168 L 755.35 154.5 Z" fill="#9E2B25" opacity="0.80"/>
<path d="M 749.25 169 L 749.25 153.5 Q 749.25 150.0 751.5 149.0 L 751.5 143.5 L 754.5 143.5 L 754.5 149.0 Q 756.75 150.0 756.75 153.5 L 756.75 169 Z" fill="none" stroke="#9E2B25" stroke-width="1.8" stroke-linejoin="round"/>
<rect x="750.9" y="142.0" width="4.2" height="1.7" fill="#9E2B25"/>
<text x="753.0" y="163.5" font-size="6.0" fill="white" text-anchor="middle" font-weight="bold" style="font-variant-numeric:tabular-nums" >2</text>
<path d="M 574.65 198.5 L 574.65 212 L 579.35 212 L 579.35 198.5 Z" fill="#9E2B25" opacity="0.80"/>
<path d="M 573.25 213 L 573.25 197.5 Q 573.25 194.0 575.5 193.0 L 575.5 187.5 L 578.5 187.5 L 578.5 193.0 Q 580.75 194.0 580.75 197.5 L 580.75 213 Z" fill="none" stroke="#9E2B25" stroke-width="1.8" stroke-linejoin="round"/>
<rect x="574.9" y="186.0" width="4.2" height="1.7" fill="#9E2B25"/>
<text x="577.0" y="207.5" font-size="6.0" fill="white" text-anchor="middle" font-weight="bold" style="font-variant-numeric:tabular-nums" >5</text>
<path d="M 596.65 198.5 L 596.65 212 L 601.35 212 L 601.35 198.5 Z" fill="#9E2B25" opacity="0.80"/>
<path d="M 595.25 213 L 595.25 197.5 Q 595.25 194.0 597.5 193.0 L 597.5 187.5 L 600.5 187.5 L 600.5 193.0 Q 602.75 194.0 602.75 197.5 L 602.75 213 Z" fill="none" stroke="#9E2B25" stroke-width="1.8" stroke-linejoin="round"/>
<rect x="596.9" y="186.0" width="4.2" height="1.7" fill="#9E2B25"/>
<text x="599.0" y="207.5" font-size="6.0" fill="white" text-anchor="middle" font-weight="bold" style="font-variant-numeric:tabular-nums" >2</text>
<path d="M 618.65 198.5 L 618.65 212 L 623.35 212 L 623.35 198.5 Z" fill="#9E2B25" opacity="0.80"/>
<path d="M 617.25 213 L 617.25 197.5 Q 617.25 194.0 619.5 193.0 L 619.5 187.5 L 622.5 187.5 L 622.5 193.0 Q 624.75 194.0 624.75 197.5 L 624.75 213 Z" fill="none" stroke="#9E2B25" stroke-width="1.8" stroke-linejoin="round"/>
<rect x="618.9" y="186.0" width="4.2" height="1.7" fill="#9E2B25"/>
<text x="621.0" y="207.5" font-size="6.0" fill="white" text-anchor="middle" font-weight="bold" style="font-variant-numeric:tabular-nums" >3</text>
<path d="M 706.65 198.5 L 706.65 212 L 711.35 212 L 711.35 198.5 Z" fill="#9E2B25" opacity="0.80"/>
<path d="M 705.25 213 L 705.25 197.5 Q 705.25 194.0 707.5 193.0 L 707.5 187.5 L 710.5 187.5 L 710.5 193.0 Q 712.75 194.0 712.75 197.5 L 712.75 213 Z" fill="none" stroke="#9E2B25" stroke-width="1.8" stroke-linejoin="round"/>
<rect x="706.9" y="186.0" width="4.2" height="1.7" fill="#9E2B25"/>
<text x="709.0" y="207.5" font-size="6.0" fill="white" text-anchor="middle" font-weight="bold" style="font-variant-numeric:tabular-nums" >5</text>
<path d="M 728.65 198.5 L 728.65 212 L 733.35 212 L 733.35 198.5 Z" fill="#9E2B25" opacity="0.80"/>
<path d="M 727.25 213 L 727.25 197.5 Q 727.25 194.0 729.5 193.0 L 729.5 187.5 L 732.5 187.5 L 732.5 193.0 Q 734.75 194.0 734.75 197.5 L 734.75 213 Z" fill="none" stroke="#9E2B25" stroke-width="1.8" stroke-linejoin="round"/>
<rect x="728.9" y="186.0" width="4.2" height="1.7" fill="#9E2B25"/>
<text x="731.0" y="207.5" font-size="6.0" fill="white" text-anchor="middle" font-weight="bold" style="font-variant-numeric:tabular-nums" >3</text>
<path d="M 750.65 198.5 L 750.65 212 L 755.35 212 L 755.35 198.5 Z" fill="#9E2B25" opacity="0.80"/>
<path d="M 749.25 213 L 749.25 197.5 Q 749.25 194.0 751.5 193.0 L 751.5 187.5 L 754.5 187.5 L 754.5 193.0 Q 756.75 194.0 756.75 197.5 L 756.75 213 Z" fill="none" stroke="#9E2B25" stroke-width="1.8" stroke-linejoin="round"/>
<rect x="750.9" y="186.0" width="4.2" height="1.7" fill="#9E2B25"/>
<text x="753.0" y="207.5" font-size="6.0" fill="white" text-anchor="middle" font-weight="bold" style="font-variant-numeric:tabular-nums" >2</text>
<rect x="85.0" y="342.0" width="300" height="220" rx="8" fill="#FBFAF7" stroke="#DAD6CC" stroke-width="1.4"/><text x="101.0" y="366.0" font-size="11.5" fill="#6B6B6B" text-anchor="start" font-weight="bold" font-family="'Helvetica Neue Condensed', 'Arial Narrow', 'Helvetica Neue', Arial, sans-serif" letter-spacing="0.6" style="font-variant-numeric:tabular-nums" >FORGET THE ORDER: 3 SHAPES</text><circle cx="359.0" cy="362.0" r="13" fill="#9E2B25"/><text x="359.0" y="367.0" font-size="15" fill="#ffffff" text-anchor="middle" font-weight="bold" font-family="'Helvetica Neue Condensed', 'Arial Narrow', 'Helvetica Neue', Arial, sans-serif" style="font-variant-numeric:tabular-nums" >3</text>
<line x1="143" y1="422" x2="130.5" y2="440" stroke="#1A1A1A" stroke-width="1.6"/>
<line x1="143" y1="422" x2="162" y2="451" stroke="#1A1A1A" stroke-width="1.6"/>
<line x1="130.5" y1="440" x2="120" y2="451" stroke="#1A1A1A" stroke-width="1.6"/>
<line x1="130.5" y1="440" x2="141" y2="451" stroke="#1A1A1A" stroke-width="1.6"/>
<circle cx="143" cy="422" r="3.2" fill="#1A1A1A"/>
<circle cx="130.5" cy="440" r="3.2" fill="#1A1A1A"/>
<path d="M 117.5 469.88 L 117.5 484 L 122.49999999999999 484 L 122.49999999999999 469.88 Z" fill="#9E2B25" opacity="0.80"/>
<path d="M 116.1 485 L 116.1 468.84 Q 116.1 465.2 118.44 464.15999999999997 L 118.44 458.44 L 121.56 458.44 L 121.56 464.15999999999997 Q 123.89999999999999 465.2 123.89999999999999 468.84 L 123.89999999999999 485 Z" fill="none" stroke="#9E2B25" stroke-width="1.8" stroke-linejoin="round"/>
<rect x="117.84" y="456.88" width="4.32" height="1.768" fill="#9E2B25"/>
<text x="120" y="479.24" font-size="6.24" fill="white" text-anchor="middle" font-weight="bold" style="font-variant-numeric:tabular-nums" >2</text>
<path d="M 138.5 469.88 L 138.5 484 L 143.5 484 L 143.5 469.88 Z" fill="#9E2B25" opacity="0.80"/>
<path d="M 137.1 485 L 137.1 468.84 Q 137.1 465.2 139.44 464.15999999999997 L 139.44 458.44 L 142.56 458.44 L 142.56 464.15999999999997 Q 144.9 465.2 144.9 468.84 L 144.9 485 Z" fill="none" stroke="#9E2B25" stroke-width="1.8" stroke-linejoin="round"/>
<rect x="138.84" y="456.88" width="4.32" height="1.768" fill="#9E2B25"/>
<text x="141" y="479.24" font-size="6.24" fill="white" text-anchor="middle" font-weight="bold" style="font-variant-numeric:tabular-nums" >3</text>
<path d="M 159.5 469.88 L 159.5 484 L 164.5 484 L 164.5 469.88 Z" fill="#9E2B25" opacity="0.80"/>
<path d="M 158.1 485 L 158.1 468.84 Q 158.1 465.2 160.44 464.15999999999997 L 160.44 458.44 L 163.56 458.44 L 163.56 464.15999999999997 Q 165.9 465.2 165.9 468.84 L 165.9 485 Z" fill="none" stroke="#9E2B25" stroke-width="1.8" stroke-linejoin="round"/>
<rect x="159.84" y="456.88" width="4.32" height="1.768" fill="#9E2B25"/>
<text x="162" y="479.24" font-size="6.24" fill="white" text-anchor="middle" font-weight="bold" style="font-variant-numeric:tabular-nums" >5</text>
<line x1="235" y1="422" x2="243.5" y2="440" stroke="#1A1A1A" stroke-width="1.6"/>
<line x1="235" y1="422" x2="212" y2="451" stroke="#1A1A1A" stroke-width="1.6"/>
<line x1="243.5" y1="440" x2="233" y2="451" stroke="#1A1A1A" stroke-width="1.6"/>
<line x1="243.5" y1="440" x2="254" y2="451" stroke="#1A1A1A" stroke-width="1.6"/>
<circle cx="235" cy="422" r="3.2" fill="#1A1A1A"/>
<circle cx="243.5" cy="440" r="3.2" fill="#1A1A1A"/>
<path d="M 209.5 469.88 L 209.5 484 L 214.5 484 L 214.5 469.88 Z" fill="#9E2B25" opacity="0.80"/>
<path d="M 208.1 485 L 208.1 468.84 Q 208.1 465.2 210.44 464.15999999999997 L 210.44 458.44 L 213.56 458.44 L 213.56 464.15999999999997 Q 215.9 465.2 215.9 468.84 L 215.9 485 Z" fill="none" stroke="#9E2B25" stroke-width="1.8" stroke-linejoin="round"/>
<rect x="209.84" y="456.88" width="4.32" height="1.768" fill="#9E2B25"/>
<text x="212" y="479.24" font-size="6.24" fill="white" text-anchor="middle" font-weight="bold" style="font-variant-numeric:tabular-nums" >2</text>
<path d="M 230.5 469.88 L 230.5 484 L 235.5 484 L 235.5 469.88 Z" fill="#9E2B25" opacity="0.80"/>
<path d="M 229.1 485 L 229.1 468.84 Q 229.1 465.2 231.44 464.15999999999997 L 231.44 458.44 L 234.56 458.44 L 234.56 464.15999999999997 Q 236.9 465.2 236.9 468.84 L 236.9 485 Z" fill="none" stroke="#9E2B25" stroke-width="1.8" stroke-linejoin="round"/>
<rect x="230.84" y="456.88" width="4.32" height="1.768" fill="#9E2B25"/>
<text x="233" y="479.24" font-size="6.24" fill="white" text-anchor="middle" font-weight="bold" style="font-variant-numeric:tabular-nums" >3</text>
<path d="M 251.5 469.88 L 251.5 484 L 256.5 484 L 256.5 469.88 Z" fill="#9E2B25" opacity="0.80"/>
<path d="M 250.1 485 L 250.1 468.84 Q 250.1 465.2 252.44 464.15999999999997 L 252.44 458.44 L 255.56 458.44 L 255.56 464.15999999999997 Q 257.9 465.2 257.9 468.84 L 257.9 485 Z" fill="none" stroke="#9E2B25" stroke-width="1.8" stroke-linejoin="round"/>
<rect x="251.84" y="456.88" width="4.32" height="1.768" fill="#9E2B25"/>
<text x="254" y="479.24" font-size="6.24" fill="white" text-anchor="middle" font-weight="bold" style="font-variant-numeric:tabular-nums" >5</text>
<line x1="327" y1="422" x2="314.5" y2="440" stroke="#1A1A1A" stroke-width="1.6"/>
<line x1="327" y1="422" x2="346" y2="451" stroke="#1A1A1A" stroke-width="1.6"/>
<line x1="314.5" y1="440" x2="304" y2="451" stroke="#1A1A1A" stroke-width="1.6"/>
<line x1="314.5" y1="440" x2="325" y2="451" stroke="#1A1A1A" stroke-width="1.6"/>
<circle cx="327" cy="422" r="3.2" fill="#1A1A1A"/>
<circle cx="314.5" cy="440" r="3.2" fill="#1A1A1A"/>
<path d="M 301.5 469.88 L 301.5 484 L 306.50000000000006 484 L 306.50000000000006 469.88 Z" fill="#9E2B25" opacity="0.80"/>
<path d="M 300.1 485 L 300.1 468.84 Q 300.1 465.2 302.44 464.15999999999997 L 302.44 458.44 L 305.56 458.44 L 305.56 464.15999999999997 Q 307.90000000000003 465.2 307.90000000000003 468.84 L 307.90000000000003 485 Z" fill="none" stroke="#9E2B25" stroke-width="1.8" stroke-linejoin="round"/>
<rect x="301.84" y="456.88" width="4.32" height="1.768" fill="#9E2B25"/>
<text x="304" y="479.24" font-size="6.24" fill="white" text-anchor="middle" font-weight="bold" style="font-variant-numeric:tabular-nums" >3</text>
<path d="M 322.5 469.88 L 322.5 484 L 327.50000000000006 484 L 327.50000000000006 469.88 Z" fill="#9E2B25" opacity="0.80"/>
<path d="M 321.1 485 L 321.1 468.84 Q 321.1 465.2 323.44 464.15999999999997 L 323.44 458.44 L 326.56 458.44 L 326.56 464.15999999999997 Q 328.90000000000003 465.2 328.90000000000003 468.84 L 328.90000000000003 485 Z" fill="none" stroke="#9E2B25" stroke-width="1.8" stroke-linejoin="round"/>
<rect x="322.84" y="456.88" width="4.32" height="1.768" fill="#9E2B25"/>
<text x="325" y="479.24" font-size="6.24" fill="white" text-anchor="middle" font-weight="bold" style="font-variant-numeric:tabular-nums" >2</text>
<path d="M 343.5 469.88 L 343.5 484 L 348.50000000000006 484 L 348.50000000000006 469.88 Z" fill="#9E2B25" opacity="0.80"/>
<path d="M 342.1 485 L 342.1 468.84 Q 342.1 465.2 344.44 464.15999999999997 L 344.44 458.44 L 347.56 458.44 L 347.56 464.15999999999997 Q 349.90000000000003 465.2 349.90000000000003 468.84 L 349.90000000000003 485 Z" fill="none" stroke="#9E2B25" stroke-width="1.8" stroke-linejoin="round"/>
<rect x="343.84" y="456.88" width="4.32" height="1.768" fill="#9E2B25"/>
<text x="346" y="479.24" font-size="6.24" fill="white" text-anchor="middle" font-weight="bold" style="font-variant-numeric:tabular-nums" >5</text>
<rect x="515.0" y="342.0" width="300" height="220" rx="8" fill="#FBFAF7" stroke="#DAD6CC" stroke-width="1.4"/><text x="531.0" y="366.0" font-size="11.5" fill="#6B6B6B" text-anchor="start" font-weight="bold" font-family="'Helvetica Neue Condensed', 'Arial Narrow', 'Helvetica Neue', Arial, sans-serif" letter-spacing="0.6" style="font-variant-numeric:tabular-nums" >FORGET BOTH: 1 NUMBER</text><circle cx="789.0" cy="362.0" r="13" fill="#9E2B25"/><text x="789.0" y="367.0" font-size="15" fill="#ffffff" text-anchor="middle" font-weight="bold" font-family="'Helvetica Neue Condensed', 'Arial Narrow', 'Helvetica Neue', Arial, sans-serif" style="font-variant-numeric:tabular-nums" >1</text>
<text x="665" y="470" font-size="56" fill="#9E2B25" text-anchor="middle" font-weight="bold" font-family="'Helvetica Neue Condensed', 'Arial Narrow', 'Helvetica Neue', Arial, sans-serif" style="font-variant-numeric:tabular-nums" >30</text>
<text x="665" y="510" font-size="16" fill="#1A1A1A" text-anchor="middle" font-weight="normal" font-family="'Helvetica Neue Condensed', 'Arial Narrow', 'Helvetica Neue', Arial, sans-serif" style="font-variant-numeric:tabular-nums" >= 2 × 3 × 5</text>
<line x1="389.0" y1="178" x2="511.0" y2="178" stroke="#1A1A1A" stroke-width="2.6"/><path d="M 511.0 178 L 502.0 182.3 M 511.0 178 L 502.0 173.7" stroke="#1A1A1A" stroke-width="2.6" fill="none" stroke-linecap="round"/><text x="450.0" y="168" font-size="13.5" fill="#1A1A1A" text-anchor="middle" font-weight="normal" style="font-variant-numeric:tabular-nums" >forget history</text>
<line x1="389.0" y1="452" x2="511.0" y2="452" stroke="#1A1A1A" stroke-width="2.6"/><path d="M 511.0 452 L 502.0 456.3 M 511.0 452 L 502.0 447.7" stroke="#1A1A1A" stroke-width="2.6" fill="none" stroke-linecap="round"/><text x="450.0" y="474" font-size="13.5" fill="#1A1A1A" text-anchor="middle" font-weight="normal" style="font-variant-numeric:tabular-nums" >forget history</text>
<line x1="235" y1="292.0" x2="235" y2="338.0" stroke="#1A1A1A" stroke-width="2.6"/><path d="M 235 338.0 L 230.7 329.0 M 235 338.0 L 239.3 329.0" stroke="#1A1A1A" stroke-width="2.6" fill="none" stroke-linecap="round"/><text x="227" y="315.0" font-size="13.5" fill="#1A1A1A" text-anchor="end" font-weight="normal" style="font-variant-numeric:tabular-nums" >forget order</text>
<line x1="665" y1="292.0" x2="665" y2="338.0" stroke="#1A1A1A" stroke-width="2.6"/><path d="M 665 338.0 L 660.7 329.0 M 665 338.0 L 669.3 329.0" stroke="#1A1A1A" stroke-width="2.6" fill="none" stroke-linecap="round"/><text x="673" y="315.0" font-size="13.5" fill="#1A1A1A" text-anchor="start" font-weight="normal" style="font-variant-numeric:tabular-nums" >forget order</text>
<text x="60" y="30" font-size="11.5" fill="#6B6B6B" text-anchor="start" font-weight="bold" font-family="'Helvetica Neue Condensed', 'Arial Narrow', 'Helvetica Neue', Arial, sans-serif" letter-spacing="1.6" style="font-variant-numeric:tabular-nums" >HOW AN INTEGER LOSES ITS HISTORY</text>
<text x="60" y="52" font-size="20" fill="#1A1A1A" text-anchor="start" font-weight="bold" font-family="'Helvetica Neue Condensed', 'Arial Narrow', 'Helvetica Neue', Arial, sans-serif" style="font-variant-numeric:tabular-nums" >Two ways to forget, and they agree</text>
<line x1="60" y1="588" x2="840" y2="588" stroke="#DAD6CC" stroke-width="1"/>
<text x="60" y="610" font-size="13" fill="#6B6B6B" text-anchor="start" font-weight="normal" style="font-variant-numeric:tabular-nums" >Each arrow discards information: 3.6 bits → 2.6 → 0, and 3.6 → 1.6 → 0.</text>
<text x="840" y="610" font-size="11.5" fill="#9E2B25" text-anchor="end" font-weight="bold" font-family="'Helvetica Neue Condensed', 'Arial Narrow', 'Helvetica Neue', Arial, sans-serif" style="font-variant-numeric:tabular-nums" >ℹ  zero bits at the last corner is the Fundamental Theorem of Arithmetic</text>
</svg>
