<svg xmlns="http://www.w3.org/2000/svg" viewBox="0 0 900 632" font-family="Helvetica, Arial, sans-serif">
<rect width="900" height="632" fill="white"/>
<rect x="85.0" y="40.0" width="300" height="220" rx="12" fill="white" stroke="#2B4B8C" stroke-width="2" opacity="0.95"/><text x="235" y="66.0" font-size="15.5" fill="#2B4B8C" text-anchor="middle" font-weight="bold" >keep everything: 6 histories</text><text x="365.0" y="66.0" font-size="20" fill="#8C2B33" text-anchor="end" font-weight="bold" >6</text>
<line x1="143" y1="108" x2="131.5" y2="126" stroke="#3A3A3A" stroke-width="1.6"/>
<line x1="143" y1="108" x2="160" y2="137" stroke="#3A3A3A" stroke-width="1.6"/>
<line x1="131.5" y1="126" x2="122" y2="137" stroke="#3A3A3A" stroke-width="1.6"/>
<line x1="131.5" y1="126" x2="141" y2="137" stroke="#3A3A3A" stroke-width="1.6"/>
<circle cx="143" cy="108" r="3.2" fill="#3A3A3A"/>
<circle cx="131.5" cy="126" r="3.2" fill="#3A3A3A"/>
<path d="M 120.25 158.98 L 120.25 170 L 123.74999999999999 170 L 123.74999999999999 158.98 Z" fill="#8C2B33" opacity="0.80"/>
<path d="M 118.85 171 L 118.85 158.14 Q 118.85 155.2 120.74 154.35999999999999 L 120.74 149.73999999999998 L 123.25999999999999 149.73999999999998 L 123.25999999999999 154.35999999999999 Q 125.14999999999999 155.2 125.14999999999999 158.14 L 125.14999999999999 171 Z" fill="none" stroke="#8C2B33" stroke-width="1.8" stroke-linejoin="round"/>
<rect x="120.14" y="148.48" width="3.7199999999999998" height="1.428" fill="#8C2B33"/>
<text x="122" y="166.54" font-size="5.04" fill="white" text-anchor="middle" font-weight="bold" >2</text>
<path d="M 139.25 158.98 L 139.25 170 L 142.75 170 L 142.75 158.98 Z" fill="#8C2B33" opacity="0.80"/>
<path d="M 137.85 171 L 137.85 158.14 Q 137.85 155.2 139.74 154.35999999999999 L 139.74 149.73999999999998 L 142.26000000000002 149.73999999999998 L 142.26000000000002 154.35999999999999 Q 144.15 155.2 144.15 158.14 L 144.15 171 Z" fill="none" stroke="#8C2B33" stroke-width="1.8" stroke-linejoin="round"/>
<rect x="139.14000000000001" y="148.48" width="3.7199999999999998" height="1.428" fill="#8C2B33"/>
<text x="141" y="166.54" font-size="5.04" fill="white" text-anchor="middle" font-weight="bold" >2</text>
<path d="M 158.25 158.98 L 158.25 170 L 161.75 170 L 161.75 158.98 Z" fill="#8C2B33" opacity="0.80"/>
<path d="M 156.85 171 L 156.85 158.14 Q 156.85 155.2 158.74 154.35999999999999 L 158.74 149.73999999999998 L 161.26000000000002 149.73999999999998 L 161.26000000000002 154.35999999999999 Q 163.15 155.2 163.15 158.14 L 163.15 171 Z" fill="none" stroke="#8C2B33" stroke-width="1.8" stroke-linejoin="round"/>
<rect x="158.14000000000001" y="148.48" width="3.7199999999999998" height="1.428" fill="#8C2B33"/>
<text x="160" y="166.54" font-size="5.04" fill="white" text-anchor="middle" font-weight="bold" >3</text>
<line x1="235" y1="108" x2="223.5" y2="126" stroke="#3A3A3A" stroke-width="1.6"/>
<line x1="235" y1="108" x2="252" y2="137" stroke="#3A3A3A" stroke-width="1.6"/>
<line x1="223.5" y1="126" x2="214" y2="137" stroke="#3A3A3A" stroke-width="1.6"/>
<line x1="223.5" y1="126" x2="233" y2="137" stroke="#3A3A3A" stroke-width="1.6"/>
<circle cx="235" cy="108" r="3.2" fill="#3A3A3A"/>
<circle cx="223.5" cy="126" r="3.2" fill="#3A3A3A"/>
<path d="M 212.25 158.98 L 212.25 170 L 215.75 170 L 215.75 158.98 Z" fill="#8C2B33" opacity="0.80"/>
<path d="M 210.85 171 L 210.85 158.14 Q 210.85 155.2 212.74 154.35999999999999 L 212.74 149.73999999999998 L 215.26000000000002 149.73999999999998 L 215.26000000000002 154.35999999999999 Q 217.15 155.2 217.15 158.14 L 217.15 171 Z" fill="none" stroke="#8C2B33" stroke-width="1.8" stroke-linejoin="round"/>
<rect x="212.14000000000001" y="148.48" width="3.7199999999999998" height="1.428" fill="#8C2B33"/>
<text x="214" y="166.54" font-size="5.04" fill="white" text-anchor="middle" font-weight="bold" >2</text>
<path d="M 231.25 158.98 L 231.25 170 L 234.75 170 L 234.75 158.98 Z" fill="#8C2B33" opacity="0.80"/>
<path d="M 229.85 171 L 229.85 158.14 Q 229.85 155.2 231.74 154.35999999999999 L 231.74 149.73999999999998 L 234.26000000000002 149.73999999999998 L 234.26000000000002 154.35999999999999 Q 236.15 155.2 236.15 158.14 L 236.15 171 Z" fill="none" stroke="#8C2B33" stroke-width="1.8" stroke-linejoin="round"/>
<rect x="231.14000000000001" y="148.48" width="3.7199999999999998" height="1.428" fill="#8C2B33"/>
<text x="233" y="166.54" font-size="5.04" fill="white" text-anchor="middle" font-weight="bold" >3</text>
<path d="M 250.25 158.98 L 250.25 170 L 253.75 170 L 253.75 158.98 Z" fill="#8C2B33" opacity="0.80"/>
<path d="M 248.85 171 L 248.85 158.14 Q 248.85 155.2 250.74 154.35999999999999 L 250.74 149.73999999999998 L 253.26000000000002 149.73999999999998 L 253.26000000000002 154.35999999999999 Q 255.15 155.2 255.15 158.14 L 255.15 171 Z" fill="none" stroke="#8C2B33" stroke-width="1.8" stroke-linejoin="round"/>
<rect x="250.14000000000001" y="148.48" width="3.7199999999999998" height="1.428" fill="#8C2B33"/>
<text x="252" y="166.54" font-size="5.04" fill="white" text-anchor="middle" font-weight="bold" >2</text>
<line x1="327" y1="108" x2="315.5" y2="126" stroke="#3A3A3A" stroke-width="1.6"/>
<line x1="327" y1="108" x2="344" y2="137" stroke="#3A3A3A" stroke-width="1.6"/>
<line x1="315.5" y1="126" x2="306" y2="137" stroke="#3A3A3A" stroke-width="1.6"/>
<line x1="315.5" y1="126" x2="325" y2="137" stroke="#3A3A3A" stroke-width="1.6"/>
<circle cx="327" cy="108" r="3.2" fill="#3A3A3A"/>
<circle cx="315.5" cy="126" r="3.2" fill="#3A3A3A"/>
<path d="M 304.25 158.98 L 304.25 170 L 307.75000000000006 170 L 307.75000000000006 158.98 Z" fill="#8C2B33" opacity="0.80"/>
<path d="M 302.85 171 L 302.85 158.14 Q 302.85 155.2 304.74 154.35999999999999 L 304.74 149.73999999999998 L 307.26 149.73999999999998 L 307.26 154.35999999999999 Q 309.15000000000003 155.2 309.15000000000003 158.14 L 309.15000000000003 171 Z" fill="none" stroke="#8C2B33" stroke-width="1.8" stroke-linejoin="round"/>
<rect x="304.14" y="148.48" width="3.7199999999999998" height="1.428" fill="#8C2B33"/>
<text x="306" y="166.54" font-size="5.04" fill="white" text-anchor="middle" font-weight="bold" >3</text>
<path d="M 323.25 158.98 L 323.25 170 L 326.75000000000006 170 L 326.75000000000006 158.98 Z" fill="#8C2B33" opacity="0.80"/>
<path d="M 321.85 171 L 321.85 158.14 Q 321.85 155.2 323.74 154.35999999999999 L 323.74 149.73999999999998 L 326.26 149.73999999999998 L 326.26 154.35999999999999 Q 328.15000000000003 155.2 328.15000000000003 158.14 L 328.15000000000003 171 Z" fill="none" stroke="#8C2B33" stroke-width="1.8" stroke-linejoin="round"/>
<rect x="323.14" y="148.48" width="3.7199999999999998" height="1.428" fill="#8C2B33"/>
<text x="325" y="166.54" font-size="5.04" fill="white" text-anchor="middle" font-weight="bold" >2</text>
<path d="M 342.25 158.98 L 342.25 170 L 345.75000000000006 170 L 345.75000000000006 158.98 Z" fill="#8C2B33" opacity="0.80"/>
<path d="M 340.85 171 L 340.85 158.14 Q 340.85 155.2 342.74 154.35999999999999 L 342.74 149.73999999999998 L 345.26 149.73999999999998 L 345.26 154.35999999999999 Q 347.15000000000003 155.2 347.15000000000003 158.14 L 347.15000000000003 171 Z" fill="none" stroke="#8C2B33" stroke-width="1.8" stroke-linejoin="round"/>
<rect x="342.14" y="148.48" width="3.7199999999999998" height="1.428" fill="#8C2B33"/>
<text x="344" y="166.54" font-size="5.04" fill="white" text-anchor="middle" font-weight="bold" >2</text>
<line x1="143" y1="202" x2="150.5" y2="220" stroke="#3A3A3A" stroke-width="1.6"/>
<line x1="143" y1="202" x2="122" y2="231" stroke="#3A3A3A" stroke-width="1.6"/>
<line x1="150.5" y1="220" x2="141" y2="231" stroke="#3A3A3A" stroke-width="1.6"/>
<line x1="150.5" y1="220" x2="160" y2="231" stroke="#3A3A3A" stroke-width="1.6"/>
<circle cx="143" cy="202" r="3.2" fill="#3A3A3A"/>
<circle cx="150.5" cy="220" r="3.2" fill="#3A3A3A"/>
<path d="M 120.25 252.98 L 120.25 264 L 123.74999999999999 264 L 123.74999999999999 252.98 Z" fill="#8C2B33" opacity="0.80"/>
<path d="M 118.85 265 L 118.85 252.14 Q 118.85 249.2 120.74 248.35999999999999 L 120.74 243.73999999999998 L 123.25999999999999 243.73999999999998 L 123.25999999999999 248.35999999999999 Q 125.14999999999999 249.2 125.14999999999999 252.14 L 125.14999999999999 265 Z" fill="none" stroke="#8C2B33" stroke-width="1.8" stroke-linejoin="round"/>
<rect x="120.14" y="242.48" width="3.7199999999999998" height="1.428" fill="#8C2B33"/>
<text x="122" y="260.53999999999996" font-size="5.04" fill="white" text-anchor="middle" font-weight="bold" >2</text>
<path d="M 139.25 252.98 L 139.25 264 L 142.75 264 L 142.75 252.98 Z" fill="#8C2B33" opacity="0.80"/>
<path d="M 137.85 265 L 137.85 252.14 Q 137.85 249.2 139.74 248.35999999999999 L 139.74 243.73999999999998 L 142.26000000000002 243.73999999999998 L 142.26000000000002 248.35999999999999 Q 144.15 249.2 144.15 252.14 L 144.15 265 Z" fill="none" stroke="#8C2B33" stroke-width="1.8" stroke-linejoin="round"/>
<rect x="139.14000000000001" y="242.48" width="3.7199999999999998" height="1.428" fill="#8C2B33"/>
<text x="141" y="260.53999999999996" font-size="5.04" fill="white" text-anchor="middle" font-weight="bold" >2</text>
<path d="M 158.25 252.98 L 158.25 264 L 161.75 264 L 161.75 252.98 Z" fill="#8C2B33" opacity="0.80"/>
<path d="M 156.85 265 L 156.85 252.14 Q 156.85 249.2 158.74 248.35999999999999 L 158.74 243.73999999999998 L 161.26000000000002 243.73999999999998 L 161.26000000000002 248.35999999999999 Q 163.15 249.2 163.15 252.14 L 163.15 265 Z" fill="none" stroke="#8C2B33" stroke-width="1.8" stroke-linejoin="round"/>
<rect x="158.14000000000001" y="242.48" width="3.7199999999999998" height="1.428" fill="#8C2B33"/>
<text x="160" y="260.53999999999996" font-size="5.04" fill="white" text-anchor="middle" font-weight="bold" >3</text>
<line x1="235" y1="202" x2="242.5" y2="220" stroke="#3A3A3A" stroke-width="1.6"/>
<line x1="235" y1="202" x2="214" y2="231" stroke="#3A3A3A" stroke-width="1.6"/>
<line x1="242.5" y1="220" x2="233" y2="231" stroke="#3A3A3A" stroke-width="1.6"/>
<line x1="242.5" y1="220" x2="252" y2="231" stroke="#3A3A3A" stroke-width="1.6"/>
<circle cx="235" cy="202" r="3.2" fill="#3A3A3A"/>
<circle cx="242.5" cy="220" r="3.2" fill="#3A3A3A"/>
<path d="M 212.25 252.98 L 212.25 264 L 215.75 264 L 215.75 252.98 Z" fill="#8C2B33" opacity="0.80"/>
<path d="M 210.85 265 L 210.85 252.14 Q 210.85 249.2 212.74 248.35999999999999 L 212.74 243.73999999999998 L 215.26000000000002 243.73999999999998 L 215.26000000000002 248.35999999999999 Q 217.15 249.2 217.15 252.14 L 217.15 265 Z" fill="none" stroke="#8C2B33" stroke-width="1.8" stroke-linejoin="round"/>
<rect x="212.14000000000001" y="242.48" width="3.7199999999999998" height="1.428" fill="#8C2B33"/>
<text x="214" y="260.53999999999996" font-size="5.04" fill="white" text-anchor="middle" font-weight="bold" >2</text>
<path d="M 231.25 252.98 L 231.25 264 L 234.75 264 L 234.75 252.98 Z" fill="#8C2B33" opacity="0.80"/>
<path d="M 229.85 265 L 229.85 252.14 Q 229.85 249.2 231.74 248.35999999999999 L 231.74 243.73999999999998 L 234.26000000000002 243.73999999999998 L 234.26000000000002 248.35999999999999 Q 236.15 249.2 236.15 252.14 L 236.15 265 Z" fill="none" stroke="#8C2B33" stroke-width="1.8" stroke-linejoin="round"/>
<rect x="231.14000000000001" y="242.48" width="3.7199999999999998" height="1.428" fill="#8C2B33"/>
<text x="233" y="260.53999999999996" font-size="5.04" fill="white" text-anchor="middle" font-weight="bold" >3</text>
<path d="M 250.25 252.98 L 250.25 264 L 253.75 264 L 253.75 252.98 Z" fill="#8C2B33" opacity="0.80"/>
<path d="M 248.85 265 L 248.85 252.14 Q 248.85 249.2 250.74 248.35999999999999 L 250.74 243.73999999999998 L 253.26000000000002 243.73999999999998 L 253.26000000000002 248.35999999999999 Q 255.15 249.2 255.15 252.14 L 255.15 265 Z" fill="none" stroke="#8C2B33" stroke-width="1.8" stroke-linejoin="round"/>
<rect x="250.14000000000001" y="242.48" width="3.7199999999999998" height="1.428" fill="#8C2B33"/>
<text x="252" y="260.53999999999996" font-size="5.04" fill="white" text-anchor="middle" font-weight="bold" >2</text>
<line x1="327" y1="202" x2="334.5" y2="220" stroke="#3A3A3A" stroke-width="1.6"/>
<line x1="327" y1="202" x2="306" y2="231" stroke="#3A3A3A" stroke-width="1.6"/>
<line x1="334.5" y1="220" x2="325" y2="231" stroke="#3A3A3A" stroke-width="1.6"/>
<line x1="334.5" y1="220" x2="344" y2="231" stroke="#3A3A3A" stroke-width="1.6"/>
<circle cx="327" cy="202" r="3.2" fill="#3A3A3A"/>
<circle cx="334.5" cy="220" r="3.2" fill="#3A3A3A"/>
<path d="M 304.25 252.98 L 304.25 264 L 307.75000000000006 264 L 307.75000000000006 252.98 Z" fill="#8C2B33" opacity="0.80"/>
<path d="M 302.85 265 L 302.85 252.14 Q 302.85 249.2 304.74 248.35999999999999 L 304.74 243.73999999999998 L 307.26 243.73999999999998 L 307.26 248.35999999999999 Q 309.15000000000003 249.2 309.15000000000003 252.14 L 309.15000000000003 265 Z" fill="none" stroke="#8C2B33" stroke-width="1.8" stroke-linejoin="round"/>
<rect x="304.14" y="242.48" width="3.7199999999999998" height="1.428" fill="#8C2B33"/>
<text x="306" y="260.53999999999996" font-size="5.04" fill="white" text-anchor="middle" font-weight="bold" >3</text>
<path d="M 323.25 252.98 L 323.25 264 L 326.75000000000006 264 L 326.75000000000006 252.98 Z" fill="#8C2B33" opacity="0.80"/>
<path d="M 321.85 265 L 321.85 252.14 Q 321.85 249.2 323.74 248.35999999999999 L 323.74 243.73999999999998 L 326.26 243.73999999999998 L 326.26 248.35999999999999 Q 328.15000000000003 249.2 328.15000000000003 252.14 L 328.15000000000003 265 Z" fill="none" stroke="#8C2B33" stroke-width="1.8" stroke-linejoin="round"/>
<rect x="323.14" y="242.48" width="3.7199999999999998" height="1.428" fill="#8C2B33"/>
<text x="325" y="260.53999999999996" font-size="5.04" fill="white" text-anchor="middle" font-weight="bold" >2</text>
<path d="M 342.25 252.98 L 342.25 264 L 345.75000000000006 264 L 345.75000000000006 252.98 Z" fill="#8C2B33" opacity="0.80"/>
<path d="M 340.85 265 L 340.85 252.14 Q 340.85 249.2 342.74 248.35999999999999 L 342.74 243.73999999999998 L 345.26 243.73999999999998 L 345.26 248.35999999999999 Q 347.15000000000003 249.2 347.15000000000003 252.14 L 347.15000000000003 265 Z" fill="none" stroke="#8C2B33" stroke-width="1.8" stroke-linejoin="round"/>
<rect x="342.14" y="242.48" width="3.7199999999999998" height="1.428" fill="#8C2B33"/>
<text x="344" y="260.53999999999996" font-size="5.04" fill="white" text-anchor="middle" font-weight="bold" >2</text>
<rect x="515.0" y="40.0" width="300" height="220" rx="12" fill="white" stroke="#2B4B8C" stroke-width="2" opacity="0.95"/><text x="665" y="66.0" font-size="15.5" fill="#2B4B8C" text-anchor="middle" font-weight="bold" >forget the nesting: 3 orders</text><text x="795.0" y="66.0" font-size="20" fill="#8C2B33" text-anchor="end" font-weight="bold" >3</text>
<path d="M 631.9 101.4 L 631.9 118 L 638.1 118 L 638.1 101.4 Z" fill="#8C2B33" opacity="0.80"/>
<path d="M 630.5 119 L 630.5 100.2 Q 630.5 96.0 633.2 94.8 L 633.2 88.2 L 636.8000000000001 88.2 L 636.8000000000001 94.8 Q 639.5 96.0 639.5 100.2 L 639.5 119 Z" fill="none" stroke="#8C2B33" stroke-width="1.8" stroke-linejoin="round"/>
<rect x="632.6" y="86.4" width="4.8" height="2.04" fill="#8C2B33"/>
<text x="635.0" y="112.2" font-size="7.199999999999999" fill="white" text-anchor="middle" font-weight="bold" >2</text>
<path d="M 661.9 101.4 L 661.9 118 L 668.1 118 L 668.1 101.4 Z" fill="#8C2B33" opacity="0.80"/>
<path d="M 660.5 119 L 660.5 100.2 Q 660.5 96.0 663.2 94.8 L 663.2 88.2 L 666.8000000000001 88.2 L 666.8000000000001 94.8 Q 669.5 96.0 669.5 100.2 L 669.5 119 Z" fill="none" stroke="#8C2B33" stroke-width="1.8" stroke-linejoin="round"/>
<rect x="662.6" y="86.4" width="4.8" height="2.04" fill="#8C2B33"/>
<text x="665.0" y="112.2" font-size="7.199999999999999" fill="white" text-anchor="middle" font-weight="bold" >2</text>
<path d="M 691.9 101.4 L 691.9 118 L 698.1 118 L 698.1 101.4 Z" fill="#8C2B33" opacity="0.80"/>
<path d="M 690.5 119 L 690.5 100.2 Q 690.5 96.0 693.2 94.8 L 693.2 88.2 L 696.8000000000001 88.2 L 696.8000000000001 94.8 Q 699.5 96.0 699.5 100.2 L 699.5 119 Z" fill="none" stroke="#8C2B33" stroke-width="1.8" stroke-linejoin="round"/>
<rect x="692.6" y="86.4" width="4.8" height="2.04" fill="#8C2B33"/>
<text x="695.0" y="112.2" font-size="7.199999999999999" fill="white" text-anchor="middle" font-weight="bold" >3</text>
<path d="M 631.9 145.4 L 631.9 162 L 638.1 162 L 638.1 145.4 Z" fill="#8C2B33" opacity="0.80"/>
<path d="M 630.5 163 L 630.5 144.2 Q 630.5 140.0 633.2 138.8 L 633.2 132.2 L 636.8000000000001 132.2 L 636.8000000000001 138.8 Q 639.5 140.0 639.5 144.2 L 639.5 163 Z" fill="none" stroke="#8C2B33" stroke-width="1.8" stroke-linejoin="round"/>
<rect x="632.6" y="130.39999999999998" width="4.8" height="2.04" fill="#8C2B33"/>
<text x="635.0" y="156.2" font-size="7.199999999999999" fill="white" text-anchor="middle" font-weight="bold" >2</text>
<path d="M 661.9 145.4 L 661.9 162 L 668.1 162 L 668.1 145.4 Z" fill="#8C2B33" opacity="0.80"/>
<path d="M 660.5 163 L 660.5 144.2 Q 660.5 140.0 663.2 138.8 L 663.2 132.2 L 666.8000000000001 132.2 L 666.8000000000001 138.8 Q 669.5 140.0 669.5 144.2 L 669.5 163 Z" fill="none" stroke="#8C2B33" stroke-width="1.8" stroke-linejoin="round"/>
<rect x="662.6" y="130.39999999999998" width="4.8" height="2.04" fill="#8C2B33"/>
<text x="665.0" y="156.2" font-size="7.199999999999999" fill="white" text-anchor="middle" font-weight="bold" >3</text>
<path d="M 691.9 145.4 L 691.9 162 L 698.1 162 L 698.1 145.4 Z" fill="#8C2B33" opacity="0.80"/>
<path d="M 690.5 163 L 690.5 144.2 Q 690.5 140.0 693.2 138.8 L 693.2 132.2 L 696.8000000000001 132.2 L 696.8000000000001 138.8 Q 699.5 140.0 699.5 144.2 L 699.5 163 Z" fill="none" stroke="#8C2B33" stroke-width="1.8" stroke-linejoin="round"/>
<rect x="692.6" y="130.39999999999998" width="4.8" height="2.04" fill="#8C2B33"/>
<text x="695.0" y="156.2" font-size="7.199999999999999" fill="white" text-anchor="middle" font-weight="bold" >2</text>
<path d="M 631.9 189.4 L 631.9 206 L 638.1 206 L 638.1 189.4 Z" fill="#8C2B33" opacity="0.80"/>
<path d="M 630.5 207 L 630.5 188.2 Q 630.5 184.0 633.2 182.8 L 633.2 176.2 L 636.8000000000001 176.2 L 636.8000000000001 182.8 Q 639.5 184.0 639.5 188.2 L 639.5 207 Z" fill="none" stroke="#8C2B33" stroke-width="1.8" stroke-linejoin="round"/>
<rect x="632.6" y="174.39999999999998" width="4.8" height="2.04" fill="#8C2B33"/>
<text x="635.0" y="200.2" font-size="7.199999999999999" fill="white" text-anchor="middle" font-weight="bold" >3</text>
<path d="M 661.9 189.4 L 661.9 206 L 668.1 206 L 668.1 189.4 Z" fill="#8C2B33" opacity="0.80"/>
<path d="M 660.5 207 L 660.5 188.2 Q 660.5 184.0 663.2 182.8 L 663.2 176.2 L 666.8000000000001 176.2 L 666.8000000000001 182.8 Q 669.5 184.0 669.5 188.2 L 669.5 207 Z" fill="none" stroke="#8C2B33" stroke-width="1.8" stroke-linejoin="round"/>
<rect x="662.6" y="174.39999999999998" width="4.8" height="2.04" fill="#8C2B33"/>
<text x="665.0" y="200.2" font-size="7.199999999999999" fill="white" text-anchor="middle" font-weight="bold" >2</text>
<path d="M 691.9 189.4 L 691.9 206 L 698.1 206 L 698.1 189.4 Z" fill="#8C2B33" opacity="0.80"/>
<path d="M 690.5 207 L 690.5 188.2 Q 690.5 184.0 693.2 182.8 L 693.2 176.2 L 696.8000000000001 176.2 L 696.8000000000001 182.8 Q 699.5 184.0 699.5 188.2 L 699.5 207 Z" fill="none" stroke="#8C2B33" stroke-width="1.8" stroke-linejoin="round"/>
<rect x="692.6" y="174.39999999999998" width="4.8" height="2.04" fill="#8C2B33"/>
<text x="695.0" y="200.2" font-size="7.199999999999999" fill="white" text-anchor="middle" font-weight="bold" >2</text>
<rect x="85.0" y="320.0" width="300" height="220" rx="12" fill="white" stroke="#2B4B8C" stroke-width="2" opacity="0.95"/><text x="235" y="346.0" font-size="15.5" fill="#2B4B8C" text-anchor="middle" font-weight="bold" >forget the order: 2 shapes</text><text x="365.0" y="346.0" font-size="20" fill="#8C2B33" text-anchor="end" font-weight="bold" >2</text>
<line x1="163" y1="394" x2="148.0" y2="412" stroke="#3A3A3A" stroke-width="1.6"/>
<line x1="163" y1="394" x2="187" y2="423" stroke="#3A3A3A" stroke-width="1.6"/>
<line x1="148.0" y1="412" x2="135" y2="423" stroke="#3A3A3A" stroke-width="1.6"/>
<line x1="148.0" y1="412" x2="161" y2="423" stroke="#3A3A3A" stroke-width="1.6"/>
<circle cx="163" cy="394" r="3.2" fill="#3A3A3A"/>
<circle cx="148.0" cy="412" r="3.2" fill="#3A3A3A"/>
<path d="M 131.75 438.78 L 131.75 456 L 138.25 456 L 138.25 438.78 Z" fill="#8C2B33" opacity="0.80"/>
<path d="M 130.35 457 L 130.35 437.53999999999996 Q 130.35 433.2 133.14 431.96 L 133.14 425.14 L 136.85999999999999 425.14 L 136.85999999999999 431.96 Q 139.65 433.2 139.65 437.53999999999996 L 139.65 457 Z" fill="none" stroke="#8C2B33" stroke-width="1.8" stroke-linejoin="round"/>
<rect x="132.54" y="423.28" width="4.92" height="2.108" fill="#8C2B33"/>
<text x="135" y="449.94" font-size="7.4399999999999995" fill="white" text-anchor="middle" font-weight="bold" >2</text>
<path d="M 157.75 438.78 L 157.75 456 L 164.25 456 L 164.25 438.78 Z" fill="#8C2B33" opacity="0.80"/>
<path d="M 156.35 457 L 156.35 437.53999999999996 Q 156.35 433.2 159.14 431.96 L 159.14 425.14 L 162.85999999999999 425.14 L 162.85999999999999 431.96 Q 165.65 433.2 165.65 437.53999999999996 L 165.65 457 Z" fill="none" stroke="#8C2B33" stroke-width="1.8" stroke-linejoin="round"/>
<rect x="158.54" y="423.28" width="4.92" height="2.108" fill="#8C2B33"/>
<text x="161" y="449.94" font-size="7.4399999999999995" fill="white" text-anchor="middle" font-weight="bold" >2</text>
<path d="M 183.75 438.78 L 183.75 456 L 190.25 456 L 190.25 438.78 Z" fill="#8C2B33" opacity="0.80"/>
<path d="M 182.35 457 L 182.35 437.53999999999996 Q 182.35 433.2 185.14 431.96 L 185.14 425.14 L 188.85999999999999 425.14 L 188.85999999999999 431.96 Q 191.65 433.2 191.65 437.53999999999996 L 191.65 457 Z" fill="none" stroke="#8C2B33" stroke-width="1.8" stroke-linejoin="round"/>
<rect x="184.54" y="423.28" width="4.92" height="2.108" fill="#8C2B33"/>
<text x="187" y="449.94" font-size="7.4399999999999995" fill="white" text-anchor="middle" font-weight="bold" >3</text>
<line x1="313" y1="394" x2="324.0" y2="412" stroke="#3A3A3A" stroke-width="1.6"/>
<line x1="313" y1="394" x2="285" y2="423" stroke="#3A3A3A" stroke-width="1.6"/>
<line x1="324.0" y1="412" x2="311" y2="423" stroke="#3A3A3A" stroke-width="1.6"/>
<line x1="324.0" y1="412" x2="337" y2="423" stroke="#3A3A3A" stroke-width="1.6"/>
<circle cx="313" cy="394" r="3.2" fill="#3A3A3A"/>
<circle cx="324.0" cy="412" r="3.2" fill="#3A3A3A"/>
<path d="M 281.75 438.78 L 281.75 456 L 288.25000000000006 456 L 288.25000000000006 438.78 Z" fill="#8C2B33" opacity="0.80"/>
<path d="M 280.35 457 L 280.35 437.53999999999996 Q 280.35 433.2 283.14 431.96 L 283.14 425.14 L 286.86 425.14 L 286.86 431.96 Q 289.65000000000003 433.2 289.65000000000003 437.53999999999996 L 289.65000000000003 457 Z" fill="none" stroke="#8C2B33" stroke-width="1.8" stroke-linejoin="round"/>
<rect x="282.53999999999996" y="423.28" width="4.92" height="2.108" fill="#8C2B33"/>
<text x="285" y="449.94" font-size="7.4399999999999995" fill="white" text-anchor="middle" font-weight="bold" >2</text>
<path d="M 307.75 438.78 L 307.75 456 L 314.25000000000006 456 L 314.25000000000006 438.78 Z" fill="#8C2B33" opacity="0.80"/>
<path d="M 306.35 457 L 306.35 437.53999999999996 Q 306.35 433.2 309.14 431.96 L 309.14 425.14 L 312.86 425.14 L 312.86 431.96 Q 315.65000000000003 433.2 315.65000000000003 437.53999999999996 L 315.65000000000003 457 Z" fill="none" stroke="#8C2B33" stroke-width="1.8" stroke-linejoin="round"/>
<rect x="308.53999999999996" y="423.28" width="4.92" height="2.108" fill="#8C2B33"/>
<text x="311" y="449.94" font-size="7.4399999999999995" fill="white" text-anchor="middle" font-weight="bold" >2</text>
<path d="M 333.75 438.78 L 333.75 456 L 340.25000000000006 456 L 340.25000000000006 438.78 Z" fill="#8C2B33" opacity="0.80"/>
<path d="M 332.35 457 L 332.35 437.53999999999996 Q 332.35 433.2 335.14 431.96 L 335.14 425.14 L 338.86 425.14 L 338.86 431.96 Q 341.65000000000003 433.2 341.65000000000003 437.53999999999996 L 341.65000000000003 457 Z" fill="none" stroke="#8C2B33" stroke-width="1.8" stroke-linejoin="round"/>
<rect x="334.53999999999996" y="423.28" width="4.92" height="2.108" fill="#8C2B33"/>
<text x="337" y="449.94" font-size="7.4399999999999995" fill="white" text-anchor="middle" font-weight="bold" >3</text>
<rect x="515.0" y="320.0" width="300" height="220" rx="12" fill="white" stroke="#2B4B8C" stroke-width="2" opacity="0.95"/><text x="665" y="346.0" font-size="15.5" fill="#2B4B8C" text-anchor="middle" font-weight="bold" >forget both: 1 number</text><text x="795.0" y="346.0" font-size="20" fill="#8C2B33" text-anchor="end" font-weight="bold" >1</text>
<text x="665" y="444" font-size="58" fill="#8C2B33" text-anchor="middle" font-weight="bold" >12</text>
<text x="665" y="488" font-size="16" fill="#3A3A3A" text-anchor="middle" font-weight="normal" >= 2 × 2 × 3</text>
<line x1="389.0" y1="150" x2="511.0" y2="150" stroke="#3A3A3A" stroke-width="2.6"/><path d="M 511.0 150 L 502.0 154.3 M 511.0 150 L 502.0 145.7" stroke="#3A3A3A" stroke-width="2.6" fill="none" stroke-linecap="round"/><text x="450.0" y="140" font-size="13.5" fill="#3A3A3A" text-anchor="middle" font-weight="normal" >forget history</text>
<line x1="389.0" y1="430" x2="511.0" y2="430" stroke="#3A3A3A" stroke-width="2.6"/><path d="M 511.0 430 L 502.0 434.3 M 511.0 430 L 502.0 425.7" stroke="#3A3A3A" stroke-width="2.6" fill="none" stroke-linecap="round"/><text x="450.0" y="452" font-size="13.5" fill="#3A3A3A" text-anchor="middle" font-weight="normal" >forget history</text>
<line x1="235" y1="264.0" x2="235" y2="316.0" stroke="#3A3A3A" stroke-width="2.6"/><path d="M 235 316.0 L 230.7 307.0 M 235 316.0 L 239.3 307.0" stroke="#3A3A3A" stroke-width="2.6" fill="none" stroke-linecap="round"/><text x="227" y="290.0" font-size="13.5" fill="#3A3A3A" text-anchor="end" font-weight="normal" >forget order</text>
<line x1="665" y1="264.0" x2="665" y2="316.0" stroke="#3A3A3A" stroke-width="2.6"/><path d="M 665 316.0 L 660.7 307.0 M 665 316.0 L 669.3 307.0" stroke="#3A3A3A" stroke-width="2.6" fill="none" stroke-linecap="round"/><text x="673" y="290.0" font-size="13.5" fill="#3A3A3A" text-anchor="start" font-weight="normal" >forget order</text>
<text x="450.0" y="34" font-size="18" fill="#3A3A3A" text-anchor="middle" font-weight="bold" >Two ways to forget, and they agree</text>
<text x="450.0" y="560" font-size="15" fill="#3A3A3A" text-anchor="middle" font-weight="normal" >Each arrow discards information: 2.6 bits → 1.6 → 0  and  2.6 → 1.0 → 0.</text>
<line x1="150.0" y1="576" x2="750.0" y2="576" stroke="#9AA0A6" stroke-width="1" opacity="0.45"/><text x="450.0" y="592" font-size="13.5" fill="#3A3A3A" text-anchor="middle" font-weight="bold" >ℹ  Zero bits left at the last corner: nothing forgotten. That is the Fundamental Theorem of Arithmetic.</text>
</svg>
