<svg xmlns="http://www.w3.org/2000/svg" viewBox="0 0 900 636" font-family="'Helvetica Neue', 'Arial Narrow', Helvetica, Arial, sans-serif">
<rect width="900" height="636" fill="#FBFAF7"/>
<rect x="85.0" y="68.0" width="300" height="220" rx="8" fill="#FBFAF7" stroke="#DAD6CC" stroke-width="1.4"/><text x="101.0" y="92.0" font-size="11.5" fill="#6B6B6B" text-anchor="start" font-weight="bold" font-family="'Helvetica Neue Condensed', 'Arial Narrow', 'Helvetica Neue', Arial, sans-serif" letter-spacing="0.6" style="font-variant-numeric:tabular-nums" >KEEP EVERYTHING: 6 HISTORIES</text><circle cx="359.0" cy="88.0" r="13" fill="#9E2B25"/><text x="359.0" y="93.0" font-size="15" fill="#ffffff" text-anchor="middle" font-weight="bold" font-family="'Helvetica Neue Condensed', 'Arial Narrow', 'Helvetica Neue', Arial, sans-serif" style="font-variant-numeric:tabular-nums" >6</text>
<line x1="143" y1="136" x2="131.5" y2="154" stroke="#1A1A1A" stroke-width="1.6"/>
<line x1="143" y1="136" x2="160" y2="165" stroke="#1A1A1A" stroke-width="1.6"/>
<line x1="131.5" y1="154" x2="122" y2="165" stroke="#1A1A1A" stroke-width="1.6"/>
<line x1="131.5" y1="154" x2="141" y2="165" stroke="#1A1A1A" stroke-width="1.6"/>
<circle cx="143" cy="136" r="3.2" fill="#1A1A1A"/>
<circle cx="131.5" cy="154" r="3.2" fill="#1A1A1A"/>
<path d="M 120.25 186.98 L 120.25 198 L 123.74999999999999 198 L 123.74999999999999 186.98 Z" fill="#9E2B25" opacity="0.80"/>
<path d="M 118.85 199 L 118.85 186.14 Q 118.85 183.2 120.74 182.35999999999999 L 120.74 177.73999999999998 L 123.25999999999999 177.73999999999998 L 123.25999999999999 182.35999999999999 Q 125.14999999999999 183.2 125.14999999999999 186.14 L 125.14999999999999 199 Z" fill="none" stroke="#9E2B25" stroke-width="1.8" stroke-linejoin="round"/>
<rect x="120.14" y="176.48" width="3.7199999999999998" height="1.428" fill="#9E2B25"/>
<text x="122" y="194.54" font-size="5.04" fill="white" text-anchor="middle" font-weight="bold" style="font-variant-numeric:tabular-nums" >2</text>
<path d="M 139.25 186.98 L 139.25 198 L 142.75 198 L 142.75 186.98 Z" fill="#9E2B25" opacity="0.80"/>
<path d="M 137.85 199 L 137.85 186.14 Q 137.85 183.2 139.74 182.35999999999999 L 139.74 177.73999999999998 L 142.26000000000002 177.73999999999998 L 142.26000000000002 182.35999999999999 Q 144.15 183.2 144.15 186.14 L 144.15 199 Z" fill="none" stroke="#9E2B25" stroke-width="1.8" stroke-linejoin="round"/>
<rect x="139.14000000000001" y="176.48" width="3.7199999999999998" height="1.428" fill="#9E2B25"/>
<text x="141" y="194.54" font-size="5.04" fill="white" text-anchor="middle" font-weight="bold" style="font-variant-numeric:tabular-nums" >2</text>
<path d="M 158.25 186.98 L 158.25 198 L 161.75 198 L 161.75 186.98 Z" fill="#9E2B25" opacity="0.80"/>
<path d="M 156.85 199 L 156.85 186.14 Q 156.85 183.2 158.74 182.35999999999999 L 158.74 177.73999999999998 L 161.26000000000002 177.73999999999998 L 161.26000000000002 182.35999999999999 Q 163.15 183.2 163.15 186.14 L 163.15 199 Z" fill="none" stroke="#9E2B25" stroke-width="1.8" stroke-linejoin="round"/>
<rect x="158.14000000000001" y="176.48" width="3.7199999999999998" height="1.428" fill="#9E2B25"/>
<text x="160" y="194.54" font-size="5.04" fill="white" text-anchor="middle" font-weight="bold" style="font-variant-numeric:tabular-nums" >3</text>
<line x1="235" y1="136" x2="223.5" y2="154" stroke="#1A1A1A" stroke-width="1.6"/>
<line x1="235" y1="136" x2="252" y2="165" stroke="#1A1A1A" stroke-width="1.6"/>
<line x1="223.5" y1="154" x2="214" y2="165" stroke="#1A1A1A" stroke-width="1.6"/>
<line x1="223.5" y1="154" x2="233" y2="165" stroke="#1A1A1A" stroke-width="1.6"/>
<circle cx="235" cy="136" r="3.2" fill="#1A1A1A"/>
<circle cx="223.5" cy="154" r="3.2" fill="#1A1A1A"/>
<path d="M 212.25 186.98 L 212.25 198 L 215.75 198 L 215.75 186.98 Z" fill="#9E2B25" opacity="0.80"/>
<path d="M 210.85 199 L 210.85 186.14 Q 210.85 183.2 212.74 182.35999999999999 L 212.74 177.73999999999998 L 215.26000000000002 177.73999999999998 L 215.26000000000002 182.35999999999999 Q 217.15 183.2 217.15 186.14 L 217.15 199 Z" fill="none" stroke="#9E2B25" stroke-width="1.8" stroke-linejoin="round"/>
<rect x="212.14000000000001" y="176.48" width="3.7199999999999998" height="1.428" fill="#9E2B25"/>
<text x="214" y="194.54" font-size="5.04" fill="white" text-anchor="middle" font-weight="bold" style="font-variant-numeric:tabular-nums" >2</text>
<path d="M 231.25 186.98 L 231.25 198 L 234.75 198 L 234.75 186.98 Z" fill="#9E2B25" opacity="0.80"/>
<path d="M 229.85 199 L 229.85 186.14 Q 229.85 183.2 231.74 182.35999999999999 L 231.74 177.73999999999998 L 234.26000000000002 177.73999999999998 L 234.26000000000002 182.35999999999999 Q 236.15 183.2 236.15 186.14 L 236.15 199 Z" fill="none" stroke="#9E2B25" stroke-width="1.8" stroke-linejoin="round"/>
<rect x="231.14000000000001" y="176.48" width="3.7199999999999998" height="1.428" fill="#9E2B25"/>
<text x="233" y="194.54" font-size="5.04" fill="white" text-anchor="middle" font-weight="bold" style="font-variant-numeric:tabular-nums" >3</text>
<path d="M 250.25 186.98 L 250.25 198 L 253.75 198 L 253.75 186.98 Z" fill="#9E2B25" opacity="0.80"/>
<path d="M 248.85 199 L 248.85 186.14 Q 248.85 183.2 250.74 182.35999999999999 L 250.74 177.73999999999998 L 253.26000000000002 177.73999999999998 L 253.26000000000002 182.35999999999999 Q 255.15 183.2 255.15 186.14 L 255.15 199 Z" fill="none" stroke="#9E2B25" stroke-width="1.8" stroke-linejoin="round"/>
<rect x="250.14000000000001" y="176.48" width="3.7199999999999998" height="1.428" fill="#9E2B25"/>
<text x="252" y="194.54" font-size="5.04" fill="white" text-anchor="middle" font-weight="bold" style="font-variant-numeric:tabular-nums" >2</text>
<line x1="327" y1="136" x2="315.5" y2="154" stroke="#1A1A1A" stroke-width="1.6"/>
<line x1="327" y1="136" x2="344" y2="165" stroke="#1A1A1A" stroke-width="1.6"/>
<line x1="315.5" y1="154" x2="306" y2="165" stroke="#1A1A1A" stroke-width="1.6"/>
<line x1="315.5" y1="154" x2="325" y2="165" stroke="#1A1A1A" stroke-width="1.6"/>
<circle cx="327" cy="136" r="3.2" fill="#1A1A1A"/>
<circle cx="315.5" cy="154" r="3.2" fill="#1A1A1A"/>
<path d="M 304.25 186.98 L 304.25 198 L 307.75000000000006 198 L 307.75000000000006 186.98 Z" fill="#9E2B25" opacity="0.80"/>
<path d="M 302.85 199 L 302.85 186.14 Q 302.85 183.2 304.74 182.35999999999999 L 304.74 177.73999999999998 L 307.26 177.73999999999998 L 307.26 182.35999999999999 Q 309.15000000000003 183.2 309.15000000000003 186.14 L 309.15000000000003 199 Z" fill="none" stroke="#9E2B25" stroke-width="1.8" stroke-linejoin="round"/>
<rect x="304.14" y="176.48" width="3.7199999999999998" height="1.428" fill="#9E2B25"/>
<text x="306" y="194.54" font-size="5.04" fill="white" text-anchor="middle" font-weight="bold" style="font-variant-numeric:tabular-nums" >3</text>
<path d="M 323.25 186.98 L 323.25 198 L 326.75000000000006 198 L 326.75000000000006 186.98 Z" fill="#9E2B25" opacity="0.80"/>
<path d="M 321.85 199 L 321.85 186.14 Q 321.85 183.2 323.74 182.35999999999999 L 323.74 177.73999999999998 L 326.26 177.73999999999998 L 326.26 182.35999999999999 Q 328.15000000000003 183.2 328.15000000000003 186.14 L 328.15000000000003 199 Z" fill="none" stroke="#9E2B25" stroke-width="1.8" stroke-linejoin="round"/>
<rect x="323.14" y="176.48" width="3.7199999999999998" height="1.428" fill="#9E2B25"/>
<text x="325" y="194.54" font-size="5.04" fill="white" text-anchor="middle" font-weight="bold" style="font-variant-numeric:tabular-nums" >2</text>
<path d="M 342.25 186.98 L 342.25 198 L 345.75000000000006 198 L 345.75000000000006 186.98 Z" fill="#9E2B25" opacity="0.80"/>
<path d="M 340.85 199 L 340.85 186.14 Q 340.85 183.2 342.74 182.35999999999999 L 342.74 177.73999999999998 L 345.26 177.73999999999998 L 345.26 182.35999999999999 Q 347.15000000000003 183.2 347.15000000000003 186.14 L 347.15000000000003 199 Z" fill="none" stroke="#9E2B25" stroke-width="1.8" stroke-linejoin="round"/>
<rect x="342.14" y="176.48" width="3.7199999999999998" height="1.428" fill="#9E2B25"/>
<text x="344" y="194.54" font-size="5.04" fill="white" text-anchor="middle" font-weight="bold" style="font-variant-numeric:tabular-nums" >2</text>
<line x1="143" y1="230" x2="150.5" y2="248" stroke="#1A1A1A" stroke-width="1.6"/>
<line x1="143" y1="230" x2="122" y2="259" stroke="#1A1A1A" stroke-width="1.6"/>
<line x1="150.5" y1="248" x2="141" y2="259" stroke="#1A1A1A" stroke-width="1.6"/>
<line x1="150.5" y1="248" x2="160" y2="259" stroke="#1A1A1A" stroke-width="1.6"/>
<circle cx="143" cy="230" r="3.2" fill="#1A1A1A"/>
<circle cx="150.5" cy="248" r="3.2" fill="#1A1A1A"/>
<path d="M 120.25 280.97999999999996 L 120.25 292 L 123.74999999999999 292 L 123.74999999999999 280.97999999999996 Z" fill="#9E2B25" opacity="0.80"/>
<path d="M 118.85 293 L 118.85 280.14 Q 118.85 277.2 120.74 276.36 L 120.74 271.74 L 123.25999999999999 271.74 L 123.25999999999999 276.36 Q 125.14999999999999 277.2 125.14999999999999 280.14 L 125.14999999999999 293 Z" fill="none" stroke="#9E2B25" stroke-width="1.8" stroke-linejoin="round"/>
<rect x="120.14" y="270.48" width="3.7199999999999998" height="1.428" fill="#9E2B25"/>
<text x="122" y="288.53999999999996" font-size="5.04" fill="white" text-anchor="middle" font-weight="bold" style="font-variant-numeric:tabular-nums" >2</text>
<path d="M 139.25 280.97999999999996 L 139.25 292 L 142.75 292 L 142.75 280.97999999999996 Z" fill="#9E2B25" opacity="0.80"/>
<path d="M 137.85 293 L 137.85 280.14 Q 137.85 277.2 139.74 276.36 L 139.74 271.74 L 142.26000000000002 271.74 L 142.26000000000002 276.36 Q 144.15 277.2 144.15 280.14 L 144.15 293 Z" fill="none" stroke="#9E2B25" stroke-width="1.8" stroke-linejoin="round"/>
<rect x="139.14000000000001" y="270.48" width="3.7199999999999998" height="1.428" fill="#9E2B25"/>
<text x="141" y="288.53999999999996" font-size="5.04" fill="white" text-anchor="middle" font-weight="bold" style="font-variant-numeric:tabular-nums" >2</text>
<path d="M 158.25 280.97999999999996 L 158.25 292 L 161.75 292 L 161.75 280.97999999999996 Z" fill="#9E2B25" opacity="0.80"/>
<path d="M 156.85 293 L 156.85 280.14 Q 156.85 277.2 158.74 276.36 L 158.74 271.74 L 161.26000000000002 271.74 L 161.26000000000002 276.36 Q 163.15 277.2 163.15 280.14 L 163.15 293 Z" fill="none" stroke="#9E2B25" stroke-width="1.8" stroke-linejoin="round"/>
<rect x="158.14000000000001" y="270.48" width="3.7199999999999998" height="1.428" fill="#9E2B25"/>
<text x="160" y="288.53999999999996" font-size="5.04" fill="white" text-anchor="middle" font-weight="bold" style="font-variant-numeric:tabular-nums" >3</text>
<line x1="235" y1="230" x2="242.5" y2="248" stroke="#1A1A1A" stroke-width="1.6"/>
<line x1="235" y1="230" x2="214" y2="259" stroke="#1A1A1A" stroke-width="1.6"/>
<line x1="242.5" y1="248" x2="233" y2="259" stroke="#1A1A1A" stroke-width="1.6"/>
<line x1="242.5" y1="248" x2="252" y2="259" stroke="#1A1A1A" stroke-width="1.6"/>
<circle cx="235" cy="230" r="3.2" fill="#1A1A1A"/>
<circle cx="242.5" cy="248" r="3.2" fill="#1A1A1A"/>
<path d="M 212.25 280.97999999999996 L 212.25 292 L 215.75 292 L 215.75 280.97999999999996 Z" fill="#9E2B25" opacity="0.80"/>
<path d="M 210.85 293 L 210.85 280.14 Q 210.85 277.2 212.74 276.36 L 212.74 271.74 L 215.26000000000002 271.74 L 215.26000000000002 276.36 Q 217.15 277.2 217.15 280.14 L 217.15 293 Z" fill="none" stroke="#9E2B25" stroke-width="1.8" stroke-linejoin="round"/>
<rect x="212.14000000000001" y="270.48" width="3.7199999999999998" height="1.428" fill="#9E2B25"/>
<text x="214" y="288.53999999999996" font-size="5.04" fill="white" text-anchor="middle" font-weight="bold" style="font-variant-numeric:tabular-nums" >2</text>
<path d="M 231.25 280.97999999999996 L 231.25 292 L 234.75 292 L 234.75 280.97999999999996 Z" fill="#9E2B25" opacity="0.80"/>
<path d="M 229.85 293 L 229.85 280.14 Q 229.85 277.2 231.74 276.36 L 231.74 271.74 L 234.26000000000002 271.74 L 234.26000000000002 276.36 Q 236.15 277.2 236.15 280.14 L 236.15 293 Z" fill="none" stroke="#9E2B25" stroke-width="1.8" stroke-linejoin="round"/>
<rect x="231.14000000000001" y="270.48" width="3.7199999999999998" height="1.428" fill="#9E2B25"/>
<text x="233" y="288.53999999999996" font-size="5.04" fill="white" text-anchor="middle" font-weight="bold" style="font-variant-numeric:tabular-nums" >3</text>
<path d="M 250.25 280.97999999999996 L 250.25 292 L 253.75 292 L 253.75 280.97999999999996 Z" fill="#9E2B25" opacity="0.80"/>
<path d="M 248.85 293 L 248.85 280.14 Q 248.85 277.2 250.74 276.36 L 250.74 271.74 L 253.26000000000002 271.74 L 253.26000000000002 276.36 Q 255.15 277.2 255.15 280.14 L 255.15 293 Z" fill="none" stroke="#9E2B25" stroke-width="1.8" stroke-linejoin="round"/>
<rect x="250.14000000000001" y="270.48" width="3.7199999999999998" height="1.428" fill="#9E2B25"/>
<text x="252" y="288.53999999999996" font-size="5.04" fill="white" text-anchor="middle" font-weight="bold" style="font-variant-numeric:tabular-nums" >2</text>
<line x1="327" y1="230" x2="334.5" y2="248" stroke="#1A1A1A" stroke-width="1.6"/>
<line x1="327" y1="230" x2="306" y2="259" stroke="#1A1A1A" stroke-width="1.6"/>
<line x1="334.5" y1="248" x2="325" y2="259" stroke="#1A1A1A" stroke-width="1.6"/>
<line x1="334.5" y1="248" x2="344" y2="259" stroke="#1A1A1A" stroke-width="1.6"/>
<circle cx="327" cy="230" r="3.2" fill="#1A1A1A"/>
<circle cx="334.5" cy="248" r="3.2" fill="#1A1A1A"/>
<path d="M 304.25 280.97999999999996 L 304.25 292 L 307.75000000000006 292 L 307.75000000000006 280.97999999999996 Z" fill="#9E2B25" opacity="0.80"/>
<path d="M 302.85 293 L 302.85 280.14 Q 302.85 277.2 304.74 276.36 L 304.74 271.74 L 307.26 271.74 L 307.26 276.36 Q 309.15000000000003 277.2 309.15000000000003 280.14 L 309.15000000000003 293 Z" fill="none" stroke="#9E2B25" stroke-width="1.8" stroke-linejoin="round"/>
<rect x="304.14" y="270.48" width="3.7199999999999998" height="1.428" fill="#9E2B25"/>
<text x="306" y="288.53999999999996" font-size="5.04" fill="white" text-anchor="middle" font-weight="bold" style="font-variant-numeric:tabular-nums" >3</text>
<path d="M 323.25 280.97999999999996 L 323.25 292 L 326.75000000000006 292 L 326.75000000000006 280.97999999999996 Z" fill="#9E2B25" opacity="0.80"/>
<path d="M 321.85 293 L 321.85 280.14 Q 321.85 277.2 323.74 276.36 L 323.74 271.74 L 326.26 271.74 L 326.26 276.36 Q 328.15000000000003 277.2 328.15000000000003 280.14 L 328.15000000000003 293 Z" fill="none" stroke="#9E2B25" stroke-width="1.8" stroke-linejoin="round"/>
<rect x="323.14" y="270.48" width="3.7199999999999998" height="1.428" fill="#9E2B25"/>
<text x="325" y="288.53999999999996" font-size="5.04" fill="white" text-anchor="middle" font-weight="bold" style="font-variant-numeric:tabular-nums" >2</text>
<path d="M 342.25 280.97999999999996 L 342.25 292 L 345.75000000000006 292 L 345.75000000000006 280.97999999999996 Z" fill="#9E2B25" opacity="0.80"/>
<path d="M 340.85 293 L 340.85 280.14 Q 340.85 277.2 342.74 276.36 L 342.74 271.74 L 345.26 271.74 L 345.26 276.36 Q 347.15000000000003 277.2 347.15000000000003 280.14 L 347.15000000000003 293 Z" fill="none" stroke="#9E2B25" stroke-width="1.8" stroke-linejoin="round"/>
<rect x="342.14" y="270.48" width="3.7199999999999998" height="1.428" fill="#9E2B25"/>
<text x="344" y="288.53999999999996" font-size="5.04" fill="white" text-anchor="middle" font-weight="bold" style="font-variant-numeric:tabular-nums" >2</text>
<rect x="515.0" y="68.0" width="300" height="220" rx="8" fill="#FBFAF7" stroke="#DAD6CC" stroke-width="1.4"/><text x="531.0" y="92.0" font-size="11.5" fill="#6B6B6B" text-anchor="start" font-weight="bold" font-family="'Helvetica Neue Condensed', 'Arial Narrow', 'Helvetica Neue', Arial, sans-serif" letter-spacing="0.6" style="font-variant-numeric:tabular-nums" >FORGET THE NESTING: 3 ORDERS</text><circle cx="789.0" cy="88.0" r="13" fill="#9E2B25"/><text x="789.0" y="93.0" font-size="15" fill="#ffffff" text-anchor="middle" font-weight="bold" font-family="'Helvetica Neue Condensed', 'Arial Narrow', 'Helvetica Neue', Arial, sans-serif" style="font-variant-numeric:tabular-nums" >3</text>
<path d="M 631.9 129.4 L 631.9 146 L 638.1 146 L 638.1 129.4 Z" fill="#9E2B25" opacity="0.80"/>
<path d="M 630.5 147 L 630.5 128.2 Q 630.5 124.0 633.2 122.8 L 633.2 116.2 L 636.8000000000001 116.2 L 636.8000000000001 122.8 Q 639.5 124.0 639.5 128.2 L 639.5 147 Z" fill="none" stroke="#9E2B25" stroke-width="1.8" stroke-linejoin="round"/>
<rect x="632.6" y="114.4" width="4.8" height="2.04" fill="#9E2B25"/>
<text x="635.0" y="140.2" font-size="7.199999999999999" fill="white" text-anchor="middle" font-weight="bold" style="font-variant-numeric:tabular-nums" >2</text>
<path d="M 661.9 129.4 L 661.9 146 L 668.1 146 L 668.1 129.4 Z" fill="#9E2B25" opacity="0.80"/>
<path d="M 660.5 147 L 660.5 128.2 Q 660.5 124.0 663.2 122.8 L 663.2 116.2 L 666.8000000000001 116.2 L 666.8000000000001 122.8 Q 669.5 124.0 669.5 128.2 L 669.5 147 Z" fill="none" stroke="#9E2B25" stroke-width="1.8" stroke-linejoin="round"/>
<rect x="662.6" y="114.4" width="4.8" height="2.04" fill="#9E2B25"/>
<text x="665.0" y="140.2" font-size="7.199999999999999" fill="white" text-anchor="middle" font-weight="bold" style="font-variant-numeric:tabular-nums" >2</text>
<path d="M 691.9 129.4 L 691.9 146 L 698.1 146 L 698.1 129.4 Z" fill="#9E2B25" opacity="0.80"/>
<path d="M 690.5 147 L 690.5 128.2 Q 690.5 124.0 693.2 122.8 L 693.2 116.2 L 696.8000000000001 116.2 L 696.8000000000001 122.8 Q 699.5 124.0 699.5 128.2 L 699.5 147 Z" fill="none" stroke="#9E2B25" stroke-width="1.8" stroke-linejoin="round"/>
<rect x="692.6" y="114.4" width="4.8" height="2.04" fill="#9E2B25"/>
<text x="695.0" y="140.2" font-size="7.199999999999999" fill="white" text-anchor="middle" font-weight="bold" style="font-variant-numeric:tabular-nums" >3</text>
<path d="M 631.9 173.4 L 631.9 190 L 638.1 190 L 638.1 173.4 Z" fill="#9E2B25" opacity="0.80"/>
<path d="M 630.5 191 L 630.5 172.2 Q 630.5 168.0 633.2 166.8 L 633.2 160.2 L 636.8000000000001 160.2 L 636.8000000000001 166.8 Q 639.5 168.0 639.5 172.2 L 639.5 191 Z" fill="none" stroke="#9E2B25" stroke-width="1.8" stroke-linejoin="round"/>
<rect x="632.6" y="158.39999999999998" width="4.8" height="2.04" fill="#9E2B25"/>
<text x="635.0" y="184.2" font-size="7.199999999999999" fill="white" text-anchor="middle" font-weight="bold" style="font-variant-numeric:tabular-nums" >2</text>
<path d="M 661.9 173.4 L 661.9 190 L 668.1 190 L 668.1 173.4 Z" fill="#9E2B25" opacity="0.80"/>
<path d="M 660.5 191 L 660.5 172.2 Q 660.5 168.0 663.2 166.8 L 663.2 160.2 L 666.8000000000001 160.2 L 666.8000000000001 166.8 Q 669.5 168.0 669.5 172.2 L 669.5 191 Z" fill="none" stroke="#9E2B25" stroke-width="1.8" stroke-linejoin="round"/>
<rect x="662.6" y="158.39999999999998" width="4.8" height="2.04" fill="#9E2B25"/>
<text x="665.0" y="184.2" font-size="7.199999999999999" fill="white" text-anchor="middle" font-weight="bold" style="font-variant-numeric:tabular-nums" >3</text>
<path d="M 691.9 173.4 L 691.9 190 L 698.1 190 L 698.1 173.4 Z" fill="#9E2B25" opacity="0.80"/>
<path d="M 690.5 191 L 690.5 172.2 Q 690.5 168.0 693.2 166.8 L 693.2 160.2 L 696.8000000000001 160.2 L 696.8000000000001 166.8 Q 699.5 168.0 699.5 172.2 L 699.5 191 Z" fill="none" stroke="#9E2B25" stroke-width="1.8" stroke-linejoin="round"/>
<rect x="692.6" y="158.39999999999998" width="4.8" height="2.04" fill="#9E2B25"/>
<text x="695.0" y="184.2" font-size="7.199999999999999" fill="white" text-anchor="middle" font-weight="bold" style="font-variant-numeric:tabular-nums" >2</text>
<path d="M 631.9 217.4 L 631.9 234 L 638.1 234 L 638.1 217.4 Z" fill="#9E2B25" opacity="0.80"/>
<path d="M 630.5 235 L 630.5 216.2 Q 630.5 212.0 633.2 210.8 L 633.2 204.2 L 636.8000000000001 204.2 L 636.8000000000001 210.8 Q 639.5 212.0 639.5 216.2 L 639.5 235 Z" fill="none" stroke="#9E2B25" stroke-width="1.8" stroke-linejoin="round"/>
<rect x="632.6" y="202.39999999999998" width="4.8" height="2.04" fill="#9E2B25"/>
<text x="635.0" y="228.2" font-size="7.199999999999999" fill="white" text-anchor="middle" font-weight="bold" style="font-variant-numeric:tabular-nums" >3</text>
<path d="M 661.9 217.4 L 661.9 234 L 668.1 234 L 668.1 217.4 Z" fill="#9E2B25" opacity="0.80"/>
<path d="M 660.5 235 L 660.5 216.2 Q 660.5 212.0 663.2 210.8 L 663.2 204.2 L 666.8000000000001 204.2 L 666.8000000000001 210.8 Q 669.5 212.0 669.5 216.2 L 669.5 235 Z" fill="none" stroke="#9E2B25" stroke-width="1.8" stroke-linejoin="round"/>
<rect x="662.6" y="202.39999999999998" width="4.8" height="2.04" fill="#9E2B25"/>
<text x="665.0" y="228.2" font-size="7.199999999999999" fill="white" text-anchor="middle" font-weight="bold" style="font-variant-numeric:tabular-nums" >2</text>
<path d="M 691.9 217.4 L 691.9 234 L 698.1 234 L 698.1 217.4 Z" fill="#9E2B25" opacity="0.80"/>
<path d="M 690.5 235 L 690.5 216.2 Q 690.5 212.0 693.2 210.8 L 693.2 204.2 L 696.8000000000001 204.2 L 696.8000000000001 210.8 Q 699.5 212.0 699.5 216.2 L 699.5 235 Z" fill="none" stroke="#9E2B25" stroke-width="1.8" stroke-linejoin="round"/>
<rect x="692.6" y="202.39999999999998" width="4.8" height="2.04" fill="#9E2B25"/>
<text x="695.0" y="228.2" font-size="7.199999999999999" fill="white" text-anchor="middle" font-weight="bold" style="font-variant-numeric:tabular-nums" >2</text>
<rect x="85.0" y="342.0" width="300" height="220" rx="8" fill="#FBFAF7" stroke="#DAD6CC" stroke-width="1.4"/><text x="101.0" y="366.0" font-size="11.5" fill="#6B6B6B" text-anchor="start" font-weight="bold" font-family="'Helvetica Neue Condensed', 'Arial Narrow', 'Helvetica Neue', Arial, sans-serif" letter-spacing="0.6" style="font-variant-numeric:tabular-nums" >FORGET THE ORDER: 2 SHAPES</text><circle cx="359.0" cy="362.0" r="13" fill="#9E2B25"/><text x="359.0" y="367.0" font-size="15" fill="#ffffff" text-anchor="middle" font-weight="bold" font-family="'Helvetica Neue Condensed', 'Arial Narrow', 'Helvetica Neue', Arial, sans-serif" style="font-variant-numeric:tabular-nums" >2</text>
<line x1="163" y1="416" x2="148.0" y2="434" stroke="#1A1A1A" stroke-width="1.6"/>
<line x1="163" y1="416" x2="187" y2="445" stroke="#1A1A1A" stroke-width="1.6"/>
<line x1="148.0" y1="434" x2="135" y2="445" stroke="#1A1A1A" stroke-width="1.6"/>
<line x1="148.0" y1="434" x2="161" y2="445" stroke="#1A1A1A" stroke-width="1.6"/>
<circle cx="163" cy="416" r="3.2" fill="#1A1A1A"/>
<circle cx="148.0" cy="434" r="3.2" fill="#1A1A1A"/>
<path d="M 131.75 460.78 L 131.75 478 L 138.25 478 L 138.25 460.78 Z" fill="#9E2B25" opacity="0.80"/>
<path d="M 130.35 479 L 130.35 459.53999999999996 Q 130.35 455.2 133.14 453.96 L 133.14 447.14 L 136.85999999999999 447.14 L 136.85999999999999 453.96 Q 139.65 455.2 139.65 459.53999999999996 L 139.65 479 Z" fill="none" stroke="#9E2B25" stroke-width="1.8" stroke-linejoin="round"/>
<rect x="132.54" y="445.28" width="4.92" height="2.108" fill="#9E2B25"/>
<text x="135" y="471.94" font-size="7.4399999999999995" fill="white" text-anchor="middle" font-weight="bold" style="font-variant-numeric:tabular-nums" >2</text>
<path d="M 157.75 460.78 L 157.75 478 L 164.25 478 L 164.25 460.78 Z" fill="#9E2B25" opacity="0.80"/>
<path d="M 156.35 479 L 156.35 459.53999999999996 Q 156.35 455.2 159.14 453.96 L 159.14 447.14 L 162.85999999999999 447.14 L 162.85999999999999 453.96 Q 165.65 455.2 165.65 459.53999999999996 L 165.65 479 Z" fill="none" stroke="#9E2B25" stroke-width="1.8" stroke-linejoin="round"/>
<rect x="158.54" y="445.28" width="4.92" height="2.108" fill="#9E2B25"/>
<text x="161" y="471.94" font-size="7.4399999999999995" fill="white" text-anchor="middle" font-weight="bold" style="font-variant-numeric:tabular-nums" >2</text>
<path d="M 183.75 460.78 L 183.75 478 L 190.25 478 L 190.25 460.78 Z" fill="#9E2B25" opacity="0.80"/>
<path d="M 182.35 479 L 182.35 459.53999999999996 Q 182.35 455.2 185.14 453.96 L 185.14 447.14 L 188.85999999999999 447.14 L 188.85999999999999 453.96 Q 191.65 455.2 191.65 459.53999999999996 L 191.65 479 Z" fill="none" stroke="#9E2B25" stroke-width="1.8" stroke-linejoin="round"/>
<rect x="184.54" y="445.28" width="4.92" height="2.108" fill="#9E2B25"/>
<text x="187" y="471.94" font-size="7.4399999999999995" fill="white" text-anchor="middle" font-weight="bold" style="font-variant-numeric:tabular-nums" >3</text>
<line x1="313" y1="416" x2="324.0" y2="434" stroke="#1A1A1A" stroke-width="1.6"/>
<line x1="313" y1="416" x2="285" y2="445" stroke="#1A1A1A" stroke-width="1.6"/>
<line x1="324.0" y1="434" x2="311" y2="445" stroke="#1A1A1A" stroke-width="1.6"/>
<line x1="324.0" y1="434" x2="337" y2="445" stroke="#1A1A1A" stroke-width="1.6"/>
<circle cx="313" cy="416" r="3.2" fill="#1A1A1A"/>
<circle cx="324.0" cy="434" r="3.2" fill="#1A1A1A"/>
<path d="M 281.75 460.78 L 281.75 478 L 288.25000000000006 478 L 288.25000000000006 460.78 Z" fill="#9E2B25" opacity="0.80"/>
<path d="M 280.35 479 L 280.35 459.53999999999996 Q 280.35 455.2 283.14 453.96 L 283.14 447.14 L 286.86 447.14 L 286.86 453.96 Q 289.65000000000003 455.2 289.65000000000003 459.53999999999996 L 289.65000000000003 479 Z" fill="none" stroke="#9E2B25" stroke-width="1.8" stroke-linejoin="round"/>
<rect x="282.53999999999996" y="445.28" width="4.92" height="2.108" fill="#9E2B25"/>
<text x="285" y="471.94" font-size="7.4399999999999995" fill="white" text-anchor="middle" font-weight="bold" style="font-variant-numeric:tabular-nums" >2</text>
<path d="M 307.75 460.78 L 307.75 478 L 314.25000000000006 478 L 314.25000000000006 460.78 Z" fill="#9E2B25" opacity="0.80"/>
<path d="M 306.35 479 L 306.35 459.53999999999996 Q 306.35 455.2 309.14 453.96 L 309.14 447.14 L 312.86 447.14 L 312.86 453.96 Q 315.65000000000003 455.2 315.65000000000003 459.53999999999996 L 315.65000000000003 479 Z" fill="none" stroke="#9E2B25" stroke-width="1.8" stroke-linejoin="round"/>
<rect x="308.53999999999996" y="445.28" width="4.92" height="2.108" fill="#9E2B25"/>
<text x="311" y="471.94" font-size="7.4399999999999995" fill="white" text-anchor="middle" font-weight="bold" style="font-variant-numeric:tabular-nums" >2</text>
<path d="M 333.75 460.78 L 333.75 478 L 340.25000000000006 478 L 340.25000000000006 460.78 Z" fill="#9E2B25" opacity="0.80"/>
<path d="M 332.35 479 L 332.35 459.53999999999996 Q 332.35 455.2 335.14 453.96 L 335.14 447.14 L 338.86 447.14 L 338.86 453.96 Q 341.65000000000003 455.2 341.65000000000003 459.53999999999996 L 341.65000000000003 479 Z" fill="none" stroke="#9E2B25" stroke-width="1.8" stroke-linejoin="round"/>
<rect x="334.53999999999996" y="445.28" width="4.92" height="2.108" fill="#9E2B25"/>
<text x="337" y="471.94" font-size="7.4399999999999995" fill="white" text-anchor="middle" font-weight="bold" style="font-variant-numeric:tabular-nums" >3</text>
<rect x="515.0" y="342.0" width="300" height="220" rx="8" fill="#FBFAF7" stroke="#DAD6CC" stroke-width="1.4"/><text x="531.0" y="366.0" font-size="11.5" fill="#6B6B6B" text-anchor="start" font-weight="bold" font-family="'Helvetica Neue Condensed', 'Arial Narrow', 'Helvetica Neue', Arial, sans-serif" letter-spacing="0.6" style="font-variant-numeric:tabular-nums" >FORGET BOTH: 1 NUMBER</text><circle cx="789.0" cy="362.0" r="13" fill="#9E2B25"/><text x="789.0" y="367.0" font-size="15" fill="#ffffff" text-anchor="middle" font-weight="bold" font-family="'Helvetica Neue Condensed', 'Arial Narrow', 'Helvetica Neue', Arial, sans-serif" style="font-variant-numeric:tabular-nums" >1</text>
<text x="665" y="466" font-size="58" fill="#9E2B25" text-anchor="middle" font-weight="bold" style="font-variant-numeric:tabular-nums" >12</text>
<text x="665" y="510" font-size="16" fill="#1A1A1A" text-anchor="middle" font-weight="normal" style="font-variant-numeric:tabular-nums" >= 2 × 2 × 3</text>
<line x1="389.0" y1="178" x2="511.0" y2="178" stroke="#1A1A1A" stroke-width="2.6"/><path d="M 511.0 178 L 502.0 182.3 M 511.0 178 L 502.0 173.7" stroke="#1A1A1A" stroke-width="2.6" fill="none" stroke-linecap="round"/><text x="450.0" y="168" font-size="13.5" fill="#1A1A1A" text-anchor="middle" font-weight="normal" style="font-variant-numeric:tabular-nums" >forget history</text>
<line x1="389.0" y1="452" x2="511.0" y2="452" stroke="#1A1A1A" stroke-width="2.6"/><path d="M 511.0 452 L 502.0 456.3 M 511.0 452 L 502.0 447.7" stroke="#1A1A1A" stroke-width="2.6" fill="none" stroke-linecap="round"/><text x="450.0" y="474" font-size="13.5" fill="#1A1A1A" text-anchor="middle" font-weight="normal" style="font-variant-numeric:tabular-nums" >forget history</text>
<line x1="235" y1="292.0" x2="235" y2="338.0" stroke="#1A1A1A" stroke-width="2.6"/><path d="M 235 338.0 L 230.7 329.0 M 235 338.0 L 239.3 329.0" stroke="#1A1A1A" stroke-width="2.6" fill="none" stroke-linecap="round"/><text x="227" y="315.0" font-size="13.5" fill="#1A1A1A" text-anchor="end" font-weight="normal" style="font-variant-numeric:tabular-nums" >forget order</text>
<line x1="665" y1="292.0" x2="665" y2="338.0" stroke="#1A1A1A" stroke-width="2.6"/><path d="M 665 338.0 L 660.7 329.0 M 665 338.0 L 669.3 329.0" stroke="#1A1A1A" stroke-width="2.6" fill="none" stroke-linecap="round"/><text x="673" y="315.0" font-size="13.5" fill="#1A1A1A" text-anchor="start" font-weight="normal" style="font-variant-numeric:tabular-nums" >forget order</text>
<text x="60" y="30" font-size="11.5" fill="#6B6B6B" text-anchor="start" font-weight="bold" font-family="'Helvetica Neue Condensed', 'Arial Narrow', 'Helvetica Neue', Arial, sans-serif" letter-spacing="1.6" style="font-variant-numeric:tabular-nums" >HOW AN INTEGER LOSES ITS HISTORY</text>
<text x="60" y="52" font-size="20" fill="#1A1A1A" text-anchor="start" font-weight="bold" font-family="'Helvetica Neue Condensed', 'Arial Narrow', 'Helvetica Neue', Arial, sans-serif" style="font-variant-numeric:tabular-nums" >Two ways to forget, and they agree</text>
<line x1="60" y1="588" x2="840" y2="588" stroke="#DAD6CC" stroke-width="1"/>
<text x="60" y="610" font-size="13" fill="#6B6B6B" text-anchor="start" font-weight="normal" style="font-variant-numeric:tabular-nums" >Each arrow discards information: 2.6 bits → 1.6 → 0, and 2.6 → 1.0 → 0.</text>
<text x="840" y="610" font-size="11.5" fill="#9E2B25" text-anchor="end" font-weight="bold" font-family="'Helvetica Neue Condensed', 'Arial Narrow', 'Helvetica Neue', Arial, sans-serif" style="font-variant-numeric:tabular-nums" >ℹ  zero bits at the last corner is the Fundamental Theorem of Arithmetic</text>
</svg>
