<svg xmlns="http://www.w3.org/2000/svg" viewBox="0 0 840 400" font-family="'Helvetica Neue', 'Arial Narrow', Helvetica, Arial, sans-serif">
<rect width="840" height="400" fill="#FBFAF7"/>
<text x="40" y="32" font-size="11.5" fill="#6B6B6B" text-anchor="start" font-weight="bold" font-family="'Helvetica Neue Condensed', 'Arial Narrow', 'Helvetica Neue', Arial, sans-serif" letter-spacing="1.6" style="font-variant-numeric:tabular-nums" >PACKING, NOT POURING</text>
<text x="40" y="54" font-size="20" fill="#1A1A1A" text-anchor="start" font-weight="bold" font-family="'Helvetica Neue Condensed', 'Arial Narrow', 'Helvetica Neue', Arial, sans-serif" style="font-variant-numeric:tabular-nums" >You never get six liters from multiplication</text>
<text x="210" y="92" font-size="11.5" fill="#6B6B6B" text-anchor="middle" font-weight="bold" font-family="'Helvetica Neue Condensed', 'Arial Narrow', 'Helvetica Neue', Arial, sans-serif" letter-spacing="0.6" style="font-variant-numeric:tabular-nums" >3 × 2 : THREE CRATES OF TWO</text>
<rect x="60.0" y="134.0" width="89.7" height="56.0" rx="6" fill="none" stroke="#2E5E8C" stroke-width="1.8"/>
<path d="M 75.5 170.6 L 76.5 182.0 Q 77.5 186.0 81.5 186.0 L 90.3 186.0 Q 94.3 186.0 95.3 182.0 L 96.3 170.6 Z" fill="#9E2B25" opacity="0.40"/>
<path d="M 73.5 168.6 L 76.5 181.0 Q 77.5 186.0 82.5 186.0 L 89.3 186.0 Q 94.3 186.0 95.3 181.0 L 98.3 168.6 Z" fill="none" stroke="#3A3A3A" stroke-width="1.24" stroke-linejoin="round"/>
<line x1="77.6" y1="170.6" x2="79.3" y2="183.0" stroke="#3A3A3A" stroke-width="0.46" opacity="0.8"/>
<line x1="81.8" y1="170.6" x2="82.6" y2="183.0" stroke="#3A3A3A" stroke-width="0.46" opacity="0.8"/>
<line x1="85.9" y1="170.6" x2="85.9" y2="183.0" stroke="#3A3A3A" stroke-width="0.46" opacity="0.8"/>
<line x1="90.1" y1="170.6" x2="89.2" y2="183.0" stroke="#3A3A3A" stroke-width="0.46" opacity="0.8"/>
<line x1="94.2" y1="170.6" x2="92.5" y2="183.0" stroke="#3A3A3A" stroke-width="0.46" opacity="0.8"/>
<line x1="73.8" y1="172.1" x2="98.0" y2="172.1" stroke="#3A3A3A" stroke-width="0.46" opacity="0.8"/>
<line x1="74.2" y1="175.6" x2="97.6" y2="175.6" stroke="#3A3A3A" stroke-width="0.46" opacity="0.8"/>
<line x1="74.5" y1="179.0" x2="97.3" y2="179.0" stroke="#3A3A3A" stroke-width="0.46" opacity="0.8"/>
<line x1="74.9" y1="182.5" x2="96.9" y2="182.5" stroke="#3A3A3A" stroke-width="0.46" opacity="0.8"/>
<ellipse cx="85.92" cy="168.6" rx="12.4" ry="2.5" fill="#3A3A3A"/>
<path d="M 74.5 167.6 q -4.6 -0.8 -5.0 2.5 q -0.4 2.2 1.9 2.5" fill="none" stroke="#3A3A3A" stroke-width="1.16" stroke-linecap="round"/>
<path d="M 97.3 167.6 q 4.6 -0.8 5.0 2.5 q 0.4 2.2 -1.9 2.5" fill="none" stroke="#3A3A3A" stroke-width="1.16" stroke-linecap="round"/>
<path d="M 73.5 168.6 Q 85.92 143.8 98.3 168.6" fill="#FBFAF7" stroke="#3A3A3A" stroke-width="1.24"/>
<path d="M 75.5 166.1 Q 85.92 164.3 96.3 166.1" fill="none" stroke="#3A3A3A" stroke-width="0.46" opacity="0.8"/>
<path d="M 77.6 163.6 Q 85.92 161.8 94.3 163.6" fill="none" stroke="#3A3A3A" stroke-width="0.46" opacity="0.8"/>
<path d="M 79.6 161.2 Q 85.92 159.3 92.2 161.2" fill="none" stroke="#3A3A3A" stroke-width="0.46" opacity="0.8"/>
<path d="M 81.6 158.7 Q 85.92 156.9 90.2 158.7" fill="none" stroke="#3A3A3A" stroke-width="0.46" opacity="0.8"/>
<rect x="84.5" y="151.4" width="2.8" height="5.8" fill="#CFCEC6" stroke="#3A3A3A" stroke-width="0.70"/>
<rect x="83.9" y="149.1" width="4.0" height="2.3" rx="0.8" fill="#2E6E3A"/>
<path d="M 113.3 170.6 L 114.3 182.0 Q 115.3 186.0 119.3 186.0 L 128.2 186.0 Q 132.2 186.0 133.2 182.0 L 134.2 170.6 Z" fill="#9E2B25" opacity="0.40"/>
<path d="M 111.3 168.6 L 114.3 181.0 Q 115.3 186.0 120.3 186.0 L 127.2 186.0 Q 132.2 186.0 133.2 181.0 L 136.2 168.6 Z" fill="none" stroke="#3A3A3A" stroke-width="1.24" stroke-linejoin="round"/>
<line x1="115.5" y1="170.6" x2="117.1" y2="183.0" stroke="#3A3A3A" stroke-width="0.46" opacity="0.8"/>
<line x1="119.6" y1="170.6" x2="120.4" y2="183.0" stroke="#3A3A3A" stroke-width="0.46" opacity="0.8"/>
<line x1="123.8" y1="170.6" x2="123.8" y2="183.0" stroke="#3A3A3A" stroke-width="0.46" opacity="0.8"/>
<line x1="127.9" y1="170.6" x2="127.1" y2="183.0" stroke="#3A3A3A" stroke-width="0.46" opacity="0.8"/>
<line x1="132.0" y1="170.6" x2="130.4" y2="183.0" stroke="#3A3A3A" stroke-width="0.46" opacity="0.8"/>
<line x1="111.7" y1="172.1" x2="135.8" y2="172.1" stroke="#3A3A3A" stroke-width="0.46" opacity="0.8"/>
<line x1="112.0" y1="175.6" x2="135.5" y2="175.6" stroke="#3A3A3A" stroke-width="0.46" opacity="0.8"/>
<line x1="112.4" y1="179.0" x2="135.1" y2="179.0" stroke="#3A3A3A" stroke-width="0.46" opacity="0.8"/>
<line x1="112.7" y1="182.5" x2="134.8" y2="182.5" stroke="#3A3A3A" stroke-width="0.46" opacity="0.8"/>
<ellipse cx="123.76" cy="168.6" rx="12.4" ry="2.5" fill="#3A3A3A"/>
<path d="M 112.3 167.6 q -4.6 -0.8 -5.0 2.5 q -0.4 2.2 1.9 2.5" fill="none" stroke="#3A3A3A" stroke-width="1.16" stroke-linecap="round"/>
<path d="M 135.2 167.6 q 4.6 -0.8 5.0 2.5 q 0.4 2.2 -1.9 2.5" fill="none" stroke="#3A3A3A" stroke-width="1.16" stroke-linecap="round"/>
<path d="M 111.3 168.6 Q 123.76 143.8 136.2 168.6" fill="#FBFAF7" stroke="#3A3A3A" stroke-width="1.24"/>
<path d="M 113.4 166.1 Q 123.76 164.3 134.1 166.1" fill="none" stroke="#3A3A3A" stroke-width="0.46" opacity="0.8"/>
<path d="M 115.4 163.6 Q 123.76 161.8 132.1 163.6" fill="none" stroke="#3A3A3A" stroke-width="0.46" opacity="0.8"/>
<path d="M 117.5 161.2 Q 123.76 159.3 130.1 161.2" fill="none" stroke="#3A3A3A" stroke-width="0.46" opacity="0.8"/>
<path d="M 119.5 158.7 Q 123.76 156.9 128.0 158.7" fill="none" stroke="#3A3A3A" stroke-width="0.46" opacity="0.8"/>
<rect x="122.4" y="151.4" width="2.8" height="5.8" fill="#CFCEC6" stroke="#3A3A3A" stroke-width="0.70"/>
<rect x="121.8" y="149.1" width="4.0" height="2.3" rx="0.8" fill="#2E6E3A"/>
<rect x="161.7" y="134.0" width="89.7" height="56.0" rx="6" fill="none" stroke="#2E5E8C" stroke-width="1.8"/>
<path d="M 177.2 170.6 L 178.2 182.0 Q 179.2 186.0 183.2 186.0 L 192.0 186.0 Q 196.0 186.0 197.0 182.0 L 198.0 170.6 Z" fill="#9E2B25" opacity="0.40"/>
<path d="M 175.2 168.6 L 178.2 181.0 Q 179.2 186.0 184.2 186.0 L 191.0 186.0 Q 196.0 186.0 197.0 181.0 L 200.0 168.6 Z" fill="none" stroke="#3A3A3A" stroke-width="1.24" stroke-linejoin="round"/>
<line x1="179.3" y1="170.6" x2="181.0" y2="183.0" stroke="#3A3A3A" stroke-width="0.46" opacity="0.8"/>
<line x1="183.5" y1="170.6" x2="184.3" y2="183.0" stroke="#3A3A3A" stroke-width="0.46" opacity="0.8"/>
<line x1="187.6" y1="170.6" x2="187.6" y2="183.0" stroke="#3A3A3A" stroke-width="0.46" opacity="0.8"/>
<line x1="191.7" y1="170.6" x2="190.9" y2="183.0" stroke="#3A3A3A" stroke-width="0.46" opacity="0.8"/>
<line x1="195.9" y1="170.6" x2="194.2" y2="183.0" stroke="#3A3A3A" stroke-width="0.46" opacity="0.8"/>
<line x1="175.5" y1="172.1" x2="199.7" y2="172.1" stroke="#3A3A3A" stroke-width="0.46" opacity="0.8"/>
<line x1="175.9" y1="175.6" x2="199.3" y2="175.6" stroke="#3A3A3A" stroke-width="0.46" opacity="0.8"/>
<line x1="176.2" y1="179.0" x2="199.0" y2="179.0" stroke="#3A3A3A" stroke-width="0.46" opacity="0.8"/>
<line x1="176.6" y1="182.5" x2="198.6" y2="182.5" stroke="#3A3A3A" stroke-width="0.46" opacity="0.8"/>
<ellipse cx="187.60000000000002" cy="168.6" rx="12.4" ry="2.5" fill="#3A3A3A"/>
<path d="M 176.2 167.6 q -4.6 -0.8 -5.0 2.5 q -0.4 2.2 1.9 2.5" fill="none" stroke="#3A3A3A" stroke-width="1.16" stroke-linecap="round"/>
<path d="M 199.0 167.6 q 4.6 -0.8 5.0 2.5 q 0.4 2.2 -1.9 2.5" fill="none" stroke="#3A3A3A" stroke-width="1.16" stroke-linecap="round"/>
<path d="M 175.2 168.6 Q 187.60000000000002 143.8 200.0 168.6" fill="#FBFAF7" stroke="#3A3A3A" stroke-width="1.24"/>
<path d="M 177.2 166.1 Q 187.60000000000002 164.3 198.0 166.1" fill="none" stroke="#3A3A3A" stroke-width="0.46" opacity="0.8"/>
<path d="M 179.3 163.6 Q 187.60000000000002 161.8 195.9 163.6" fill="none" stroke="#3A3A3A" stroke-width="0.46" opacity="0.8"/>
<path d="M 181.3 161.2 Q 187.60000000000002 159.3 193.9 161.2" fill="none" stroke="#3A3A3A" stroke-width="0.46" opacity="0.8"/>
<path d="M 183.3 158.7 Q 187.60000000000002 156.9 191.9 158.7" fill="none" stroke="#3A3A3A" stroke-width="0.46" opacity="0.8"/>
<rect x="186.2" y="151.4" width="2.8" height="5.8" fill="#CFCEC6" stroke="#3A3A3A" stroke-width="0.70"/>
<rect x="185.6" y="149.1" width="4.0" height="2.3" rx="0.8" fill="#2E6E3A"/>
<path d="M 215.0 170.6 L 216.0 182.0 Q 217.0 186.0 221.0 186.0 L 229.9 186.0 Q 233.9 186.0 234.9 182.0 L 235.9 170.6 Z" fill="#9E2B25" opacity="0.40"/>
<path d="M 213.0 168.6 L 216.0 181.0 Q 217.0 186.0 222.0 186.0 L 228.9 186.0 Q 233.9 186.0 234.9 181.0 L 237.9 168.6 Z" fill="none" stroke="#3A3A3A" stroke-width="1.24" stroke-linejoin="round"/>
<line x1="217.2" y1="170.6" x2="218.8" y2="183.0" stroke="#3A3A3A" stroke-width="0.46" opacity="0.8"/>
<line x1="221.3" y1="170.6" x2="222.1" y2="183.0" stroke="#3A3A3A" stroke-width="0.46" opacity="0.8"/>
<line x1="225.4" y1="170.6" x2="225.4" y2="183.0" stroke="#3A3A3A" stroke-width="0.46" opacity="0.8"/>
<line x1="229.6" y1="170.6" x2="228.8" y2="183.0" stroke="#3A3A3A" stroke-width="0.46" opacity="0.8"/>
<line x1="233.7" y1="170.6" x2="232.1" y2="183.0" stroke="#3A3A3A" stroke-width="0.46" opacity="0.8"/>
<line x1="213.4" y1="172.1" x2="237.5" y2="172.1" stroke="#3A3A3A" stroke-width="0.46" opacity="0.8"/>
<line x1="213.7" y1="175.6" x2="237.2" y2="175.6" stroke="#3A3A3A" stroke-width="0.46" opacity="0.8"/>
<line x1="214.1" y1="179.0" x2="236.8" y2="179.0" stroke="#3A3A3A" stroke-width="0.46" opacity="0.8"/>
<line x1="214.4" y1="182.5" x2="236.5" y2="182.5" stroke="#3A3A3A" stroke-width="0.46" opacity="0.8"/>
<ellipse cx="225.44" cy="168.6" rx="12.4" ry="2.5" fill="#3A3A3A"/>
<path d="M 214.0 167.6 q -4.6 -0.8 -5.0 2.5 q -0.4 2.2 1.9 2.5" fill="none" stroke="#3A3A3A" stroke-width="1.16" stroke-linecap="round"/>
<path d="M 236.9 167.6 q 4.6 -0.8 5.0 2.5 q 0.4 2.2 -1.9 2.5" fill="none" stroke="#3A3A3A" stroke-width="1.16" stroke-linecap="round"/>
<path d="M 213.0 168.6 Q 225.44 143.8 237.9 168.6" fill="#FBFAF7" stroke="#3A3A3A" stroke-width="1.24"/>
<path d="M 215.1 166.1 Q 225.44 164.3 235.8 166.1" fill="none" stroke="#3A3A3A" stroke-width="0.46" opacity="0.8"/>
<path d="M 217.1 163.6 Q 225.44 161.8 233.8 163.6" fill="none" stroke="#3A3A3A" stroke-width="0.46" opacity="0.8"/>
<path d="M 219.1 161.2 Q 225.44 159.3 231.7 161.2" fill="none" stroke="#3A3A3A" stroke-width="0.46" opacity="0.8"/>
<path d="M 221.2 158.7 Q 225.44 156.9 229.7 158.7" fill="none" stroke="#3A3A3A" stroke-width="0.46" opacity="0.8"/>
<rect x="224.0" y="151.4" width="2.8" height="5.8" fill="#CFCEC6" stroke="#3A3A3A" stroke-width="0.70"/>
<rect x="223.4" y="149.1" width="4.0" height="2.3" rx="0.8" fill="#2E6E3A"/>
<rect x="263.4" y="134.0" width="89.7" height="56.0" rx="6" fill="none" stroke="#2E5E8C" stroke-width="1.8"/>
<path d="M 278.9 170.6 L 279.9 182.0 Q 280.9 186.0 284.9 186.0 L 293.7 186.0 Q 297.7 186.0 298.7 182.0 L 299.7 170.6 Z" fill="#9E2B25" opacity="0.40"/>
<path d="M 276.9 168.6 L 279.9 181.0 Q 280.9 186.0 285.9 186.0 L 292.7 186.0 Q 297.7 186.0 298.7 181.0 L 301.7 168.6 Z" fill="none" stroke="#3A3A3A" stroke-width="1.24" stroke-linejoin="round"/>
<line x1="281.0" y1="170.6" x2="282.7" y2="183.0" stroke="#3A3A3A" stroke-width="0.46" opacity="0.8"/>
<line x1="285.1" y1="170.6" x2="286.0" y2="183.0" stroke="#3A3A3A" stroke-width="0.46" opacity="0.8"/>
<line x1="289.3" y1="170.6" x2="289.3" y2="183.0" stroke="#3A3A3A" stroke-width="0.46" opacity="0.8"/>
<line x1="293.4" y1="170.6" x2="292.6" y2="183.0" stroke="#3A3A3A" stroke-width="0.46" opacity="0.8"/>
<line x1="297.6" y1="170.6" x2="295.9" y2="183.0" stroke="#3A3A3A" stroke-width="0.46" opacity="0.8"/>
<line x1="277.2" y1="172.1" x2="301.4" y2="172.1" stroke="#3A3A3A" stroke-width="0.46" opacity="0.8"/>
<line x1="277.6" y1="175.6" x2="301.0" y2="175.6" stroke="#3A3A3A" stroke-width="0.46" opacity="0.8"/>
<line x1="277.9" y1="179.0" x2="300.7" y2="179.0" stroke="#3A3A3A" stroke-width="0.46" opacity="0.8"/>
<line x1="278.3" y1="182.5" x2="300.3" y2="182.5" stroke="#3A3A3A" stroke-width="0.46" opacity="0.8"/>
<ellipse cx="289.28000000000003" cy="168.6" rx="12.4" ry="2.5" fill="#3A3A3A"/>
<path d="M 277.9 167.6 q -4.6 -0.8 -5.0 2.5 q -0.4 2.2 1.9 2.5" fill="none" stroke="#3A3A3A" stroke-width="1.16" stroke-linecap="round"/>
<path d="M 300.7 167.6 q 4.6 -0.8 5.0 2.5 q 0.4 2.2 -1.9 2.5" fill="none" stroke="#3A3A3A" stroke-width="1.16" stroke-linecap="round"/>
<path d="M 276.9 168.6 Q 289.28000000000003 143.8 301.7 168.6" fill="#FBFAF7" stroke="#3A3A3A" stroke-width="1.24"/>
<path d="M 278.9 166.1 Q 289.28000000000003 164.3 299.7 166.1" fill="none" stroke="#3A3A3A" stroke-width="0.46" opacity="0.8"/>
<path d="M 280.9 163.6 Q 289.28000000000003 161.8 297.6 163.6" fill="none" stroke="#3A3A3A" stroke-width="0.46" opacity="0.8"/>
<path d="M 283.0 161.2 Q 289.28000000000003 159.3 295.6 161.2" fill="none" stroke="#3A3A3A" stroke-width="0.46" opacity="0.8"/>
<path d="M 285.0 158.7 Q 289.28000000000003 156.9 293.6 158.7" fill="none" stroke="#3A3A3A" stroke-width="0.46" opacity="0.8"/>
<rect x="287.9" y="151.4" width="2.8" height="5.8" fill="#CFCEC6" stroke="#3A3A3A" stroke-width="0.70"/>
<rect x="287.3" y="149.1" width="4.0" height="2.3" rx="0.8" fill="#2E6E3A"/>
<path d="M 316.7 170.6 L 317.7 182.0 Q 318.7 186.0 322.7 186.0 L 331.5 186.0 Q 335.5 186.0 336.5 182.0 L 337.5 170.6 Z" fill="#9E2B25" opacity="0.40"/>
<path d="M 314.7 168.6 L 317.7 181.0 Q 318.7 186.0 323.7 186.0 L 330.5 186.0 Q 335.5 186.0 336.5 181.0 L 339.5 168.6 Z" fill="none" stroke="#3A3A3A" stroke-width="1.24" stroke-linejoin="round"/>
<line x1="318.8" y1="170.6" x2="320.5" y2="183.0" stroke="#3A3A3A" stroke-width="0.46" opacity="0.8"/>
<line x1="323.0" y1="170.6" x2="323.8" y2="183.0" stroke="#3A3A3A" stroke-width="0.46" opacity="0.8"/>
<line x1="327.1" y1="170.6" x2="327.1" y2="183.0" stroke="#3A3A3A" stroke-width="0.46" opacity="0.8"/>
<line x1="331.3" y1="170.6" x2="330.4" y2="183.0" stroke="#3A3A3A" stroke-width="0.46" opacity="0.8"/>
<line x1="335.4" y1="170.6" x2="333.7" y2="183.0" stroke="#3A3A3A" stroke-width="0.46" opacity="0.8"/>
<line x1="315.0" y1="172.1" x2="339.2" y2="172.1" stroke="#3A3A3A" stroke-width="0.46" opacity="0.8"/>
<line x1="315.4" y1="175.6" x2="338.8" y2="175.6" stroke="#3A3A3A" stroke-width="0.46" opacity="0.8"/>
<line x1="315.7" y1="179.0" x2="338.5" y2="179.0" stroke="#3A3A3A" stroke-width="0.46" opacity="0.8"/>
<line x1="316.1" y1="182.5" x2="338.1" y2="182.5" stroke="#3A3A3A" stroke-width="0.46" opacity="0.8"/>
<ellipse cx="327.12000000000006" cy="168.6" rx="12.4" ry="2.5" fill="#3A3A3A"/>
<path d="M 315.7 167.6 q -4.6 -0.8 -5.0 2.5 q -0.4 2.2 1.9 2.5" fill="none" stroke="#3A3A3A" stroke-width="1.16" stroke-linecap="round"/>
<path d="M 338.5 167.6 q 4.6 -0.8 5.0 2.5 q 0.4 2.2 -1.9 2.5" fill="none" stroke="#3A3A3A" stroke-width="1.16" stroke-linecap="round"/>
<path d="M 314.7 168.6 Q 327.12000000000006 143.8 339.5 168.6" fill="#FBFAF7" stroke="#3A3A3A" stroke-width="1.24"/>
<path d="M 316.7 166.1 Q 327.12000000000006 164.3 337.5 166.1" fill="none" stroke="#3A3A3A" stroke-width="0.46" opacity="0.8"/>
<path d="M 318.8 163.6 Q 327.12000000000006 161.8 335.5 163.6" fill="none" stroke="#3A3A3A" stroke-width="0.46" opacity="0.8"/>
<path d="M 320.8 161.2 Q 327.12000000000006 159.3 333.4 161.2" fill="none" stroke="#3A3A3A" stroke-width="0.46" opacity="0.8"/>
<path d="M 322.8 158.7 Q 327.12000000000006 156.9 331.4 158.7" fill="none" stroke="#3A3A3A" stroke-width="0.46" opacity="0.8"/>
<rect x="325.7" y="151.4" width="2.8" height="5.8" fill="#CFCEC6" stroke="#3A3A3A" stroke-width="0.70"/>
<rect x="325.1" y="149.1" width="4.0" height="2.3" rx="0.8" fill="#2E6E3A"/>
<text x="630" y="92" font-size="11.5" fill="#6B6B6B" text-anchor="middle" font-weight="bold" font-family="'Helvetica Neue Condensed', 'Arial Narrow', 'Helvetica Neue', Arial, sans-serif" letter-spacing="0.6" style="font-variant-numeric:tabular-nums" >2 × 3 : TWO CRATES OF THREE</text>
<rect x="500.0" y="134.0" width="127.5" height="56.0" rx="6" fill="none" stroke="#2E5E8C" stroke-width="1.8"/>
<path d="M 515.5 170.6 L 516.5 182.0 Q 517.5 186.0 521.5 186.0 L 530.3 186.0 Q 534.3 186.0 535.3 182.0 L 536.3 170.6 Z" fill="#9E2B25" opacity="0.40"/>
<path d="M 513.5 168.6 L 516.5 181.0 Q 517.5 186.0 522.5 186.0 L 529.3 186.0 Q 534.3 186.0 535.3 181.0 L 538.3 168.6 Z" fill="none" stroke="#3A3A3A" stroke-width="1.24" stroke-linejoin="round"/>
<line x1="517.6" y1="170.6" x2="519.3" y2="183.0" stroke="#3A3A3A" stroke-width="0.46" opacity="0.8"/>
<line x1="521.8" y1="170.6" x2="522.6" y2="183.0" stroke="#3A3A3A" stroke-width="0.46" opacity="0.8"/>
<line x1="525.9" y1="170.6" x2="525.9" y2="183.0" stroke="#3A3A3A" stroke-width="0.46" opacity="0.8"/>
<line x1="530.1" y1="170.6" x2="529.2" y2="183.0" stroke="#3A3A3A" stroke-width="0.46" opacity="0.8"/>
<line x1="534.2" y1="170.6" x2="532.5" y2="183.0" stroke="#3A3A3A" stroke-width="0.46" opacity="0.8"/>
<line x1="513.8" y1="172.1" x2="538.0" y2="172.1" stroke="#3A3A3A" stroke-width="0.46" opacity="0.8"/>
<line x1="514.2" y1="175.6" x2="537.6" y2="175.6" stroke="#3A3A3A" stroke-width="0.46" opacity="0.8"/>
<line x1="514.5" y1="179.0" x2="537.3" y2="179.0" stroke="#3A3A3A" stroke-width="0.46" opacity="0.8"/>
<line x1="514.9" y1="182.5" x2="536.9" y2="182.5" stroke="#3A3A3A" stroke-width="0.46" opacity="0.8"/>
<ellipse cx="525.92" cy="168.6" rx="12.4" ry="2.5" fill="#3A3A3A"/>
<path d="M 514.5 167.6 q -4.6 -0.8 -5.0 2.5 q -0.4 2.2 1.9 2.5" fill="none" stroke="#3A3A3A" stroke-width="1.16" stroke-linecap="round"/>
<path d="M 537.3 167.6 q 4.6 -0.8 5.0 2.5 q 0.4 2.2 -1.9 2.5" fill="none" stroke="#3A3A3A" stroke-width="1.16" stroke-linecap="round"/>
<path d="M 513.5 168.6 Q 525.92 143.8 538.3 168.6" fill="#FBFAF7" stroke="#3A3A3A" stroke-width="1.24"/>
<path d="M 515.5 166.1 Q 525.92 164.3 536.3 166.1" fill="none" stroke="#3A3A3A" stroke-width="0.46" opacity="0.8"/>
<path d="M 517.6 163.6 Q 525.92 161.8 534.3 163.6" fill="none" stroke="#3A3A3A" stroke-width="0.46" opacity="0.8"/>
<path d="M 519.6 161.2 Q 525.92 159.3 532.2 161.2" fill="none" stroke="#3A3A3A" stroke-width="0.46" opacity="0.8"/>
<path d="M 521.6 158.7 Q 525.92 156.9 530.2 158.7" fill="none" stroke="#3A3A3A" stroke-width="0.46" opacity="0.8"/>
<rect x="524.5" y="151.4" width="2.8" height="5.8" fill="#CFCEC6" stroke="#3A3A3A" stroke-width="0.70"/>
<rect x="523.9" y="149.1" width="4.0" height="2.3" rx="0.8" fill="#2E6E3A"/>
<path d="M 553.3 170.6 L 554.3 182.0 Q 555.3 186.0 559.3 186.0 L 568.2 186.0 Q 572.2 186.0 573.2 182.0 L 574.2 170.6 Z" fill="#9E2B25" opacity="0.40"/>
<path d="M 551.3 168.6 L 554.3 181.0 Q 555.3 186.0 560.3 186.0 L 567.2 186.0 Q 572.2 186.0 573.2 181.0 L 576.2 168.6 Z" fill="none" stroke="#3A3A3A" stroke-width="1.24" stroke-linejoin="round"/>
<line x1="555.5" y1="170.6" x2="557.1" y2="183.0" stroke="#3A3A3A" stroke-width="0.46" opacity="0.8"/>
<line x1="559.6" y1="170.6" x2="560.4" y2="183.0" stroke="#3A3A3A" stroke-width="0.46" opacity="0.8"/>
<line x1="563.8" y1="170.6" x2="563.8" y2="183.0" stroke="#3A3A3A" stroke-width="0.46" opacity="0.8"/>
<line x1="567.9" y1="170.6" x2="567.1" y2="183.0" stroke="#3A3A3A" stroke-width="0.46" opacity="0.8"/>
<line x1="572.0" y1="170.6" x2="570.4" y2="183.0" stroke="#3A3A3A" stroke-width="0.46" opacity="0.8"/>
<line x1="551.7" y1="172.1" x2="575.8" y2="172.1" stroke="#3A3A3A" stroke-width="0.46" opacity="0.8"/>
<line x1="552.0" y1="175.6" x2="575.5" y2="175.6" stroke="#3A3A3A" stroke-width="0.46" opacity="0.8"/>
<line x1="552.4" y1="179.0" x2="575.1" y2="179.0" stroke="#3A3A3A" stroke-width="0.46" opacity="0.8"/>
<line x1="552.7" y1="182.5" x2="574.8" y2="182.5" stroke="#3A3A3A" stroke-width="0.46" opacity="0.8"/>
<ellipse cx="563.76" cy="168.6" rx="12.4" ry="2.5" fill="#3A3A3A"/>
<path d="M 552.3 167.6 q -4.6 -0.8 -5.0 2.5 q -0.4 2.2 1.9 2.5" fill="none" stroke="#3A3A3A" stroke-width="1.16" stroke-linecap="round"/>
<path d="M 575.2 167.6 q 4.6 -0.8 5.0 2.5 q 0.4 2.2 -1.9 2.5" fill="none" stroke="#3A3A3A" stroke-width="1.16" stroke-linecap="round"/>
<path d="M 551.3 168.6 Q 563.76 143.8 576.2 168.6" fill="#FBFAF7" stroke="#3A3A3A" stroke-width="1.24"/>
<path d="M 553.4 166.1 Q 563.76 164.3 574.1 166.1" fill="none" stroke="#3A3A3A" stroke-width="0.46" opacity="0.8"/>
<path d="M 555.4 163.6 Q 563.76 161.8 572.1 163.6" fill="none" stroke="#3A3A3A" stroke-width="0.46" opacity="0.8"/>
<path d="M 557.5 161.2 Q 563.76 159.3 570.1 161.2" fill="none" stroke="#3A3A3A" stroke-width="0.46" opacity="0.8"/>
<path d="M 559.5 158.7 Q 563.76 156.9 568.0 158.7" fill="none" stroke="#3A3A3A" stroke-width="0.46" opacity="0.8"/>
<rect x="562.4" y="151.4" width="2.8" height="5.8" fill="#CFCEC6" stroke="#3A3A3A" stroke-width="0.70"/>
<rect x="561.8" y="149.1" width="4.0" height="2.3" rx="0.8" fill="#2E6E3A"/>
<path d="M 591.2 170.6 L 592.2 182.0 Q 593.2 186.0 597.2 186.0 L 606.0 186.0 Q 610.0 186.0 611.0 182.0 L 612.0 170.6 Z" fill="#9E2B25" opacity="0.40"/>
<path d="M 589.2 168.6 L 592.2 181.0 Q 593.2 186.0 598.2 186.0 L 605.0 186.0 Q 610.0 186.0 611.0 181.0 L 614.0 168.6 Z" fill="none" stroke="#3A3A3A" stroke-width="1.24" stroke-linejoin="round"/>
<line x1="593.3" y1="170.6" x2="595.0" y2="183.0" stroke="#3A3A3A" stroke-width="0.46" opacity="0.8"/>
<line x1="597.5" y1="170.6" x2="598.3" y2="183.0" stroke="#3A3A3A" stroke-width="0.46" opacity="0.8"/>
<line x1="601.6" y1="170.6" x2="601.6" y2="183.0" stroke="#3A3A3A" stroke-width="0.46" opacity="0.8"/>
<line x1="605.7" y1="170.6" x2="604.9" y2="183.0" stroke="#3A3A3A" stroke-width="0.46" opacity="0.8"/>
<line x1="609.9" y1="170.6" x2="608.2" y2="183.0" stroke="#3A3A3A" stroke-width="0.46" opacity="0.8"/>
<line x1="589.5" y1="172.1" x2="613.7" y2="172.1" stroke="#3A3A3A" stroke-width="0.46" opacity="0.8"/>
<line x1="589.9" y1="175.6" x2="613.3" y2="175.6" stroke="#3A3A3A" stroke-width="0.46" opacity="0.8"/>
<line x1="590.2" y1="179.0" x2="613.0" y2="179.0" stroke="#3A3A3A" stroke-width="0.46" opacity="0.8"/>
<line x1="590.6" y1="182.5" x2="612.6" y2="182.5" stroke="#3A3A3A" stroke-width="0.46" opacity="0.8"/>
<ellipse cx="601.6" cy="168.6" rx="12.4" ry="2.5" fill="#3A3A3A"/>
<path d="M 590.2 167.6 q -4.6 -0.8 -5.0 2.5 q -0.4 2.2 1.9 2.5" fill="none" stroke="#3A3A3A" stroke-width="1.16" stroke-linecap="round"/>
<path d="M 613.0 167.6 q 4.6 -0.8 5.0 2.5 q 0.4 2.2 -1.9 2.5" fill="none" stroke="#3A3A3A" stroke-width="1.16" stroke-linecap="round"/>
<path d="M 589.2 168.6 Q 601.6 143.8 614.0 168.6" fill="#FBFAF7" stroke="#3A3A3A" stroke-width="1.24"/>
<path d="M 591.2 166.1 Q 601.6 164.3 612.0 166.1" fill="none" stroke="#3A3A3A" stroke-width="0.46" opacity="0.8"/>
<path d="M 593.3 163.6 Q 601.6 161.8 609.9 163.6" fill="none" stroke="#3A3A3A" stroke-width="0.46" opacity="0.8"/>
<path d="M 595.3 161.2 Q 601.6 159.3 607.9 161.2" fill="none" stroke="#3A3A3A" stroke-width="0.46" opacity="0.8"/>
<path d="M 597.3 158.7 Q 601.6 156.9 605.9 158.7" fill="none" stroke="#3A3A3A" stroke-width="0.46" opacity="0.8"/>
<rect x="600.2" y="151.4" width="2.8" height="5.8" fill="#CFCEC6" stroke="#3A3A3A" stroke-width="0.70"/>
<rect x="599.6" y="149.1" width="4.0" height="2.3" rx="0.8" fill="#2E6E3A"/>
<rect x="639.5" y="134.0" width="127.5" height="56.0" rx="6" fill="none" stroke="#2E5E8C" stroke-width="1.8"/>
<path d="M 655.0 170.6 L 656.0 182.0 Q 657.0 186.0 661.0 186.0 L 669.9 186.0 Q 673.9 186.0 674.9 182.0 L 675.9 170.6 Z" fill="#9E2B25" opacity="0.40"/>
<path d="M 653.0 168.6 L 656.0 181.0 Q 657.0 186.0 662.0 186.0 L 668.9 186.0 Q 673.9 186.0 674.9 181.0 L 677.9 168.6 Z" fill="none" stroke="#3A3A3A" stroke-width="1.24" stroke-linejoin="round"/>
<line x1="657.2" y1="170.6" x2="658.8" y2="183.0" stroke="#3A3A3A" stroke-width="0.46" opacity="0.8"/>
<line x1="661.3" y1="170.6" x2="662.1" y2="183.0" stroke="#3A3A3A" stroke-width="0.46" opacity="0.8"/>
<line x1="665.4" y1="170.6" x2="665.4" y2="183.0" stroke="#3A3A3A" stroke-width="0.46" opacity="0.8"/>
<line x1="669.6" y1="170.6" x2="668.8" y2="183.0" stroke="#3A3A3A" stroke-width="0.46" opacity="0.8"/>
<line x1="673.7" y1="170.6" x2="672.1" y2="183.0" stroke="#3A3A3A" stroke-width="0.46" opacity="0.8"/>
<line x1="653.4" y1="172.1" x2="677.5" y2="172.1" stroke="#3A3A3A" stroke-width="0.46" opacity="0.8"/>
<line x1="653.7" y1="175.6" x2="677.2" y2="175.6" stroke="#3A3A3A" stroke-width="0.46" opacity="0.8"/>
<line x1="654.1" y1="179.0" x2="676.8" y2="179.0" stroke="#3A3A3A" stroke-width="0.46" opacity="0.8"/>
<line x1="654.4" y1="182.5" x2="676.5" y2="182.5" stroke="#3A3A3A" stroke-width="0.46" opacity="0.8"/>
<ellipse cx="665.4399999999999" cy="168.6" rx="12.4" ry="2.5" fill="#3A3A3A"/>
<path d="M 654.0 167.6 q -4.6 -0.8 -5.0 2.5 q -0.4 2.2 1.9 2.5" fill="none" stroke="#3A3A3A" stroke-width="1.16" stroke-linecap="round"/>
<path d="M 676.9 167.6 q 4.6 -0.8 5.0 2.5 q 0.4 2.2 -1.9 2.5" fill="none" stroke="#3A3A3A" stroke-width="1.16" stroke-linecap="round"/>
<path d="M 653.0 168.6 Q 665.4399999999999 143.8 677.9 168.6" fill="#FBFAF7" stroke="#3A3A3A" stroke-width="1.24"/>
<path d="M 655.1 166.1 Q 665.4399999999999 164.3 675.8 166.1" fill="none" stroke="#3A3A3A" stroke-width="0.46" opacity="0.8"/>
<path d="M 657.1 163.6 Q 665.4399999999999 161.8 673.8 163.6" fill="none" stroke="#3A3A3A" stroke-width="0.46" opacity="0.8"/>
<path d="M 659.1 161.2 Q 665.4399999999999 159.3 671.7 161.2" fill="none" stroke="#3A3A3A" stroke-width="0.46" opacity="0.8"/>
<path d="M 661.2 158.7 Q 665.4399999999999 156.9 669.7 158.7" fill="none" stroke="#3A3A3A" stroke-width="0.46" opacity="0.8"/>
<rect x="664.0" y="151.4" width="2.8" height="5.8" fill="#CFCEC6" stroke="#3A3A3A" stroke-width="0.70"/>
<rect x="663.4" y="149.1" width="4.0" height="2.3" rx="0.8" fill="#2E6E3A"/>
<path d="M 692.9 170.6 L 693.9 182.0 Q 694.9 186.0 698.9 186.0 L 707.7 186.0 Q 711.7 186.0 712.7 182.0 L 713.7 170.6 Z" fill="#9E2B25" opacity="0.40"/>
<path d="M 690.9 168.6 L 693.9 181.0 Q 694.9 186.0 699.9 186.0 L 706.7 186.0 Q 711.7 186.0 712.7 181.0 L 715.7 168.6 Z" fill="none" stroke="#3A3A3A" stroke-width="1.24" stroke-linejoin="round"/>
<line x1="695.0" y1="170.6" x2="696.7" y2="183.0" stroke="#3A3A3A" stroke-width="0.46" opacity="0.8"/>
<line x1="699.1" y1="170.6" x2="700.0" y2="183.0" stroke="#3A3A3A" stroke-width="0.46" opacity="0.8"/>
<line x1="703.3" y1="170.6" x2="703.3" y2="183.0" stroke="#3A3A3A" stroke-width="0.46" opacity="0.8"/>
<line x1="707.4" y1="170.6" x2="706.6" y2="183.0" stroke="#3A3A3A" stroke-width="0.46" opacity="0.8"/>
<line x1="711.6" y1="170.6" x2="709.9" y2="183.0" stroke="#3A3A3A" stroke-width="0.46" opacity="0.8"/>
<line x1="691.2" y1="172.1" x2="715.4" y2="172.1" stroke="#3A3A3A" stroke-width="0.46" opacity="0.8"/>
<line x1="691.6" y1="175.6" x2="715.0" y2="175.6" stroke="#3A3A3A" stroke-width="0.46" opacity="0.8"/>
<line x1="691.9" y1="179.0" x2="714.7" y2="179.0" stroke="#3A3A3A" stroke-width="0.46" opacity="0.8"/>
<line x1="692.3" y1="182.5" x2="714.3" y2="182.5" stroke="#3A3A3A" stroke-width="0.46" opacity="0.8"/>
<ellipse cx="703.28" cy="168.6" rx="12.4" ry="2.5" fill="#3A3A3A"/>
<path d="M 691.9 167.6 q -4.6 -0.8 -5.0 2.5 q -0.4 2.2 1.9 2.5" fill="none" stroke="#3A3A3A" stroke-width="1.16" stroke-linecap="round"/>
<path d="M 714.7 167.6 q 4.6 -0.8 5.0 2.5 q 0.4 2.2 -1.9 2.5" fill="none" stroke="#3A3A3A" stroke-width="1.16" stroke-linecap="round"/>
<path d="M 690.9 168.6 Q 703.28 143.8 715.7 168.6" fill="#FBFAF7" stroke="#3A3A3A" stroke-width="1.24"/>
<path d="M 692.9 166.1 Q 703.28 164.3 713.7 166.1" fill="none" stroke="#3A3A3A" stroke-width="0.46" opacity="0.8"/>
<path d="M 694.9 163.6 Q 703.28 161.8 711.6 163.6" fill="none" stroke="#3A3A3A" stroke-width="0.46" opacity="0.8"/>
<path d="M 697.0 161.2 Q 703.28 159.3 709.6 161.2" fill="none" stroke="#3A3A3A" stroke-width="0.46" opacity="0.8"/>
<path d="M 699.0 158.7 Q 703.28 156.9 707.6 158.7" fill="none" stroke="#3A3A3A" stroke-width="0.46" opacity="0.8"/>
<rect x="701.9" y="151.4" width="2.8" height="5.8" fill="#CFCEC6" stroke="#3A3A3A" stroke-width="0.70"/>
<rect x="701.3" y="149.1" width="4.0" height="2.3" rx="0.8" fill="#2E6E3A"/>
<path d="M 730.7 170.6 L 731.7 182.0 Q 732.7 186.0 736.7 186.0 L 745.5 186.0 Q 749.5 186.0 750.5 182.0 L 751.5 170.6 Z" fill="#9E2B25" opacity="0.40"/>
<path d="M 728.7 168.6 L 731.7 181.0 Q 732.7 186.0 737.7 186.0 L 744.5 186.0 Q 749.5 186.0 750.5 181.0 L 753.5 168.6 Z" fill="none" stroke="#3A3A3A" stroke-width="1.24" stroke-linejoin="round"/>
<line x1="732.8" y1="170.6" x2="734.5" y2="183.0" stroke="#3A3A3A" stroke-width="0.46" opacity="0.8"/>
<line x1="737.0" y1="170.6" x2="737.8" y2="183.0" stroke="#3A3A3A" stroke-width="0.46" opacity="0.8"/>
<line x1="741.1" y1="170.6" x2="741.1" y2="183.0" stroke="#3A3A3A" stroke-width="0.46" opacity="0.8"/>
<line x1="745.3" y1="170.6" x2="744.4" y2="183.0" stroke="#3A3A3A" stroke-width="0.46" opacity="0.8"/>
<line x1="749.4" y1="170.6" x2="747.7" y2="183.0" stroke="#3A3A3A" stroke-width="0.46" opacity="0.8"/>
<line x1="729.0" y1="172.1" x2="753.2" y2="172.1" stroke="#3A3A3A" stroke-width="0.46" opacity="0.8"/>
<line x1="729.4" y1="175.6" x2="752.8" y2="175.6" stroke="#3A3A3A" stroke-width="0.46" opacity="0.8"/>
<line x1="729.7" y1="179.0" x2="752.5" y2="179.0" stroke="#3A3A3A" stroke-width="0.46" opacity="0.8"/>
<line x1="730.1" y1="182.5" x2="752.1" y2="182.5" stroke="#3A3A3A" stroke-width="0.46" opacity="0.8"/>
<ellipse cx="741.12" cy="168.6" rx="12.4" ry="2.5" fill="#3A3A3A"/>
<path d="M 729.7 167.6 q -4.6 -0.8 -5.0 2.5 q -0.4 2.2 1.9 2.5" fill="none" stroke="#3A3A3A" stroke-width="1.16" stroke-linecap="round"/>
<path d="M 752.5 167.6 q 4.6 -0.8 5.0 2.5 q 0.4 2.2 -1.9 2.5" fill="none" stroke="#3A3A3A" stroke-width="1.16" stroke-linecap="round"/>
<path d="M 728.7 168.6 Q 741.12 143.8 753.5 168.6" fill="#FBFAF7" stroke="#3A3A3A" stroke-width="1.24"/>
<path d="M 730.7 166.1 Q 741.12 164.3 751.5 166.1" fill="none" stroke="#3A3A3A" stroke-width="0.46" opacity="0.8"/>
<path d="M 732.8 163.6 Q 741.12 161.8 749.5 163.6" fill="none" stroke="#3A3A3A" stroke-width="0.46" opacity="0.8"/>
<path d="M 734.8 161.2 Q 741.12 159.3 747.4 161.2" fill="none" stroke="#3A3A3A" stroke-width="0.46" opacity="0.8"/>
<path d="M 736.8 158.7 Q 741.12 156.9 745.4 158.7" fill="none" stroke="#3A3A3A" stroke-width="0.46" opacity="0.8"/>
<rect x="739.7" y="151.4" width="2.8" height="5.8" fill="#CFCEC6" stroke="#3A3A3A" stroke-width="0.70"/>
<rect x="739.1" y="149.1" width="4.0" height="2.3" rx="0.8" fill="#2E6E3A"/>
<line x1="210" y1="210" x2="380" y2="262" stroke="#B8B4AC" stroke-width="2.2"/><path d="M 380 262 L 370.1 263.5 M 380 262 L 372.7 255.2" stroke="#B8B4AC" stroke-width="2.2" fill="none" stroke-linecap="round"/>
<line x1="630" y1="210" x2="462" y2="262" stroke="#B8B4AC" stroke-width="2.2"/><path d="M 462 262 L 469.3 255.2 M 462 262 L 471.9 263.5" stroke="#B8B4AC" stroke-width="2.2" fill="none" stroke-linecap="round"/>
<text x="300" y="238" font-size="12" fill="#6B6B6B" text-anchor="middle" font-weight="normal" font-family="'Helvetica Neue Condensed', 'Arial Narrow', 'Helvetica Neue', Arial, sans-serif" style="font-variant-numeric:tabular-nums" >tear open and pour</text>
<text x="548" y="238" font-size="12" fill="#6B6B6B" text-anchor="middle" font-weight="normal" font-family="'Helvetica Neue Condensed', 'Arial Narrow', 'Helvetica Neue', Arial, sans-serif" style="font-variant-numeric:tabular-nums" >tear open and pour</text>
<path d="M 402.8 292.3 L 402.8 317.0 Q 403.4 320.0 407.0 320.0 L 433.0 320.0 Q 436.6 320.0 437.2 317.0 L 437.2 292.3 Z" fill="#9E2B25" opacity="0.78"/>
<path d="M 401.0 290.3 L 401.0 316.0 Q 401.0 320.0 406.0 320.0 L 434.0 320.0 Q 439.0 320.0 439.0 316.0 L 439.0 290.3 Z" fill="none" stroke="#3A3A3A" stroke-width="1.5" stroke-linejoin="round"/>
<line x1="410.5" y1="291.8" x2="410.5" y2="318.0" stroke="#3A3A3A" stroke-width="0.5" opacity="0.7"/>
<line x1="420.0" y1="291.8" x2="420.0" y2="318.0" stroke="#3A3A3A" stroke-width="0.5" opacity="0.7"/>
<line x1="429.5" y1="291.8" x2="429.5" y2="318.0" stroke="#3A3A3A" stroke-width="0.5" opacity="0.7"/>
<line x1="401.0" y1="312.6" x2="439.0" y2="312.6" stroke="#3A3A3A" stroke-width="0.5" opacity="0.7"/>
<line x1="401.0" y1="305.1" x2="439.0" y2="305.1" stroke="#3A3A3A" stroke-width="0.5" opacity="0.7"/>
<line x1="401.0" y1="297.7" x2="439.0" y2="297.7" stroke="#3A3A3A" stroke-width="0.5" opacity="0.7"/>
<ellipse cx="420" cy="290.3" rx="19.0" ry="2.6" fill="#3A3A3A"/>
<path d="M 401.5 289.8 q -4.2 -0.8 -4.6 2.6 q -0.4 2.4 2.0 2.6" fill="none" stroke="#3A3A3A" stroke-width="1.27" stroke-linecap="round"/>
<path d="M 438.5 289.8 q 4.2 -0.8 4.6 2.6 q 0.4 2.4 -2.0 2.6" fill="none" stroke="#3A3A3A" stroke-width="1.27" stroke-linecap="round"/>
<path d="M 401.0 290.3 Q 420 264.3 439.0 290.3" fill="#FBFAF7" stroke="#3A3A3A" stroke-width="1.5"/>
<path d="M 404.8 287.1 Q 420 285.1 435.2 287.1" fill="none" stroke="#3A3A3A" stroke-width="0.5" opacity="0.7"/>
<path d="M 408.6 283.8 Q 420 281.8 431.4 283.8" fill="none" stroke="#3A3A3A" stroke-width="0.5" opacity="0.7"/>
<path d="M 412.4 280.6 Q 420 278.6 427.6 280.6" fill="none" stroke="#3A3A3A" stroke-width="0.5" opacity="0.7"/>
<rect x="417.8" y="269.3" width="4.4" height="9.0" fill="#CFCEC6" stroke="#3A3A3A" stroke-width="0.9"/>
<rect x="417.1" y="266.7" width="5.8" height="3.0" rx="1" fill="#2E6E3A"/>
<text x="420" y="340" font-size="15" fill="#1A1A1A" text-anchor="middle" font-weight="bold" font-family="'Helvetica Neue Condensed', 'Arial Narrow', 'Helvetica Neue', Arial, sans-serif" style="font-variant-numeric:tabular-nums" >6 L</text>
<line x1="40" y1="358" x2="800" y2="358" stroke="#DAD6CC" stroke-width="1"/>
<text x="40" y="378" font-size="13" fill="#6B6B6B" text-anchor="start" font-weight="normal" style="font-variant-numeric:tabular-nums" >Same shadow, different objects. The pouring is a second, separate act.</text>
<text x="800" y="378" font-size="11.5" fill="#9E2B25" text-anchor="end" font-weight="bold" font-family="'Helvetica Neue Condensed', 'Arial Narrow', 'Helvetica Neue', Arial, sans-serif" style="font-variant-numeric:tabular-nums" >ℹ  which arrangement? = log₂ 2 = 1 bit the label “6” hides</text>
</svg>
