<svg xmlns="http://www.w3.org/2000/svg" viewBox="0 0 840 400" font-family="'Helvetica Neue', 'Arial Narrow', Helvetica, Arial, sans-serif">
<rect width="840" height="400" fill="#FBFAF7"/>
<text x="40" y="32" font-size="11.5" fill="#6B6B6B" text-anchor="start" font-weight="bold" font-family="'Helvetica Neue Condensed', 'Arial Narrow', 'Helvetica Neue', Arial, sans-serif" letter-spacing="1.6" style="font-variant-numeric:tabular-nums" >PACKING, NOT POURING</text>
<text x="40" y="54" font-size="20" fill="#1A1A1A" text-anchor="start" font-weight="bold" font-family="'Helvetica Neue Condensed', 'Arial Narrow', 'Helvetica Neue', Arial, sans-serif" style="font-variant-numeric:tabular-nums" >You never get six liters from multiplication</text>
<text x="210" y="92" font-size="11.5" fill="#6B6B6B" text-anchor="middle" font-weight="bold" font-family="'Helvetica Neue Condensed', 'Arial Narrow', 'Helvetica Neue', Arial, sans-serif" letter-spacing="0.6" style="font-variant-numeric:tabular-nums" >3 × 2 : THREE CRATES OF TWO</text>
<rect x="60.0" y="128.0" width="78.0" height="62.0" rx="6" fill="none" stroke="#2E5E8C" stroke-width="2"/>
<path d="M 62.7 154.4 L 63.7 181.0 Q 64.7 185.0 68.7 185.0 L 99.3 185.0 Q 103.3 185.0 104.3 181.0 L 105.3 154.4 Z" fill="#9E2B25" opacity="0.40"/>
<path d="M 60.7 152.4 L 63.7 180.0 Q 64.7 185.0 69.7 185.0 L 98.3 185.0 Q 103.3 185.0 104.3 180.0 L 107.3 152.4 Z" fill="none" stroke="#3A3A3A" stroke-width="2.33" stroke-linejoin="round"/>
<line x1="68.5" y1="154.4" x2="71.6" y2="182.0" stroke="#3A3A3A" stroke-width="0.85" opacity="0.8"/>
<line x1="76.2" y1="154.4" x2="77.8" y2="182.0" stroke="#3A3A3A" stroke-width="0.85" opacity="0.8"/>
<line x1="84.0" y1="154.4" x2="84.0" y2="182.0" stroke="#3A3A3A" stroke-width="0.85" opacity="0.8"/>
<line x1="91.8" y1="154.4" x2="90.2" y2="182.0" stroke="#3A3A3A" stroke-width="0.85" opacity="0.8"/>
<line x1="99.5" y1="154.4" x2="96.4" y2="182.0" stroke="#3A3A3A" stroke-width="0.85" opacity="0.8"/>
<line x1="61.4" y1="158.9" x2="106.6" y2="158.9" stroke="#3A3A3A" stroke-width="0.85" opacity="0.8"/>
<line x1="62.0" y1="165.4" x2="106.0" y2="165.4" stroke="#3A3A3A" stroke-width="0.85" opacity="0.8"/>
<line x1="62.7" y1="172.0" x2="105.3" y2="172.0" stroke="#3A3A3A" stroke-width="0.85" opacity="0.8"/>
<line x1="63.3" y1="178.5" x2="104.7" y2="178.5" stroke="#3A3A3A" stroke-width="0.85" opacity="0.8"/>
<ellipse cx="84.0" cy="152.4" rx="23.3" ry="4.7" fill="#3A3A3A"/>
<path d="M 61.7 151.4 q -8.5 -1.6 -9.3 4.7 q -0.8 4.0 3.6 4.7" fill="none" stroke="#3A3A3A" stroke-width="2.17" stroke-linecap="round"/>
<path d="M 106.3 151.4 q 8.5 -1.6 9.3 4.7 q 0.8 4.0 -3.6 4.7" fill="none" stroke="#3A3A3A" stroke-width="2.17" stroke-linecap="round"/>
<path d="M 60.7 152.4 Q 84.0 124.5 107.3 152.4" fill="none" stroke="#3A3A3A" stroke-width="2.33"/>
<path d="M 64.5 147.7 Q 84.0 144.3 103.5 147.7" fill="none" stroke="#3A3A3A" stroke-width="0.85" opacity="0.8"/>
<path d="M 68.4 143.1 Q 84.0 139.7 99.6 143.1" fill="none" stroke="#3A3A3A" stroke-width="0.85" opacity="0.8"/>
<path d="M 72.2 138.4 Q 84.0 135.0 95.8 138.4" fill="none" stroke="#3A3A3A" stroke-width="0.85" opacity="0.8"/>
<path d="M 76.0 133.8 Q 84.0 130.4 92.0 133.8" fill="none" stroke="#3A3A3A" stroke-width="0.85" opacity="0.8"/>
<rect x="81.4" y="118.2" width="5.3" height="10.9" fill="#CFCEC6" stroke="#3A3A3A" stroke-width="1.32"/>
<rect x="80.8" y="114.5" width="6.5" height="4.3" rx="1.6" fill="#2E6E3A"/>
<path d="M 92.7 154.4 L 93.7 181.0 Q 94.7 185.0 98.7 185.0 L 129.3 185.0 Q 133.3 185.0 134.3 181.0 L 135.3 154.4 Z" fill="#9E2B25" opacity="0.40"/>
<path d="M 90.7 152.4 L 93.7 180.0 Q 94.7 185.0 99.7 185.0 L 128.3 185.0 Q 133.3 185.0 134.3 180.0 L 137.3 152.4 Z" fill="none" stroke="#3A3A3A" stroke-width="2.33" stroke-linejoin="round"/>
<line x1="98.5" y1="154.4" x2="101.6" y2="182.0" stroke="#3A3A3A" stroke-width="0.85" opacity="0.8"/>
<line x1="106.2" y1="154.4" x2="107.8" y2="182.0" stroke="#3A3A3A" stroke-width="0.85" opacity="0.8"/>
<line x1="114.0" y1="154.4" x2="114.0" y2="182.0" stroke="#3A3A3A" stroke-width="0.85" opacity="0.8"/>
<line x1="121.8" y1="154.4" x2="120.2" y2="182.0" stroke="#3A3A3A" stroke-width="0.85" opacity="0.8"/>
<line x1="129.5" y1="154.4" x2="126.4" y2="182.0" stroke="#3A3A3A" stroke-width="0.85" opacity="0.8"/>
<line x1="91.4" y1="158.9" x2="136.6" y2="158.9" stroke="#3A3A3A" stroke-width="0.85" opacity="0.8"/>
<line x1="92.0" y1="165.4" x2="136.0" y2="165.4" stroke="#3A3A3A" stroke-width="0.85" opacity="0.8"/>
<line x1="92.7" y1="172.0" x2="135.3" y2="172.0" stroke="#3A3A3A" stroke-width="0.85" opacity="0.8"/>
<line x1="93.3" y1="178.5" x2="134.7" y2="178.5" stroke="#3A3A3A" stroke-width="0.85" opacity="0.8"/>
<ellipse cx="114.0" cy="152.4" rx="23.3" ry="4.7" fill="#3A3A3A"/>
<path d="M 91.7 151.4 q -8.5 -1.6 -9.3 4.7 q -0.8 4.0 3.6 4.7" fill="none" stroke="#3A3A3A" stroke-width="2.17" stroke-linecap="round"/>
<path d="M 136.3 151.4 q 8.5 -1.6 9.3 4.7 q 0.8 4.0 -3.6 4.7" fill="none" stroke="#3A3A3A" stroke-width="2.17" stroke-linecap="round"/>
<path d="M 90.7 152.4 Q 114.0 124.5 137.3 152.4" fill="none" stroke="#3A3A3A" stroke-width="2.33"/>
<path d="M 94.5 147.7 Q 114.0 144.3 133.5 147.7" fill="none" stroke="#3A3A3A" stroke-width="0.85" opacity="0.8"/>
<path d="M 98.4 143.1 Q 114.0 139.7 129.6 143.1" fill="none" stroke="#3A3A3A" stroke-width="0.85" opacity="0.8"/>
<path d="M 102.2 138.4 Q 114.0 135.0 125.8 138.4" fill="none" stroke="#3A3A3A" stroke-width="0.85" opacity="0.8"/>
<path d="M 106.0 133.8 Q 114.0 130.4 122.0 133.8" fill="none" stroke="#3A3A3A" stroke-width="0.85" opacity="0.8"/>
<rect x="111.4" y="118.2" width="5.3" height="10.9" fill="#CFCEC6" stroke="#3A3A3A" stroke-width="1.32"/>
<rect x="110.8" y="114.5" width="6.5" height="4.3" rx="1.6" fill="#2E6E3A"/>
<rect x="150.0" y="128.0" width="78.0" height="62.0" rx="6" fill="none" stroke="#2E5E8C" stroke-width="2"/>
<path d="M 152.7 154.4 L 153.7 181.0 Q 154.7 185.0 158.7 185.0 L 189.3 185.0 Q 193.3 185.0 194.3 181.0 L 195.3 154.4 Z" fill="#9E2B25" opacity="0.40"/>
<path d="M 150.7 152.4 L 153.7 180.0 Q 154.7 185.0 159.7 185.0 L 188.3 185.0 Q 193.3 185.0 194.3 180.0 L 197.3 152.4 Z" fill="none" stroke="#3A3A3A" stroke-width="2.33" stroke-linejoin="round"/>
<line x1="158.5" y1="154.4" x2="161.6" y2="182.0" stroke="#3A3A3A" stroke-width="0.85" opacity="0.8"/>
<line x1="166.2" y1="154.4" x2="167.8" y2="182.0" stroke="#3A3A3A" stroke-width="0.85" opacity="0.8"/>
<line x1="174.0" y1="154.4" x2="174.0" y2="182.0" stroke="#3A3A3A" stroke-width="0.85" opacity="0.8"/>
<line x1="181.8" y1="154.4" x2="180.2" y2="182.0" stroke="#3A3A3A" stroke-width="0.85" opacity="0.8"/>
<line x1="189.5" y1="154.4" x2="186.4" y2="182.0" stroke="#3A3A3A" stroke-width="0.85" opacity="0.8"/>
<line x1="151.4" y1="158.9" x2="196.6" y2="158.9" stroke="#3A3A3A" stroke-width="0.85" opacity="0.8"/>
<line x1="152.0" y1="165.4" x2="196.0" y2="165.4" stroke="#3A3A3A" stroke-width="0.85" opacity="0.8"/>
<line x1="152.7" y1="172.0" x2="195.3" y2="172.0" stroke="#3A3A3A" stroke-width="0.85" opacity="0.8"/>
<line x1="153.3" y1="178.5" x2="194.7" y2="178.5" stroke="#3A3A3A" stroke-width="0.85" opacity="0.8"/>
<ellipse cx="174.0" cy="152.4" rx="23.3" ry="4.7" fill="#3A3A3A"/>
<path d="M 151.7 151.4 q -8.5 -1.6 -9.3 4.7 q -0.8 4.0 3.6 4.7" fill="none" stroke="#3A3A3A" stroke-width="2.17" stroke-linecap="round"/>
<path d="M 196.3 151.4 q 8.5 -1.6 9.3 4.7 q 0.8 4.0 -3.6 4.7" fill="none" stroke="#3A3A3A" stroke-width="2.17" stroke-linecap="round"/>
<path d="M 150.7 152.4 Q 174.0 124.5 197.3 152.4" fill="none" stroke="#3A3A3A" stroke-width="2.33"/>
<path d="M 154.5 147.7 Q 174.0 144.3 193.5 147.7" fill="none" stroke="#3A3A3A" stroke-width="0.85" opacity="0.8"/>
<path d="M 158.4 143.1 Q 174.0 139.7 189.6 143.1" fill="none" stroke="#3A3A3A" stroke-width="0.85" opacity="0.8"/>
<path d="M 162.2 138.4 Q 174.0 135.0 185.8 138.4" fill="none" stroke="#3A3A3A" stroke-width="0.85" opacity="0.8"/>
<path d="M 166.0 133.8 Q 174.0 130.4 182.0 133.8" fill="none" stroke="#3A3A3A" stroke-width="0.85" opacity="0.8"/>
<rect x="171.4" y="118.2" width="5.3" height="10.9" fill="#CFCEC6" stroke="#3A3A3A" stroke-width="1.32"/>
<rect x="170.8" y="114.5" width="6.5" height="4.3" rx="1.6" fill="#2E6E3A"/>
<path d="M 182.7 154.4 L 183.7 181.0 Q 184.7 185.0 188.7 185.0 L 219.3 185.0 Q 223.3 185.0 224.3 181.0 L 225.3 154.4 Z" fill="#9E2B25" opacity="0.40"/>
<path d="M 180.7 152.4 L 183.7 180.0 Q 184.7 185.0 189.7 185.0 L 218.3 185.0 Q 223.3 185.0 224.3 180.0 L 227.3 152.4 Z" fill="none" stroke="#3A3A3A" stroke-width="2.33" stroke-linejoin="round"/>
<line x1="188.5" y1="154.4" x2="191.6" y2="182.0" stroke="#3A3A3A" stroke-width="0.85" opacity="0.8"/>
<line x1="196.2" y1="154.4" x2="197.8" y2="182.0" stroke="#3A3A3A" stroke-width="0.85" opacity="0.8"/>
<line x1="204.0" y1="154.4" x2="204.0" y2="182.0" stroke="#3A3A3A" stroke-width="0.85" opacity="0.8"/>
<line x1="211.8" y1="154.4" x2="210.2" y2="182.0" stroke="#3A3A3A" stroke-width="0.85" opacity="0.8"/>
<line x1="219.5" y1="154.4" x2="216.4" y2="182.0" stroke="#3A3A3A" stroke-width="0.85" opacity="0.8"/>
<line x1="181.4" y1="158.9" x2="226.6" y2="158.9" stroke="#3A3A3A" stroke-width="0.85" opacity="0.8"/>
<line x1="182.0" y1="165.4" x2="226.0" y2="165.4" stroke="#3A3A3A" stroke-width="0.85" opacity="0.8"/>
<line x1="182.7" y1="172.0" x2="225.3" y2="172.0" stroke="#3A3A3A" stroke-width="0.85" opacity="0.8"/>
<line x1="183.3" y1="178.5" x2="224.7" y2="178.5" stroke="#3A3A3A" stroke-width="0.85" opacity="0.8"/>
<ellipse cx="204.0" cy="152.4" rx="23.3" ry="4.7" fill="#3A3A3A"/>
<path d="M 181.7 151.4 q -8.5 -1.6 -9.3 4.7 q -0.8 4.0 3.6 4.7" fill="none" stroke="#3A3A3A" stroke-width="2.17" stroke-linecap="round"/>
<path d="M 226.3 151.4 q 8.5 -1.6 9.3 4.7 q 0.8 4.0 -3.6 4.7" fill="none" stroke="#3A3A3A" stroke-width="2.17" stroke-linecap="round"/>
<path d="M 180.7 152.4 Q 204.0 124.5 227.3 152.4" fill="none" stroke="#3A3A3A" stroke-width="2.33"/>
<path d="M 184.5 147.7 Q 204.0 144.3 223.5 147.7" fill="none" stroke="#3A3A3A" stroke-width="0.85" opacity="0.8"/>
<path d="M 188.4 143.1 Q 204.0 139.7 219.6 143.1" fill="none" stroke="#3A3A3A" stroke-width="0.85" opacity="0.8"/>
<path d="M 192.2 138.4 Q 204.0 135.0 215.8 138.4" fill="none" stroke="#3A3A3A" stroke-width="0.85" opacity="0.8"/>
<path d="M 196.0 133.8 Q 204.0 130.4 212.0 133.8" fill="none" stroke="#3A3A3A" stroke-width="0.85" opacity="0.8"/>
<rect x="201.4" y="118.2" width="5.3" height="10.9" fill="#CFCEC6" stroke="#3A3A3A" stroke-width="1.32"/>
<rect x="200.8" y="114.5" width="6.5" height="4.3" rx="1.6" fill="#2E6E3A"/>
<rect x="240.0" y="128.0" width="78.0" height="62.0" rx="6" fill="none" stroke="#2E5E8C" stroke-width="2"/>
<path d="M 242.7 154.4 L 243.7 181.0 Q 244.7 185.0 248.7 185.0 L 279.3 185.0 Q 283.3 185.0 284.3 181.0 L 285.3 154.4 Z" fill="#9E2B25" opacity="0.40"/>
<path d="M 240.7 152.4 L 243.7 180.0 Q 244.7 185.0 249.7 185.0 L 278.3 185.0 Q 283.3 185.0 284.3 180.0 L 287.3 152.4 Z" fill="none" stroke="#3A3A3A" stroke-width="2.33" stroke-linejoin="round"/>
<line x1="248.5" y1="154.4" x2="251.6" y2="182.0" stroke="#3A3A3A" stroke-width="0.85" opacity="0.8"/>
<line x1="256.2" y1="154.4" x2="257.8" y2="182.0" stroke="#3A3A3A" stroke-width="0.85" opacity="0.8"/>
<line x1="264.0" y1="154.4" x2="264.0" y2="182.0" stroke="#3A3A3A" stroke-width="0.85" opacity="0.8"/>
<line x1="271.8" y1="154.4" x2="270.2" y2="182.0" stroke="#3A3A3A" stroke-width="0.85" opacity="0.8"/>
<line x1="279.5" y1="154.4" x2="276.4" y2="182.0" stroke="#3A3A3A" stroke-width="0.85" opacity="0.8"/>
<line x1="241.4" y1="158.9" x2="286.6" y2="158.9" stroke="#3A3A3A" stroke-width="0.85" opacity="0.8"/>
<line x1="242.0" y1="165.4" x2="286.0" y2="165.4" stroke="#3A3A3A" stroke-width="0.85" opacity="0.8"/>
<line x1="242.7" y1="172.0" x2="285.3" y2="172.0" stroke="#3A3A3A" stroke-width="0.85" opacity="0.8"/>
<line x1="243.3" y1="178.5" x2="284.7" y2="178.5" stroke="#3A3A3A" stroke-width="0.85" opacity="0.8"/>
<ellipse cx="264.0" cy="152.4" rx="23.3" ry="4.7" fill="#3A3A3A"/>
<path d="M 241.7 151.4 q -8.5 -1.6 -9.3 4.7 q -0.8 4.0 3.6 4.7" fill="none" stroke="#3A3A3A" stroke-width="2.17" stroke-linecap="round"/>
<path d="M 286.3 151.4 q 8.5 -1.6 9.3 4.7 q 0.8 4.0 -3.6 4.7" fill="none" stroke="#3A3A3A" stroke-width="2.17" stroke-linecap="round"/>
<path d="M 240.7 152.4 Q 264.0 124.5 287.3 152.4" fill="none" stroke="#3A3A3A" stroke-width="2.33"/>
<path d="M 244.5 147.7 Q 264.0 144.3 283.5 147.7" fill="none" stroke="#3A3A3A" stroke-width="0.85" opacity="0.8"/>
<path d="M 248.4 143.1 Q 264.0 139.7 279.6 143.1" fill="none" stroke="#3A3A3A" stroke-width="0.85" opacity="0.8"/>
<path d="M 252.2 138.4 Q 264.0 135.0 275.8 138.4" fill="none" stroke="#3A3A3A" stroke-width="0.85" opacity="0.8"/>
<path d="M 256.0 133.8 Q 264.0 130.4 272.0 133.8" fill="none" stroke="#3A3A3A" stroke-width="0.85" opacity="0.8"/>
<rect x="261.4" y="118.2" width="5.3" height="10.9" fill="#CFCEC6" stroke="#3A3A3A" stroke-width="1.32"/>
<rect x="260.8" y="114.5" width="6.5" height="4.3" rx="1.6" fill="#2E6E3A"/>
<path d="M 272.7 154.4 L 273.7 181.0 Q 274.7 185.0 278.7 185.0 L 309.3 185.0 Q 313.3 185.0 314.3 181.0 L 315.3 154.4 Z" fill="#9E2B25" opacity="0.40"/>
<path d="M 270.7 152.4 L 273.7 180.0 Q 274.7 185.0 279.7 185.0 L 308.3 185.0 Q 313.3 185.0 314.3 180.0 L 317.3 152.4 Z" fill="none" stroke="#3A3A3A" stroke-width="2.33" stroke-linejoin="round"/>
<line x1="278.5" y1="154.4" x2="281.6" y2="182.0" stroke="#3A3A3A" stroke-width="0.85" opacity="0.8"/>
<line x1="286.2" y1="154.4" x2="287.8" y2="182.0" stroke="#3A3A3A" stroke-width="0.85" opacity="0.8"/>
<line x1="294.0" y1="154.4" x2="294.0" y2="182.0" stroke="#3A3A3A" stroke-width="0.85" opacity="0.8"/>
<line x1="301.8" y1="154.4" x2="300.2" y2="182.0" stroke="#3A3A3A" stroke-width="0.85" opacity="0.8"/>
<line x1="309.5" y1="154.4" x2="306.4" y2="182.0" stroke="#3A3A3A" stroke-width="0.85" opacity="0.8"/>
<line x1="271.4" y1="158.9" x2="316.6" y2="158.9" stroke="#3A3A3A" stroke-width="0.85" opacity="0.8"/>
<line x1="272.0" y1="165.4" x2="316.0" y2="165.4" stroke="#3A3A3A" stroke-width="0.85" opacity="0.8"/>
<line x1="272.7" y1="172.0" x2="315.3" y2="172.0" stroke="#3A3A3A" stroke-width="0.85" opacity="0.8"/>
<line x1="273.3" y1="178.5" x2="314.7" y2="178.5" stroke="#3A3A3A" stroke-width="0.85" opacity="0.8"/>
<ellipse cx="294.0" cy="152.4" rx="23.3" ry="4.7" fill="#3A3A3A"/>
<path d="M 271.7 151.4 q -8.5 -1.6 -9.3 4.7 q -0.8 4.0 3.6 4.7" fill="none" stroke="#3A3A3A" stroke-width="2.17" stroke-linecap="round"/>
<path d="M 316.3 151.4 q 8.5 -1.6 9.3 4.7 q 0.8 4.0 -3.6 4.7" fill="none" stroke="#3A3A3A" stroke-width="2.17" stroke-linecap="round"/>
<path d="M 270.7 152.4 Q 294.0 124.5 317.3 152.4" fill="none" stroke="#3A3A3A" stroke-width="2.33"/>
<path d="M 274.5 147.7 Q 294.0 144.3 313.5 147.7" fill="none" stroke="#3A3A3A" stroke-width="0.85" opacity="0.8"/>
<path d="M 278.4 143.1 Q 294.0 139.7 309.6 143.1" fill="none" stroke="#3A3A3A" stroke-width="0.85" opacity="0.8"/>
<path d="M 282.2 138.4 Q 294.0 135.0 305.8 138.4" fill="none" stroke="#3A3A3A" stroke-width="0.85" opacity="0.8"/>
<path d="M 286.0 133.8 Q 294.0 130.4 302.0 133.8" fill="none" stroke="#3A3A3A" stroke-width="0.85" opacity="0.8"/>
<rect x="291.4" y="118.2" width="5.3" height="10.9" fill="#CFCEC6" stroke="#3A3A3A" stroke-width="1.32"/>
<rect x="290.8" y="114.5" width="6.5" height="4.3" rx="1.6" fill="#2E6E3A"/>
<text x="630" y="92" font-size="11.5" fill="#6B6B6B" text-anchor="middle" font-weight="bold" font-family="'Helvetica Neue Condensed', 'Arial Narrow', 'Helvetica Neue', Arial, sans-serif" letter-spacing="0.6" style="font-variant-numeric:tabular-nums" >2 × 3 : TWO CRATES OF THREE</text>
<rect x="500.0" y="128.0" width="108.0" height="62.0" rx="6" fill="none" stroke="#2E5E8C" stroke-width="2"/>
<path d="M 502.7 154.4 L 503.7 181.0 Q 504.7 185.0 508.7 185.0 L 539.3 185.0 Q 543.3 185.0 544.3 181.0 L 545.3 154.4 Z" fill="#9E2B25" opacity="0.40"/>
<path d="M 500.7 152.4 L 503.7 180.0 Q 504.7 185.0 509.7 185.0 L 538.3 185.0 Q 543.3 185.0 544.3 180.0 L 547.3 152.4 Z" fill="none" stroke="#3A3A3A" stroke-width="2.33" stroke-linejoin="round"/>
<line x1="508.5" y1="154.4" x2="511.6" y2="182.0" stroke="#3A3A3A" stroke-width="0.85" opacity="0.8"/>
<line x1="516.2" y1="154.4" x2="517.8" y2="182.0" stroke="#3A3A3A" stroke-width="0.85" opacity="0.8"/>
<line x1="524.0" y1="154.4" x2="524.0" y2="182.0" stroke="#3A3A3A" stroke-width="0.85" opacity="0.8"/>
<line x1="531.8" y1="154.4" x2="530.2" y2="182.0" stroke="#3A3A3A" stroke-width="0.85" opacity="0.8"/>
<line x1="539.5" y1="154.4" x2="536.4" y2="182.0" stroke="#3A3A3A" stroke-width="0.85" opacity="0.8"/>
<line x1="501.4" y1="158.9" x2="546.6" y2="158.9" stroke="#3A3A3A" stroke-width="0.85" opacity="0.8"/>
<line x1="502.0" y1="165.4" x2="546.0" y2="165.4" stroke="#3A3A3A" stroke-width="0.85" opacity="0.8"/>
<line x1="502.7" y1="172.0" x2="545.3" y2="172.0" stroke="#3A3A3A" stroke-width="0.85" opacity="0.8"/>
<line x1="503.3" y1="178.5" x2="544.7" y2="178.5" stroke="#3A3A3A" stroke-width="0.85" opacity="0.8"/>
<ellipse cx="524.0" cy="152.4" rx="23.3" ry="4.7" fill="#3A3A3A"/>
<path d="M 501.7 151.4 q -8.5 -1.6 -9.3 4.7 q -0.8 4.0 3.6 4.7" fill="none" stroke="#3A3A3A" stroke-width="2.17" stroke-linecap="round"/>
<path d="M 546.3 151.4 q 8.5 -1.6 9.3 4.7 q 0.8 4.0 -3.6 4.7" fill="none" stroke="#3A3A3A" stroke-width="2.17" stroke-linecap="round"/>
<path d="M 500.7 152.4 Q 524.0 124.5 547.3 152.4" fill="none" stroke="#3A3A3A" stroke-width="2.33"/>
<path d="M 504.5 147.7 Q 524.0 144.3 543.5 147.7" fill="none" stroke="#3A3A3A" stroke-width="0.85" opacity="0.8"/>
<path d="M 508.4 143.1 Q 524.0 139.7 539.6 143.1" fill="none" stroke="#3A3A3A" stroke-width="0.85" opacity="0.8"/>
<path d="M 512.2 138.4 Q 524.0 135.0 535.8 138.4" fill="none" stroke="#3A3A3A" stroke-width="0.85" opacity="0.8"/>
<path d="M 516.0 133.8 Q 524.0 130.4 532.0 133.8" fill="none" stroke="#3A3A3A" stroke-width="0.85" opacity="0.8"/>
<rect x="521.4" y="118.2" width="5.3" height="10.9" fill="#CFCEC6" stroke="#3A3A3A" stroke-width="1.32"/>
<rect x="520.8" y="114.5" width="6.5" height="4.3" rx="1.6" fill="#2E6E3A"/>
<path d="M 532.7 154.4 L 533.7 181.0 Q 534.7 185.0 538.7 185.0 L 569.3 185.0 Q 573.3 185.0 574.3 181.0 L 575.3 154.4 Z" fill="#9E2B25" opacity="0.40"/>
<path d="M 530.7 152.4 L 533.7 180.0 Q 534.7 185.0 539.7 185.0 L 568.3 185.0 Q 573.3 185.0 574.3 180.0 L 577.3 152.4 Z" fill="none" stroke="#3A3A3A" stroke-width="2.33" stroke-linejoin="round"/>
<line x1="538.5" y1="154.4" x2="541.6" y2="182.0" stroke="#3A3A3A" stroke-width="0.85" opacity="0.8"/>
<line x1="546.2" y1="154.4" x2="547.8" y2="182.0" stroke="#3A3A3A" stroke-width="0.85" opacity="0.8"/>
<line x1="554.0" y1="154.4" x2="554.0" y2="182.0" stroke="#3A3A3A" stroke-width="0.85" opacity="0.8"/>
<line x1="561.8" y1="154.4" x2="560.2" y2="182.0" stroke="#3A3A3A" stroke-width="0.85" opacity="0.8"/>
<line x1="569.5" y1="154.4" x2="566.4" y2="182.0" stroke="#3A3A3A" stroke-width="0.85" opacity="0.8"/>
<line x1="531.4" y1="158.9" x2="576.6" y2="158.9" stroke="#3A3A3A" stroke-width="0.85" opacity="0.8"/>
<line x1="532.0" y1="165.4" x2="576.0" y2="165.4" stroke="#3A3A3A" stroke-width="0.85" opacity="0.8"/>
<line x1="532.7" y1="172.0" x2="575.3" y2="172.0" stroke="#3A3A3A" stroke-width="0.85" opacity="0.8"/>
<line x1="533.3" y1="178.5" x2="574.7" y2="178.5" stroke="#3A3A3A" stroke-width="0.85" opacity="0.8"/>
<ellipse cx="554.0" cy="152.4" rx="23.3" ry="4.7" fill="#3A3A3A"/>
<path d="M 531.7 151.4 q -8.5 -1.6 -9.3 4.7 q -0.8 4.0 3.6 4.7" fill="none" stroke="#3A3A3A" stroke-width="2.17" stroke-linecap="round"/>
<path d="M 576.3 151.4 q 8.5 -1.6 9.3 4.7 q 0.8 4.0 -3.6 4.7" fill="none" stroke="#3A3A3A" stroke-width="2.17" stroke-linecap="round"/>
<path d="M 530.7 152.4 Q 554.0 124.5 577.3 152.4" fill="none" stroke="#3A3A3A" stroke-width="2.33"/>
<path d="M 534.5 147.7 Q 554.0 144.3 573.5 147.7" fill="none" stroke="#3A3A3A" stroke-width="0.85" opacity="0.8"/>
<path d="M 538.4 143.1 Q 554.0 139.7 569.6 143.1" fill="none" stroke="#3A3A3A" stroke-width="0.85" opacity="0.8"/>
<path d="M 542.2 138.4 Q 554.0 135.0 565.8 138.4" fill="none" stroke="#3A3A3A" stroke-width="0.85" opacity="0.8"/>
<path d="M 546.0 133.8 Q 554.0 130.4 562.0 133.8" fill="none" stroke="#3A3A3A" stroke-width="0.85" opacity="0.8"/>
<rect x="551.4" y="118.2" width="5.3" height="10.9" fill="#CFCEC6" stroke="#3A3A3A" stroke-width="1.32"/>
<rect x="550.8" y="114.5" width="6.5" height="4.3" rx="1.6" fill="#2E6E3A"/>
<path d="M 562.7 154.4 L 563.7 181.0 Q 564.7 185.0 568.7 185.0 L 599.3 185.0 Q 603.3 185.0 604.3 181.0 L 605.3 154.4 Z" fill="#9E2B25" opacity="0.40"/>
<path d="M 560.7 152.4 L 563.7 180.0 Q 564.7 185.0 569.7 185.0 L 598.3 185.0 Q 603.3 185.0 604.3 180.0 L 607.3 152.4 Z" fill="none" stroke="#3A3A3A" stroke-width="2.33" stroke-linejoin="round"/>
<line x1="568.5" y1="154.4" x2="571.6" y2="182.0" stroke="#3A3A3A" stroke-width="0.85" opacity="0.8"/>
<line x1="576.2" y1="154.4" x2="577.8" y2="182.0" stroke="#3A3A3A" stroke-width="0.85" opacity="0.8"/>
<line x1="584.0" y1="154.4" x2="584.0" y2="182.0" stroke="#3A3A3A" stroke-width="0.85" opacity="0.8"/>
<line x1="591.8" y1="154.4" x2="590.2" y2="182.0" stroke="#3A3A3A" stroke-width="0.85" opacity="0.8"/>
<line x1="599.5" y1="154.4" x2="596.4" y2="182.0" stroke="#3A3A3A" stroke-width="0.85" opacity="0.8"/>
<line x1="561.4" y1="158.9" x2="606.6" y2="158.9" stroke="#3A3A3A" stroke-width="0.85" opacity="0.8"/>
<line x1="562.0" y1="165.4" x2="606.0" y2="165.4" stroke="#3A3A3A" stroke-width="0.85" opacity="0.8"/>
<line x1="562.7" y1="172.0" x2="605.3" y2="172.0" stroke="#3A3A3A" stroke-width="0.85" opacity="0.8"/>
<line x1="563.3" y1="178.5" x2="604.7" y2="178.5" stroke="#3A3A3A" stroke-width="0.85" opacity="0.8"/>
<ellipse cx="584.0" cy="152.4" rx="23.3" ry="4.7" fill="#3A3A3A"/>
<path d="M 561.7 151.4 q -8.5 -1.6 -9.3 4.7 q -0.8 4.0 3.6 4.7" fill="none" stroke="#3A3A3A" stroke-width="2.17" stroke-linecap="round"/>
<path d="M 606.3 151.4 q 8.5 -1.6 9.3 4.7 q 0.8 4.0 -3.6 4.7" fill="none" stroke="#3A3A3A" stroke-width="2.17" stroke-linecap="round"/>
<path d="M 560.7 152.4 Q 584.0 124.5 607.3 152.4" fill="none" stroke="#3A3A3A" stroke-width="2.33"/>
<path d="M 564.5 147.7 Q 584.0 144.3 603.5 147.7" fill="none" stroke="#3A3A3A" stroke-width="0.85" opacity="0.8"/>
<path d="M 568.4 143.1 Q 584.0 139.7 599.6 143.1" fill="none" stroke="#3A3A3A" stroke-width="0.85" opacity="0.8"/>
<path d="M 572.2 138.4 Q 584.0 135.0 595.8 138.4" fill="none" stroke="#3A3A3A" stroke-width="0.85" opacity="0.8"/>
<path d="M 576.0 133.8 Q 584.0 130.4 592.0 133.8" fill="none" stroke="#3A3A3A" stroke-width="0.85" opacity="0.8"/>
<rect x="581.4" y="118.2" width="5.3" height="10.9" fill="#CFCEC6" stroke="#3A3A3A" stroke-width="1.32"/>
<rect x="580.8" y="114.5" width="6.5" height="4.3" rx="1.6" fill="#2E6E3A"/>
<rect x="620.0" y="128.0" width="108.0" height="62.0" rx="6" fill="none" stroke="#2E5E8C" stroke-width="2"/>
<path d="M 622.7 154.4 L 623.7 181.0 Q 624.7 185.0 628.7 185.0 L 659.3 185.0 Q 663.3 185.0 664.3 181.0 L 665.3 154.4 Z" fill="#9E2B25" opacity="0.40"/>
<path d="M 620.7 152.4 L 623.7 180.0 Q 624.7 185.0 629.7 185.0 L 658.3 185.0 Q 663.3 185.0 664.3 180.0 L 667.3 152.4 Z" fill="none" stroke="#3A3A3A" stroke-width="2.33" stroke-linejoin="round"/>
<line x1="628.5" y1="154.4" x2="631.6" y2="182.0" stroke="#3A3A3A" stroke-width="0.85" opacity="0.8"/>
<line x1="636.2" y1="154.4" x2="637.8" y2="182.0" stroke="#3A3A3A" stroke-width="0.85" opacity="0.8"/>
<line x1="644.0" y1="154.4" x2="644.0" y2="182.0" stroke="#3A3A3A" stroke-width="0.85" opacity="0.8"/>
<line x1="651.8" y1="154.4" x2="650.2" y2="182.0" stroke="#3A3A3A" stroke-width="0.85" opacity="0.8"/>
<line x1="659.5" y1="154.4" x2="656.4" y2="182.0" stroke="#3A3A3A" stroke-width="0.85" opacity="0.8"/>
<line x1="621.4" y1="158.9" x2="666.6" y2="158.9" stroke="#3A3A3A" stroke-width="0.85" opacity="0.8"/>
<line x1="622.0" y1="165.4" x2="666.0" y2="165.4" stroke="#3A3A3A" stroke-width="0.85" opacity="0.8"/>
<line x1="622.7" y1="172.0" x2="665.3" y2="172.0" stroke="#3A3A3A" stroke-width="0.85" opacity="0.8"/>
<line x1="623.3" y1="178.5" x2="664.7" y2="178.5" stroke="#3A3A3A" stroke-width="0.85" opacity="0.8"/>
<ellipse cx="644.0" cy="152.4" rx="23.3" ry="4.7" fill="#3A3A3A"/>
<path d="M 621.7 151.4 q -8.5 -1.6 -9.3 4.7 q -0.8 4.0 3.6 4.7" fill="none" stroke="#3A3A3A" stroke-width="2.17" stroke-linecap="round"/>
<path d="M 666.3 151.4 q 8.5 -1.6 9.3 4.7 q 0.8 4.0 -3.6 4.7" fill="none" stroke="#3A3A3A" stroke-width="2.17" stroke-linecap="round"/>
<path d="M 620.7 152.4 Q 644.0 124.5 667.3 152.4" fill="none" stroke="#3A3A3A" stroke-width="2.33"/>
<path d="M 624.5 147.7 Q 644.0 144.3 663.5 147.7" fill="none" stroke="#3A3A3A" stroke-width="0.85" opacity="0.8"/>
<path d="M 628.4 143.1 Q 644.0 139.7 659.6 143.1" fill="none" stroke="#3A3A3A" stroke-width="0.85" opacity="0.8"/>
<path d="M 632.2 138.4 Q 644.0 135.0 655.8 138.4" fill="none" stroke="#3A3A3A" stroke-width="0.85" opacity="0.8"/>
<path d="M 636.0 133.8 Q 644.0 130.4 652.0 133.8" fill="none" stroke="#3A3A3A" stroke-width="0.85" opacity="0.8"/>
<rect x="641.4" y="118.2" width="5.3" height="10.9" fill="#CFCEC6" stroke="#3A3A3A" stroke-width="1.32"/>
<rect x="640.8" y="114.5" width="6.5" height="4.3" rx="1.6" fill="#2E6E3A"/>
<path d="M 652.7 154.4 L 653.7 181.0 Q 654.7 185.0 658.7 185.0 L 689.3 185.0 Q 693.3 185.0 694.3 181.0 L 695.3 154.4 Z" fill="#9E2B25" opacity="0.40"/>
<path d="M 650.7 152.4 L 653.7 180.0 Q 654.7 185.0 659.7 185.0 L 688.3 185.0 Q 693.3 185.0 694.3 180.0 L 697.3 152.4 Z" fill="none" stroke="#3A3A3A" stroke-width="2.33" stroke-linejoin="round"/>
<line x1="658.5" y1="154.4" x2="661.6" y2="182.0" stroke="#3A3A3A" stroke-width="0.85" opacity="0.8"/>
<line x1="666.2" y1="154.4" x2="667.8" y2="182.0" stroke="#3A3A3A" stroke-width="0.85" opacity="0.8"/>
<line x1="674.0" y1="154.4" x2="674.0" y2="182.0" stroke="#3A3A3A" stroke-width="0.85" opacity="0.8"/>
<line x1="681.8" y1="154.4" x2="680.2" y2="182.0" stroke="#3A3A3A" stroke-width="0.85" opacity="0.8"/>
<line x1="689.5" y1="154.4" x2="686.4" y2="182.0" stroke="#3A3A3A" stroke-width="0.85" opacity="0.8"/>
<line x1="651.4" y1="158.9" x2="696.6" y2="158.9" stroke="#3A3A3A" stroke-width="0.85" opacity="0.8"/>
<line x1="652.0" y1="165.4" x2="696.0" y2="165.4" stroke="#3A3A3A" stroke-width="0.85" opacity="0.8"/>
<line x1="652.7" y1="172.0" x2="695.3" y2="172.0" stroke="#3A3A3A" stroke-width="0.85" opacity="0.8"/>
<line x1="653.3" y1="178.5" x2="694.7" y2="178.5" stroke="#3A3A3A" stroke-width="0.85" opacity="0.8"/>
<ellipse cx="674.0" cy="152.4" rx="23.3" ry="4.7" fill="#3A3A3A"/>
<path d="M 651.7 151.4 q -8.5 -1.6 -9.3 4.7 q -0.8 4.0 3.6 4.7" fill="none" stroke="#3A3A3A" stroke-width="2.17" stroke-linecap="round"/>
<path d="M 696.3 151.4 q 8.5 -1.6 9.3 4.7 q 0.8 4.0 -3.6 4.7" fill="none" stroke="#3A3A3A" stroke-width="2.17" stroke-linecap="round"/>
<path d="M 650.7 152.4 Q 674.0 124.5 697.3 152.4" fill="none" stroke="#3A3A3A" stroke-width="2.33"/>
<path d="M 654.5 147.7 Q 674.0 144.3 693.5 147.7" fill="none" stroke="#3A3A3A" stroke-width="0.85" opacity="0.8"/>
<path d="M 658.4 143.1 Q 674.0 139.7 689.6 143.1" fill="none" stroke="#3A3A3A" stroke-width="0.85" opacity="0.8"/>
<path d="M 662.2 138.4 Q 674.0 135.0 685.8 138.4" fill="none" stroke="#3A3A3A" stroke-width="0.85" opacity="0.8"/>
<path d="M 666.0 133.8 Q 674.0 130.4 682.0 133.8" fill="none" stroke="#3A3A3A" stroke-width="0.85" opacity="0.8"/>
<rect x="671.4" y="118.2" width="5.3" height="10.9" fill="#CFCEC6" stroke="#3A3A3A" stroke-width="1.32"/>
<rect x="670.8" y="114.5" width="6.5" height="4.3" rx="1.6" fill="#2E6E3A"/>
<path d="M 682.7 154.4 L 683.7 181.0 Q 684.7 185.0 688.7 185.0 L 719.3 185.0 Q 723.3 185.0 724.3 181.0 L 725.3 154.4 Z" fill="#9E2B25" opacity="0.40"/>
<path d="M 680.7 152.4 L 683.7 180.0 Q 684.7 185.0 689.7 185.0 L 718.3 185.0 Q 723.3 185.0 724.3 180.0 L 727.3 152.4 Z" fill="none" stroke="#3A3A3A" stroke-width="2.33" stroke-linejoin="round"/>
<line x1="688.5" y1="154.4" x2="691.6" y2="182.0" stroke="#3A3A3A" stroke-width="0.85" opacity="0.8"/>
<line x1="696.2" y1="154.4" x2="697.8" y2="182.0" stroke="#3A3A3A" stroke-width="0.85" opacity="0.8"/>
<line x1="704.0" y1="154.4" x2="704.0" y2="182.0" stroke="#3A3A3A" stroke-width="0.85" opacity="0.8"/>
<line x1="711.8" y1="154.4" x2="710.2" y2="182.0" stroke="#3A3A3A" stroke-width="0.85" opacity="0.8"/>
<line x1="719.5" y1="154.4" x2="716.4" y2="182.0" stroke="#3A3A3A" stroke-width="0.85" opacity="0.8"/>
<line x1="681.4" y1="158.9" x2="726.6" y2="158.9" stroke="#3A3A3A" stroke-width="0.85" opacity="0.8"/>
<line x1="682.0" y1="165.4" x2="726.0" y2="165.4" stroke="#3A3A3A" stroke-width="0.85" opacity="0.8"/>
<line x1="682.7" y1="172.0" x2="725.3" y2="172.0" stroke="#3A3A3A" stroke-width="0.85" opacity="0.8"/>
<line x1="683.3" y1="178.5" x2="724.7" y2="178.5" stroke="#3A3A3A" stroke-width="0.85" opacity="0.8"/>
<ellipse cx="704.0" cy="152.4" rx="23.3" ry="4.7" fill="#3A3A3A"/>
<path d="M 681.7 151.4 q -8.5 -1.6 -9.3 4.7 q -0.8 4.0 3.6 4.7" fill="none" stroke="#3A3A3A" stroke-width="2.17" stroke-linecap="round"/>
<path d="M 726.3 151.4 q 8.5 -1.6 9.3 4.7 q 0.8 4.0 -3.6 4.7" fill="none" stroke="#3A3A3A" stroke-width="2.17" stroke-linecap="round"/>
<path d="M 680.7 152.4 Q 704.0 124.5 727.3 152.4" fill="none" stroke="#3A3A3A" stroke-width="2.33"/>
<path d="M 684.5 147.7 Q 704.0 144.3 723.5 147.7" fill="none" stroke="#3A3A3A" stroke-width="0.85" opacity="0.8"/>
<path d="M 688.4 143.1 Q 704.0 139.7 719.6 143.1" fill="none" stroke="#3A3A3A" stroke-width="0.85" opacity="0.8"/>
<path d="M 692.2 138.4 Q 704.0 135.0 715.8 138.4" fill="none" stroke="#3A3A3A" stroke-width="0.85" opacity="0.8"/>
<path d="M 696.0 133.8 Q 704.0 130.4 712.0 133.8" fill="none" stroke="#3A3A3A" stroke-width="0.85" opacity="0.8"/>
<rect x="701.4" y="118.2" width="5.3" height="10.9" fill="#CFCEC6" stroke="#3A3A3A" stroke-width="1.32"/>
<rect x="700.8" y="114.5" width="6.5" height="4.3" rx="1.6" fill="#2E6E3A"/>
<line x1="210" y1="210" x2="380" y2="262" stroke="#B8B4AC" stroke-width="2.2"/><path d="M 380 262 L 370.1 263.5 M 380 262 L 372.7 255.2" stroke="#B8B4AC" stroke-width="2.2" fill="none" stroke-linecap="round"/>
<line x1="630" y1="210" x2="462" y2="262" stroke="#B8B4AC" stroke-width="2.2"/><path d="M 462 262 L 469.3 255.2 M 462 262 L 471.9 263.5" stroke="#B8B4AC" stroke-width="2.2" fill="none" stroke-linecap="round"/>
<text x="300" y="238" font-size="12" fill="#6B6B6B" text-anchor="middle" font-weight="normal" font-family="'Helvetica Neue Condensed', 'Arial Narrow', 'Helvetica Neue', Arial, sans-serif" style="font-variant-numeric:tabular-nums" >tear open and pour</text>
<text x="548" y="238" font-size="12" fill="#6B6B6B" text-anchor="middle" font-weight="normal" font-family="'Helvetica Neue Condensed', 'Arial Narrow', 'Helvetica Neue', Arial, sans-serif" style="font-variant-numeric:tabular-nums" >tear open and pour</text>
<path d="M 398.9 288.2 L 399.5 316.0 Q 400.3 320.0 403.9 320.0 L 436.1 320.0 Q 439.7 320.0 440.5 316.0 L 441.1 288.2 Z" fill="#9E2B25" opacity="0.78"/>
<path d="M 396.9 287.2 L 399.5 316.0 Q 400.3 320.0 404.9 320.0 L 435.1 320.0 Q 439.7 320.0 440.5 316.0 L 443.1 287.2 Z" fill="none" stroke="#3A3A3A" stroke-width="1.31" stroke-linejoin="round"/>
<line x1="406.1" y1="289.2" x2="408.6" y2="317.0" stroke="#3A3A3A" stroke-width="0.44" opacity="0.75"/>
<line x1="415.4" y1="289.2" x2="416.2" y2="317.0" stroke="#3A3A3A" stroke-width="0.44" opacity="0.75"/>
<line x1="424.6" y1="289.2" x2="423.8" y2="317.0" stroke="#3A3A3A" stroke-width="0.44" opacity="0.75"/>
<line x1="433.9" y1="289.2" x2="431.4" y2="317.0" stroke="#3A3A3A" stroke-width="0.44" opacity="0.75"/>
<line x1="397.6" y1="295.4" x2="442.4" y2="295.4" stroke="#3A3A3A" stroke-width="0.44" opacity="0.75"/>
<line x1="398.2" y1="303.6" x2="441.8" y2="303.6" stroke="#3A3A3A" stroke-width="0.44" opacity="0.75"/>
<line x1="398.9" y1="311.8" x2="441.1" y2="311.8" stroke="#3A3A3A" stroke-width="0.44" opacity="0.75"/>
<ellipse cx="420" cy="287.2" rx="23.1" ry="2.1" fill="#3A3A3A"/>
<path d="M 397.9 286.2 q -3.9 -0.7 -4.4 2.1 q -0.4 1.8 1.7 2.1" fill="none" stroke="#3A3A3A" stroke-width="1.14" stroke-linecap="round"/>
<path d="M 442.1 286.2 q 3.9 -0.7 4.4 2.1 q 0.4 1.8 -1.7 2.1" fill="none" stroke="#3A3A3A" stroke-width="1.14" stroke-linecap="round"/>
<path d="M 396.9 287.2 Q 420 263.9 443.1 287.2" fill="none" stroke="#3A3A3A" stroke-width="1.31"/>
<path d="M 401.5 281.9 Q 420 280.3 438.5 281.9" fill="none" stroke="#3A3A3A" stroke-width="0.44" opacity="0.75"/>
<path d="M 406.1 276.6 Q 420 275.0 433.9 276.6" fill="none" stroke="#3A3A3A" stroke-width="0.44" opacity="0.75"/>
<path d="M 410.7 271.3 Q 420 269.7 429.3 271.3" fill="none" stroke="#3A3A3A" stroke-width="0.44" opacity="0.75"/>
<rect x="417.5" y="255.4" width="5.0" height="10.6" fill="#CFCEC6" stroke="#3A3A3A" stroke-width="0.70"/>
<rect x="417.0" y="253.6" width="6.0" height="2.0" rx="0.7" fill="#2E6E3A"/>
<text x="420" y="340" font-size="15" fill="#1A1A1A" text-anchor="middle" font-weight="bold" font-family="'Helvetica Neue Condensed', 'Arial Narrow', 'Helvetica Neue', Arial, sans-serif" style="font-variant-numeric:tabular-nums" >6 L</text>
<line x1="40" y1="358" x2="800" y2="358" stroke="#DAD6CC" stroke-width="1"/>
<text x="40" y="378" font-size="13" fill="#6B6B6B" text-anchor="start" font-weight="normal" style="font-variant-numeric:tabular-nums" >Same shadow, different objects. The pouring is a second, separate act.</text>
<text x="800" y="378" font-size="11.5" fill="#9E2B25" text-anchor="end" font-weight="bold" font-family="'Helvetica Neue Condensed', 'Arial Narrow', 'Helvetica Neue', Arial, sans-serif" style="font-variant-numeric:tabular-nums" >ℹ  which arrangement? = log₂ 2 = 1 bit the label “6” hides</text>
</svg>
