<svg xmlns="http://www.w3.org/2000/svg" viewBox="0 0 840 372" font-family="Helvetica, Arial, sans-serif">
<rect width="840" height="372" fill="white"/>
<text x="215" y="36" font-size="16.5" fill="#3A3A3A" text-anchor="middle" font-weight="bold" >3 × 2 : three cartons of two</text>
<rect x="40" y="60" width="68.0" height="56.0" rx="6" fill="none" stroke="#2B4B8C" stroke-width="2.8"/>
<path d="M 50.0 110.0 L 50.0 82.0 Q 50.0 77.0 56.0 75.0 L 56.0 70.0 L 66.0 70.0 L 66.0 75.0 Q 72.0 77.0 72.0 82.0 L 72.0 110.0 Z" fill="#E8D5D7" stroke="#8C2B33" stroke-width="2"/>
<path d="M 76.0 110.0 L 76.0 82.0 Q 76.0 77.0 82.0 75.0 L 82.0 70.0 L 92.0 70.0 L 92.0 75.0 Q 98.0 77.0 98.0 82.0 L 98.0 110.0 Z" fill="#E8D5D7" stroke="#8C2B33" stroke-width="2"/>
<rect x="124.0" y="60" width="68.0" height="56.0" rx="6" fill="none" stroke="#2B4B8C" stroke-width="2.8"/>
<path d="M 134.0 110.0 L 134.0 82.0 Q 134.0 77.0 140.0 75.0 L 140.0 70.0 L 150.0 70.0 L 150.0 75.0 Q 156.0 77.0 156.0 82.0 L 156.0 110.0 Z" fill="#E8D5D7" stroke="#8C2B33" stroke-width="2"/>
<path d="M 160.0 110.0 L 160.0 82.0 Q 160.0 77.0 166.0 75.0 L 166.0 70.0 L 176.0 70.0 L 176.0 75.0 Q 182.0 77.0 182.0 82.0 L 182.0 110.0 Z" fill="#E8D5D7" stroke="#8C2B33" stroke-width="2"/>
<rect x="208.0" y="60" width="68.0" height="56.0" rx="6" fill="none" stroke="#2B4B8C" stroke-width="2.8"/>
<path d="M 218.0 110.0 L 218.0 82.0 Q 218.0 77.0 224.0 75.0 L 224.0 70.0 L 234.0 70.0 L 234.0 75.0 Q 240.0 77.0 240.0 82.0 L 240.0 110.0 Z" fill="#E8D5D7" stroke="#8C2B33" stroke-width="2"/>
<path d="M 244.0 110.0 L 244.0 82.0 Q 244.0 77.0 250.0 75.0 L 250.0 70.0 L 260.0 70.0 L 260.0 75.0 Q 266.0 77.0 266.0 82.0 L 266.0 110.0 Z" fill="#E8D5D7" stroke="#8C2B33" stroke-width="2"/>
<text x="625" y="36" font-size="16.5" fill="#3A3A3A" text-anchor="middle" font-weight="bold" >2 × 3 : two cartons of three</text>
<rect x="500" y="60" width="94.0" height="56.0" rx="6" fill="none" stroke="#2B4B8C" stroke-width="2.8"/>
<path d="M 510.0 110.0 L 510.0 82.0 Q 510.0 77.0 516.0 75.0 L 516.0 70.0 L 526.0 70.0 L 526.0 75.0 Q 532.0 77.0 532.0 82.0 L 532.0 110.0 Z" fill="#E8D5D7" stroke="#8C2B33" stroke-width="2"/>
<path d="M 536.0 110.0 L 536.0 82.0 Q 536.0 77.0 542.0 75.0 L 542.0 70.0 L 552.0 70.0 L 552.0 75.0 Q 558.0 77.0 558.0 82.0 L 558.0 110.0 Z" fill="#E8D5D7" stroke="#8C2B33" stroke-width="2"/>
<path d="M 562.0 110.0 L 562.0 82.0 Q 562.0 77.0 568.0 75.0 L 568.0 70.0 L 578.0 70.0 L 578.0 75.0 Q 584.0 77.0 584.0 82.0 L 584.0 110.0 Z" fill="#E8D5D7" stroke="#8C2B33" stroke-width="2"/>
<rect x="610.0" y="60" width="94.0" height="56.0" rx="6" fill="none" stroke="#2B4B8C" stroke-width="2.8"/>
<path d="M 620.0 110.0 L 620.0 82.0 Q 620.0 77.0 626.0 75.0 L 626.0 70.0 L 636.0 70.0 L 636.0 75.0 Q 642.0 77.0 642.0 82.0 L 642.0 110.0 Z" fill="#E8D5D7" stroke="#8C2B33" stroke-width="2"/>
<path d="M 646.0 110.0 L 646.0 82.0 Q 646.0 77.0 652.0 75.0 L 652.0 70.0 L 662.0 70.0 L 662.0 75.0 Q 668.0 77.0 668.0 82.0 L 668.0 110.0 Z" fill="#E8D5D7" stroke="#8C2B33" stroke-width="2"/>
<path d="M 672.0 110.0 L 672.0 82.0 Q 672.0 77.0 678.0 75.0 L 678.0 70.0 L 688.0 70.0 L 688.0 75.0 Q 694.0 77.0 694.0 82.0 L 694.0 110.0 Z" fill="#E8D5D7" stroke="#8C2B33" stroke-width="2"/>
<line x1="215" y1="140" x2="375" y2="208" stroke="#9AA0A6" stroke-width="2.6"/><path d="M 375 208 L 365.0 208.5 M 375 208 L 368.4 200.5" stroke="#9AA0A6" stroke-width="2.6" fill="none" stroke-linecap="round"/>
<line x1="625" y1="140" x2="465" y2="208" stroke="#9AA0A6" stroke-width="2.6"/><path d="M 465 208 L 471.6 200.5 M 465 208 L 475.0 208.5" stroke="#9AA0A6" stroke-width="2.6" fill="none" stroke-linecap="round"/>
<text x="300" y="165" font-size="13.5" fill="#9AA0A6" text-anchor="middle" font-weight="normal" >tear open and pour</text>
<text x="545" y="165" font-size="13.5" fill="#9AA0A6" text-anchor="middle" font-weight="normal" >tear open and pour</text>
<rect x="387.5" y="225" width="65" height="58.5" fill="#8C2B33" opacity="0.85"/>
<path d="M 385 225 L 385 285 L 455 285 L 455 225" fill="none" stroke="#3A3A3A" stroke-width="3" stroke-linejoin="round" stroke-linecap="round"/>
<text x="420" y="312" font-size="16" fill="#3A3A3A" text-anchor="middle" font-weight="bold" >6 L</text>
<text x="420" y="350" font-size="15" fill="#9AA0A6" text-anchor="middle" font-weight="normal" >Same shadow. Different objects. The pouring is a second, separate act.</text>
</svg>
