<svg xmlns="http://www.w3.org/2000/svg" viewBox="0 0 1362 558" font-family="'Helvetica Neue', 'Arial Narrow', Helvetica, Arial, sans-serif">
<rect width="1362" height="558" fill="#FBFAF7"/>
<text x="84" y="28" font-size="11.5" fill="#6B6B6B" text-anchor="start" font-weight="bold" font-family="'Helvetica Neue Condensed', 'Arial Narrow', 'Helvetica Neue', Arial, sans-serif" letter-spacing="1.6" style="font-variant-numeric:tabular-nums" >THE EIGHT-FIVE-THREE RIDDLE</text>
<text x="84" y="50" font-size="20" fill="#1A1A1A" text-anchor="start" font-weight="bold" font-family="'Helvetica Neue Condensed', 'Arial Narrow', 'Helvetica Neue', Arial, sans-serif" style="font-variant-numeric:tabular-nums" >Every pour is a choice</text>
<text x="84" y="68" font-size="13" fill="#6B6B6B" text-anchor="start" font-weight="normal" style="font-variant-numeric:tabular-nums" >From most states three or four pours are legal.</text>
<line x1="729.4" y1="155.6" x2="458.6" y2="110.4" stroke="#B8B4AC" stroke-width="0.9" opacity="0.55" stroke-linecap="round"/>
<line x1="1233.0" y1="257.3" x2="123.0" y2="208.7" stroke="#B8B4AC" stroke-width="0.9" opacity="0.55" stroke-linecap="round"/>
<line x1="426.0" y1="192.0" x2="426.0" y2="124.0" stroke="#B8B4AC" stroke-width="0.9" opacity="0.55" stroke-linecap="round"/>
<line x1="1233.2" y1="159.6" x2="290.8" y2="256.4" stroke="#B8B4AC" stroke-width="0.9" opacity="0.55" stroke-linecap="round"/>
<line x1="561.2" y1="256.4" x2="122.8" y2="209.6" stroke="#B8B4AC" stroke-width="0.9" opacity="0.55" stroke-linecap="round"/>
<line x1="1065.2" y1="256.1" x2="290.8" y2="159.9" stroke="#B8B4AC" stroke-width="0.9" opacity="0.55" stroke-linecap="round"/>
<line x1="562.4" y1="162.6" x2="289.6" y2="253.4" stroke="#B8B4AC" stroke-width="0.9" opacity="0.55" stroke-linecap="round"/>
<line x1="897.0" y1="258.0" x2="291.0" y2="258.0" stroke="#B8B4AC" stroke-width="0.9" opacity="0.55" stroke-linecap="round"/>
<line x1="897.2" y1="156.4" x2="458.8" y2="109.6" stroke="#B8B4AC" stroke-width="0.9" opacity="0.55" stroke-linecap="round"/>
<line x1="1065.1" y1="156.8" x2="458.9" y2="109.2" stroke="#B8B4AC" stroke-width="0.9" opacity="0.55" stroke-linecap="round"/>
<line x1="729.1" y1="256.8" x2="122.9" y2="209.2" stroke="#B8B4AC" stroke-width="0.9" opacity="0.55" stroke-linecap="round"/>
<line x1="1233.2" y1="256.4" x2="290.8" y2="159.6" stroke="#B8B4AC" stroke-width="0.9" opacity="0.55" stroke-linecap="round"/>
<line x1="289.6" y1="153.4" x2="394.4" y2="112.6" stroke="#B8B4AC" stroke-width="0.9" opacity="0.55" stroke-linecap="round"/>
<line x1="282.6" y1="247.3" x2="401.4" y2="118.7" stroke="#B8B4AC" stroke-width="0.9" opacity="0.55" stroke-linecap="round"/>
<line x1="1065.0" y1="257.2" x2="123.0" y2="208.8" stroke="#B8B4AC" stroke-width="0.9" opacity="0.55" stroke-linecap="round"/>
<line x1="401.4" y1="297.3" x2="282.6" y2="168.7" stroke="#B8B4AC" stroke-width="0.9" opacity="0.55" stroke-linecap="round"/>
<line x1="394.4" y1="212.6" x2="289.6" y2="253.4" stroke="#B8B4AC" stroke-width="0.9" opacity="0.55" stroke-linecap="round"/>
<line x1="729.0" y1="158.0" x2="291.0" y2="158.0" stroke="#B8B4AC" stroke-width="0.9" opacity="0.55" stroke-linecap="round"/>
<line x1="897.1" y1="257.0" x2="122.9" y2="209.0" stroke="#B8B4AC" stroke-width="0.9" opacity="0.55" stroke-linecap="round"/>
<line x1="1233.1" y1="157.0" x2="458.9" y2="109.0" stroke="#B8B4AC" stroke-width="0.9" opacity="0.55" stroke-linecap="round"/>
<line x1="562.4" y1="153.4" x2="457.6" y2="112.6" stroke="#B8B4AC" stroke-width="0.9" opacity="0.55" stroke-linecap="round"/>
<line x1="897.0" y1="158.0" x2="291.0" y2="158.0" stroke="#B8B4AC" stroke-width="0.9" opacity="0.55" stroke-linecap="round"/>
<line x1="1065.2" y1="159.9" x2="290.8" y2="256.1" stroke="#B8B4AC" stroke-width="0.9" opacity="0.55" stroke-linecap="round"/>
<line x1="562.4" y1="253.4" x2="289.6" y2="162.6" stroke="#B8B4AC" stroke-width="0.9" opacity="0.55" stroke-linecap="round"/>
<line x1="394.4" y1="303.4" x2="121.6" y2="212.6" stroke="#B8B4AC" stroke-width="0.9" opacity="0.55" stroke-linecap="round"/>
<line x1="729.0" y1="258.0" x2="291.0" y2="258.0" stroke="#B8B4AC" stroke-width="0.9" opacity="0.55" stroke-linecap="round"/>
<line x1="289.6" y1="262.6" x2="394.4" y2="303.4" stroke="#2E5E8C" stroke-width="2.4" opacity="1.0" stroke-linecap="round"/>
<line x1="121.6" y1="212.6" x2="226.4" y2="253.4" stroke="#2E5E8C" stroke-width="2.4" opacity="1.0" stroke-linecap="round"/>
<line x1="963.0" y1="258.0" x2="1065.0" y2="258.0" stroke="#2E5E8C" stroke-width="2.4" opacity="1.0" stroke-linecap="round"/>
<line x1="790.4" y1="166.2" x2="901.6" y2="249.8" stroke="#2E5E8C" stroke-width="2.4" opacity="1.0" stroke-linecap="round"/>
<line x1="1266.0" y1="174.0" x2="1266.0" y2="242.0" stroke="#2E5E8C" stroke-width="2.4" opacity="1.0" stroke-linecap="round"/>
<line x1="627.0" y1="158.0" x2="729.0" y2="158.0" stroke="#2E5E8C" stroke-width="2.4" opacity="1.0" stroke-linecap="round"/>
<line x1="450.6" y1="297.3" x2="569.4" y2="168.7" stroke="#2E5E8C" stroke-width="2.4" opacity="1.0" stroke-linecap="round"/>
<line x1="1126.4" y1="249.8" x2="1237.6" y2="166.2" stroke="#2E5E8C" stroke-width="2.4" opacity="1.0" stroke-linecap="round"/>
<line x1="289.6" y1="162.6" x2="394.4" y2="203.4" stroke="#9E2B25" stroke-width="2.8" opacity="1.0" stroke-linecap="round"/>
<line x1="790.4" y1="249.8" x2="901.6" y2="166.2" stroke="#9E2B25" stroke-width="2.8" opacity="1.0" stroke-linecap="round"/>
<line x1="1126.4" y1="166.2" x2="1237.6" y2="249.8" stroke="#9E2B25" stroke-width="2.8" opacity="1.0" stroke-linecap="round"/>
<line x1="963.0" y1="158.0" x2="1065.0" y2="158.0" stroke="#9E2B25" stroke-width="2.8" opacity="1.0" stroke-linecap="round"/>
<line x1="457.6" y1="212.6" x2="562.4" y2="253.4" stroke="#9E2B25" stroke-width="2.8" opacity="1.0" stroke-linecap="round"/>
<line x1="121.6" y1="203.4" x2="226.4" y2="162.6" stroke="#9E2B25" stroke-width="2.8" opacity="1.0" stroke-linecap="round"/>
<line x1="627.0" y1="258.0" x2="729.0" y2="258.0" stroke="#9E2B25" stroke-width="2.8" opacity="1.0" stroke-linecap="round"/>
<rect x="60" y="190.0" width="60" height="36" rx="6" fill="#FBFAF7" stroke="#1A1A1A" stroke-width="1.6"/>
<rect x="69.5" y="196.0" width="11" height="22.0" fill="#1A1A1A" opacity="0.9"/>
<path d="M 69.5 196.0 L 69.5 218.0 L 80.5 218.0 L 80.5 196.0" fill="none" stroke="#1A1A1A" stroke-width="1.3" stroke-linejoin="round"/>
<path d="M 84.5 204.2 L 84.5 218.0 L 95.5 218.0 L 95.5 204.2" fill="none" stroke="#1A1A1A" stroke-width="1.3" stroke-linejoin="round"/>
<path d="M 99.5 209.8 L 99.5 218.0 L 110.5 218.0 L 110.5 209.8" fill="none" stroke="#1A1A1A" stroke-width="1.3" stroke-linejoin="round"/>
<text x="90" y="238.0" font-size="10.5" fill="#1A1A1A" text-anchor="middle" font-weight="bold" font-family="'Helvetica Neue Condensed', 'Arial Narrow', 'Helvetica Neue', Arial, sans-serif" letter-spacing="0.5" style="font-variant-numeric:tabular-nums" >8 0 0</text>
<rect x="228" y="140.0" width="60" height="36" rx="6" fill="#FBFAF7" stroke="#9E2B25" stroke-width="1.6"/>
<rect x="237.5" y="159.8" width="11" height="8.2" fill="#9E2B25" opacity="0.9"/>
<path d="M 237.5 146.0 L 237.5 168.0 L 248.5 168.0 L 248.5 146.0" fill="none" stroke="#9E2B25" stroke-width="1.3" stroke-linejoin="round"/>
<rect x="252.5" y="154.2" width="11" height="13.8" fill="#9E2B25" opacity="0.9"/>
<path d="M 252.5 154.2 L 252.5 168.0 L 263.5 168.0 L 263.5 154.2" fill="none" stroke="#9E2B25" stroke-width="1.3" stroke-linejoin="round"/>
<path d="M 267.5 159.8 L 267.5 168.0 L 278.5 168.0 L 278.5 159.8" fill="none" stroke="#9E2B25" stroke-width="1.3" stroke-linejoin="round"/>
<text x="258" y="188.0" font-size="10.5" fill="#9E2B25" text-anchor="middle" font-weight="bold" font-family="'Helvetica Neue Condensed', 'Arial Narrow', 'Helvetica Neue', Arial, sans-serif" letter-spacing="0.5" style="font-variant-numeric:tabular-nums" >3 5 0</text>
<rect x="228" y="240.0" width="60" height="36" rx="6" fill="#FBFAF7" stroke="#2E5E8C" stroke-width="1.6"/>
<rect x="237.5" y="254.2" width="11" height="13.8" fill="#2E5E8C" opacity="0.9"/>
<path d="M 237.5 246.0 L 237.5 268.0 L 248.5 268.0 L 248.5 246.0" fill="none" stroke="#2E5E8C" stroke-width="1.3" stroke-linejoin="round"/>
<path d="M 252.5 254.2 L 252.5 268.0 L 263.5 268.0 L 263.5 254.2" fill="none" stroke="#2E5E8C" stroke-width="1.3" stroke-linejoin="round"/>
<rect x="267.5" y="259.8" width="11" height="8.2" fill="#2E5E8C" opacity="0.9"/>
<path d="M 267.5 259.8 L 267.5 268.0 L 278.5 268.0 L 278.5 259.8" fill="none" stroke="#2E5E8C" stroke-width="1.3" stroke-linejoin="round"/>
<text x="258" y="288.0" font-size="10.5" fill="#2E5E8C" text-anchor="middle" font-weight="bold" font-family="'Helvetica Neue Condensed', 'Arial Narrow', 'Helvetica Neue', Arial, sans-serif" letter-spacing="0.5" style="font-variant-numeric:tabular-nums" >5 0 3</text>
<rect x="396" y="90.0" width="60" height="36" rx="6" fill="#FBFAF7" stroke="#B8B4AC" stroke-width="1"/>
<path d="M 405.5 96.0 L 405.5 118.0 L 416.5 118.0 L 416.5 96.0" fill="none" stroke="#B8B4AC" stroke-width="1" stroke-linejoin="round"/>
<rect x="420.5" y="104.2" width="11" height="13.8" fill="#6B6B6B" opacity="0.5"/>
<path d="M 420.5 104.2 L 420.5 118.0 L 431.5 118.0 L 431.5 104.2" fill="none" stroke="#B8B4AC" stroke-width="1" stroke-linejoin="round"/>
<rect x="435.5" y="109.8" width="11" height="8.2" fill="#6B6B6B" opacity="0.5"/>
<path d="M 435.5 109.8 L 435.5 118.0 L 446.5 118.0 L 446.5 109.8" fill="none" stroke="#B8B4AC" stroke-width="1" stroke-linejoin="round"/>
<text x="426" y="138.0" font-size="10.5" fill="#6B6B6B" text-anchor="middle" font-weight="normal" font-family="'Helvetica Neue Condensed', 'Arial Narrow', 'Helvetica Neue', Arial, sans-serif" letter-spacing="0.5" style="font-variant-numeric:tabular-nums" >0 5 3</text>
<rect x="396" y="190.0" width="60" height="36" rx="6" fill="#FBFAF7" stroke="#9E2B25" stroke-width="1.6"/>
<rect x="405.5" y="209.8" width="11" height="8.2" fill="#9E2B25" opacity="0.9"/>
<path d="M 405.5 196.0 L 405.5 218.0 L 416.5 218.0 L 416.5 196.0" fill="none" stroke="#9E2B25" stroke-width="1.3" stroke-linejoin="round"/>
<rect x="420.5" y="212.5" width="11" height="5.5" fill="#9E2B25" opacity="0.9"/>
<path d="M 420.5 204.2 L 420.5 218.0 L 431.5 218.0 L 431.5 204.2" fill="none" stroke="#9E2B25" stroke-width="1.3" stroke-linejoin="round"/>
<rect x="435.5" y="209.8" width="11" height="8.2" fill="#9E2B25" opacity="0.9"/>
<path d="M 435.5 209.8 L 435.5 218.0 L 446.5 218.0 L 446.5 209.8" fill="none" stroke="#9E2B25" stroke-width="1.3" stroke-linejoin="round"/>
<text x="426" y="238.0" font-size="10.5" fill="#9E2B25" text-anchor="middle" font-weight="bold" font-family="'Helvetica Neue Condensed', 'Arial Narrow', 'Helvetica Neue', Arial, sans-serif" letter-spacing="0.5" style="font-variant-numeric:tabular-nums" >3 2 3</text>
<rect x="396" y="290.0" width="60" height="36" rx="6" fill="#FBFAF7" stroke="#2E5E8C" stroke-width="1.6"/>
<rect x="405.5" y="304.2" width="11" height="13.8" fill="#2E5E8C" opacity="0.9"/>
<path d="M 405.5 296.0 L 405.5 318.0 L 416.5 318.0 L 416.5 296.0" fill="none" stroke="#2E5E8C" stroke-width="1.3" stroke-linejoin="round"/>
<rect x="420.5" y="309.8" width="11" height="8.2" fill="#2E5E8C" opacity="0.9"/>
<path d="M 420.5 304.2 L 420.5 318.0 L 431.5 318.0 L 431.5 304.2" fill="none" stroke="#2E5E8C" stroke-width="1.3" stroke-linejoin="round"/>
<path d="M 435.5 309.8 L 435.5 318.0 L 446.5 318.0 L 446.5 309.8" fill="none" stroke="#2E5E8C" stroke-width="1.3" stroke-linejoin="round"/>
<text x="426" y="338.0" font-size="10.5" fill="#2E5E8C" text-anchor="middle" font-weight="bold" font-family="'Helvetica Neue Condensed', 'Arial Narrow', 'Helvetica Neue', Arial, sans-serif" letter-spacing="0.5" style="font-variant-numeric:tabular-nums" >5 3 0</text>
<rect x="564" y="140.0" width="60" height="36" rx="6" fill="#FBFAF7" stroke="#2E5E8C" stroke-width="1.6"/>
<rect x="573.5" y="162.5" width="11" height="5.5" fill="#2E5E8C" opacity="0.9"/>
<path d="M 573.5 146.0 L 573.5 168.0 L 584.5 168.0 L 584.5 146.0" fill="none" stroke="#2E5E8C" stroke-width="1.3" stroke-linejoin="round"/>
<rect x="588.5" y="159.8" width="11" height="8.2" fill="#2E5E8C" opacity="0.9"/>
<path d="M 588.5 154.2 L 588.5 168.0 L 599.5 168.0 L 599.5 154.2" fill="none" stroke="#2E5E8C" stroke-width="1.3" stroke-linejoin="round"/>
<rect x="603.5" y="159.8" width="11" height="8.2" fill="#2E5E8C" opacity="0.9"/>
<path d="M 603.5 159.8 L 603.5 168.0 L 614.5 168.0 L 614.5 159.8" fill="none" stroke="#2E5E8C" stroke-width="1.3" stroke-linejoin="round"/>
<text x="594" y="188.0" font-size="10.5" fill="#2E5E8C" text-anchor="middle" font-weight="bold" font-family="'Helvetica Neue Condensed', 'Arial Narrow', 'Helvetica Neue', Arial, sans-serif" letter-spacing="0.5" style="font-variant-numeric:tabular-nums" >2 3 3</text>
<rect x="564" y="240.0" width="60" height="36" rx="6" fill="#FBFAF7" stroke="#9E2B25" stroke-width="1.6"/>
<rect x="573.5" y="251.5" width="11" height="16.5" fill="#9E2B25" opacity="0.9"/>
<path d="M 573.5 246.0 L 573.5 268.0 L 584.5 268.0 L 584.5 246.0" fill="none" stroke="#9E2B25" stroke-width="1.3" stroke-linejoin="round"/>
<rect x="588.5" y="262.5" width="11" height="5.5" fill="#9E2B25" opacity="0.9"/>
<path d="M 588.5 254.2 L 588.5 268.0 L 599.5 268.0 L 599.5 254.2" fill="none" stroke="#9E2B25" stroke-width="1.3" stroke-linejoin="round"/>
<path d="M 603.5 259.8 L 603.5 268.0 L 614.5 268.0 L 614.5 259.8" fill="none" stroke="#9E2B25" stroke-width="1.3" stroke-linejoin="round"/>
<text x="594" y="288.0" font-size="10.5" fill="#9E2B25" text-anchor="middle" font-weight="bold" font-family="'Helvetica Neue Condensed', 'Arial Narrow', 'Helvetica Neue', Arial, sans-serif" letter-spacing="0.5" style="font-variant-numeric:tabular-nums" >6 2 0</text>
<rect x="732" y="140.0" width="60" height="36" rx="6" fill="#FBFAF7" stroke="#2E5E8C" stroke-width="1.6"/>
<rect x="741.5" y="162.5" width="11" height="5.5" fill="#2E5E8C" opacity="0.9"/>
<path d="M 741.5 146.0 L 741.5 168.0 L 752.5 168.0 L 752.5 146.0" fill="none" stroke="#2E5E8C" stroke-width="1.3" stroke-linejoin="round"/>
<rect x="756.5" y="154.2" width="11" height="13.8" fill="#2E5E8C" opacity="0.9"/>
<path d="M 756.5 154.2 L 756.5 168.0 L 767.5 168.0 L 767.5 154.2" fill="none" stroke="#2E5E8C" stroke-width="1.3" stroke-linejoin="round"/>
<rect x="771.5" y="165.2" width="11" height="2.8" fill="#2E5E8C" opacity="0.9"/>
<path d="M 771.5 159.8 L 771.5 168.0 L 782.5 168.0 L 782.5 159.8" fill="none" stroke="#2E5E8C" stroke-width="1.3" stroke-linejoin="round"/>
<text x="762" y="188.0" font-size="10.5" fill="#2E5E8C" text-anchor="middle" font-weight="bold" font-family="'Helvetica Neue Condensed', 'Arial Narrow', 'Helvetica Neue', Arial, sans-serif" letter-spacing="0.5" style="font-variant-numeric:tabular-nums" >2 5 1</text>
<rect x="732" y="240.0" width="60" height="36" rx="6" fill="#FBFAF7" stroke="#9E2B25" stroke-width="1.6"/>
<rect x="741.5" y="251.5" width="11" height="16.5" fill="#9E2B25" opacity="0.9"/>
<path d="M 741.5 246.0 L 741.5 268.0 L 752.5 268.0 L 752.5 246.0" fill="none" stroke="#9E2B25" stroke-width="1.3" stroke-linejoin="round"/>
<path d="M 756.5 254.2 L 756.5 268.0 L 767.5 268.0 L 767.5 254.2" fill="none" stroke="#9E2B25" stroke-width="1.3" stroke-linejoin="round"/>
<rect x="771.5" y="262.5" width="11" height="5.5" fill="#9E2B25" opacity="0.9"/>
<path d="M 771.5 259.8 L 771.5 268.0 L 782.5 268.0 L 782.5 259.8" fill="none" stroke="#9E2B25" stroke-width="1.3" stroke-linejoin="round"/>
<text x="762" y="288.0" font-size="10.5" fill="#9E2B25" text-anchor="middle" font-weight="bold" font-family="'Helvetica Neue Condensed', 'Arial Narrow', 'Helvetica Neue', Arial, sans-serif" letter-spacing="0.5" style="font-variant-numeric:tabular-nums" >6 0 2</text>
<rect x="900" y="140.0" width="60" height="36" rx="6" fill="#FBFAF7" stroke="#9E2B25" stroke-width="1.6"/>
<rect x="909.5" y="165.2" width="11" height="2.8" fill="#9E2B25" opacity="0.9"/>
<path d="M 909.5 146.0 L 909.5 168.0 L 920.5 168.0 L 920.5 146.0" fill="none" stroke="#9E2B25" stroke-width="1.3" stroke-linejoin="round"/>
<rect x="924.5" y="154.2" width="11" height="13.8" fill="#9E2B25" opacity="0.9"/>
<path d="M 924.5 154.2 L 924.5 168.0 L 935.5 168.0 L 935.5 154.2" fill="none" stroke="#9E2B25" stroke-width="1.3" stroke-linejoin="round"/>
<rect x="939.5" y="162.5" width="11" height="5.5" fill="#9E2B25" opacity="0.9"/>
<path d="M 939.5 159.8 L 939.5 168.0 L 950.5 168.0 L 950.5 159.8" fill="none" stroke="#9E2B25" stroke-width="1.3" stroke-linejoin="round"/>
<text x="930" y="188.0" font-size="10.5" fill="#9E2B25" text-anchor="middle" font-weight="bold" font-family="'Helvetica Neue Condensed', 'Arial Narrow', 'Helvetica Neue', Arial, sans-serif" letter-spacing="0.5" style="font-variant-numeric:tabular-nums" >1 5 2</text>
<rect x="900" y="240.0" width="60" height="36" rx="6" fill="#FBFAF7" stroke="#2E5E8C" stroke-width="1.6"/>
<rect x="909.5" y="248.8" width="11" height="19.2" fill="#2E5E8C" opacity="0.9"/>
<path d="M 909.5 246.0 L 909.5 268.0 L 920.5 268.0 L 920.5 246.0" fill="none" stroke="#2E5E8C" stroke-width="1.3" stroke-linejoin="round"/>
<path d="M 924.5 254.2 L 924.5 268.0 L 935.5 268.0 L 935.5 254.2" fill="none" stroke="#2E5E8C" stroke-width="1.3" stroke-linejoin="round"/>
<rect x="939.5" y="265.2" width="11" height="2.8" fill="#2E5E8C" opacity="0.9"/>
<path d="M 939.5 259.8 L 939.5 268.0 L 950.5 268.0 L 950.5 259.8" fill="none" stroke="#2E5E8C" stroke-width="1.3" stroke-linejoin="round"/>
<text x="930" y="288.0" font-size="10.5" fill="#2E5E8C" text-anchor="middle" font-weight="bold" font-family="'Helvetica Neue Condensed', 'Arial Narrow', 'Helvetica Neue', Arial, sans-serif" letter-spacing="0.5" style="font-variant-numeric:tabular-nums" >7 0 1</text>
<rect x="1068" y="140.0" width="60" height="36" rx="6" fill="#FBFAF7" stroke="#9E2B25" stroke-width="1.6"/>
<rect x="1077.5" y="165.2" width="11" height="2.8" fill="#9E2B25" opacity="0.9"/>
<path d="M 1077.5 146.0 L 1077.5 168.0 L 1088.5 168.0 L 1088.5 146.0" fill="none" stroke="#9E2B25" stroke-width="1.3" stroke-linejoin="round"/>
<rect x="1092.5" y="157.0" width="11" height="11.0" fill="#9E2B25" opacity="0.9"/>
<path d="M 1092.5 154.2 L 1092.5 168.0 L 1103.5 168.0 L 1103.5 154.2" fill="none" stroke="#9E2B25" stroke-width="1.3" stroke-linejoin="round"/>
<rect x="1107.5" y="159.8" width="11" height="8.2" fill="#9E2B25" opacity="0.9"/>
<path d="M 1107.5 159.8 L 1107.5 168.0 L 1118.5 168.0 L 1118.5 159.8" fill="none" stroke="#9E2B25" stroke-width="1.3" stroke-linejoin="round"/>
<text x="1098" y="188.0" font-size="10.5" fill="#9E2B25" text-anchor="middle" font-weight="bold" font-family="'Helvetica Neue Condensed', 'Arial Narrow', 'Helvetica Neue', Arial, sans-serif" letter-spacing="0.5" style="font-variant-numeric:tabular-nums" >1 4 3</text>
<rect x="1068" y="240.0" width="60" height="36" rx="6" fill="#FBFAF7" stroke="#2E5E8C" stroke-width="1.6"/>
<rect x="1077.5" y="248.8" width="11" height="19.2" fill="#2E5E8C" opacity="0.9"/>
<path d="M 1077.5 246.0 L 1077.5 268.0 L 1088.5 268.0 L 1088.5 246.0" fill="none" stroke="#2E5E8C" stroke-width="1.3" stroke-linejoin="round"/>
<rect x="1092.5" y="265.2" width="11" height="2.8" fill="#2E5E8C" opacity="0.9"/>
<path d="M 1092.5 254.2 L 1092.5 268.0 L 1103.5 268.0 L 1103.5 254.2" fill="none" stroke="#2E5E8C" stroke-width="1.3" stroke-linejoin="round"/>
<path d="M 1107.5 259.8 L 1107.5 268.0 L 1118.5 268.0 L 1118.5 259.8" fill="none" stroke="#2E5E8C" stroke-width="1.3" stroke-linejoin="round"/>
<text x="1098" y="288.0" font-size="10.5" fill="#2E5E8C" text-anchor="middle" font-weight="bold" font-family="'Helvetica Neue Condensed', 'Arial Narrow', 'Helvetica Neue', Arial, sans-serif" letter-spacing="0.5" style="font-variant-numeric:tabular-nums" >7 1 0</text>
<rect x="1236" y="140.0" width="60" height="36" rx="6" fill="#FBFAF7" stroke="#2E5E8C" stroke-width="1.6"/>
<rect x="1245.5" y="157.0" width="11" height="11.0" fill="#2E5E8C" opacity="0.9"/>
<path d="M 1245.5 146.0 L 1245.5 168.0 L 1256.5 168.0 L 1256.5 146.0" fill="none" stroke="#2E5E8C" stroke-width="1.3" stroke-linejoin="round"/>
<rect x="1260.5" y="165.2" width="11" height="2.8" fill="#2E5E8C" opacity="0.9"/>
<path d="M 1260.5 154.2 L 1260.5 168.0 L 1271.5 168.0 L 1271.5 154.2" fill="none" stroke="#2E5E8C" stroke-width="1.3" stroke-linejoin="round"/>
<rect x="1275.5" y="159.8" width="11" height="8.2" fill="#2E5E8C" opacity="0.9"/>
<path d="M 1275.5 159.8 L 1275.5 168.0 L 1286.5 168.0 L 1286.5 159.8" fill="none" stroke="#2E5E8C" stroke-width="1.3" stroke-linejoin="round"/>
<text x="1266" y="188.0" font-size="10.5" fill="#2E5E8C" text-anchor="middle" font-weight="bold" font-family="'Helvetica Neue Condensed', 'Arial Narrow', 'Helvetica Neue', Arial, sans-serif" letter-spacing="0.5" style="font-variant-numeric:tabular-nums" >4 1 3</text>
<rect x="1236" y="240.0" width="60" height="36" rx="6" fill="#FBFAF7" stroke="#9E2B25" stroke-width="1.6"/>
<rect x="1245.5" y="257.0" width="11" height="11.0" fill="#9E2B25" opacity="0.9"/>
<path d="M 1245.5 246.0 L 1245.5 268.0 L 1256.5 268.0 L 1256.5 246.0" fill="none" stroke="#9E2B25" stroke-width="1.3" stroke-linejoin="round"/>
<rect x="1260.5" y="257.0" width="11" height="11.0" fill="#9E2B25" opacity="0.9"/>
<path d="M 1260.5 254.2 L 1260.5 268.0 L 1271.5 268.0 L 1271.5 254.2" fill="none" stroke="#9E2B25" stroke-width="1.3" stroke-linejoin="round"/>
<path d="M 1275.5 259.8 L 1275.5 268.0 L 1286.5 268.0 L 1286.5 259.8" fill="none" stroke="#9E2B25" stroke-width="1.3" stroke-linejoin="round"/>
<text x="1266" y="288.0" font-size="10.5" fill="#9E2B25" text-anchor="middle" font-weight="bold" font-family="'Helvetica Neue Condensed', 'Arial Narrow', 'Helvetica Neue', Arial, sans-serif" letter-spacing="0.5" style="font-variant-numeric:tabular-nums" >4 4 0</text>
<text x="90" y="176.0" font-size="10.5" fill="#1A1A1A" text-anchor="middle" font-weight="bold" font-family="'Helvetica Neue Condensed', 'Arial Narrow', 'Helvetica Neue', Arial, sans-serif" letter-spacing="1" style="font-variant-numeric:tabular-nums" >START</text>
<text x="1266" y="224.0" font-size="10.5" fill="#9E2B25" text-anchor="middle" font-weight="bold" font-family="'Helvetica Neue Condensed', 'Arial Narrow', 'Helvetica Neue', Arial, sans-serif" letter-spacing="1" style="font-variant-numeric:tabular-nums" >GOAL</text>
<text x="930" y="124.0" font-size="12" fill="#9E2B25" text-anchor="middle" font-weight="bold" font-family="'Helvetica Neue Condensed', 'Arial Narrow', 'Helvetica Neue', Arial, sans-serif" style="font-variant-numeric:tabular-nums" >shortest route, 7 pours</text>
<text x="930" y="300.0" font-size="12" fill="#2E5E8C" text-anchor="middle" font-weight="bold" font-family="'Helvetica Neue Condensed', 'Arial Narrow', 'Helvetica Neue', Arial, sans-serif" style="font-variant-numeric:tabular-nums" >a longer route, 8 pours</text>
<line x1="84" y1="498" x2="1278" y2="498" stroke="#DAD6CC" stroke-width="1"/>
<text x="84" y="518" font-size="12.5" fill="#6B6B6B" text-anchor="start" font-weight="normal" style="font-variant-numeric:tabular-nums" >Each fork is an OR: an either/or choice of the next pour.</text>
<text x="1278" y="518" font-size="11.5" fill="#B8B4AC" text-anchor="end" font-weight="normal" font-family="'Helvetica Neue Condensed', 'Arial Narrow', 'Helvetica Neue', Arial, sans-serif" style="font-variant-numeric:tabular-nums" >log₂ of the paths ≈ information to name your route</text>
</svg>
