<svg xmlns="http://www.w3.org/2000/svg" viewBox="0 0 1000 488" font-family="'Helvetica Neue', 'Arial Narrow', Helvetica, Arial, sans-serif">
<rect width="1000" height="488" fill="#FBFAF7"/>
<text x="40" y="32" font-size="11.5" fill="#6B6B6B" text-anchor="start" font-weight="bold" font-family="'Helvetica Neue Condensed', 'Arial Narrow', 'Helvetica Neue', Arial, sans-serif" letter-spacing="1.6" style="font-variant-numeric:tabular-nums" >THE SOLUTION</text>
<text x="40" y="54" font-size="20" fill="#1A1A1A" text-anchor="start" font-weight="bold" font-family="'Helvetica Neue Condensed', 'Arial Narrow', 'Helvetica Neue', Arial, sans-serif" style="font-variant-numeric:tabular-nums" >Seven pours to four and four</text>
<rect x="41.9" y="90.0" width="36.2" height="94.5" fill="#9E2B25" opacity="0.75"/>
<path d="M 40.4 90.0 L 40.4 183 Q 40.4 186 43.4 186 L 76.6 186 Q 79.6 186 79.6 183 L 79.6 90.0" fill="none" stroke="#1A1A1A" stroke-width="1.5" stroke-linejoin="round"/>
<path d="M 113.5 126.0 L 113.5 183 Q 113.5 186 116.5 186 L 139.5 186 Q 142.5 186 142.5 183 L 142.5 126.0" fill="none" stroke="#1A1A1A" stroke-width="1.5" stroke-linejoin="round"/>
<path d="M 180.9 150.0 L 180.9 183 Q 180.9 186 183.9 186 L 200.1 186 Q 203.1 186 203.1 183 L 203.1 150.0" fill="none" stroke="#1A1A1A" stroke-width="1.5" stroke-linejoin="round"/>
<text x="128" y="212" font-size="14" fill="#1A1A1A" text-anchor="middle" font-weight="bold" font-family="'Helvetica Neue Condensed', 'Arial Narrow', 'Helvetica Neue', Arial, sans-serif" letter-spacing="0.5" style="font-variant-numeric:tabular-nums" >8  0  0</text>
<text x="128" y="230" font-size="11.5" fill="#6B6B6B" text-anchor="middle" font-weight="normal" font-family="'Helvetica Neue Condensed', 'Arial Narrow', 'Helvetica Neue', Arial, sans-serif" style="font-variant-numeric:tabular-nums" >start</text>
<line x1="234" y1="156" x2="266" y2="156" stroke="#B8B4AC" stroke-width="2"/><path d="M 266 156 L 257.0 160.3 M 266 156 L 257.0 151.7" stroke="#B8B4AC" stroke-width="2" fill="none" stroke-linecap="round"/>
<rect x="281.9" y="150.0" width="36.2" height="34.5" fill="#9E2B25" opacity="0.75"/>
<path d="M 280.4 90.0 L 280.4 183 Q 280.4 186 283.4 186 L 316.6 186 Q 319.6 186 319.6 183 L 319.6 90.0" fill="none" stroke="#1A1A1A" stroke-width="1.5" stroke-linejoin="round"/>
<rect x="355.0" y="126.0" width="26.0" height="58.5" fill="#9E2B25" opacity="0.75"/>
<path d="M 353.5 126.0 L 353.5 183 Q 353.5 186 356.5 186 L 379.5 186 Q 382.5 186 382.5 183 L 382.5 126.0" fill="none" stroke="#1A1A1A" stroke-width="1.5" stroke-linejoin="round"/>
<path d="M 420.9 150.0 L 420.9 183 Q 420.9 186 423.9 186 L 440.1 186 Q 443.1 186 443.1 183 L 443.1 150.0" fill="none" stroke="#1A1A1A" stroke-width="1.5" stroke-linejoin="round"/>
<text x="368" y="212" font-size="14" fill="#1A1A1A" text-anchor="middle" font-weight="bold" font-family="'Helvetica Neue Condensed', 'Arial Narrow', 'Helvetica Neue', Arial, sans-serif" letter-spacing="0.5" style="font-variant-numeric:tabular-nums" >3  5  0</text>
<text x="368" y="230" font-size="11.5" fill="#6B6B6B" text-anchor="middle" font-weight="normal" font-family="'Helvetica Neue Condensed', 'Arial Narrow', 'Helvetica Neue', Arial, sans-serif" style="font-variant-numeric:tabular-nums" >1. fill the five</text>
<line x1="474" y1="156" x2="506" y2="156" stroke="#B8B4AC" stroke-width="2"/><path d="M 506 156 L 497.0 160.3 M 506 156 L 497.0 151.7" stroke="#B8B4AC" stroke-width="2" fill="none" stroke-linecap="round"/>
<rect x="521.9" y="150.0" width="36.2" height="34.5" fill="#9E2B25" opacity="0.75"/>
<path d="M 520.4 90.0 L 520.4 183 Q 520.4 186 523.4 186 L 556.6 186 Q 559.6 186 559.6 183 L 559.6 90.0" fill="none" stroke="#1A1A1A" stroke-width="1.5" stroke-linejoin="round"/>
<rect x="595.0" y="162.0" width="26.0" height="22.5" fill="#9E2B25" opacity="0.75"/>
<path d="M 593.5 126.0 L 593.5 183 Q 593.5 186 596.5 186 L 619.5 186 Q 622.5 186 622.5 183 L 622.5 126.0" fill="none" stroke="#1A1A1A" stroke-width="1.5" stroke-linejoin="round"/>
<rect x="662.4" y="150.0" width="19.2" height="34.5" fill="#9E2B25" opacity="0.75"/>
<path d="M 660.9 150.0 L 660.9 183 Q 660.9 186 663.9 186 L 680.1 186 Q 683.1 186 683.1 183 L 683.1 150.0" fill="none" stroke="#1A1A1A" stroke-width="1.5" stroke-linejoin="round"/>
<text x="608" y="212" font-size="14" fill="#1A1A1A" text-anchor="middle" font-weight="bold" font-family="'Helvetica Neue Condensed', 'Arial Narrow', 'Helvetica Neue', Arial, sans-serif" letter-spacing="0.5" style="font-variant-numeric:tabular-nums" >3  2  3</text>
<text x="608" y="230" font-size="11.5" fill="#6B6B6B" text-anchor="middle" font-weight="normal" font-family="'Helvetica Neue Condensed', 'Arial Narrow', 'Helvetica Neue', Arial, sans-serif" style="font-variant-numeric:tabular-nums" >2. fill the three from the five</text>
<line x1="714" y1="156" x2="746" y2="156" stroke="#B8B4AC" stroke-width="2"/><path d="M 746 156 L 737.0 160.3 M 746 156 L 737.0 151.7" stroke="#B8B4AC" stroke-width="2" fill="none" stroke-linecap="round"/>
<rect x="761.9" y="114.0" width="36.2" height="70.5" fill="#9E2B25" opacity="0.75"/>
<path d="M 760.4 90.0 L 760.4 183 Q 760.4 186 763.4 186 L 796.6 186 Q 799.6 186 799.6 183 L 799.6 90.0" fill="none" stroke="#1A1A1A" stroke-width="1.5" stroke-linejoin="round"/>
<rect x="835.0" y="162.0" width="26.0" height="22.5" fill="#9E2B25" opacity="0.75"/>
<path d="M 833.5 126.0 L 833.5 183 Q 833.5 186 836.5 186 L 859.5 186 Q 862.5 186 862.5 183 L 862.5 126.0" fill="none" stroke="#1A1A1A" stroke-width="1.5" stroke-linejoin="round"/>
<path d="M 900.9 150.0 L 900.9 183 Q 900.9 186 903.9 186 L 920.1 186 Q 923.1 186 923.1 183 L 923.1 150.0" fill="none" stroke="#1A1A1A" stroke-width="1.5" stroke-linejoin="round"/>
<text x="848" y="212" font-size="14" fill="#1A1A1A" text-anchor="middle" font-weight="bold" font-family="'Helvetica Neue Condensed', 'Arial Narrow', 'Helvetica Neue', Arial, sans-serif" letter-spacing="0.5" style="font-variant-numeric:tabular-nums" >6  2  0</text>
<text x="848" y="230" font-size="11.5" fill="#6B6B6B" text-anchor="middle" font-weight="normal" font-family="'Helvetica Neue Condensed', 'Arial Narrow', 'Helvetica Neue', Arial, sans-serif" style="font-variant-numeric:tabular-nums" >3. empty the three into the eight</text>
<rect x="41.9" y="314.0" width="36.2" height="70.5" fill="#9E2B25" opacity="0.75"/>
<path d="M 40.4 290.0 L 40.4 383 Q 40.4 386 43.4 386 L 76.6 386 Q 79.6 386 79.6 383 L 79.6 290.0" fill="none" stroke="#1A1A1A" stroke-width="1.5" stroke-linejoin="round"/>
<path d="M 113.5 326.0 L 113.5 383 Q 113.5 386 116.5 386 L 139.5 386 Q 142.5 386 142.5 383 L 142.5 326.0" fill="none" stroke="#1A1A1A" stroke-width="1.5" stroke-linejoin="round"/>
<rect x="182.4" y="362.0" width="19.2" height="22.5" fill="#9E2B25" opacity="0.75"/>
<path d="M 180.9 350.0 L 180.9 383 Q 180.9 386 183.9 386 L 200.1 386 Q 203.1 386 203.1 383 L 203.1 350.0" fill="none" stroke="#1A1A1A" stroke-width="1.5" stroke-linejoin="round"/>
<text x="128" y="412" font-size="14" fill="#1A1A1A" text-anchor="middle" font-weight="bold" font-family="'Helvetica Neue Condensed', 'Arial Narrow', 'Helvetica Neue', Arial, sans-serif" letter-spacing="0.5" style="font-variant-numeric:tabular-nums" >6  0  2</text>
<text x="128" y="430" font-size="11.5" fill="#6B6B6B" text-anchor="middle" font-weight="normal" font-family="'Helvetica Neue Condensed', 'Arial Narrow', 'Helvetica Neue', Arial, sans-serif" style="font-variant-numeric:tabular-nums" >4. pour the five into the three</text>
<line x1="234" y1="356" x2="266" y2="356" stroke="#B8B4AC" stroke-width="2"/><path d="M 266 356 L 257.0 360.3 M 266 356 L 257.0 351.7" stroke="#B8B4AC" stroke-width="2" fill="none" stroke-linecap="round"/>
<rect x="281.9" y="374.0" width="36.2" height="10.5" fill="#9E2B25" opacity="0.75"/>
<path d="M 280.4 290.0 L 280.4 383 Q 280.4 386 283.4 386 L 316.6 386 Q 319.6 386 319.6 383 L 319.6 290.0" fill="none" stroke="#1A1A1A" stroke-width="1.5" stroke-linejoin="round"/>
<rect x="355.0" y="326.0" width="26.0" height="58.5" fill="#9E2B25" opacity="0.75"/>
<path d="M 353.5 326.0 L 353.5 383 Q 353.5 386 356.5 386 L 379.5 386 Q 382.5 386 382.5 383 L 382.5 326.0" fill="none" stroke="#1A1A1A" stroke-width="1.5" stroke-linejoin="round"/>
<rect x="422.4" y="362.0" width="19.2" height="22.5" fill="#9E2B25" opacity="0.75"/>
<path d="M 420.9 350.0 L 420.9 383 Q 420.9 386 423.9 386 L 440.1 386 Q 443.1 386 443.1 383 L 443.1 350.0" fill="none" stroke="#1A1A1A" stroke-width="1.5" stroke-linejoin="round"/>
<text x="368" y="412" font-size="14" fill="#1A1A1A" text-anchor="middle" font-weight="bold" font-family="'Helvetica Neue Condensed', 'Arial Narrow', 'Helvetica Neue', Arial, sans-serif" letter-spacing="0.5" style="font-variant-numeric:tabular-nums" >1  5  2</text>
<text x="368" y="430" font-size="11.5" fill="#6B6B6B" text-anchor="middle" font-weight="normal" font-family="'Helvetica Neue Condensed', 'Arial Narrow', 'Helvetica Neue', Arial, sans-serif" style="font-variant-numeric:tabular-nums" >5. fill the five again</text>
<line x1="474" y1="356" x2="506" y2="356" stroke="#B8B4AC" stroke-width="2"/><path d="M 506 356 L 497.0 360.3 M 506 356 L 497.0 351.7" stroke="#B8B4AC" stroke-width="2" fill="none" stroke-linecap="round"/>
<rect x="521.9" y="374.0" width="36.2" height="10.5" fill="#9E2B25" opacity="0.75"/>
<path d="M 520.4 290.0 L 520.4 383 Q 520.4 386 523.4 386 L 556.6 386 Q 559.6 386 559.6 383 L 559.6 290.0" fill="none" stroke="#1A1A1A" stroke-width="1.5" stroke-linejoin="round"/>
<rect x="595.0" y="338.0" width="26.0" height="46.5" fill="#9E2B25" opacity="0.75"/>
<path d="M 593.5 326.0 L 593.5 383 Q 593.5 386 596.5 386 L 619.5 386 Q 622.5 386 622.5 383 L 622.5 326.0" fill="none" stroke="#1A1A1A" stroke-width="1.5" stroke-linejoin="round"/>
<rect x="662.4" y="350.0" width="19.2" height="34.5" fill="#9E2B25" opacity="0.75"/>
<path d="M 660.9 350.0 L 660.9 383 Q 660.9 386 663.9 386 L 680.1 386 Q 683.1 386 683.1 383 L 683.1 350.0" fill="none" stroke="#1A1A1A" stroke-width="1.5" stroke-linejoin="round"/>
<text x="608" y="412" font-size="14" fill="#1A1A1A" text-anchor="middle" font-weight="bold" font-family="'Helvetica Neue Condensed', 'Arial Narrow', 'Helvetica Neue', Arial, sans-serif" letter-spacing="0.5" style="font-variant-numeric:tabular-nums" >1  4  3</text>
<text x="608" y="430" font-size="11.5" fill="#6B6B6B" text-anchor="middle" font-weight="normal" font-family="'Helvetica Neue Condensed', 'Arial Narrow', 'Helvetica Neue', Arial, sans-serif" style="font-variant-numeric:tabular-nums" >6. top up the three</text>
<line x1="714" y1="356" x2="746" y2="356" stroke="#B8B4AC" stroke-width="2"/><path d="M 746 356 L 737.0 360.3 M 746 356 L 737.0 351.7" stroke="#B8B4AC" stroke-width="2" fill="none" stroke-linecap="round"/>
<rect x="761.9" y="338.0" width="36.2" height="46.5" fill="#9E2B25" opacity="0.85"/>
<path d="M 760.4 290.0 L 760.4 383 Q 760.4 386 763.4 386 L 796.6 386 Q 799.6 386 799.6 383 L 799.6 290.0" fill="none" stroke="#9E2B25" stroke-width="1.5" stroke-linejoin="round"/>
<rect x="835.0" y="338.0" width="26.0" height="46.5" fill="#9E2B25" opacity="0.85"/>
<path d="M 833.5 326.0 L 833.5 383 Q 833.5 386 836.5 386 L 859.5 386 Q 862.5 386 862.5 383 L 862.5 326.0" fill="none" stroke="#9E2B25" stroke-width="1.5" stroke-linejoin="round"/>
<path d="M 900.9 350.0 L 900.9 383 Q 900.9 386 903.9 386 L 920.1 386 Q 923.1 386 923.1 383 L 923.1 350.0" fill="none" stroke="#9E2B25" stroke-width="1.5" stroke-linejoin="round"/>
<text x="848" y="412" font-size="14" fill="#9E2B25" text-anchor="middle" font-weight="bold" font-family="'Helvetica Neue Condensed', 'Arial Narrow', 'Helvetica Neue', Arial, sans-serif" letter-spacing="0.5" style="font-variant-numeric:tabular-nums" >4  4  0</text>
<text x="848" y="430" font-size="11.5" fill="#6B6B6B" text-anchor="middle" font-weight="normal" font-family="'Helvetica Neue Condensed', 'Arial Narrow', 'Helvetica Neue', Arial, sans-serif" style="font-variant-numeric:tabular-nums" >7. empty the three into the eight</text>
<line x1="40" y1="454" x2="960" y2="454" stroke="#DAD6CC" stroke-width="1"/>
<text x="40" y="474" font-size="13" fill="#6B6B6B" text-anchor="start" font-weight="normal" style="font-variant-numeric:tabular-nums" >The wine at the end remembers none of the seven pours. Pouring forgets.</text>
</svg>
