<svg xmlns="http://www.w3.org/2000/svg" viewBox="0 0 1000 640" font-family="'Helvetica Neue', 'Arial Narrow', Helvetica, Arial, sans-serif">
<rect width="1000" height="640" fill="#FBFAF7"/>
<rect width="1000" height="640" fill="#FBFAF7"/>
<line x1="90" y1="500" x2="910" y2="500" stroke="#DAD6CC" stroke-width="2"/>
<path d="M 192.6 399.0 L 193.6 496.0 Q 194.6 500.0 198.6 500.0 L 401.4 500.0 Q 405.4 500.0 406.4 496.0 L 407.4 399.0 Z" fill="#9E2B25" opacity="0.40"/>
<path d="M 190.6 397.0 L 193.6 495.0 Q 194.6 500.0 199.6 500.0 L 400.4 500.0 Q 405.4 500.0 406.4 495.0 L 409.4 397.0 Z" fill="none" stroke="#3A3A3A" stroke-width="8.97" stroke-linejoin="round"/>
<line x1="227.0" y1="399.0" x2="241.6" y2="497.0" stroke="#3A3A3A" stroke-width="3.29" opacity="0.8"/>
<line x1="263.5" y1="399.0" x2="270.8" y2="497.0" stroke="#3A3A3A" stroke-width="3.29" opacity="0.8"/>
<line x1="300.0" y1="399.0" x2="300.0" y2="497.0" stroke="#3A3A3A" stroke-width="3.29" opacity="0.8"/>
<line x1="336.5" y1="399.0" x2="329.2" y2="497.0" stroke="#3A3A3A" stroke-width="3.29" opacity="0.8"/>
<line x1="373.0" y1="399.0" x2="358.4" y2="497.0" stroke="#3A3A3A" stroke-width="3.29" opacity="0.8"/>
<line x1="193.6" y1="417.6" x2="406.4" y2="417.6" stroke="#3A3A3A" stroke-width="3.29" opacity="0.8"/>
<line x1="196.7" y1="438.2" x2="403.3" y2="438.2" stroke="#3A3A3A" stroke-width="3.29" opacity="0.8"/>
<line x1="199.8" y1="458.8" x2="400.2" y2="458.8" stroke="#3A3A3A" stroke-width="3.29" opacity="0.8"/>
<line x1="202.8" y1="479.4" x2="397.2" y2="479.4" stroke="#3A3A3A" stroke-width="3.29" opacity="0.8"/>
<ellipse cx="300" cy="397.0" rx="109.4" ry="17.9" fill="#3A3A3A"/>
<path d="M 191.6 396.0 q -32.9 -6.0 -35.9 17.9 q -3.0 15.5 13.8 17.9" fill="none" stroke="#3A3A3A" stroke-width="8.37" stroke-linecap="round"/>
<path d="M 408.4 396.0 q 32.9 -6.0 35.9 17.9 q 3.0 15.5 -13.8 17.9" fill="none" stroke="#3A3A3A" stroke-width="8.37" stroke-linecap="round"/>
<path d="M 190.6 397.0 Q 300 249.9 409.4 397.0" fill="#FBFAF7" stroke="#3A3A3A" stroke-width="8.97"/>
<path d="M 208.5 382.3 Q 300 369.2 391.5 382.3" fill="none" stroke="#3A3A3A" stroke-width="3.29" opacity="0.8"/>
<path d="M 226.5 367.6 Q 300 354.4 373.5 367.6" fill="none" stroke="#3A3A3A" stroke-width="3.29" opacity="0.8"/>
<path d="M 244.4 352.9 Q 300 339.7 355.6 352.9" fill="none" stroke="#3A3A3A" stroke-width="3.29" opacity="0.8"/>
<path d="M 262.4 338.2 Q 300 325.0 337.6 338.2" fill="none" stroke="#3A3A3A" stroke-width="3.29" opacity="0.8"/>
<rect x="289.8" y="282.6" width="20.3" height="41.9" fill="#CFCEC6" stroke="#3A3A3A" stroke-width="5.08"/>
<rect x="289.2" y="272.0" width="21.5" height="16.7" rx="6.0" fill="#2E6E3A"/>
<ellipse cx="300" cy="363.2" rx="43.7" ry="32.3" fill="#9E2B25"/>
<text x="300" y="382.92356" font-size="50.232" fill="#ffffff" text-anchor="middle" font-weight="bold" style="font-variant-numeric:tabular-nums" >2</text>
<path d="M 425.4 366.8 L 426.4 496.0 Q 427.4 500.0 431.4 500.0 L 608.6 500.0 Q 612.6 500.0 613.6 496.0 L 614.6 366.8 Z" fill="#9E2B25" opacity="0.40"/>
<path d="M 423.4 364.8 L 426.4 495.0 Q 427.4 500.0 432.4 500.0 L 607.6 500.0 Q 612.6 500.0 613.6 495.0 L 616.6 364.8 Z" fill="none" stroke="#3A3A3A" stroke-width="9.66" stroke-linejoin="round"/>
<line x1="455.6" y1="366.8" x2="468.5" y2="497.0" stroke="#3A3A3A" stroke-width="3.54" opacity="0.8"/>
<line x1="487.8" y1="366.8" x2="494.2" y2="497.0" stroke="#3A3A3A" stroke-width="3.54" opacity="0.8"/>
<line x1="520.0" y1="366.8" x2="520.0" y2="497.0" stroke="#3A3A3A" stroke-width="3.54" opacity="0.8"/>
<line x1="552.2" y1="366.8" x2="545.8" y2="497.0" stroke="#3A3A3A" stroke-width="3.54" opacity="0.8"/>
<line x1="584.4" y1="366.8" x2="571.5" y2="497.0" stroke="#3A3A3A" stroke-width="3.54" opacity="0.8"/>
<line x1="426.1" y1="391.8" x2="613.9" y2="391.8" stroke="#3A3A3A" stroke-width="3.54" opacity="0.8"/>
<line x1="428.8" y1="418.9" x2="611.2" y2="418.9" stroke="#3A3A3A" stroke-width="3.54" opacity="0.8"/>
<line x1="431.5" y1="445.9" x2="608.5" y2="445.9" stroke="#3A3A3A" stroke-width="3.54" opacity="0.8"/>
<line x1="434.2" y1="473.0" x2="605.8" y2="473.0" stroke="#3A3A3A" stroke-width="3.54" opacity="0.8"/>
<ellipse cx="520" cy="364.8" rx="96.6" ry="19.3" fill="#3A3A3A"/>
<path d="M 424.4 363.8 q -35.4 -6.4 -38.6 19.3 q -3.2 16.7 14.8 19.3" fill="none" stroke="#3A3A3A" stroke-width="9.02" stroke-linecap="round"/>
<path d="M 615.6 363.8 q 35.4 -6.4 38.6 19.3 q 3.2 16.7 -14.8 19.3" fill="none" stroke="#3A3A3A" stroke-width="9.02" stroke-linecap="round"/>
<path d="M 423.4 364.8 Q 520 171.6 616.6 364.8" fill="#FBFAF7" stroke="#3A3A3A" stroke-width="9.66"/>
<path d="M 439.2 345.4 Q 520 331.3 600.8 345.4" fill="none" stroke="#3A3A3A" stroke-width="3.54" opacity="0.8"/>
<path d="M 455.1 326.1 Q 520 312.0 584.9 326.1" fill="none" stroke="#3A3A3A" stroke-width="3.54" opacity="0.8"/>
<path d="M 470.9 306.8 Q 520 292.6 569.1 306.8" fill="none" stroke="#3A3A3A" stroke-width="3.54" opacity="0.8"/>
<path d="M 486.8 287.5 Q 520 273.3 553.2 287.5" fill="none" stroke="#3A3A3A" stroke-width="3.54" opacity="0.8"/>
<rect x="509.1" y="224.1" width="21.9" height="45.1" fill="#CFCEC6" stroke="#3A3A3A" stroke-width="5.47"/>
<rect x="508.5" y="212.8" width="23.1" height="18.0" rx="6.4" fill="#2E6E3A"/>
<ellipse cx="520" cy="320.3" rx="47.0" ry="34.8" fill="#9E2B25"/>
<text x="520" y="341.576" font-size="54.096" fill="#ffffff" text-anchor="middle" font-weight="bold" style="font-variant-numeric:tabular-nums" >3</text>
<path d="M 646.4 316.3 L 647.4 496.0 Q 648.4 500.0 652.4 500.0 L 807.6 500.0 Q 811.6 500.0 812.6 496.0 L 813.6 316.3 Z" fill="#9E2B25" opacity="0.40"/>
<path d="M 644.4 314.3 L 647.4 495.0 Q 648.4 500.0 653.4 500.0 L 806.6 500.0 Q 811.6 500.0 812.6 495.0 L 815.6 314.3 Z" fill="none" stroke="#3A3A3A" stroke-width="10.70" stroke-linejoin="round"/>
<line x1="673.0" y1="316.3" x2="684.4" y2="497.0" stroke="#3A3A3A" stroke-width="3.92" opacity="0.8"/>
<line x1="701.5" y1="316.3" x2="707.2" y2="497.0" stroke="#3A3A3A" stroke-width="3.92" opacity="0.8"/>
<line x1="730.0" y1="316.3" x2="730.0" y2="497.0" stroke="#3A3A3A" stroke-width="3.92" opacity="0.8"/>
<line x1="758.5" y1="316.3" x2="752.8" y2="497.0" stroke="#3A3A3A" stroke-width="3.92" opacity="0.8"/>
<line x1="787.0" y1="316.3" x2="775.6" y2="497.0" stroke="#3A3A3A" stroke-width="3.92" opacity="0.8"/>
<line x1="646.8" y1="351.5" x2="813.2" y2="351.5" stroke="#3A3A3A" stroke-width="3.92" opacity="0.8"/>
<line x1="649.2" y1="388.6" x2="810.8" y2="388.6" stroke="#3A3A3A" stroke-width="3.92" opacity="0.8"/>
<line x1="651.6" y1="425.7" x2="808.4" y2="425.7" stroke="#3A3A3A" stroke-width="3.92" opacity="0.8"/>
<line x1="654.0" y1="462.9" x2="806.0" y2="462.9" stroke="#3A3A3A" stroke-width="3.92" opacity="0.8"/>
<ellipse cx="730" cy="314.3" rx="85.6" ry="21.4" fill="#3A3A3A"/>
<path d="M 645.4 313.3 q -39.2 -7.1 -42.8 21.4 q -3.6 18.5 16.4 21.4" fill="none" stroke="#3A3A3A" stroke-width="9.98" stroke-linecap="round"/>
<path d="M 814.6 313.3 q 39.2 -7.1 42.8 21.4 q 3.6 18.5 -16.4 21.4" fill="none" stroke="#3A3A3A" stroke-width="9.98" stroke-linecap="round"/>
<path d="M 644.4 314.3 Q 730 57.7 815.6 314.3" fill="#FBFAF7" stroke="#3A3A3A" stroke-width="10.70"/>
<path d="M 658.5 288.7 Q 730 273.0 801.5 288.7" fill="none" stroke="#3A3A3A" stroke-width="3.92" opacity="0.8"/>
<path d="M 672.5 263.0 Q 730 247.3 787.5 263.0" fill="none" stroke="#3A3A3A" stroke-width="3.92" opacity="0.8"/>
<path d="M 686.5 237.3 Q 730 221.6 773.5 237.3" fill="none" stroke="#3A3A3A" stroke-width="3.92" opacity="0.8"/>
<path d="M 700.6 211.7 Q 730 196.0 759.4 211.7" fill="none" stroke="#3A3A3A" stroke-width="3.92" opacity="0.8"/>
<rect x="717.9" y="137.1" width="24.2" height="49.9" fill="#CFCEC6" stroke="#3A3A3A" stroke-width="6.06"/>
<rect x="717.3" y="124.7" width="25.4" height="20.0" rx="7.1" fill="#2E6E3A"/>
<ellipse cx="730" cy="255.3" rx="52.0" ry="38.5" fill="#9E2B25"/>
<text x="730" y="278.82739999999995" font-size="59.892" fill="#ffffff" text-anchor="middle" font-weight="bold" style="font-variant-numeric:tabular-nums" >5</text>
</svg>
