<svg xmlns="http://www.w3.org/2000/svg" viewBox="0 0 840 400" font-family="'Helvetica Neue', 'Arial Narrow', Helvetica, Arial, sans-serif">
<rect width="840" height="400" fill="#FBFAF7"/>
<text x="60" y="34" font-size="11.5" fill="#6B6B6B" text-anchor="start" font-weight="bold" font-family="'Helvetica Neue Condensed', 'Arial Narrow', 'Helvetica Neue', Arial, sans-serif" letter-spacing="1.6" style="font-variant-numeric:tabular-nums" >THE PUZZLE</text>
<text x="60" y="56" font-size="20" fill="#1A1A1A" text-anchor="start" font-weight="bold" font-family="'Helvetica Neue Condensed', 'Arial Narrow', 'Helvetica Neue', Arial, sans-serif" style="font-variant-numeric:tabular-nums" >Three jugs, no markings</text>
<text x="60" y="76" font-size="13" fill="#6B6B6B" text-anchor="start" font-weight="normal" style="font-variant-numeric:tabular-nums" >You may pour from one into another only until the source is empty or the target is full.</text>
<rect x="165.0" y="124.0" width="90" height="142.0" fill="#9E2B25" opacity="0.82"/>
<line x1="163.0" y1="250.0" x2="168.0" y2="250.0" stroke="#B8B4AC" stroke-width="0.8"/>
<line x1="163.0" y1="232.0" x2="168.0" y2="232.0" stroke="#B8B4AC" stroke-width="0.8"/>
<line x1="163.0" y1="214.0" x2="168.0" y2="214.0" stroke="#B8B4AC" stroke-width="0.8"/>
<line x1="163.0" y1="196.0" x2="168.0" y2="196.0" stroke="#B8B4AC" stroke-width="0.8"/>
<line x1="163.0" y1="178.0" x2="168.0" y2="178.0" stroke="#B8B4AC" stroke-width="0.8"/>
<line x1="163.0" y1="160.0" x2="168.0" y2="160.0" stroke="#B8B4AC" stroke-width="0.8"/>
<line x1="163.0" y1="142.0" x2="168.0" y2="142.0" stroke="#B8B4AC" stroke-width="0.8"/>
<path d="M 163.0 124.0 L 163.0 264 Q 163.0 268 167.0 268 L 253.0 268 Q 257.0 268 257.0 264 L 257.0 124.0" fill="none" stroke="#1A1A1A" stroke-width="2" stroke-linejoin="round" stroke-linecap="round"/>
<text x="210" y="294" font-size="15" fill="#1A1A1A" text-anchor="middle" font-weight="bold" font-family="'Helvetica Neue Condensed', 'Arial Narrow', 'Helvetica Neue', Arial, sans-serif" style="font-variant-numeric:tabular-nums" >8 liters</text>
<text x="210" y="312" font-size="12.5" fill="#6B6B6B" text-anchor="middle" font-weight="normal" font-family="'Helvetica Neue Condensed', 'Arial Narrow', 'Helvetica Neue', Arial, sans-serif" style="font-variant-numeric:tabular-nums" >full</text>
<line x1="415.0" y1="250.0" x2="420.0" y2="250.0" stroke="#B8B4AC" stroke-width="0.8"/>
<line x1="415.0" y1="232.0" x2="420.0" y2="232.0" stroke="#B8B4AC" stroke-width="0.8"/>
<line x1="415.0" y1="214.0" x2="420.0" y2="214.0" stroke="#B8B4AC" stroke-width="0.8"/>
<line x1="415.0" y1="196.0" x2="420.0" y2="196.0" stroke="#B8B4AC" stroke-width="0.8"/>
<path d="M 415.0 178.0 L 415.0 264 Q 415.0 268 419.0 268 L 481.0 268 Q 485.0 268 485.0 264 L 485.0 178.0" fill="none" stroke="#1A1A1A" stroke-width="2" stroke-linejoin="round" stroke-linecap="round"/>
<text x="450" y="294" font-size="15" fill="#1A1A1A" text-anchor="middle" font-weight="bold" font-family="'Helvetica Neue Condensed', 'Arial Narrow', 'Helvetica Neue', Arial, sans-serif" style="font-variant-numeric:tabular-nums" >5 liters</text>
<text x="450" y="312" font-size="12.5" fill="#6B6B6B" text-anchor="middle" font-weight="normal" font-family="'Helvetica Neue Condensed', 'Arial Narrow', 'Helvetica Neue', Arial, sans-serif" style="font-variant-numeric:tabular-nums" >empty</text>
<line x1="623.0" y1="250.0" x2="628.0" y2="250.0" stroke="#B8B4AC" stroke-width="0.8"/>
<line x1="623.0" y1="232.0" x2="628.0" y2="232.0" stroke="#B8B4AC" stroke-width="0.8"/>
<path d="M 623.0 214.0 L 623.0 264 Q 623.0 268 627.0 268 L 673.0 268 Q 677.0 268 677.0 264 L 677.0 214.0" fill="none" stroke="#1A1A1A" stroke-width="2" stroke-linejoin="round" stroke-linecap="round"/>
<text x="650" y="294" font-size="15" fill="#1A1A1A" text-anchor="middle" font-weight="bold" font-family="'Helvetica Neue Condensed', 'Arial Narrow', 'Helvetica Neue', Arial, sans-serif" style="font-variant-numeric:tabular-nums" >3 liters</text>
<text x="650" y="312" font-size="12.5" fill="#6B6B6B" text-anchor="middle" font-weight="normal" font-family="'Helvetica Neue Condensed', 'Arial Narrow', 'Helvetica Neue', Arial, sans-serif" style="font-variant-numeric:tabular-nums" >empty</text>
<line x1="60" y1="348" x2="780" y2="348" stroke="#DAD6CC" stroke-width="1"/>
<text x="60" y="370" font-size="11.5" fill="#9E2B25" text-anchor="start" font-weight="bold" font-family="'Helvetica Neue Condensed', 'Arial Narrow', 'Helvetica Neue', Arial, sans-serif" letter-spacing="1.4" style="font-variant-numeric:tabular-nums" >GOAL</text>
<text x="118" y="370" font-size="14" fill="#1A1A1A" text-anchor="start" font-weight="normal" style="font-variant-numeric:tabular-nums" >split the wine into four liters and four liters.</text>
</svg>
