<svg xmlns="http://www.w3.org/2000/svg" viewBox="0 0 840 400" font-family="'Helvetica Neue', 'Arial Narrow', Helvetica, Arial, sans-serif">
<rect width="840" height="400" fill="#FBFAF7"/>
<text x="60" y="34" font-size="11.5" fill="#6B6B6B" text-anchor="start" font-weight="bold" font-family="'Helvetica Neue Condensed', 'Arial Narrow', 'Helvetica Neue', Arial, sans-serif" letter-spacing="1.6" style="font-variant-numeric:tabular-nums" >THE PUZZLE</text>
<text x="60" y="56" font-size="20" fill="#1A1A1A" text-anchor="start" font-weight="bold" font-family="'Helvetica Neue Condensed', 'Arial Narrow', 'Helvetica Neue', Arial, sans-serif" style="font-variant-numeric:tabular-nums" >Three damigiane, no markings</text>
<text x="60" y="76" font-size="13" fill="#6B6B6B" text-anchor="start" font-weight="normal" style="font-variant-numeric:tabular-nums" >You may pour from one into another only until the source is empty or the target is full.</text>
<path d="M 192.8 190.8 L 192.8 265.0 Q 193.4 268.0 197.0 268.0 L 223.0 268.0 Q 226.6 268.0 227.2 265.0 L 227.2 190.8 Z" fill="#9E2B25" opacity="0.78"/>
<path d="M 191.0 188.8 L 191.0 264.0 Q 191.0 268.0 196.0 268.0 L 224.0 268.0 Q 229.0 268.0 229.0 264.0 L 229.0 188.8 Z" fill="none" stroke="#3A3A3A" stroke-width="1.5" stroke-linejoin="round"/>
<line x1="200.5" y1="190.3" x2="200.5" y2="266.0" stroke="#3A3A3A" stroke-width="0.5" opacity="0.7"/>
<line x1="210.0" y1="190.3" x2="210.0" y2="266.0" stroke="#3A3A3A" stroke-width="0.5" opacity="0.7"/>
<line x1="219.5" y1="190.3" x2="219.5" y2="266.0" stroke="#3A3A3A" stroke-width="0.5" opacity="0.7"/>
<line x1="191.0" y1="259.2" x2="229.0" y2="259.2" stroke="#3A3A3A" stroke-width="0.5" opacity="0.7"/>
<line x1="191.0" y1="250.4" x2="229.0" y2="250.4" stroke="#3A3A3A" stroke-width="0.5" opacity="0.7"/>
<line x1="191.0" y1="241.6" x2="229.0" y2="241.6" stroke="#3A3A3A" stroke-width="0.5" opacity="0.7"/>
<line x1="191.0" y1="232.8" x2="229.0" y2="232.8" stroke="#3A3A3A" stroke-width="0.5" opacity="0.7"/>
<line x1="191.0" y1="224.0" x2="229.0" y2="224.0" stroke="#3A3A3A" stroke-width="0.5" opacity="0.7"/>
<line x1="191.0" y1="215.2" x2="229.0" y2="215.2" stroke="#3A3A3A" stroke-width="0.5" opacity="0.7"/>
<line x1="191.0" y1="206.4" x2="229.0" y2="206.4" stroke="#3A3A3A" stroke-width="0.5" opacity="0.7"/>
<line x1="191.0" y1="197.6" x2="229.0" y2="197.6" stroke="#3A3A3A" stroke-width="0.5" opacity="0.7"/>
<ellipse cx="210" cy="188.8" rx="19.0" ry="2.6" fill="#3A3A3A"/>
<path d="M 191.5 188.3 q -4.2 -0.8 -4.6 2.6 q -0.4 2.4 2.0 2.6" fill="none" stroke="#3A3A3A" stroke-width="1.27" stroke-linecap="round"/>
<path d="M 228.5 188.3 q 4.2 -0.8 4.6 2.6 q 0.4 2.4 -2.0 2.6" fill="none" stroke="#3A3A3A" stroke-width="1.27" stroke-linecap="round"/>
<path d="M 191.0 188.8 Q 210 162.8 229.0 188.8" fill="#FBFAF7" stroke="#3A3A3A" stroke-width="1.5"/>
<path d="M 194.8 185.6 Q 210 183.6 225.2 185.6" fill="none" stroke="#3A3A3A" stroke-width="0.5" opacity="0.7"/>
<path d="M 198.6 182.3 Q 210 180.3 221.4 182.3" fill="none" stroke="#3A3A3A" stroke-width="0.5" opacity="0.7"/>
<path d="M 202.4 179.1 Q 210 177.1 217.6 179.1" fill="none" stroke="#3A3A3A" stroke-width="0.5" opacity="0.7"/>
<rect x="207.8" y="167.8" width="4.4" height="9.0" fill="#CFCEC6" stroke="#3A3A3A" stroke-width="0.9"/>
<rect x="207.1" y="165.2" width="5.8" height="3.0" rx="1" fill="#2E6E3A"/>
<text x="210" y="294" font-size="15" fill="#1A1A1A" text-anchor="middle" font-weight="bold" font-family="'Helvetica Neue Condensed', 'Arial Narrow', 'Helvetica Neue', Arial, sans-serif" style="font-variant-numeric:tabular-nums" >8 liters</text>
<text x="210" y="312" font-size="12.5" fill="#6B6B6B" text-anchor="middle" font-weight="normal" font-family="'Helvetica Neue Condensed', 'Arial Narrow', 'Helvetica Neue', Arial, sans-serif" style="font-variant-numeric:tabular-nums" >full</text>
<path d="M 431.0 218.5 L 431.0 264.0 Q 431.0 268.0 436.0 268.0 L 464.0 268.0 Q 469.0 268.0 469.0 264.0 L 469.0 218.5 Z" fill="none" stroke="#3A3A3A" stroke-width="1.5" stroke-linejoin="round"/>
<line x1="440.5" y1="220.0" x2="440.5" y2="266.0" stroke="#3A3A3A" stroke-width="0.5" opacity="0.7"/>
<line x1="450.0" y1="220.0" x2="450.0" y2="266.0" stroke="#3A3A3A" stroke-width="0.5" opacity="0.7"/>
<line x1="459.5" y1="220.0" x2="459.5" y2="266.0" stroke="#3A3A3A" stroke-width="0.5" opacity="0.7"/>
<line x1="431.0" y1="259.8" x2="469.0" y2="259.8" stroke="#3A3A3A" stroke-width="0.5" opacity="0.7"/>
<line x1="431.0" y1="251.5" x2="469.0" y2="251.5" stroke="#3A3A3A" stroke-width="0.5" opacity="0.7"/>
<line x1="431.0" y1="243.2" x2="469.0" y2="243.2" stroke="#3A3A3A" stroke-width="0.5" opacity="0.7"/>
<line x1="431.0" y1="235.0" x2="469.0" y2="235.0" stroke="#3A3A3A" stroke-width="0.5" opacity="0.7"/>
<line x1="431.0" y1="226.8" x2="469.0" y2="226.8" stroke="#3A3A3A" stroke-width="0.5" opacity="0.7"/>
<ellipse cx="450" cy="218.5" rx="19.0" ry="2.6" fill="#3A3A3A"/>
<path d="M 431.5 218.0 q -4.2 -0.8 -4.6 2.6 q -0.4 2.4 2.0 2.6" fill="none" stroke="#3A3A3A" stroke-width="1.27" stroke-linecap="round"/>
<path d="M 468.5 218.0 q 4.2 -0.8 4.6 2.6 q 0.4 2.4 -2.0 2.6" fill="none" stroke="#3A3A3A" stroke-width="1.27" stroke-linecap="round"/>
<path d="M 431.0 218.5 Q 450 192.5 469.0 218.5" fill="#FBFAF7" stroke="#3A3A3A" stroke-width="1.5"/>
<path d="M 434.8 215.2 Q 450 213.2 465.2 215.2" fill="none" stroke="#3A3A3A" stroke-width="0.5" opacity="0.7"/>
<path d="M 438.6 212.0 Q 450 210.0 461.4 212.0" fill="none" stroke="#3A3A3A" stroke-width="0.5" opacity="0.7"/>
<path d="M 442.4 208.8 Q 450 206.8 457.6 208.8" fill="none" stroke="#3A3A3A" stroke-width="0.5" opacity="0.7"/>
<rect x="447.8" y="197.5" width="4.4" height="9.0" fill="#CFCEC6" stroke="#3A3A3A" stroke-width="0.9"/>
<rect x="447.1" y="194.9" width="5.8" height="3.0" rx="1" fill="#2E6E3A"/>
<text x="450" y="294" font-size="15" fill="#1A1A1A" text-anchor="middle" font-weight="bold" font-family="'Helvetica Neue Condensed', 'Arial Narrow', 'Helvetica Neue', Arial, sans-serif" style="font-variant-numeric:tabular-nums" >5 liters</text>
<text x="450" y="312" font-size="12.5" fill="#6B6B6B" text-anchor="middle" font-weight="normal" font-family="'Helvetica Neue Condensed', 'Arial Narrow', 'Helvetica Neue', Arial, sans-serif" style="font-variant-numeric:tabular-nums" >empty</text>
<path d="M 631.0 238.3 L 631.0 264.0 Q 631.0 268.0 636.0 268.0 L 664.0 268.0 Q 669.0 268.0 669.0 264.0 L 669.0 238.3 Z" fill="none" stroke="#3A3A3A" stroke-width="1.5" stroke-linejoin="round"/>
<line x1="640.5" y1="239.8" x2="640.5" y2="266.0" stroke="#3A3A3A" stroke-width="0.5" opacity="0.7"/>
<line x1="650.0" y1="239.8" x2="650.0" y2="266.0" stroke="#3A3A3A" stroke-width="0.5" opacity="0.7"/>
<line x1="659.5" y1="239.8" x2="659.5" y2="266.0" stroke="#3A3A3A" stroke-width="0.5" opacity="0.7"/>
<line x1="631.0" y1="260.6" x2="669.0" y2="260.6" stroke="#3A3A3A" stroke-width="0.5" opacity="0.7"/>
<line x1="631.0" y1="253.2" x2="669.0" y2="253.2" stroke="#3A3A3A" stroke-width="0.5" opacity="0.7"/>
<line x1="631.0" y1="245.7" x2="669.0" y2="245.7" stroke="#3A3A3A" stroke-width="0.5" opacity="0.7"/>
<ellipse cx="650" cy="238.3" rx="19.0" ry="2.6" fill="#3A3A3A"/>
<path d="M 631.5 237.8 q -4.2 -0.8 -4.6 2.6 q -0.4 2.4 2.0 2.6" fill="none" stroke="#3A3A3A" stroke-width="1.27" stroke-linecap="round"/>
<path d="M 668.5 237.8 q 4.2 -0.8 4.6 2.6 q 0.4 2.4 -2.0 2.6" fill="none" stroke="#3A3A3A" stroke-width="1.27" stroke-linecap="round"/>
<path d="M 631.0 238.3 Q 650 212.3 669.0 238.3" fill="#FBFAF7" stroke="#3A3A3A" stroke-width="1.5"/>
<path d="M 634.8 235.1 Q 650 233.1 665.2 235.1" fill="none" stroke="#3A3A3A" stroke-width="0.5" opacity="0.7"/>
<path d="M 638.6 231.8 Q 650 229.8 661.4 231.8" fill="none" stroke="#3A3A3A" stroke-width="0.5" opacity="0.7"/>
<path d="M 642.4 228.6 Q 650 226.6 657.6 228.6" fill="none" stroke="#3A3A3A" stroke-width="0.5" opacity="0.7"/>
<rect x="647.8" y="217.3" width="4.4" height="9.0" fill="#CFCEC6" stroke="#3A3A3A" stroke-width="0.9"/>
<rect x="647.1" y="214.7" width="5.8" height="3.0" rx="1" fill="#2E6E3A"/>
<text x="650" y="294" font-size="15" fill="#1A1A1A" text-anchor="middle" font-weight="bold" font-family="'Helvetica Neue Condensed', 'Arial Narrow', 'Helvetica Neue', Arial, sans-serif" style="font-variant-numeric:tabular-nums" >3 liters</text>
<text x="650" y="312" font-size="12.5" fill="#6B6B6B" text-anchor="middle" font-weight="normal" font-family="'Helvetica Neue Condensed', 'Arial Narrow', 'Helvetica Neue', Arial, sans-serif" style="font-variant-numeric:tabular-nums" >empty</text>
<line x1="60" y1="348" x2="780" y2="348" stroke="#DAD6CC" stroke-width="1"/>
<text x="60" y="370" font-size="11.5" fill="#9E2B25" text-anchor="start" font-weight="bold" font-family="'Helvetica Neue Condensed', 'Arial Narrow', 'Helvetica Neue', Arial, sans-serif" letter-spacing="1.4" style="font-variant-numeric:tabular-nums" >GOAL</text>
<text x="118" y="370" font-size="14" fill="#1A1A1A" text-anchor="start" font-weight="normal" style="font-variant-numeric:tabular-nums" >split the wine into four liters and four liters.</text>
</svg>
