<svg xmlns="http://www.w3.org/2000/svg" viewBox="0 0 1180 496" font-family="'Helvetica Neue', 'Arial Narrow', Helvetica, Arial, sans-serif">
<rect width="1180" height="496" fill="#FBFAF7"/>
<text x="40" y="32" font-size="11.5" fill="#6B6B6B" text-anchor="start" font-weight="bold" font-family="'Helvetica Neue Condensed', 'Arial Narrow', 'Helvetica Neue', Arial, sans-serif" letter-spacing="1.6" style="font-variant-numeric:tabular-nums" >ONE NUMBER, MANY HISTORIES</text>
<text x="40" y="54" font-size="20" fill="#1A1A1A" text-anchor="start" font-weight="bold" font-family="'Helvetica Neue Condensed', 'Arial Narrow', 'Helvetica Neue', Arial, sans-serif" style="font-variant-numeric:tabular-nums" >The twelve ways to build 30</text>
<text x="40" y="74" font-size="13" fill="#6B6B6B" text-anchor="start" font-weight="normal" style="font-variant-numeric:tabular-nums" >30 = 2 × 3 × 5, three different primes. Two ways to nest, six ways to order the bottles.</text>
<text x="590.0" y="108" font-size="11.5" fill="#6B6B6B" text-anchor="middle" font-weight="bold" font-family="'Helvetica Neue Condensed', 'Arial Narrow', 'Helvetica Neue', Arial, sans-serif" letter-spacing="1" style="font-variant-numeric:tabular-nums" >ORDER THE BOTTLES — 6 WAYS</text>
<text x="232.5" y="130" font-size="13" fill="#9E2B25" text-anchor="middle" font-weight="bold" font-family="'Helvetica Neue Condensed', 'Arial Narrow', 'Helvetica Neue', Arial, sans-serif" letter-spacing="0.5" style="font-variant-numeric:tabular-nums" >2·3·5</text>
<text x="397.5" y="130" font-size="13" fill="#9E2B25" text-anchor="middle" font-weight="bold" font-family="'Helvetica Neue Condensed', 'Arial Narrow', 'Helvetica Neue', Arial, sans-serif" letter-spacing="0.5" style="font-variant-numeric:tabular-nums" >2·5·3</text>
<text x="562.5" y="130" font-size="13" fill="#9E2B25" text-anchor="middle" font-weight="bold" font-family="'Helvetica Neue Condensed', 'Arial Narrow', 'Helvetica Neue', Arial, sans-serif" letter-spacing="0.5" style="font-variant-numeric:tabular-nums" >3·2·5</text>
<text x="727.5" y="130" font-size="13" fill="#9E2B25" text-anchor="middle" font-weight="bold" font-family="'Helvetica Neue Condensed', 'Arial Narrow', 'Helvetica Neue', Arial, sans-serif" letter-spacing="0.5" style="font-variant-numeric:tabular-nums" >3·5·2</text>
<text x="892.5" y="130" font-size="13" fill="#9E2B25" text-anchor="middle" font-weight="bold" font-family="'Helvetica Neue Condensed', 'Arial Narrow', 'Helvetica Neue', Arial, sans-serif" letter-spacing="0.5" style="font-variant-numeric:tabular-nums" >5·2·3</text>
<text x="1057.5" y="130" font-size="13" fill="#9E2B25" text-anchor="middle" font-weight="bold" font-family="'Helvetica Neue Condensed', 'Arial Narrow', 'Helvetica Neue', Arial, sans-serif" letter-spacing="0.5" style="font-variant-numeric:tabular-nums" >5·3·2</text>
<text x="34" y="168" font-size="11.5" fill="#1A1A1A" text-anchor="start" font-weight="bold" font-family="'Helvetica Neue Condensed', 'Arial Narrow', 'Helvetica Neue', Arial, sans-serif" style="font-variant-numeric:tabular-nums" >nest the</text>
<text x="34" y="183" font-size="11.5" fill="#1A1A1A" text-anchor="start" font-weight="bold" font-family="'Helvetica Neue Condensed', 'Arial Narrow', 'Helvetica Neue', Arial, sans-serif" style="font-variant-numeric:tabular-nums" >first pair</text>
<text x="34" y="330" font-size="11.5" fill="#1A1A1A" text-anchor="start" font-weight="bold" font-family="'Helvetica Neue Condensed', 'Arial Narrow', 'Helvetica Neue', Arial, sans-serif" style="font-variant-numeric:tabular-nums" >nest the</text>
<text x="34" y="345" font-size="11.5" fill="#1A1A1A" text-anchor="start" font-weight="bold" font-family="'Helvetica Neue Condensed', 'Arial Narrow', 'Helvetica Neue', Arial, sans-serif" style="font-variant-numeric:tabular-nums" >last pair</text>
<line x1="150.0" y1="142" x2="150.0" y2="418" stroke="#DAD6CC" stroke-width="1"/>
<line x1="315.0" y1="142" x2="315.0" y2="418" stroke="#DAD6CC" stroke-width="1"/>
<line x1="480.0" y1="142" x2="480.0" y2="418" stroke="#DAD6CC" stroke-width="1"/>
<line x1="645.0" y1="142" x2="645.0" y2="418" stroke="#DAD6CC" stroke-width="1"/>
<line x1="810.0" y1="142" x2="810.0" y2="418" stroke="#DAD6CC" stroke-width="1"/>
<line x1="975.0" y1="142" x2="975.0" y2="418" stroke="#DAD6CC" stroke-width="1"/>
<line x1="1140.0" y1="142" x2="1140.0" y2="418" stroke="#DAD6CC" stroke-width="1"/>
<line x1="150" y1="142" x2="1140.0" y2="142" stroke="#DAD6CC" stroke-width="1"/>
<line x1="150" y1="280" x2="1140.0" y2="280" stroke="#DAD6CC" stroke-width="1"/>
<line x1="150" y1="418" x2="1140.0" y2="418" stroke="#DAD6CC" stroke-width="1"/>
<line x1="232.5" y1="168" x2="210.5" y2="194" stroke="#1A1A1A" stroke-width="1.8"/>
<line x1="232.5" y1="168" x2="272.5" y2="214" stroke="#1A1A1A" stroke-width="1.8"/>
<line x1="210.5" y1="194" x2="192.5" y2="214" stroke="#1A1A1A" stroke-width="1.8"/>
<line x1="210.5" y1="194" x2="228.5" y2="214" stroke="#1A1A1A" stroke-width="1.8"/>
<circle cx="232.5" cy="168" r="4" fill="#1A1A1A"/>
<circle cx="210.5" cy="194" r="4" fill="#1A1A1A"/>
<path d="M 187.525 233.65 L 187.525 258 L 197.475 258 L 197.475 233.65 Z" fill="#9E2B25" opacity="0.80"/>
<path d="M 186.125 259 L 186.125 231.95 Q 186.125 226.0 189.95 224.3 L 189.95 214.95 L 195.04999999999998 214.95 L 195.04999999999998 224.3 Q 198.875 226.0 198.875 231.95 L 198.875 259 Z" fill="none" stroke="#9E2B25" stroke-width="1.8" stroke-linejoin="round"/>
<rect x="189.35" y="212.39999999999998" width="6.3" height="2.8899999999999997" fill="#9E2B25"/>
<text x="192.5" y="248.95" font-size="10.2" fill="white" text-anchor="middle" font-weight="bold" style="font-variant-numeric:tabular-nums" >2</text>
<path d="M 223.525 233.65 L 223.525 258 L 233.475 258 L 233.475 233.65 Z" fill="#9E2B25" opacity="0.80"/>
<path d="M 222.125 259 L 222.125 231.95 Q 222.125 226.0 225.95 224.3 L 225.95 214.95 L 231.04999999999998 214.95 L 231.04999999999998 224.3 Q 234.875 226.0 234.875 231.95 L 234.875 259 Z" fill="none" stroke="#9E2B25" stroke-width="1.8" stroke-linejoin="round"/>
<rect x="225.35" y="212.39999999999998" width="6.3" height="2.8899999999999997" fill="#9E2B25"/>
<text x="228.5" y="248.95" font-size="10.2" fill="white" text-anchor="middle" font-weight="bold" style="font-variant-numeric:tabular-nums" >3</text>
<path d="M 267.525 233.65 L 267.525 258 L 277.475 258 L 277.475 233.65 Z" fill="#9E2B25" opacity="0.80"/>
<path d="M 266.125 259 L 266.125 231.95 Q 266.125 226.0 269.95 224.3 L 269.95 214.95 L 275.05 214.95 L 275.05 224.3 Q 278.875 226.0 278.875 231.95 L 278.875 259 Z" fill="none" stroke="#9E2B25" stroke-width="1.8" stroke-linejoin="round"/>
<rect x="269.34999999999997" y="212.39999999999998" width="6.3" height="2.8899999999999997" fill="#9E2B25"/>
<text x="272.5" y="248.95" font-size="10.2" fill="white" text-anchor="middle" font-weight="bold" style="font-variant-numeric:tabular-nums" >5</text>
<line x1="397.5" y1="168" x2="375.5" y2="194" stroke="#1A1A1A" stroke-width="1.8"/>
<line x1="397.5" y1="168" x2="437.5" y2="214" stroke="#1A1A1A" stroke-width="1.8"/>
<line x1="375.5" y1="194" x2="357.5" y2="214" stroke="#1A1A1A" stroke-width="1.8"/>
<line x1="375.5" y1="194" x2="393.5" y2="214" stroke="#1A1A1A" stroke-width="1.8"/>
<circle cx="397.5" cy="168" r="4" fill="#1A1A1A"/>
<circle cx="375.5" cy="194" r="4" fill="#1A1A1A"/>
<path d="M 352.525 233.65 L 352.525 258 L 362.475 258 L 362.475 233.65 Z" fill="#9E2B25" opacity="0.80"/>
<path d="M 351.125 259 L 351.125 231.95 Q 351.125 226.0 354.95 224.3 L 354.95 214.95 L 360.05 214.95 L 360.05 224.3 Q 363.875 226.0 363.875 231.95 L 363.875 259 Z" fill="none" stroke="#9E2B25" stroke-width="1.8" stroke-linejoin="round"/>
<rect x="354.34999999999997" y="212.39999999999998" width="6.3" height="2.8899999999999997" fill="#9E2B25"/>
<text x="357.5" y="248.95" font-size="10.2" fill="white" text-anchor="middle" font-weight="bold" style="font-variant-numeric:tabular-nums" >2</text>
<path d="M 388.525 233.65 L 388.525 258 L 398.475 258 L 398.475 233.65 Z" fill="#9E2B25" opacity="0.80"/>
<path d="M 387.125 259 L 387.125 231.95 Q 387.125 226.0 390.95 224.3 L 390.95 214.95 L 396.05 214.95 L 396.05 224.3 Q 399.875 226.0 399.875 231.95 L 399.875 259 Z" fill="none" stroke="#9E2B25" stroke-width="1.8" stroke-linejoin="round"/>
<rect x="390.34999999999997" y="212.39999999999998" width="6.3" height="2.8899999999999997" fill="#9E2B25"/>
<text x="393.5" y="248.95" font-size="10.2" fill="white" text-anchor="middle" font-weight="bold" style="font-variant-numeric:tabular-nums" >5</text>
<path d="M 432.525 233.65 L 432.525 258 L 442.475 258 L 442.475 233.65 Z" fill="#9E2B25" opacity="0.80"/>
<path d="M 431.125 259 L 431.125 231.95 Q 431.125 226.0 434.95 224.3 L 434.95 214.95 L 440.05 214.95 L 440.05 224.3 Q 443.875 226.0 443.875 231.95 L 443.875 259 Z" fill="none" stroke="#9E2B25" stroke-width="1.8" stroke-linejoin="round"/>
<rect x="434.34999999999997" y="212.39999999999998" width="6.3" height="2.8899999999999997" fill="#9E2B25"/>
<text x="437.5" y="248.95" font-size="10.2" fill="white" text-anchor="middle" font-weight="bold" style="font-variant-numeric:tabular-nums" >3</text>
<line x1="562.5" y1="168" x2="540.5" y2="194" stroke="#1A1A1A" stroke-width="1.8"/>
<line x1="562.5" y1="168" x2="602.5" y2="214" stroke="#1A1A1A" stroke-width="1.8"/>
<line x1="540.5" y1="194" x2="522.5" y2="214" stroke="#1A1A1A" stroke-width="1.8"/>
<line x1="540.5" y1="194" x2="558.5" y2="214" stroke="#1A1A1A" stroke-width="1.8"/>
<circle cx="562.5" cy="168" r="4" fill="#1A1A1A"/>
<circle cx="540.5" cy="194" r="4" fill="#1A1A1A"/>
<path d="M 517.525 233.65 L 517.525 258 L 527.475 258 L 527.475 233.65 Z" fill="#9E2B25" opacity="0.80"/>
<path d="M 516.125 259 L 516.125 231.95 Q 516.125 226.0 519.95 224.3 L 519.95 214.95 L 525.0500000000001 214.95 L 525.0500000000001 224.3 Q 528.875 226.0 528.875 231.95 L 528.875 259 Z" fill="none" stroke="#9E2B25" stroke-width="1.8" stroke-linejoin="round"/>
<rect x="519.35" y="212.39999999999998" width="6.3" height="2.8899999999999997" fill="#9E2B25"/>
<text x="522.5" y="248.95" font-size="10.2" fill="white" text-anchor="middle" font-weight="bold" style="font-variant-numeric:tabular-nums" >3</text>
<path d="M 553.525 233.65 L 553.525 258 L 563.475 258 L 563.475 233.65 Z" fill="#9E2B25" opacity="0.80"/>
<path d="M 552.125 259 L 552.125 231.95 Q 552.125 226.0 555.95 224.3 L 555.95 214.95 L 561.0500000000001 214.95 L 561.0500000000001 224.3 Q 564.875 226.0 564.875 231.95 L 564.875 259 Z" fill="none" stroke="#9E2B25" stroke-width="1.8" stroke-linejoin="round"/>
<rect x="555.35" y="212.39999999999998" width="6.3" height="2.8899999999999997" fill="#9E2B25"/>
<text x="558.5" y="248.95" font-size="10.2" fill="white" text-anchor="middle" font-weight="bold" style="font-variant-numeric:tabular-nums" >2</text>
<path d="M 597.525 233.65 L 597.525 258 L 607.475 258 L 607.475 233.65 Z" fill="#9E2B25" opacity="0.80"/>
<path d="M 596.125 259 L 596.125 231.95 Q 596.125 226.0 599.95 224.3 L 599.95 214.95 L 605.0500000000001 214.95 L 605.0500000000001 224.3 Q 608.875 226.0 608.875 231.95 L 608.875 259 Z" fill="none" stroke="#9E2B25" stroke-width="1.8" stroke-linejoin="round"/>
<rect x="599.35" y="212.39999999999998" width="6.3" height="2.8899999999999997" fill="#9E2B25"/>
<text x="602.5" y="248.95" font-size="10.2" fill="white" text-anchor="middle" font-weight="bold" style="font-variant-numeric:tabular-nums" >5</text>
<line x1="727.5" y1="168" x2="705.5" y2="194" stroke="#1A1A1A" stroke-width="1.8"/>
<line x1="727.5" y1="168" x2="767.5" y2="214" stroke="#1A1A1A" stroke-width="1.8"/>
<line x1="705.5" y1="194" x2="687.5" y2="214" stroke="#1A1A1A" stroke-width="1.8"/>
<line x1="705.5" y1="194" x2="723.5" y2="214" stroke="#1A1A1A" stroke-width="1.8"/>
<circle cx="727.5" cy="168" r="4" fill="#1A1A1A"/>
<circle cx="705.5" cy="194" r="4" fill="#1A1A1A"/>
<path d="M 682.525 233.65 L 682.525 258 L 692.475 258 L 692.475 233.65 Z" fill="#9E2B25" opacity="0.80"/>
<path d="M 681.125 259 L 681.125 231.95 Q 681.125 226.0 684.95 224.3 L 684.95 214.95 L 690.0500000000001 214.95 L 690.0500000000001 224.3 Q 693.875 226.0 693.875 231.95 L 693.875 259 Z" fill="none" stroke="#9E2B25" stroke-width="1.8" stroke-linejoin="round"/>
<rect x="684.35" y="212.39999999999998" width="6.3" height="2.8899999999999997" fill="#9E2B25"/>
<text x="687.5" y="248.95" font-size="10.2" fill="white" text-anchor="middle" font-weight="bold" style="font-variant-numeric:tabular-nums" >3</text>
<path d="M 718.525 233.65 L 718.525 258 L 728.475 258 L 728.475 233.65 Z" fill="#9E2B25" opacity="0.80"/>
<path d="M 717.125 259 L 717.125 231.95 Q 717.125 226.0 720.95 224.3 L 720.95 214.95 L 726.0500000000001 214.95 L 726.0500000000001 224.3 Q 729.875 226.0 729.875 231.95 L 729.875 259 Z" fill="none" stroke="#9E2B25" stroke-width="1.8" stroke-linejoin="round"/>
<rect x="720.35" y="212.39999999999998" width="6.3" height="2.8899999999999997" fill="#9E2B25"/>
<text x="723.5" y="248.95" font-size="10.2" fill="white" text-anchor="middle" font-weight="bold" style="font-variant-numeric:tabular-nums" >5</text>
<path d="M 762.525 233.65 L 762.525 258 L 772.475 258 L 772.475 233.65 Z" fill="#9E2B25" opacity="0.80"/>
<path d="M 761.125 259 L 761.125 231.95 Q 761.125 226.0 764.95 224.3 L 764.95 214.95 L 770.0500000000001 214.95 L 770.0500000000001 224.3 Q 773.875 226.0 773.875 231.95 L 773.875 259 Z" fill="none" stroke="#9E2B25" stroke-width="1.8" stroke-linejoin="round"/>
<rect x="764.35" y="212.39999999999998" width="6.3" height="2.8899999999999997" fill="#9E2B25"/>
<text x="767.5" y="248.95" font-size="10.2" fill="white" text-anchor="middle" font-weight="bold" style="font-variant-numeric:tabular-nums" >2</text>
<line x1="892.5" y1="168" x2="870.5" y2="194" stroke="#1A1A1A" stroke-width="1.8"/>
<line x1="892.5" y1="168" x2="932.5" y2="214" stroke="#1A1A1A" stroke-width="1.8"/>
<line x1="870.5" y1="194" x2="852.5" y2="214" stroke="#1A1A1A" stroke-width="1.8"/>
<line x1="870.5" y1="194" x2="888.5" y2="214" stroke="#1A1A1A" stroke-width="1.8"/>
<circle cx="892.5" cy="168" r="4" fill="#1A1A1A"/>
<circle cx="870.5" cy="194" r="4" fill="#1A1A1A"/>
<path d="M 847.525 233.65 L 847.525 258 L 857.475 258 L 857.475 233.65 Z" fill="#9E2B25" opacity="0.80"/>
<path d="M 846.125 259 L 846.125 231.95 Q 846.125 226.0 849.95 224.3 L 849.95 214.95 L 855.0500000000001 214.95 L 855.0500000000001 224.3 Q 858.875 226.0 858.875 231.95 L 858.875 259 Z" fill="none" stroke="#9E2B25" stroke-width="1.8" stroke-linejoin="round"/>
<rect x="849.35" y="212.39999999999998" width="6.3" height="2.8899999999999997" fill="#9E2B25"/>
<text x="852.5" y="248.95" font-size="10.2" fill="white" text-anchor="middle" font-weight="bold" style="font-variant-numeric:tabular-nums" >5</text>
<path d="M 883.525 233.65 L 883.525 258 L 893.475 258 L 893.475 233.65 Z" fill="#9E2B25" opacity="0.80"/>
<path d="M 882.125 259 L 882.125 231.95 Q 882.125 226.0 885.95 224.3 L 885.95 214.95 L 891.0500000000001 214.95 L 891.0500000000001 224.3 Q 894.875 226.0 894.875 231.95 L 894.875 259 Z" fill="none" stroke="#9E2B25" stroke-width="1.8" stroke-linejoin="round"/>
<rect x="885.35" y="212.39999999999998" width="6.3" height="2.8899999999999997" fill="#9E2B25"/>
<text x="888.5" y="248.95" font-size="10.2" fill="white" text-anchor="middle" font-weight="bold" style="font-variant-numeric:tabular-nums" >2</text>
<path d="M 927.525 233.65 L 927.525 258 L 937.475 258 L 937.475 233.65 Z" fill="#9E2B25" opacity="0.80"/>
<path d="M 926.125 259 L 926.125 231.95 Q 926.125 226.0 929.95 224.3 L 929.95 214.95 L 935.0500000000001 214.95 L 935.0500000000001 224.3 Q 938.875 226.0 938.875 231.95 L 938.875 259 Z" fill="none" stroke="#9E2B25" stroke-width="1.8" stroke-linejoin="round"/>
<rect x="929.35" y="212.39999999999998" width="6.3" height="2.8899999999999997" fill="#9E2B25"/>
<text x="932.5" y="248.95" font-size="10.2" fill="white" text-anchor="middle" font-weight="bold" style="font-variant-numeric:tabular-nums" >3</text>
<line x1="1057.5" y1="168" x2="1035.5" y2="194" stroke="#1A1A1A" stroke-width="1.8"/>
<line x1="1057.5" y1="168" x2="1097.5" y2="214" stroke="#1A1A1A" stroke-width="1.8"/>
<line x1="1035.5" y1="194" x2="1017.5" y2="214" stroke="#1A1A1A" stroke-width="1.8"/>
<line x1="1035.5" y1="194" x2="1053.5" y2="214" stroke="#1A1A1A" stroke-width="1.8"/>
<circle cx="1057.5" cy="168" r="4" fill="#1A1A1A"/>
<circle cx="1035.5" cy="194" r="4" fill="#1A1A1A"/>
<path d="M 1012.525 233.65 L 1012.525 258 L 1022.475 258 L 1022.475 233.65 Z" fill="#9E2B25" opacity="0.80"/>
<path d="M 1011.125 259 L 1011.125 231.95 Q 1011.125 226.0 1014.95 224.3 L 1014.95 214.95 L 1020.0500000000001 214.95 L 1020.0500000000001 224.3 Q 1023.875 226.0 1023.875 231.95 L 1023.875 259 Z" fill="none" stroke="#9E2B25" stroke-width="1.8" stroke-linejoin="round"/>
<rect x="1014.35" y="212.39999999999998" width="6.3" height="2.8899999999999997" fill="#9E2B25"/>
<text x="1017.5" y="248.95" font-size="10.2" fill="white" text-anchor="middle" font-weight="bold" style="font-variant-numeric:tabular-nums" >5</text>
<path d="M 1048.525 233.65 L 1048.525 258 L 1058.475 258 L 1058.475 233.65 Z" fill="#9E2B25" opacity="0.80"/>
<path d="M 1047.125 259 L 1047.125 231.95 Q 1047.125 226.0 1050.95 224.3 L 1050.95 214.95 L 1056.05 214.95 L 1056.05 224.3 Q 1059.875 226.0 1059.875 231.95 L 1059.875 259 Z" fill="none" stroke="#9E2B25" stroke-width="1.8" stroke-linejoin="round"/>
<rect x="1050.3500000000001" y="212.39999999999998" width="6.3" height="2.8899999999999997" fill="#9E2B25"/>
<text x="1053.5" y="248.95" font-size="10.2" fill="white" text-anchor="middle" font-weight="bold" style="font-variant-numeric:tabular-nums" >3</text>
<path d="M 1092.525 233.65 L 1092.525 258 L 1102.475 258 L 1102.475 233.65 Z" fill="#9E2B25" opacity="0.80"/>
<path d="M 1091.125 259 L 1091.125 231.95 Q 1091.125 226.0 1094.95 224.3 L 1094.95 214.95 L 1100.05 214.95 L 1100.05 224.3 Q 1103.875 226.0 1103.875 231.95 L 1103.875 259 Z" fill="none" stroke="#9E2B25" stroke-width="1.8" stroke-linejoin="round"/>
<rect x="1094.3500000000001" y="212.39999999999998" width="6.3" height="2.8899999999999997" fill="#9E2B25"/>
<text x="1097.5" y="248.95" font-size="10.2" fill="white" text-anchor="middle" font-weight="bold" style="font-variant-numeric:tabular-nums" >2</text>
<line x1="232.5" y1="330" x2="250.5" y2="356" stroke="#1A1A1A" stroke-width="1.8"/>
<line x1="232.5" y1="330" x2="192.5" y2="376" stroke="#1A1A1A" stroke-width="1.8"/>
<line x1="250.5" y1="356" x2="228.5" y2="376" stroke="#1A1A1A" stroke-width="1.8"/>
<line x1="250.5" y1="356" x2="272.5" y2="376" stroke="#1A1A1A" stroke-width="1.8"/>
<circle cx="232.5" cy="330" r="4" fill="#1A1A1A"/>
<circle cx="250.5" cy="356" r="4" fill="#1A1A1A"/>
<path d="M 187.525 395.65 L 187.525 420 L 197.475 420 L 197.475 395.65 Z" fill="#9E2B25" opacity="0.80"/>
<path d="M 186.125 421 L 186.125 393.95 Q 186.125 388.0 189.95 386.3 L 189.95 376.95 L 195.04999999999998 376.95 L 195.04999999999998 386.3 Q 198.875 388.0 198.875 393.95 L 198.875 421 Z" fill="none" stroke="#9E2B25" stroke-width="1.8" stroke-linejoin="round"/>
<rect x="189.35" y="374.4" width="6.3" height="2.8899999999999997" fill="#9E2B25"/>
<text x="192.5" y="410.95" font-size="10.2" fill="white" text-anchor="middle" font-weight="bold" style="font-variant-numeric:tabular-nums" >2</text>
<path d="M 223.525 395.65 L 223.525 420 L 233.475 420 L 233.475 395.65 Z" fill="#9E2B25" opacity="0.80"/>
<path d="M 222.125 421 L 222.125 393.95 Q 222.125 388.0 225.95 386.3 L 225.95 376.95 L 231.04999999999998 376.95 L 231.04999999999998 386.3 Q 234.875 388.0 234.875 393.95 L 234.875 421 Z" fill="none" stroke="#9E2B25" stroke-width="1.8" stroke-linejoin="round"/>
<rect x="225.35" y="374.4" width="6.3" height="2.8899999999999997" fill="#9E2B25"/>
<text x="228.5" y="410.95" font-size="10.2" fill="white" text-anchor="middle" font-weight="bold" style="font-variant-numeric:tabular-nums" >3</text>
<path d="M 267.525 395.65 L 267.525 420 L 277.475 420 L 277.475 395.65 Z" fill="#9E2B25" opacity="0.80"/>
<path d="M 266.125 421 L 266.125 393.95 Q 266.125 388.0 269.95 386.3 L 269.95 376.95 L 275.05 376.95 L 275.05 386.3 Q 278.875 388.0 278.875 393.95 L 278.875 421 Z" fill="none" stroke="#9E2B25" stroke-width="1.8" stroke-linejoin="round"/>
<rect x="269.34999999999997" y="374.4" width="6.3" height="2.8899999999999997" fill="#9E2B25"/>
<text x="272.5" y="410.95" font-size="10.2" fill="white" text-anchor="middle" font-weight="bold" style="font-variant-numeric:tabular-nums" >5</text>
<line x1="397.5" y1="330" x2="415.5" y2="356" stroke="#1A1A1A" stroke-width="1.8"/>
<line x1="397.5" y1="330" x2="357.5" y2="376" stroke="#1A1A1A" stroke-width="1.8"/>
<line x1="415.5" y1="356" x2="393.5" y2="376" stroke="#1A1A1A" stroke-width="1.8"/>
<line x1="415.5" y1="356" x2="437.5" y2="376" stroke="#1A1A1A" stroke-width="1.8"/>
<circle cx="397.5" cy="330" r="4" fill="#1A1A1A"/>
<circle cx="415.5" cy="356" r="4" fill="#1A1A1A"/>
<path d="M 352.525 395.65 L 352.525 420 L 362.475 420 L 362.475 395.65 Z" fill="#9E2B25" opacity="0.80"/>
<path d="M 351.125 421 L 351.125 393.95 Q 351.125 388.0 354.95 386.3 L 354.95 376.95 L 360.05 376.95 L 360.05 386.3 Q 363.875 388.0 363.875 393.95 L 363.875 421 Z" fill="none" stroke="#9E2B25" stroke-width="1.8" stroke-linejoin="round"/>
<rect x="354.34999999999997" y="374.4" width="6.3" height="2.8899999999999997" fill="#9E2B25"/>
<text x="357.5" y="410.95" font-size="10.2" fill="white" text-anchor="middle" font-weight="bold" style="font-variant-numeric:tabular-nums" >2</text>
<path d="M 388.525 395.65 L 388.525 420 L 398.475 420 L 398.475 395.65 Z" fill="#9E2B25" opacity="0.80"/>
<path d="M 387.125 421 L 387.125 393.95 Q 387.125 388.0 390.95 386.3 L 390.95 376.95 L 396.05 376.95 L 396.05 386.3 Q 399.875 388.0 399.875 393.95 L 399.875 421 Z" fill="none" stroke="#9E2B25" stroke-width="1.8" stroke-linejoin="round"/>
<rect x="390.34999999999997" y="374.4" width="6.3" height="2.8899999999999997" fill="#9E2B25"/>
<text x="393.5" y="410.95" font-size="10.2" fill="white" text-anchor="middle" font-weight="bold" style="font-variant-numeric:tabular-nums" >5</text>
<path d="M 432.525 395.65 L 432.525 420 L 442.475 420 L 442.475 395.65 Z" fill="#9E2B25" opacity="0.80"/>
<path d="M 431.125 421 L 431.125 393.95 Q 431.125 388.0 434.95 386.3 L 434.95 376.95 L 440.05 376.95 L 440.05 386.3 Q 443.875 388.0 443.875 393.95 L 443.875 421 Z" fill="none" stroke="#9E2B25" stroke-width="1.8" stroke-linejoin="round"/>
<rect x="434.34999999999997" y="374.4" width="6.3" height="2.8899999999999997" fill="#9E2B25"/>
<text x="437.5" y="410.95" font-size="10.2" fill="white" text-anchor="middle" font-weight="bold" style="font-variant-numeric:tabular-nums" >3</text>
<line x1="562.5" y1="330" x2="580.5" y2="356" stroke="#1A1A1A" stroke-width="1.8"/>
<line x1="562.5" y1="330" x2="522.5" y2="376" stroke="#1A1A1A" stroke-width="1.8"/>
<line x1="580.5" y1="356" x2="558.5" y2="376" stroke="#1A1A1A" stroke-width="1.8"/>
<line x1="580.5" y1="356" x2="602.5" y2="376" stroke="#1A1A1A" stroke-width="1.8"/>
<circle cx="562.5" cy="330" r="4" fill="#1A1A1A"/>
<circle cx="580.5" cy="356" r="4" fill="#1A1A1A"/>
<path d="M 517.525 395.65 L 517.525 420 L 527.475 420 L 527.475 395.65 Z" fill="#9E2B25" opacity="0.80"/>
<path d="M 516.125 421 L 516.125 393.95 Q 516.125 388.0 519.95 386.3 L 519.95 376.95 L 525.0500000000001 376.95 L 525.0500000000001 386.3 Q 528.875 388.0 528.875 393.95 L 528.875 421 Z" fill="none" stroke="#9E2B25" stroke-width="1.8" stroke-linejoin="round"/>
<rect x="519.35" y="374.4" width="6.3" height="2.8899999999999997" fill="#9E2B25"/>
<text x="522.5" y="410.95" font-size="10.2" fill="white" text-anchor="middle" font-weight="bold" style="font-variant-numeric:tabular-nums" >3</text>
<path d="M 553.525 395.65 L 553.525 420 L 563.475 420 L 563.475 395.65 Z" fill="#9E2B25" opacity="0.80"/>
<path d="M 552.125 421 L 552.125 393.95 Q 552.125 388.0 555.95 386.3 L 555.95 376.95 L 561.0500000000001 376.95 L 561.0500000000001 386.3 Q 564.875 388.0 564.875 393.95 L 564.875 421 Z" fill="none" stroke="#9E2B25" stroke-width="1.8" stroke-linejoin="round"/>
<rect x="555.35" y="374.4" width="6.3" height="2.8899999999999997" fill="#9E2B25"/>
<text x="558.5" y="410.95" font-size="10.2" fill="white" text-anchor="middle" font-weight="bold" style="font-variant-numeric:tabular-nums" >2</text>
<path d="M 597.525 395.65 L 597.525 420 L 607.475 420 L 607.475 395.65 Z" fill="#9E2B25" opacity="0.80"/>
<path d="M 596.125 421 L 596.125 393.95 Q 596.125 388.0 599.95 386.3 L 599.95 376.95 L 605.0500000000001 376.95 L 605.0500000000001 386.3 Q 608.875 388.0 608.875 393.95 L 608.875 421 Z" fill="none" stroke="#9E2B25" stroke-width="1.8" stroke-linejoin="round"/>
<rect x="599.35" y="374.4" width="6.3" height="2.8899999999999997" fill="#9E2B25"/>
<text x="602.5" y="410.95" font-size="10.2" fill="white" text-anchor="middle" font-weight="bold" style="font-variant-numeric:tabular-nums" >5</text>
<line x1="727.5" y1="330" x2="745.5" y2="356" stroke="#1A1A1A" stroke-width="1.8"/>
<line x1="727.5" y1="330" x2="687.5" y2="376" stroke="#1A1A1A" stroke-width="1.8"/>
<line x1="745.5" y1="356" x2="723.5" y2="376" stroke="#1A1A1A" stroke-width="1.8"/>
<line x1="745.5" y1="356" x2="767.5" y2="376" stroke="#1A1A1A" stroke-width="1.8"/>
<circle cx="727.5" cy="330" r="4" fill="#1A1A1A"/>
<circle cx="745.5" cy="356" r="4" fill="#1A1A1A"/>
<path d="M 682.525 395.65 L 682.525 420 L 692.475 420 L 692.475 395.65 Z" fill="#9E2B25" opacity="0.80"/>
<path d="M 681.125 421 L 681.125 393.95 Q 681.125 388.0 684.95 386.3 L 684.95 376.95 L 690.0500000000001 376.95 L 690.0500000000001 386.3 Q 693.875 388.0 693.875 393.95 L 693.875 421 Z" fill="none" stroke="#9E2B25" stroke-width="1.8" stroke-linejoin="round"/>
<rect x="684.35" y="374.4" width="6.3" height="2.8899999999999997" fill="#9E2B25"/>
<text x="687.5" y="410.95" font-size="10.2" fill="white" text-anchor="middle" font-weight="bold" style="font-variant-numeric:tabular-nums" >3</text>
<path d="M 718.525 395.65 L 718.525 420 L 728.475 420 L 728.475 395.65 Z" fill="#9E2B25" opacity="0.80"/>
<path d="M 717.125 421 L 717.125 393.95 Q 717.125 388.0 720.95 386.3 L 720.95 376.95 L 726.0500000000001 376.95 L 726.0500000000001 386.3 Q 729.875 388.0 729.875 393.95 L 729.875 421 Z" fill="none" stroke="#9E2B25" stroke-width="1.8" stroke-linejoin="round"/>
<rect x="720.35" y="374.4" width="6.3" height="2.8899999999999997" fill="#9E2B25"/>
<text x="723.5" y="410.95" font-size="10.2" fill="white" text-anchor="middle" font-weight="bold" style="font-variant-numeric:tabular-nums" >5</text>
<path d="M 762.525 395.65 L 762.525 420 L 772.475 420 L 772.475 395.65 Z" fill="#9E2B25" opacity="0.80"/>
<path d="M 761.125 421 L 761.125 393.95 Q 761.125 388.0 764.95 386.3 L 764.95 376.95 L 770.0500000000001 376.95 L 770.0500000000001 386.3 Q 773.875 388.0 773.875 393.95 L 773.875 421 Z" fill="none" stroke="#9E2B25" stroke-width="1.8" stroke-linejoin="round"/>
<rect x="764.35" y="374.4" width="6.3" height="2.8899999999999997" fill="#9E2B25"/>
<text x="767.5" y="410.95" font-size="10.2" fill="white" text-anchor="middle" font-weight="bold" style="font-variant-numeric:tabular-nums" >2</text>
<line x1="892.5" y1="330" x2="910.5" y2="356" stroke="#1A1A1A" stroke-width="1.8"/>
<line x1="892.5" y1="330" x2="852.5" y2="376" stroke="#1A1A1A" stroke-width="1.8"/>
<line x1="910.5" y1="356" x2="888.5" y2="376" stroke="#1A1A1A" stroke-width="1.8"/>
<line x1="910.5" y1="356" x2="932.5" y2="376" stroke="#1A1A1A" stroke-width="1.8"/>
<circle cx="892.5" cy="330" r="4" fill="#1A1A1A"/>
<circle cx="910.5" cy="356" r="4" fill="#1A1A1A"/>
<path d="M 847.525 395.65 L 847.525 420 L 857.475 420 L 857.475 395.65 Z" fill="#9E2B25" opacity="0.80"/>
<path d="M 846.125 421 L 846.125 393.95 Q 846.125 388.0 849.95 386.3 L 849.95 376.95 L 855.0500000000001 376.95 L 855.0500000000001 386.3 Q 858.875 388.0 858.875 393.95 L 858.875 421 Z" fill="none" stroke="#9E2B25" stroke-width="1.8" stroke-linejoin="round"/>
<rect x="849.35" y="374.4" width="6.3" height="2.8899999999999997" fill="#9E2B25"/>
<text x="852.5" y="410.95" font-size="10.2" fill="white" text-anchor="middle" font-weight="bold" style="font-variant-numeric:tabular-nums" >5</text>
<path d="M 883.525 395.65 L 883.525 420 L 893.475 420 L 893.475 395.65 Z" fill="#9E2B25" opacity="0.80"/>
<path d="M 882.125 421 L 882.125 393.95 Q 882.125 388.0 885.95 386.3 L 885.95 376.95 L 891.0500000000001 376.95 L 891.0500000000001 386.3 Q 894.875 388.0 894.875 393.95 L 894.875 421 Z" fill="none" stroke="#9E2B25" stroke-width="1.8" stroke-linejoin="round"/>
<rect x="885.35" y="374.4" width="6.3" height="2.8899999999999997" fill="#9E2B25"/>
<text x="888.5" y="410.95" font-size="10.2" fill="white" text-anchor="middle" font-weight="bold" style="font-variant-numeric:tabular-nums" >2</text>
<path d="M 927.525 395.65 L 927.525 420 L 937.475 420 L 937.475 395.65 Z" fill="#9E2B25" opacity="0.80"/>
<path d="M 926.125 421 L 926.125 393.95 Q 926.125 388.0 929.95 386.3 L 929.95 376.95 L 935.0500000000001 376.95 L 935.0500000000001 386.3 Q 938.875 388.0 938.875 393.95 L 938.875 421 Z" fill="none" stroke="#9E2B25" stroke-width="1.8" stroke-linejoin="round"/>
<rect x="929.35" y="374.4" width="6.3" height="2.8899999999999997" fill="#9E2B25"/>
<text x="932.5" y="410.95" font-size="10.2" fill="white" text-anchor="middle" font-weight="bold" style="font-variant-numeric:tabular-nums" >3</text>
<line x1="1057.5" y1="330" x2="1075.5" y2="356" stroke="#1A1A1A" stroke-width="1.8"/>
<line x1="1057.5" y1="330" x2="1017.5" y2="376" stroke="#1A1A1A" stroke-width="1.8"/>
<line x1="1075.5" y1="356" x2="1053.5" y2="376" stroke="#1A1A1A" stroke-width="1.8"/>
<line x1="1075.5" y1="356" x2="1097.5" y2="376" stroke="#1A1A1A" stroke-width="1.8"/>
<circle cx="1057.5" cy="330" r="4" fill="#1A1A1A"/>
<circle cx="1075.5" cy="356" r="4" fill="#1A1A1A"/>
<path d="M 1012.525 395.65 L 1012.525 420 L 1022.475 420 L 1022.475 395.65 Z" fill="#9E2B25" opacity="0.80"/>
<path d="M 1011.125 421 L 1011.125 393.95 Q 1011.125 388.0 1014.95 386.3 L 1014.95 376.95 L 1020.0500000000001 376.95 L 1020.0500000000001 386.3 Q 1023.875 388.0 1023.875 393.95 L 1023.875 421 Z" fill="none" stroke="#9E2B25" stroke-width="1.8" stroke-linejoin="round"/>
<rect x="1014.35" y="374.4" width="6.3" height="2.8899999999999997" fill="#9E2B25"/>
<text x="1017.5" y="410.95" font-size="10.2" fill="white" text-anchor="middle" font-weight="bold" style="font-variant-numeric:tabular-nums" >5</text>
<path d="M 1048.525 395.65 L 1048.525 420 L 1058.475 420 L 1058.475 395.65 Z" fill="#9E2B25" opacity="0.80"/>
<path d="M 1047.125 421 L 1047.125 393.95 Q 1047.125 388.0 1050.95 386.3 L 1050.95 376.95 L 1056.05 376.95 L 1056.05 386.3 Q 1059.875 388.0 1059.875 393.95 L 1059.875 421 Z" fill="none" stroke="#9E2B25" stroke-width="1.8" stroke-linejoin="round"/>
<rect x="1050.3500000000001" y="374.4" width="6.3" height="2.8899999999999997" fill="#9E2B25"/>
<text x="1053.5" y="410.95" font-size="10.2" fill="white" text-anchor="middle" font-weight="bold" style="font-variant-numeric:tabular-nums" >3</text>
<path d="M 1092.525 395.65 L 1092.525 420 L 1102.475 420 L 1102.475 395.65 Z" fill="#9E2B25" opacity="0.80"/>
<path d="M 1091.125 421 L 1091.125 393.95 Q 1091.125 388.0 1094.95 386.3 L 1094.95 376.95 L 1100.05 376.95 L 1100.05 386.3 Q 1103.875 388.0 1103.875 393.95 L 1103.875 421 Z" fill="none" stroke="#9E2B25" stroke-width="1.8" stroke-linejoin="round"/>
<rect x="1094.3500000000001" y="374.4" width="6.3" height="2.8899999999999997" fill="#9E2B25"/>
<text x="1097.5" y="410.95" font-size="10.2" fill="white" text-anchor="middle" font-weight="bold" style="font-variant-numeric:tabular-nums" >2</text>
<line x1="40" y1="456" x2="1140" y2="456" stroke="#DAD6CC" stroke-width="1"/>
<text x="40" y="478" font-size="14" fill="#1A1A1A" text-anchor="start" font-weight="normal" font-family="'Helvetica Neue Condensed', 'Arial Narrow', 'Helvetica Neue', Arial, sans-serif" style="font-variant-numeric:tabular-nums" >2 nesting shapes × 6 orders = 12 histories, all wearing the single label 30.</text>
<text x="1140" y="478" font-size="11.5" fill="#9E2B25" text-anchor="end" font-weight="bold" font-family="'Helvetica Neue Condensed', 'Arial Narrow', 'Helvetica Neue', Arial, sans-serif" style="font-variant-numeric:tabular-nums" >ℹ  log₂ 12 ≈ 3.6 bits hidden by the label “30”</text>
</svg>
