<svg xmlns="http://www.w3.org/2000/svg" viewBox="0 0 1180 496" font-family="'Helvetica Neue', 'Arial Narrow', Helvetica, Arial, sans-serif">
<rect width="1180" height="496" fill="#FBFAF7"/>
<text x="40" y="32" font-size="11.5" fill="#6B6B6B" text-anchor="start" font-weight="bold" font-family="'Helvetica Neue Condensed', 'Arial Narrow', 'Helvetica Neue', Arial, sans-serif" letter-spacing="1.6" style="font-variant-numeric:tabular-nums" >ONE NUMBER, MANY HISTORIES</text>
<text x="40" y="54" font-size="20" fill="#1A1A1A" text-anchor="start" font-weight="bold" font-family="'Helvetica Neue Condensed', 'Arial Narrow', 'Helvetica Neue', Arial, sans-serif" style="font-variant-numeric:tabular-nums" >The twelve ways to build 30</text>
<text x="40" y="74" font-size="13" fill="#6B6B6B" text-anchor="start" font-weight="normal" style="font-variant-numeric:tabular-nums" >30 = 2 × 3 × 5, three different primes, each a different wine.</text>
<text x="1140" y="74" font-size="12" fill="#6B6B6B" text-anchor="end" font-weight="normal" font-family="'Helvetica Neue Condensed', 'Arial Narrow', 'Helvetica Neue', Arial, sans-serif" style="font-variant-numeric:tabular-nums" >white</text>
<rect x="1079.0" y="63" width="15" height="15" rx="2.5" fill="#EDE3B8" stroke="#C9BE86" stroke-width="1"/>
<text x="1071" y="74" font-size="12" fill="#6B6B6B" text-anchor="end" font-weight="normal" font-family="'Helvetica Neue Condensed', 'Arial Narrow', 'Helvetica Neue', Arial, sans-serif" style="font-variant-numeric:tabular-nums" >rosé</text>
<rect x="1017.0" y="63" width="15" height="15" rx="2.5" fill="#D98C97" stroke="#B5606B" stroke-width="1"/>
<text x="1009" y="74" font-size="12" fill="#6B6B6B" text-anchor="end" font-weight="normal" font-family="'Helvetica Neue Condensed', 'Arial Narrow', 'Helvetica Neue', Arial, sans-serif" style="font-variant-numeric:tabular-nums" >red</text>
<rect x="962.0" y="63" width="15" height="15" rx="2.5" fill="#8E2230" stroke="#5E121C" stroke-width="1"/>
<text x="590.0" y="108" font-size="11.5" fill="#6B6B6B" text-anchor="middle" font-weight="bold" font-family="'Helvetica Neue Condensed', 'Arial Narrow', 'Helvetica Neue', Arial, sans-serif" letter-spacing="1" style="font-variant-numeric:tabular-nums" >ORDER THE BOTTLES: 6 WAYS</text>
<text x="232.5" y="130" font-size="13" fill="#9E2B25" text-anchor="middle" font-weight="bold" font-family="'Helvetica Neue Condensed', 'Arial Narrow', 'Helvetica Neue', Arial, sans-serif" letter-spacing="0.5" style="font-variant-numeric:tabular-nums" >2·3·5</text>
<text x="397.5" y="130" font-size="13" fill="#9E2B25" text-anchor="middle" font-weight="bold" font-family="'Helvetica Neue Condensed', 'Arial Narrow', 'Helvetica Neue', Arial, sans-serif" letter-spacing="0.5" style="font-variant-numeric:tabular-nums" >2·5·3</text>
<text x="562.5" y="130" font-size="13" fill="#9E2B25" text-anchor="middle" font-weight="bold" font-family="'Helvetica Neue Condensed', 'Arial Narrow', 'Helvetica Neue', Arial, sans-serif" letter-spacing="0.5" style="font-variant-numeric:tabular-nums" >3·2·5</text>
<text x="727.5" y="130" font-size="13" fill="#9E2B25" text-anchor="middle" font-weight="bold" font-family="'Helvetica Neue Condensed', 'Arial Narrow', 'Helvetica Neue', Arial, sans-serif" letter-spacing="0.5" style="font-variant-numeric:tabular-nums" >3·5·2</text>
<text x="892.5" y="130" font-size="13" fill="#9E2B25" text-anchor="middle" font-weight="bold" font-family="'Helvetica Neue Condensed', 'Arial Narrow', 'Helvetica Neue', Arial, sans-serif" letter-spacing="0.5" style="font-variant-numeric:tabular-nums" >5·2·3</text>
<text x="1057.5" y="130" font-size="13" fill="#9E2B25" text-anchor="middle" font-weight="bold" font-family="'Helvetica Neue Condensed', 'Arial Narrow', 'Helvetica Neue', Arial, sans-serif" letter-spacing="0.5" style="font-variant-numeric:tabular-nums" >5·3·2</text>
<text x="34" y="168" font-size="11.5" fill="#1A1A1A" text-anchor="start" font-weight="bold" font-family="'Helvetica Neue Condensed', 'Arial Narrow', 'Helvetica Neue', Arial, sans-serif" style="font-variant-numeric:tabular-nums" >nest the</text>
<text x="34" y="183" font-size="11.5" fill="#1A1A1A" text-anchor="start" font-weight="bold" font-family="'Helvetica Neue Condensed', 'Arial Narrow', 'Helvetica Neue', Arial, sans-serif" style="font-variant-numeric:tabular-nums" >first pair</text>
<text x="34" y="330" font-size="11.5" fill="#1A1A1A" text-anchor="start" font-weight="bold" font-family="'Helvetica Neue Condensed', 'Arial Narrow', 'Helvetica Neue', Arial, sans-serif" style="font-variant-numeric:tabular-nums" >nest the</text>
<text x="34" y="345" font-size="11.5" fill="#1A1A1A" text-anchor="start" font-weight="bold" font-family="'Helvetica Neue Condensed', 'Arial Narrow', 'Helvetica Neue', Arial, sans-serif" style="font-variant-numeric:tabular-nums" >last pair</text>
<line x1="150.0" y1="142" x2="150.0" y2="418" stroke="#DAD6CC" stroke-width="1"/>
<line x1="315.0" y1="142" x2="315.0" y2="418" stroke="#DAD6CC" stroke-width="1"/>
<line x1="480.0" y1="142" x2="480.0" y2="418" stroke="#DAD6CC" stroke-width="1"/>
<line x1="645.0" y1="142" x2="645.0" y2="418" stroke="#DAD6CC" stroke-width="1"/>
<line x1="810.0" y1="142" x2="810.0" y2="418" stroke="#DAD6CC" stroke-width="1"/>
<line x1="975.0" y1="142" x2="975.0" y2="418" stroke="#DAD6CC" stroke-width="1"/>
<line x1="1140.0" y1="142" x2="1140.0" y2="418" stroke="#DAD6CC" stroke-width="1"/>
<line x1="150" y1="142" x2="1140.0" y2="142" stroke="#DAD6CC" stroke-width="1"/>
<line x1="150" y1="280" x2="1140.0" y2="280" stroke="#DAD6CC" stroke-width="1"/>
<line x1="150" y1="418" x2="1140.0" y2="418" stroke="#DAD6CC" stroke-width="1"/>
<line x1="232.5" y1="168" x2="213.5" y2="192" stroke="#1A1A1A" stroke-width="1.6"/>
<line x1="232.5" y1="168" x2="270.5" y2="212" stroke="#1A1A1A" stroke-width="1.6"/>
<line x1="213.5" y1="192" x2="194.5" y2="212" stroke="#1A1A1A" stroke-width="1.6"/>
<line x1="213.5" y1="192" x2="232.5" y2="212" stroke="#1A1A1A" stroke-width="1.6"/>
<circle cx="232.5" cy="168" r="3.5" fill="#1A1A1A"/>
<circle cx="213.5" cy="192" r="3.5" fill="#1A1A1A"/>
<line x1="174.5" y1="241" x2="290.5" y2="241" stroke="#6B6B6B" stroke-width="1.4"/>
<rect x="183.5" y="218.0" width="22" height="22" rx="3" fill="#8E2230" stroke="#5E121C" stroke-width="1.3"/><text x="194.5" y="232.96" font-size="11.0" fill="#ffffff" text-anchor="middle" font-weight="bold" font-family="'Helvetica Neue Condensed', 'Arial Narrow', 'Helvetica Neue', Arial, sans-serif" style="font-variant-numeric:tabular-nums" >2</text>
<rect x="221.5" y="218.0" width="22" height="22" rx="3" fill="#D98C97" stroke="#B5606B" stroke-width="1.3"/><text x="232.5" y="232.96" font-size="11.0" fill="#ffffff" text-anchor="middle" font-weight="bold" font-family="'Helvetica Neue Condensed', 'Arial Narrow', 'Helvetica Neue', Arial, sans-serif" style="font-variant-numeric:tabular-nums" >3</text>
<rect x="259.5" y="218.0" width="22" height="22" rx="3" fill="#EDE3B8" stroke="#C9BE86" stroke-width="1.3"/><text x="270.5" y="232.96" font-size="11.0" fill="#1A1A1A" text-anchor="middle" font-weight="bold" font-family="'Helvetica Neue Condensed', 'Arial Narrow', 'Helvetica Neue', Arial, sans-serif" style="font-variant-numeric:tabular-nums" >5</text>
<line x1="397.5" y1="168" x2="378.5" y2="192" stroke="#1A1A1A" stroke-width="1.6"/>
<line x1="397.5" y1="168" x2="435.5" y2="212" stroke="#1A1A1A" stroke-width="1.6"/>
<line x1="378.5" y1="192" x2="359.5" y2="212" stroke="#1A1A1A" stroke-width="1.6"/>
<line x1="378.5" y1="192" x2="397.5" y2="212" stroke="#1A1A1A" stroke-width="1.6"/>
<circle cx="397.5" cy="168" r="3.5" fill="#1A1A1A"/>
<circle cx="378.5" cy="192" r="3.5" fill="#1A1A1A"/>
<line x1="339.5" y1="241" x2="455.5" y2="241" stroke="#6B6B6B" stroke-width="1.4"/>
<rect x="348.5" y="218.0" width="22" height="22" rx="3" fill="#8E2230" stroke="#5E121C" stroke-width="1.3"/><text x="359.5" y="232.96" font-size="11.0" fill="#ffffff" text-anchor="middle" font-weight="bold" font-family="'Helvetica Neue Condensed', 'Arial Narrow', 'Helvetica Neue', Arial, sans-serif" style="font-variant-numeric:tabular-nums" >2</text>
<rect x="386.5" y="218.0" width="22" height="22" rx="3" fill="#EDE3B8" stroke="#C9BE86" stroke-width="1.3"/><text x="397.5" y="232.96" font-size="11.0" fill="#1A1A1A" text-anchor="middle" font-weight="bold" font-family="'Helvetica Neue Condensed', 'Arial Narrow', 'Helvetica Neue', Arial, sans-serif" style="font-variant-numeric:tabular-nums" >5</text>
<rect x="424.5" y="218.0" width="22" height="22" rx="3" fill="#D98C97" stroke="#B5606B" stroke-width="1.3"/><text x="435.5" y="232.96" font-size="11.0" fill="#ffffff" text-anchor="middle" font-weight="bold" font-family="'Helvetica Neue Condensed', 'Arial Narrow', 'Helvetica Neue', Arial, sans-serif" style="font-variant-numeric:tabular-nums" >3</text>
<line x1="562.5" y1="168" x2="543.5" y2="192" stroke="#1A1A1A" stroke-width="1.6"/>
<line x1="562.5" y1="168" x2="600.5" y2="212" stroke="#1A1A1A" stroke-width="1.6"/>
<line x1="543.5" y1="192" x2="524.5" y2="212" stroke="#1A1A1A" stroke-width="1.6"/>
<line x1="543.5" y1="192" x2="562.5" y2="212" stroke="#1A1A1A" stroke-width="1.6"/>
<circle cx="562.5" cy="168" r="3.5" fill="#1A1A1A"/>
<circle cx="543.5" cy="192" r="3.5" fill="#1A1A1A"/>
<line x1="504.5" y1="241" x2="620.5" y2="241" stroke="#6B6B6B" stroke-width="1.4"/>
<rect x="513.5" y="218.0" width="22" height="22" rx="3" fill="#D98C97" stroke="#B5606B" stroke-width="1.3"/><text x="524.5" y="232.96" font-size="11.0" fill="#ffffff" text-anchor="middle" font-weight="bold" font-family="'Helvetica Neue Condensed', 'Arial Narrow', 'Helvetica Neue', Arial, sans-serif" style="font-variant-numeric:tabular-nums" >3</text>
<rect x="551.5" y="218.0" width="22" height="22" rx="3" fill="#8E2230" stroke="#5E121C" stroke-width="1.3"/><text x="562.5" y="232.96" font-size="11.0" fill="#ffffff" text-anchor="middle" font-weight="bold" font-family="'Helvetica Neue Condensed', 'Arial Narrow', 'Helvetica Neue', Arial, sans-serif" style="font-variant-numeric:tabular-nums" >2</text>
<rect x="589.5" y="218.0" width="22" height="22" rx="3" fill="#EDE3B8" stroke="#C9BE86" stroke-width="1.3"/><text x="600.5" y="232.96" font-size="11.0" fill="#1A1A1A" text-anchor="middle" font-weight="bold" font-family="'Helvetica Neue Condensed', 'Arial Narrow', 'Helvetica Neue', Arial, sans-serif" style="font-variant-numeric:tabular-nums" >5</text>
<line x1="727.5" y1="168" x2="708.5" y2="192" stroke="#1A1A1A" stroke-width="1.6"/>
<line x1="727.5" y1="168" x2="765.5" y2="212" stroke="#1A1A1A" stroke-width="1.6"/>
<line x1="708.5" y1="192" x2="689.5" y2="212" stroke="#1A1A1A" stroke-width="1.6"/>
<line x1="708.5" y1="192" x2="727.5" y2="212" stroke="#1A1A1A" stroke-width="1.6"/>
<circle cx="727.5" cy="168" r="3.5" fill="#1A1A1A"/>
<circle cx="708.5" cy="192" r="3.5" fill="#1A1A1A"/>
<line x1="669.5" y1="241" x2="785.5" y2="241" stroke="#6B6B6B" stroke-width="1.4"/>
<rect x="678.5" y="218.0" width="22" height="22" rx="3" fill="#D98C97" stroke="#B5606B" stroke-width="1.3"/><text x="689.5" y="232.96" font-size="11.0" fill="#ffffff" text-anchor="middle" font-weight="bold" font-family="'Helvetica Neue Condensed', 'Arial Narrow', 'Helvetica Neue', Arial, sans-serif" style="font-variant-numeric:tabular-nums" >3</text>
<rect x="716.5" y="218.0" width="22" height="22" rx="3" fill="#EDE3B8" stroke="#C9BE86" stroke-width="1.3"/><text x="727.5" y="232.96" font-size="11.0" fill="#1A1A1A" text-anchor="middle" font-weight="bold" font-family="'Helvetica Neue Condensed', 'Arial Narrow', 'Helvetica Neue', Arial, sans-serif" style="font-variant-numeric:tabular-nums" >5</text>
<rect x="754.5" y="218.0" width="22" height="22" rx="3" fill="#8E2230" stroke="#5E121C" stroke-width="1.3"/><text x="765.5" y="232.96" font-size="11.0" fill="#ffffff" text-anchor="middle" font-weight="bold" font-family="'Helvetica Neue Condensed', 'Arial Narrow', 'Helvetica Neue', Arial, sans-serif" style="font-variant-numeric:tabular-nums" >2</text>
<line x1="892.5" y1="168" x2="873.5" y2="192" stroke="#1A1A1A" stroke-width="1.6"/>
<line x1="892.5" y1="168" x2="930.5" y2="212" stroke="#1A1A1A" stroke-width="1.6"/>
<line x1="873.5" y1="192" x2="854.5" y2="212" stroke="#1A1A1A" stroke-width="1.6"/>
<line x1="873.5" y1="192" x2="892.5" y2="212" stroke="#1A1A1A" stroke-width="1.6"/>
<circle cx="892.5" cy="168" r="3.5" fill="#1A1A1A"/>
<circle cx="873.5" cy="192" r="3.5" fill="#1A1A1A"/>
<line x1="834.5" y1="241" x2="950.5" y2="241" stroke="#6B6B6B" stroke-width="1.4"/>
<rect x="843.5" y="218.0" width="22" height="22" rx="3" fill="#EDE3B8" stroke="#C9BE86" stroke-width="1.3"/><text x="854.5" y="232.96" font-size="11.0" fill="#1A1A1A" text-anchor="middle" font-weight="bold" font-family="'Helvetica Neue Condensed', 'Arial Narrow', 'Helvetica Neue', Arial, sans-serif" style="font-variant-numeric:tabular-nums" >5</text>
<rect x="881.5" y="218.0" width="22" height="22" rx="3" fill="#8E2230" stroke="#5E121C" stroke-width="1.3"/><text x="892.5" y="232.96" font-size="11.0" fill="#ffffff" text-anchor="middle" font-weight="bold" font-family="'Helvetica Neue Condensed', 'Arial Narrow', 'Helvetica Neue', Arial, sans-serif" style="font-variant-numeric:tabular-nums" >2</text>
<rect x="919.5" y="218.0" width="22" height="22" rx="3" fill="#D98C97" stroke="#B5606B" stroke-width="1.3"/><text x="930.5" y="232.96" font-size="11.0" fill="#ffffff" text-anchor="middle" font-weight="bold" font-family="'Helvetica Neue Condensed', 'Arial Narrow', 'Helvetica Neue', Arial, sans-serif" style="font-variant-numeric:tabular-nums" >3</text>
<line x1="1057.5" y1="168" x2="1038.5" y2="192" stroke="#1A1A1A" stroke-width="1.6"/>
<line x1="1057.5" y1="168" x2="1095.5" y2="212" stroke="#1A1A1A" stroke-width="1.6"/>
<line x1="1038.5" y1="192" x2="1019.5" y2="212" stroke="#1A1A1A" stroke-width="1.6"/>
<line x1="1038.5" y1="192" x2="1057.5" y2="212" stroke="#1A1A1A" stroke-width="1.6"/>
<circle cx="1057.5" cy="168" r="3.5" fill="#1A1A1A"/>
<circle cx="1038.5" cy="192" r="3.5" fill="#1A1A1A"/>
<line x1="999.5" y1="241" x2="1115.5" y2="241" stroke="#6B6B6B" stroke-width="1.4"/>
<rect x="1008.5" y="218.0" width="22" height="22" rx="3" fill="#EDE3B8" stroke="#C9BE86" stroke-width="1.3"/><text x="1019.5" y="232.96" font-size="11.0" fill="#1A1A1A" text-anchor="middle" font-weight="bold" font-family="'Helvetica Neue Condensed', 'Arial Narrow', 'Helvetica Neue', Arial, sans-serif" style="font-variant-numeric:tabular-nums" >5</text>
<rect x="1046.5" y="218.0" width="22" height="22" rx="3" fill="#D98C97" stroke="#B5606B" stroke-width="1.3"/><text x="1057.5" y="232.96" font-size="11.0" fill="#ffffff" text-anchor="middle" font-weight="bold" font-family="'Helvetica Neue Condensed', 'Arial Narrow', 'Helvetica Neue', Arial, sans-serif" style="font-variant-numeric:tabular-nums" >3</text>
<rect x="1084.5" y="218.0" width="22" height="22" rx="3" fill="#8E2230" stroke="#5E121C" stroke-width="1.3"/><text x="1095.5" y="232.96" font-size="11.0" fill="#ffffff" text-anchor="middle" font-weight="bold" font-family="'Helvetica Neue Condensed', 'Arial Narrow', 'Helvetica Neue', Arial, sans-serif" style="font-variant-numeric:tabular-nums" >2</text>
<line x1="232.5" y1="330" x2="251.5" y2="354" stroke="#1A1A1A" stroke-width="1.6"/>
<line x1="232.5" y1="330" x2="194.5" y2="374" stroke="#1A1A1A" stroke-width="1.6"/>
<line x1="251.5" y1="354" x2="232.5" y2="374" stroke="#1A1A1A" stroke-width="1.6"/>
<line x1="251.5" y1="354" x2="270.5" y2="374" stroke="#1A1A1A" stroke-width="1.6"/>
<circle cx="232.5" cy="330" r="3.5" fill="#1A1A1A"/>
<circle cx="251.5" cy="354" r="3.5" fill="#1A1A1A"/>
<line x1="174.5" y1="403" x2="290.5" y2="403" stroke="#6B6B6B" stroke-width="1.4"/>
<rect x="183.5" y="380.0" width="22" height="22" rx="3" fill="#8E2230" stroke="#5E121C" stroke-width="1.3"/><text x="194.5" y="394.96" font-size="11.0" fill="#ffffff" text-anchor="middle" font-weight="bold" font-family="'Helvetica Neue Condensed', 'Arial Narrow', 'Helvetica Neue', Arial, sans-serif" style="font-variant-numeric:tabular-nums" >2</text>
<rect x="221.5" y="380.0" width="22" height="22" rx="3" fill="#D98C97" stroke="#B5606B" stroke-width="1.3"/><text x="232.5" y="394.96" font-size="11.0" fill="#ffffff" text-anchor="middle" font-weight="bold" font-family="'Helvetica Neue Condensed', 'Arial Narrow', 'Helvetica Neue', Arial, sans-serif" style="font-variant-numeric:tabular-nums" >3</text>
<rect x="259.5" y="380.0" width="22" height="22" rx="3" fill="#EDE3B8" stroke="#C9BE86" stroke-width="1.3"/><text x="270.5" y="394.96" font-size="11.0" fill="#1A1A1A" text-anchor="middle" font-weight="bold" font-family="'Helvetica Neue Condensed', 'Arial Narrow', 'Helvetica Neue', Arial, sans-serif" style="font-variant-numeric:tabular-nums" >5</text>
<line x1="397.5" y1="330" x2="416.5" y2="354" stroke="#1A1A1A" stroke-width="1.6"/>
<line x1="397.5" y1="330" x2="359.5" y2="374" stroke="#1A1A1A" stroke-width="1.6"/>
<line x1="416.5" y1="354" x2="397.5" y2="374" stroke="#1A1A1A" stroke-width="1.6"/>
<line x1="416.5" y1="354" x2="435.5" y2="374" stroke="#1A1A1A" stroke-width="1.6"/>
<circle cx="397.5" cy="330" r="3.5" fill="#1A1A1A"/>
<circle cx="416.5" cy="354" r="3.5" fill="#1A1A1A"/>
<line x1="339.5" y1="403" x2="455.5" y2="403" stroke="#6B6B6B" stroke-width="1.4"/>
<rect x="348.5" y="380.0" width="22" height="22" rx="3" fill="#8E2230" stroke="#5E121C" stroke-width="1.3"/><text x="359.5" y="394.96" font-size="11.0" fill="#ffffff" text-anchor="middle" font-weight="bold" font-family="'Helvetica Neue Condensed', 'Arial Narrow', 'Helvetica Neue', Arial, sans-serif" style="font-variant-numeric:tabular-nums" >2</text>
<rect x="386.5" y="380.0" width="22" height="22" rx="3" fill="#EDE3B8" stroke="#C9BE86" stroke-width="1.3"/><text x="397.5" y="394.96" font-size="11.0" fill="#1A1A1A" text-anchor="middle" font-weight="bold" font-family="'Helvetica Neue Condensed', 'Arial Narrow', 'Helvetica Neue', Arial, sans-serif" style="font-variant-numeric:tabular-nums" >5</text>
<rect x="424.5" y="380.0" width="22" height="22" rx="3" fill="#D98C97" stroke="#B5606B" stroke-width="1.3"/><text x="435.5" y="394.96" font-size="11.0" fill="#ffffff" text-anchor="middle" font-weight="bold" font-family="'Helvetica Neue Condensed', 'Arial Narrow', 'Helvetica Neue', Arial, sans-serif" style="font-variant-numeric:tabular-nums" >3</text>
<line x1="562.5" y1="330" x2="581.5" y2="354" stroke="#1A1A1A" stroke-width="1.6"/>
<line x1="562.5" y1="330" x2="524.5" y2="374" stroke="#1A1A1A" stroke-width="1.6"/>
<line x1="581.5" y1="354" x2="562.5" y2="374" stroke="#1A1A1A" stroke-width="1.6"/>
<line x1="581.5" y1="354" x2="600.5" y2="374" stroke="#1A1A1A" stroke-width="1.6"/>
<circle cx="562.5" cy="330" r="3.5" fill="#1A1A1A"/>
<circle cx="581.5" cy="354" r="3.5" fill="#1A1A1A"/>
<line x1="504.5" y1="403" x2="620.5" y2="403" stroke="#6B6B6B" stroke-width="1.4"/>
<rect x="513.5" y="380.0" width="22" height="22" rx="3" fill="#D98C97" stroke="#B5606B" stroke-width="1.3"/><text x="524.5" y="394.96" font-size="11.0" fill="#ffffff" text-anchor="middle" font-weight="bold" font-family="'Helvetica Neue Condensed', 'Arial Narrow', 'Helvetica Neue', Arial, sans-serif" style="font-variant-numeric:tabular-nums" >3</text>
<rect x="551.5" y="380.0" width="22" height="22" rx="3" fill="#8E2230" stroke="#5E121C" stroke-width="1.3"/><text x="562.5" y="394.96" font-size="11.0" fill="#ffffff" text-anchor="middle" font-weight="bold" font-family="'Helvetica Neue Condensed', 'Arial Narrow', 'Helvetica Neue', Arial, sans-serif" style="font-variant-numeric:tabular-nums" >2</text>
<rect x="589.5" y="380.0" width="22" height="22" rx="3" fill="#EDE3B8" stroke="#C9BE86" stroke-width="1.3"/><text x="600.5" y="394.96" font-size="11.0" fill="#1A1A1A" text-anchor="middle" font-weight="bold" font-family="'Helvetica Neue Condensed', 'Arial Narrow', 'Helvetica Neue', Arial, sans-serif" style="font-variant-numeric:tabular-nums" >5</text>
<line x1="727.5" y1="330" x2="746.5" y2="354" stroke="#1A1A1A" stroke-width="1.6"/>
<line x1="727.5" y1="330" x2="689.5" y2="374" stroke="#1A1A1A" stroke-width="1.6"/>
<line x1="746.5" y1="354" x2="727.5" y2="374" stroke="#1A1A1A" stroke-width="1.6"/>
<line x1="746.5" y1="354" x2="765.5" y2="374" stroke="#1A1A1A" stroke-width="1.6"/>
<circle cx="727.5" cy="330" r="3.5" fill="#1A1A1A"/>
<circle cx="746.5" cy="354" r="3.5" fill="#1A1A1A"/>
<line x1="669.5" y1="403" x2="785.5" y2="403" stroke="#6B6B6B" stroke-width="1.4"/>
<rect x="678.5" y="380.0" width="22" height="22" rx="3" fill="#D98C97" stroke="#B5606B" stroke-width="1.3"/><text x="689.5" y="394.96" font-size="11.0" fill="#ffffff" text-anchor="middle" font-weight="bold" font-family="'Helvetica Neue Condensed', 'Arial Narrow', 'Helvetica Neue', Arial, sans-serif" style="font-variant-numeric:tabular-nums" >3</text>
<rect x="716.5" y="380.0" width="22" height="22" rx="3" fill="#EDE3B8" stroke="#C9BE86" stroke-width="1.3"/><text x="727.5" y="394.96" font-size="11.0" fill="#1A1A1A" text-anchor="middle" font-weight="bold" font-family="'Helvetica Neue Condensed', 'Arial Narrow', 'Helvetica Neue', Arial, sans-serif" style="font-variant-numeric:tabular-nums" >5</text>
<rect x="754.5" y="380.0" width="22" height="22" rx="3" fill="#8E2230" stroke="#5E121C" stroke-width="1.3"/><text x="765.5" y="394.96" font-size="11.0" fill="#ffffff" text-anchor="middle" font-weight="bold" font-family="'Helvetica Neue Condensed', 'Arial Narrow', 'Helvetica Neue', Arial, sans-serif" style="font-variant-numeric:tabular-nums" >2</text>
<line x1="892.5" y1="330" x2="911.5" y2="354" stroke="#1A1A1A" stroke-width="1.6"/>
<line x1="892.5" y1="330" x2="854.5" y2="374" stroke="#1A1A1A" stroke-width="1.6"/>
<line x1="911.5" y1="354" x2="892.5" y2="374" stroke="#1A1A1A" stroke-width="1.6"/>
<line x1="911.5" y1="354" x2="930.5" y2="374" stroke="#1A1A1A" stroke-width="1.6"/>
<circle cx="892.5" cy="330" r="3.5" fill="#1A1A1A"/>
<circle cx="911.5" cy="354" r="3.5" fill="#1A1A1A"/>
<line x1="834.5" y1="403" x2="950.5" y2="403" stroke="#6B6B6B" stroke-width="1.4"/>
<rect x="843.5" y="380.0" width="22" height="22" rx="3" fill="#EDE3B8" stroke="#C9BE86" stroke-width="1.3"/><text x="854.5" y="394.96" font-size="11.0" fill="#1A1A1A" text-anchor="middle" font-weight="bold" font-family="'Helvetica Neue Condensed', 'Arial Narrow', 'Helvetica Neue', Arial, sans-serif" style="font-variant-numeric:tabular-nums" >5</text>
<rect x="881.5" y="380.0" width="22" height="22" rx="3" fill="#8E2230" stroke="#5E121C" stroke-width="1.3"/><text x="892.5" y="394.96" font-size="11.0" fill="#ffffff" text-anchor="middle" font-weight="bold" font-family="'Helvetica Neue Condensed', 'Arial Narrow', 'Helvetica Neue', Arial, sans-serif" style="font-variant-numeric:tabular-nums" >2</text>
<rect x="919.5" y="380.0" width="22" height="22" rx="3" fill="#D98C97" stroke="#B5606B" stroke-width="1.3"/><text x="930.5" y="394.96" font-size="11.0" fill="#ffffff" text-anchor="middle" font-weight="bold" font-family="'Helvetica Neue Condensed', 'Arial Narrow', 'Helvetica Neue', Arial, sans-serif" style="font-variant-numeric:tabular-nums" >3</text>
<line x1="1057.5" y1="330" x2="1076.5" y2="354" stroke="#1A1A1A" stroke-width="1.6"/>
<line x1="1057.5" y1="330" x2="1019.5" y2="374" stroke="#1A1A1A" stroke-width="1.6"/>
<line x1="1076.5" y1="354" x2="1057.5" y2="374" stroke="#1A1A1A" stroke-width="1.6"/>
<line x1="1076.5" y1="354" x2="1095.5" y2="374" stroke="#1A1A1A" stroke-width="1.6"/>
<circle cx="1057.5" cy="330" r="3.5" fill="#1A1A1A"/>
<circle cx="1076.5" cy="354" r="3.5" fill="#1A1A1A"/>
<line x1="999.5" y1="403" x2="1115.5" y2="403" stroke="#6B6B6B" stroke-width="1.4"/>
<rect x="1008.5" y="380.0" width="22" height="22" rx="3" fill="#EDE3B8" stroke="#C9BE86" stroke-width="1.3"/><text x="1019.5" y="394.96" font-size="11.0" fill="#1A1A1A" text-anchor="middle" font-weight="bold" font-family="'Helvetica Neue Condensed', 'Arial Narrow', 'Helvetica Neue', Arial, sans-serif" style="font-variant-numeric:tabular-nums" >5</text>
<rect x="1046.5" y="380.0" width="22" height="22" rx="3" fill="#D98C97" stroke="#B5606B" stroke-width="1.3"/><text x="1057.5" y="394.96" font-size="11.0" fill="#ffffff" text-anchor="middle" font-weight="bold" font-family="'Helvetica Neue Condensed', 'Arial Narrow', 'Helvetica Neue', Arial, sans-serif" style="font-variant-numeric:tabular-nums" >3</text>
<rect x="1084.5" y="380.0" width="22" height="22" rx="3" fill="#8E2230" stroke="#5E121C" stroke-width="1.3"/><text x="1095.5" y="394.96" font-size="11.0" fill="#ffffff" text-anchor="middle" font-weight="bold" font-family="'Helvetica Neue Condensed', 'Arial Narrow', 'Helvetica Neue', Arial, sans-serif" style="font-variant-numeric:tabular-nums" >2</text>
<line x1="40" y1="456" x2="1140" y2="456" stroke="#DAD6CC" stroke-width="1"/>
<text x="40" y="478" font-size="14" fill="#1A1A1A" text-anchor="start" font-weight="normal" font-family="'Helvetica Neue Condensed', 'Arial Narrow', 'Helvetica Neue', Arial, sans-serif" style="font-variant-numeric:tabular-nums" >2 nesting shapes × 6 orders = 12 histories, all wearing the single label 30.</text>
<text x="1140" y="478" font-size="11.5" fill="#9E2B25" text-anchor="end" font-weight="bold" font-family="'Helvetica Neue Condensed', 'Arial Narrow', 'Helvetica Neue', Arial, sans-serif" style="font-variant-numeric:tabular-nums" >ℹ  log₂ 12 ≈ 3.6 bits hidden by the label “30”</text>
</svg>
