<svg xmlns="http://www.w3.org/2000/svg" viewBox="0 0 880 470" font-family="Helvetica, Arial, sans-serif">
<rect width="880" height="470" fill="white"/>
<text x="470" y="26" font-size="16" fill="#3A3A3A" text-anchor="middle" font-weight="bold" >order the three bottles: 3 ways</text>
<text x="250" y="58" font-size="14.5" fill="#8C2B33" text-anchor="middle" font-weight="bold" >( 2 , 2 , 3 )</text>
<text x="470" y="58" font-size="14.5" fill="#8C2B33" text-anchor="middle" font-weight="bold" >( 2 , 3 , 2 )</text>
<text x="690" y="58" font-size="14.5" fill="#8C2B33" text-anchor="middle" font-weight="bold" >( 3 , 2 , 2 )</text>
<text x="24" y="100" font-size="12.5" fill="#3A3A3A" text-anchor="start" font-weight="bold" >nest the</text>
<text x="24" y="116" font-size="12.5" fill="#3A3A3A" text-anchor="start" font-weight="bold" >first pair</text>
<text x="24" y="254" font-size="12.5" fill="#3A3A3A" text-anchor="start" font-weight="bold" >nest the</text>
<text x="24" y="270" font-size="12.5" fill="#3A3A3A" text-anchor="start" font-weight="bold" >last pair</text>
<line x1="150" y1="74" x2="790" y2="74" stroke="#9AA0A6" stroke-width="1" opacity="0.5"/>
<line x1="150" y1="228" x2="790" y2="228" stroke="#9AA0A6" stroke-width="1" opacity="0.5"/>
<line x1="150" y1="382" x2="790" y2="382" stroke="#9AA0A6" stroke-width="1" opacity="0.5"/>
<line x1="150" y1="74" x2="150" y2="382" stroke="#9AA0A6" stroke-width="1" opacity="0.5"/>
<line x1="360" y1="74" x2="360" y2="382" stroke="#9AA0A6" stroke-width="1" opacity="0.5"/>
<line x1="580" y1="74" x2="580" y2="382" stroke="#9AA0A6" stroke-width="1" opacity="0.5"/>
<line x1="790" y1="74" x2="790" y2="382" stroke="#9AA0A6" stroke-width="1" opacity="0.5"/>
<line x1="250" y1="92" x2="228.0" y2="118" stroke="#3A3A3A" stroke-width="1.8"/>
<line x1="250" y1="92" x2="290" y2="138" stroke="#3A3A3A" stroke-width="1.8"/>
<line x1="228.0" y1="118" x2="210" y2="138" stroke="#3A3A3A" stroke-width="1.8"/>
<line x1="228.0" y1="118" x2="246" y2="138" stroke="#3A3A3A" stroke-width="1.8"/>
<circle cx="250" cy="92" r="4" fill="#3A3A3A"/>
<circle cx="228.0" cy="118" r="4" fill="#3A3A3A"/>
<path d="M 205.025 157.65 L 205.025 182 L 214.975 182 L 214.975 157.65 Z" fill="#8C2B33" opacity="0.80"/>
<path d="M 203.625 183 L 203.625 155.95 Q 203.625 150.0 207.45 148.3 L 207.45 138.95 L 212.54999999999998 138.95 L 212.54999999999998 148.3 Q 216.375 150.0 216.375 155.95 L 216.375 183 Z" fill="none" stroke="#8C2B33" stroke-width="1.8" stroke-linejoin="round"/>
<rect x="206.85" y="136.39999999999998" width="6.3" height="2.8899999999999997" fill="#8C2B33"/>
<text x="210" y="172.95" font-size="10.2" fill="white" text-anchor="middle" font-weight="bold" >2</text>
<path d="M 241.025 157.65 L 241.025 182 L 250.975 182 L 250.975 157.65 Z" fill="#8C2B33" opacity="0.80"/>
<path d="M 239.625 183 L 239.625 155.95 Q 239.625 150.0 243.45 148.3 L 243.45 138.95 L 248.54999999999998 138.95 L 248.54999999999998 148.3 Q 252.375 150.0 252.375 155.95 L 252.375 183 Z" fill="none" stroke="#8C2B33" stroke-width="1.8" stroke-linejoin="round"/>
<rect x="242.85" y="136.39999999999998" width="6.3" height="2.8899999999999997" fill="#8C2B33"/>
<text x="246" y="172.95" font-size="10.2" fill="white" text-anchor="middle" font-weight="bold" >2</text>
<path d="M 285.025 157.65 L 285.025 182 L 294.975 182 L 294.975 157.65 Z" fill="#8C2B33" opacity="0.80"/>
<path d="M 283.625 183 L 283.625 155.95 Q 283.625 150.0 287.45 148.3 L 287.45 138.95 L 292.55 138.95 L 292.55 148.3 Q 296.375 150.0 296.375 155.95 L 296.375 183 Z" fill="none" stroke="#8C2B33" stroke-width="1.8" stroke-linejoin="round"/>
<rect x="286.84999999999997" y="136.39999999999998" width="6.3" height="2.8899999999999997" fill="#8C2B33"/>
<text x="290" y="172.95" font-size="10.2" fill="white" text-anchor="middle" font-weight="bold" >3</text>
<line x1="470" y1="92" x2="448.0" y2="118" stroke="#3A3A3A" stroke-width="1.8"/>
<line x1="470" y1="92" x2="510" y2="138" stroke="#3A3A3A" stroke-width="1.8"/>
<line x1="448.0" y1="118" x2="430" y2="138" stroke="#3A3A3A" stroke-width="1.8"/>
<line x1="448.0" y1="118" x2="466" y2="138" stroke="#3A3A3A" stroke-width="1.8"/>
<circle cx="470" cy="92" r="4" fill="#3A3A3A"/>
<circle cx="448.0" cy="118" r="4" fill="#3A3A3A"/>
<path d="M 425.025 157.65 L 425.025 182 L 434.975 182 L 434.975 157.65 Z" fill="#8C2B33" opacity="0.80"/>
<path d="M 423.625 183 L 423.625 155.95 Q 423.625 150.0 427.45 148.3 L 427.45 138.95 L 432.55 138.95 L 432.55 148.3 Q 436.375 150.0 436.375 155.95 L 436.375 183 Z" fill="none" stroke="#8C2B33" stroke-width="1.8" stroke-linejoin="round"/>
<rect x="426.84999999999997" y="136.39999999999998" width="6.3" height="2.8899999999999997" fill="#8C2B33"/>
<text x="430" y="172.95" font-size="10.2" fill="white" text-anchor="middle" font-weight="bold" >2</text>
<path d="M 461.025 157.65 L 461.025 182 L 470.975 182 L 470.975 157.65 Z" fill="#8C2B33" opacity="0.80"/>
<path d="M 459.625 183 L 459.625 155.95 Q 459.625 150.0 463.45 148.3 L 463.45 138.95 L 468.55 138.95 L 468.55 148.3 Q 472.375 150.0 472.375 155.95 L 472.375 183 Z" fill="none" stroke="#8C2B33" stroke-width="1.8" stroke-linejoin="round"/>
<rect x="462.84999999999997" y="136.39999999999998" width="6.3" height="2.8899999999999997" fill="#8C2B33"/>
<text x="466" y="172.95" font-size="10.2" fill="white" text-anchor="middle" font-weight="bold" >3</text>
<path d="M 505.025 157.65 L 505.025 182 L 514.975 182 L 514.975 157.65 Z" fill="#8C2B33" opacity="0.80"/>
<path d="M 503.625 183 L 503.625 155.95 Q 503.625 150.0 507.45 148.3 L 507.45 138.95 L 512.55 138.95 L 512.55 148.3 Q 516.375 150.0 516.375 155.95 L 516.375 183 Z" fill="none" stroke="#8C2B33" stroke-width="1.8" stroke-linejoin="round"/>
<rect x="506.84999999999997" y="136.39999999999998" width="6.3" height="2.8899999999999997" fill="#8C2B33"/>
<text x="510" y="172.95" font-size="10.2" fill="white" text-anchor="middle" font-weight="bold" >2</text>
<line x1="690" y1="92" x2="668.0" y2="118" stroke="#3A3A3A" stroke-width="1.8"/>
<line x1="690" y1="92" x2="730" y2="138" stroke="#3A3A3A" stroke-width="1.8"/>
<line x1="668.0" y1="118" x2="650" y2="138" stroke="#3A3A3A" stroke-width="1.8"/>
<line x1="668.0" y1="118" x2="686" y2="138" stroke="#3A3A3A" stroke-width="1.8"/>
<circle cx="690" cy="92" r="4" fill="#3A3A3A"/>
<circle cx="668.0" cy="118" r="4" fill="#3A3A3A"/>
<path d="M 645.025 157.65 L 645.025 182 L 654.975 182 L 654.975 157.65 Z" fill="#8C2B33" opacity="0.80"/>
<path d="M 643.625 183 L 643.625 155.95 Q 643.625 150.0 647.45 148.3 L 647.45 138.95 L 652.5500000000001 138.95 L 652.5500000000001 148.3 Q 656.375 150.0 656.375 155.95 L 656.375 183 Z" fill="none" stroke="#8C2B33" stroke-width="1.8" stroke-linejoin="round"/>
<rect x="646.85" y="136.39999999999998" width="6.3" height="2.8899999999999997" fill="#8C2B33"/>
<text x="650" y="172.95" font-size="10.2" fill="white" text-anchor="middle" font-weight="bold" >3</text>
<path d="M 681.025 157.65 L 681.025 182 L 690.975 182 L 690.975 157.65 Z" fill="#8C2B33" opacity="0.80"/>
<path d="M 679.625 183 L 679.625 155.95 Q 679.625 150.0 683.45 148.3 L 683.45 138.95 L 688.5500000000001 138.95 L 688.5500000000001 148.3 Q 692.375 150.0 692.375 155.95 L 692.375 183 Z" fill="none" stroke="#8C2B33" stroke-width="1.8" stroke-linejoin="round"/>
<rect x="682.85" y="136.39999999999998" width="6.3" height="2.8899999999999997" fill="#8C2B33"/>
<text x="686" y="172.95" font-size="10.2" fill="white" text-anchor="middle" font-weight="bold" >2</text>
<path d="M 725.025 157.65 L 725.025 182 L 734.975 182 L 734.975 157.65 Z" fill="#8C2B33" opacity="0.80"/>
<path d="M 723.625 183 L 723.625 155.95 Q 723.625 150.0 727.45 148.3 L 727.45 138.95 L 732.5500000000001 138.95 L 732.5500000000001 148.3 Q 736.375 150.0 736.375 155.95 L 736.375 183 Z" fill="none" stroke="#8C2B33" stroke-width="1.8" stroke-linejoin="round"/>
<rect x="726.85" y="136.39999999999998" width="6.3" height="2.8899999999999997" fill="#8C2B33"/>
<text x="730" y="172.95" font-size="10.2" fill="white" text-anchor="middle" font-weight="bold" >2</text>
<line x1="250" y1="246" x2="268.0" y2="272" stroke="#3A3A3A" stroke-width="1.8"/>
<line x1="250" y1="246" x2="210" y2="292" stroke="#3A3A3A" stroke-width="1.8"/>
<line x1="268.0" y1="272" x2="246" y2="292" stroke="#3A3A3A" stroke-width="1.8"/>
<line x1="268.0" y1="272" x2="290" y2="292" stroke="#3A3A3A" stroke-width="1.8"/>
<circle cx="250" cy="246" r="4" fill="#3A3A3A"/>
<circle cx="268.0" cy="272" r="4" fill="#3A3A3A"/>
<path d="M 205.025 311.65 L 205.025 336 L 214.975 336 L 214.975 311.65 Z" fill="#8C2B33" opacity="0.80"/>
<path d="M 203.625 337 L 203.625 309.95 Q 203.625 304.0 207.45 302.3 L 207.45 292.95 L 212.54999999999998 292.95 L 212.54999999999998 302.3 Q 216.375 304.0 216.375 309.95 L 216.375 337 Z" fill="none" stroke="#8C2B33" stroke-width="1.8" stroke-linejoin="round"/>
<rect x="206.85" y="290.4" width="6.3" height="2.8899999999999997" fill="#8C2B33"/>
<text x="210" y="326.95" font-size="10.2" fill="white" text-anchor="middle" font-weight="bold" >2</text>
<path d="M 241.025 311.65 L 241.025 336 L 250.975 336 L 250.975 311.65 Z" fill="#8C2B33" opacity="0.80"/>
<path d="M 239.625 337 L 239.625 309.95 Q 239.625 304.0 243.45 302.3 L 243.45 292.95 L 248.54999999999998 292.95 L 248.54999999999998 302.3 Q 252.375 304.0 252.375 309.95 L 252.375 337 Z" fill="none" stroke="#8C2B33" stroke-width="1.8" stroke-linejoin="round"/>
<rect x="242.85" y="290.4" width="6.3" height="2.8899999999999997" fill="#8C2B33"/>
<text x="246" y="326.95" font-size="10.2" fill="white" text-anchor="middle" font-weight="bold" >2</text>
<path d="M 285.025 311.65 L 285.025 336 L 294.975 336 L 294.975 311.65 Z" fill="#8C2B33" opacity="0.80"/>
<path d="M 283.625 337 L 283.625 309.95 Q 283.625 304.0 287.45 302.3 L 287.45 292.95 L 292.55 292.95 L 292.55 302.3 Q 296.375 304.0 296.375 309.95 L 296.375 337 Z" fill="none" stroke="#8C2B33" stroke-width="1.8" stroke-linejoin="round"/>
<rect x="286.84999999999997" y="290.4" width="6.3" height="2.8899999999999997" fill="#8C2B33"/>
<text x="290" y="326.95" font-size="10.2" fill="white" text-anchor="middle" font-weight="bold" >3</text>
<line x1="470" y1="246" x2="488.0" y2="272" stroke="#3A3A3A" stroke-width="1.8"/>
<line x1="470" y1="246" x2="430" y2="292" stroke="#3A3A3A" stroke-width="1.8"/>
<line x1="488.0" y1="272" x2="466" y2="292" stroke="#3A3A3A" stroke-width="1.8"/>
<line x1="488.0" y1="272" x2="510" y2="292" stroke="#3A3A3A" stroke-width="1.8"/>
<circle cx="470" cy="246" r="4" fill="#3A3A3A"/>
<circle cx="488.0" cy="272" r="4" fill="#3A3A3A"/>
<path d="M 425.025 311.65 L 425.025 336 L 434.975 336 L 434.975 311.65 Z" fill="#8C2B33" opacity="0.80"/>
<path d="M 423.625 337 L 423.625 309.95 Q 423.625 304.0 427.45 302.3 L 427.45 292.95 L 432.55 292.95 L 432.55 302.3 Q 436.375 304.0 436.375 309.95 L 436.375 337 Z" fill="none" stroke="#8C2B33" stroke-width="1.8" stroke-linejoin="round"/>
<rect x="426.84999999999997" y="290.4" width="6.3" height="2.8899999999999997" fill="#8C2B33"/>
<text x="430" y="326.95" font-size="10.2" fill="white" text-anchor="middle" font-weight="bold" >2</text>
<path d="M 461.025 311.65 L 461.025 336 L 470.975 336 L 470.975 311.65 Z" fill="#8C2B33" opacity="0.80"/>
<path d="M 459.625 337 L 459.625 309.95 Q 459.625 304.0 463.45 302.3 L 463.45 292.95 L 468.55 292.95 L 468.55 302.3 Q 472.375 304.0 472.375 309.95 L 472.375 337 Z" fill="none" stroke="#8C2B33" stroke-width="1.8" stroke-linejoin="round"/>
<rect x="462.84999999999997" y="290.4" width="6.3" height="2.8899999999999997" fill="#8C2B33"/>
<text x="466" y="326.95" font-size="10.2" fill="white" text-anchor="middle" font-weight="bold" >3</text>
<path d="M 505.025 311.65 L 505.025 336 L 514.975 336 L 514.975 311.65 Z" fill="#8C2B33" opacity="0.80"/>
<path d="M 503.625 337 L 503.625 309.95 Q 503.625 304.0 507.45 302.3 L 507.45 292.95 L 512.55 292.95 L 512.55 302.3 Q 516.375 304.0 516.375 309.95 L 516.375 337 Z" fill="none" stroke="#8C2B33" stroke-width="1.8" stroke-linejoin="round"/>
<rect x="506.84999999999997" y="290.4" width="6.3" height="2.8899999999999997" fill="#8C2B33"/>
<text x="510" y="326.95" font-size="10.2" fill="white" text-anchor="middle" font-weight="bold" >2</text>
<line x1="690" y1="246" x2="708.0" y2="272" stroke="#3A3A3A" stroke-width="1.8"/>
<line x1="690" y1="246" x2="650" y2="292" stroke="#3A3A3A" stroke-width="1.8"/>
<line x1="708.0" y1="272" x2="686" y2="292" stroke="#3A3A3A" stroke-width="1.8"/>
<line x1="708.0" y1="272" x2="730" y2="292" stroke="#3A3A3A" stroke-width="1.8"/>
<circle cx="690" cy="246" r="4" fill="#3A3A3A"/>
<circle cx="708.0" cy="272" r="4" fill="#3A3A3A"/>
<path d="M 645.025 311.65 L 645.025 336 L 654.975 336 L 654.975 311.65 Z" fill="#8C2B33" opacity="0.80"/>
<path d="M 643.625 337 L 643.625 309.95 Q 643.625 304.0 647.45 302.3 L 647.45 292.95 L 652.5500000000001 292.95 L 652.5500000000001 302.3 Q 656.375 304.0 656.375 309.95 L 656.375 337 Z" fill="none" stroke="#8C2B33" stroke-width="1.8" stroke-linejoin="round"/>
<rect x="646.85" y="290.4" width="6.3" height="2.8899999999999997" fill="#8C2B33"/>
<text x="650" y="326.95" font-size="10.2" fill="white" text-anchor="middle" font-weight="bold" >3</text>
<path d="M 681.025 311.65 L 681.025 336 L 690.975 336 L 690.975 311.65 Z" fill="#8C2B33" opacity="0.80"/>
<path d="M 679.625 337 L 679.625 309.95 Q 679.625 304.0 683.45 302.3 L 683.45 292.95 L 688.5500000000001 292.95 L 688.5500000000001 302.3 Q 692.375 304.0 692.375 309.95 L 692.375 337 Z" fill="none" stroke="#8C2B33" stroke-width="1.8" stroke-linejoin="round"/>
<rect x="682.85" y="290.4" width="6.3" height="2.8899999999999997" fill="#8C2B33"/>
<text x="686" y="326.95" font-size="10.2" fill="white" text-anchor="middle" font-weight="bold" >2</text>
<path d="M 725.025 311.65 L 725.025 336 L 734.975 336 L 734.975 311.65 Z" fill="#8C2B33" opacity="0.80"/>
<path d="M 723.625 337 L 723.625 309.95 Q 723.625 304.0 727.45 302.3 L 727.45 292.95 L 732.5500000000001 292.95 L 732.5500000000001 302.3 Q 736.375 304.0 736.375 309.95 L 736.375 337 Z" fill="none" stroke="#8C2B33" stroke-width="1.8" stroke-linejoin="round"/>
<rect x="726.85" y="290.4" width="6.3" height="2.8899999999999997" fill="#8C2B33"/>
<text x="730" y="326.95" font-size="10.2" fill="white" text-anchor="middle" font-weight="bold" >2</text>
<text x="470" y="420" font-size="17" fill="#3A3A3A" text-anchor="middle" font-weight="bold" >2 nesting shapes  ×  3 orders  =  6 ways to build 12</text>
<text x="470" y="447" font-size="15" fill="#8C2B33" text-anchor="middle" font-weight="normal" >one label, six microstates:  S(12) = log 6 ≈ 2.6 bits of forgotten history</text>
</svg>
