<svg xmlns="http://www.w3.org/2000/svg" viewBox="0 0 840 348" font-family="Helvetica, Arial, sans-serif">
<rect width="840" height="348" fill="white"/>
<text x="210" y="42" font-size="19" fill="#8C2B33" text-anchor="middle" font-weight="bold" >OR = addition</text>
<path d="M 210 260 L 210 170 M 210 170 C 210 130 150 120 130 84 M 210 170 C 210 130 270 120 290 84" fill="none" stroke="#8C2B33" stroke-width="7" stroke-linecap="round"/>
<text x="122" y="70" font-size="14" fill="#3A3A3A" text-anchor="middle" font-weight="normal" >roll a 3</text>
<text x="298" y="70" font-size="14" fill="#3A3A3A" text-anchor="middle" font-weight="normal" >roll a 4</text>
<text x="210" y="296" font-size="14.5" fill="#9AA0A6" text-anchor="middle" font-weight="normal" >alternatives, side by side</text>
<text x="210" y="322" font-size="15.5" fill="#3A3A3A" text-anchor="middle" font-weight="normal" >P(3 or 4) = 1/6 + 1/6</text>
<text x="600" y="42" font-size="19" fill="#2B4B8C" text-anchor="middle" font-weight="bold" >AND = multiplication</text>
<line x1="470" y1="240" x2="740" y2="240" stroke="#3A3A3A" stroke-width="2.4"/>
<line x1="470" y1="120" x2="740" y2="120" stroke="#3A3A3A" stroke-width="2.4"/>
<rect x="545" y="128" width="16" height="104" fill="#E8D5D7" stroke="#2B4B8C" stroke-width="2.6"/>
<circle cx="549" cy="182" r="2.6" fill="#2B4B8C"/>
<text x="553" y="108" font-size="14" fill="#3A3A3A" text-anchor="middle" font-weight="normal" >heads</text>
<rect x="655" y="128" width="16" height="104" fill="#E8D5D7" stroke="#2B4B8C" stroke-width="2.6"/>
<circle cx="659" cy="182" r="2.6" fill="#2B4B8C"/>
<text x="663" y="108" font-size="14" fill="#3A3A3A" text-anchor="middle" font-weight="normal" >heads</text>
<line x1="482" y1="180" x2="528" y2="180" stroke="#2B4B8C" stroke-width="3"/><path d="M 528 180 L 519.0 184.3 M 528 180 L 519.0 175.7" stroke="#2B4B8C" stroke-width="3" fill="none" stroke-linecap="round"/>
<line x1="592" y1="180" x2="638" y2="180" stroke="#2B4B8C" stroke-width="3"/><path d="M 638 180 L 629.0 184.3 M 638 180 L 629.0 175.7" stroke="#2B4B8C" stroke-width="3" fill="none" stroke-linecap="round"/>
<line x1="700" y1="180" x2="736" y2="180" stroke="#2B4B8C" stroke-width="3"/><path d="M 736 180 L 727.0 184.3 M 736 180 L 727.0 175.7" stroke="#2B4B8C" stroke-width="3" fill="none" stroke-linecap="round"/>
<text x="600" y="296" font-size="14.5" fill="#9AA0A6" text-anchor="middle" font-weight="normal" >conditions, one inside the other</text>
<text x="600" y="322" font-size="15.5" fill="#3A3A3A" text-anchor="middle" font-weight="normal" >P(heads and heads) = 1/2 × 1/2</text>
</svg>
